<?xml version="1.0" encoding="UTF-8" standalone="no"?>
<!-- Created with Inkscape (http://www.inkscape.org/) -->
<svg id="svg7363" xmlns:rdf="http://www.w3.org/1999/02/22-rdf-syntax-ns#" xmlns="http://www.w3.org/2000/svg" height="886.04919" width="358.70035" version="1.1" xmlns:cc="http://creativecommons.org/ns#" xmlns:dc="http://purl.org/dc/elements/1.1/">
 <metadata id="metadata7368">
  <rdf:RDF>
   <cc:Work rdf:about="">
    <dc:format>image/svg+xml</dc:format>
    <dc:type rdf:resource="http://purl.org/dc/dcmitype/StillImage"/>
    <dc:title/>
   </cc:Work>
  </rdf:RDF>
 </metadata>
 <g id="layer1" transform="translate(-20.999578,-58.980595)">
  <g id="g1247" transform="matrix(0.4205302,0,0,0.57643274,-1371.3647,-926.97158)">
   <g id="g1249" stroke="#FFF" fill="none">
    <path id="path1251" d="m4162.824,1710.564c2.5,82.277-3.5,617.865,0.5,699.865v22c-4,43-1,772.098-0.857,815.118"/>
    <path id="path1253" d="m4156.824,1710.564c1.5,38.277,4.5,530.865,1.5,568.865-1,15-3,29,1,44,1,7,1,14,0,21-2,10-3,20-2,30,2,11,5,22,4,33-7,52-3,789.098-4.396,839.624"/>
    <path id="path1255" d="m4150.824,1710.564c1.5,18.277-0.5,488.865,0.5,506.865,1,8,2,16,3,24,1,5,2,9,3,14,2,16-5,30-7,46-1,11,4,20,6,30,1,10-3,18-4,28v8c8,27,6,53-1,79,0,38,0,762.098-0.01,800.543"/>
    <path id="path1257" d="m4144.824,1710.564c1.5,15.277-0.5,484.865,0.5,499.865,1,6,1,11,2,17,2,11,5,21,7,32,1,5,1,11,0,16-3,12-13,22-10,35,4,11,12,20,9,32-3,11-9,22-6,34,17,23,0,51-1,76-2,36-1,759.098-1.006,794.992"/>
    <path id="path1259" d="m4138.824,1710.564c2.5,19.277-1.5,490.865,1.5,509.865,4,22,18,44,6,66-2,5-7,8-9,12-5,12,7,21,11,31,6,13-4,25-7,37-1,7,3,13,7,18,14,23-4,46-9,68,0,36,0,759.098-0.01,794.832"/>
    <path id="path1261" d="m4132.824,1710.564c1.5,14.277-0.5,481.865,0.5,495.865,3,22,12,40,16,62,1,4-1,7-2,11-4,10-20,17-15,30,5,12,20,22,13,37-2,5-6,10-8,15-6,13,8,21,13,32,7,19-9,35-15,52-1,4-3,8-3,12-1,35,2,755.098,0.812,789.765"/>
    <path id="path1263" d="m4126.824,1710.564c1.5,14.277-0.5,481.865,0.5,495.865,2,10,4,20,8,30,4,8,7,16,9,25,2,5,3,10,2,15-1,3-4,6-6,9-4,4-8,8-13,12-3,2-3,5-4,8-1,6,5,10,8,14,4,3,7,6,10,10,9,15-7,27-11,40-1,2,0,6,2,8,6,6,12,11,15,18,6,14-4,27-10,39-2,4-6,8-8,12-1,2-2,5-2,7-1,36,0,757.098-0.01,793.5"/>
    <path id="path1265" d="m4120.824,1710.564c2.5,12.277-0.5,477.865-0.5,489.865,1,17,9,31,17,46,6,13,13,31-1,42-7,6-21,12-17,23,11,10,30,22,20,39-4,5-8,10-12,15-2,4-3,9,0,12,8,7,18,12,21,23,2,6-1,12-4,17-8,14-19,25-23,41,0,34,0,754.098-0.01,788.5"/>
    <path id="path1267" d="m4114.824,1710.564c1.5,10.277,0.5,474.865,0.5,484.865,0,8,0,16,3,23,7,16,18,31,24,48,1,4,1,9-1,13-4,9-13,14-22,19-6,3-9,11-3,16,9,9,29,15,23,32-3,7-8,12-13,17-3,4-8,8-4,14,7,8,19,10,23,20,6,14-7,24-14,35-1,1-2,1-3,2-6,8-12,16-13,26-1,33,0,753.098-0.113,786.559"/>
    <path id="path1269" d="m4108.824,1710.564c1.172,11.182-0.465,476.001,0.317,487.196,0.674,9.646,3.112,18.959,7.529,27.562,4.152,8.089,9.494,15.48,14.347,23.147,4.542,7.174,9.743,15.156,10.214,23.889,0.533,9.876-6.371,15.141-14.066,19.798-5.269,3.188-23.268,11.006-18.229,19.158,4.423,7.157,12.729,11.619,19.298,16.494,3.229,2.396,6.837,5.076,9.166,8.412,2.172,3.112,0.497,8.242-0.927,11.532-3.31,7.652-9.763,13.454-15.033,19.729-2.688,3.201-5.954,6.628-2.655,10.49,1.979,2.316,4.574,4.09,7.156,5.661,10.472,6.369,25.01,11.314,18.883,26.298-3.646,8.917-11.252,15.976-17.805,22.842-6.008,6.295-15.217,14.205-16.567,23.255-0.808,5.411-0.255,11.32-0.32,16.79-0.069,5.828-0.134,11.656-0.195,17.485-0.122,11.656-0.229,23.313-0.321,34.969-0.095,11.889-0.175,709.877-0.243,721.767"/>
    <path id="path1271" d="m4103.824,1710.564c1.5,12.277-0.5,476.865-0.5,488.865,0,10,3,19,9,27,10,13,18,25,26,39,8,16-9,28-22,33-1,0-3,0-4,1-2,3-6,2-8,5-4,6,1,10,5,13,11,7,24,12,28,24-3,13-15,21-23,31-1,1-1,2-1,3,4,11,18,12,27,18,12,7,3,19-3,27-8,9-17,15-25,24-2,3-4,6-6,9s-3,7-3,10c0,32,2,751.098,1.196,783.559"/>
    <path id="path1273" d="m4097.824,1710.564c2.5,11.277-0.5,474.865-0.5,485.865,1,14,6,26,15,37,11,14,26,26,26,44,0,4-3,8-6,11-8,5-16,9-24,12-3,2-7,4-10,6-4,4,2,7,4,10,10,9,24,13,33,23,1,1,0,4,0,6-6,13-18,21-27,32,2,3,5,4,7,6,9,7,21,8,29,15,4,11-7,18-13,25-9,9-19,15-27,24-2,2-3,4-4,6-2,4-3,7-3,11-1,32,2,751.098,0.805,783.077"/>
    <path id="path1275" d="m4091.824,1710.564c1.5,14.277-0.5,481.865,0.5,495.865,2,14,14,24,23,34,6,7,12,14,16,22,3,5,6,10,6,16,0,4-4,7-7,10s-7,5-11,7c-10,4-20,7-28,14,4,5,8,8,13,12,11,8,33,12,27,29-5,13-19,17-27,28,0,1,1,3,2,4,11,5,23,9,34,14,2,1,3,2,4,4,0,2,1,4,0,6-2,4-5,8-8,12-2,2-4,2-6,4-1,1-1,2-2,3-12,9-24,15-33,28-2,3-3,7-3,10,0,32,0,751.098-0.114,783.559"/>
    <path id="path1277" d="m4085.824,1710.564c1.5,14.277-0.5,481.865,0.5,495.865,2,14,13,24,23,34,2,2,3,5,5,8,9,10,22,22,14,36-9,13-25,14-38,22-1,1-3,2-3,4,1,9,13,11,20,17,3,2,7,2,10,3,2,1,4,2,5,3,3,5,7,10,4,17-2,3-4,6-6,9-2,1-3,3-5,5-6,6-14,9-15,18,6,4,11,6,18,8,2,1,4,2,7,3,1,0,2,1,3,2,1,0,3,1,4,1,13,6,1,18-5,24-11,10-23,17-34,26-1,2-3,3-4,5-2,3-3,7-3,10,0,33,0,753.098-0.118,785.833"/>
    <path id="path1279" d="m4079.824,1710.564c1.5,14.277-0.5,481.865,0.5,495.865,3,17,17,27,28,40,2,2,2,4,3,6,9,7,12,15,14,25,0,2-1,5-2,7-5,4-9,8-15,11-9,3-16,9-25,13-1,1-2,3-1,5,5,8,14,12,22,17,5,2,10,0,15,2,1,1,1,3,2,4-1,0-3,1-3,3,6,10,0,19-8,24,0,5-5,6-9,7-1,0-1,1-2,2-1,2-3,4-3,7v4c10,9,25,9,35,18-3,13-15,21-25,29-10,9-22,16-26,29,0,34,0,754.098-0.01,787.779"/>
    <path id="path1281" d="m4073.824,1710.564c2.5,16.277-0.5,485.865,1.5,501.865,9,15,21,27,33,41,7,9,13,20,9,31-10,10-23,15-35,22-8,4-3,12,2,16,2,1,5,3,7,5,3,2,6,5,10,5,6,0,13,1,19,2v2c-2,2-6,2-7,5s3,5,3,7c0,7-5,10-10,14-2,2-1,5-3,7-1,1-3,1-4,1l-1-1c-1,0-3,1-4,2-2,4-4,7-4,11,1,4,5,5,8,7,9,3,18,6,26,12,1,1,1,3,1,4-4,10-14,16-22,24-10,8-22,14-28,26,0,35-1,757.098-1.246,791.618"/>
    <path id="path1283" d="m4067.824,1710.564c1.5,11.277-0.5,474.865,0.5,485.865,0,5-2,11,1,16,2,4,4,7,6,11,12,16,27,27,36,45,2,4,1,9,1,13-1,6-6,9-10,12-10,7-23,9-30,20,3,9,13,13,20,19,6,3,12,2,19,1,2,0,4,1,6,2,1,0,2,1,1,2-3,3-8,2-11,5-1,3,3,6,3,10-1,5-3,10-9,9-1,2-2,4-2,6-1,5-5,4-9,3-3,4-6,9-5,14,0,3,5,5,8,6,8,3,19,6,24,13,1,10-9,16-15,21-13,11-27,18-34,33,0,34,0,755.098-0.11,789.535"/>
    <path id="path1285" d="m4061.824,1710.564c3.292,18.173-4.922,492.087,5.207,508.886,5.304,8.798,13.628,16.307,20.396,23.993,6.413,7.283,14.599,15.369,18.198,24.518,8.115,20.631-18.83,28.959-31.558,38.573-2.932,2.215-7.244,4.979-6.855,9.218,0.283,3.081,3.078,5.411,5.308,7.221,6.558,5.324,12.828,11.22,21.575,12.398,3.844,0.518,7.741,0.331,11.605,0.205,2.072-0.068,10.338-0.996,11.625,0.922,1.846,2.751-4.206,4.104-5.639,4.406-4.065,0.858-6.736,2.69-10.361,4.525,4,3.995,4.321,10.526,0.932,15.009-0.932,1.991-3.932,1.991-5.932,1.991s-2,3-2,5c-1,6-6,3-10,4-5,1-2,9-5,13,1,0,1,1,1,2,7,6,16,8,24,11,2,1,5,3,6,5,4,9-7,15-13,21-4,3-8,7-12,10s-8,4-11,7c-1,2-3,3-5,5s-3,4-4,6-3,5-3,7c0,34,0,754.098-0.112,788.455"/>
    <path id="path1287" d="m4055.824,1710.564c1.5,11.277-0.5,474.865,0.5,485.865,0,5-2,11,1,16,2,4,4,8,6,11,3,3,5,7,8,10,12,13,29,25,30,43,0,5-2,10-6,13-10,8-22,13-31,22-1,1-2,3-2,5,3,8,11,13,18,18,9,5,18,2,27,2,3,0,6,1,9,2-4,4-10,4-16,5-2,0-4,2-4,3,1,6,5,13-2,17-2,1-3-3-5,0-2,4,0,11-6,10l-1-2c-5-1-4,6-5,10,0,0-1,1-2,1-3,3,0,6,2,7,10,4,20,8,29,13-1,10-12,17-19,23-9,7-17,13-25,20-2,2-3,4-4,7s-2,7-3,10c-1,33,1,752.098,0.791,784.722"/>
    <path id="path1289" d="m4049.824,1710.564c1.5,11.277-0.5,474.865,0.5,485.865,0,5-2,11,1,16s5,10,8,14c13,16,34,29,35,51,0,2-1,4-2,6-9,12-22,18-31,29-3,4,0,10,3,13,4,4,7,8,11,10,9,6,19,4,29,4,1,0,3,1,3,2-4,4-10,4-15,5-2,1-3,3-2,5,0,1,2,1,2,2,0,4,1,8,0,11-1,1-5,4-7,1-2,3-1,9-4,11-1,0-2-1-3-3-1-1-3,0-4,1-2,4,0,9-4,13,6,7,17,8,25,13,9,8-5,16-10,22-1,1-3,1-4,2-6,6-13,10-19,16-1,2-3,3-5,5s-3,6-6,8c-1,36-1,758.098-1.256,793.87"/>
    <path id="path1291" d="m4043.824,1710.564c3.5,18.277-5.5,491.865,5.5,508.865,12,16,25,27,36,44,1,2,2,5,2,7v7c0,2-1,5-2,7-7,11-17,17-25,26-9,10,3,21,11,28,2,2,4,3,6,3,6,1,12-1,18,1,0,0,1,1,1,2-1,1-2,2-3,3-3,0-6,0-8,3-1,6,3,12-1,18-1,0-1,1-2,1l-1-1c-1,0-1,1-2,1-2,2,0,5-1,7-1,3-5,0-7,1-3,3-2,8-4,12,0,1,0,2,1,3,7,5,18,6,22,13,3,5-4,9-7,12-12,11-25,19-36,32-1,2-2,5-2,7-5,35,0,756.098-1.19,790.941"/>
    <path id="path1293" d="m4037.824,1710.564c2.5,16.277-2.5,485.865,2.5,501.865,2,9,10,16,17,23,1,1,1,3,2,4,12,12,27,26,19,44-3,5-6,10-10,15-2,1-4,3-5,5-1,1-2,1-3,2-11,11-4,26,6,35,5,4,11,3,17,4,2,0,4,1,4,2,0,2-2,3-3,4-2,2-6,0-5,3,1,7,2,16-5,19-2,2,0,6-3,8h-3c-1,0-2,1-2,2,0,3-2,5-3,7-2,6,5,8,9,10,2,1,5,2,7,3,5,2,7,7,3,11-6,4-12,8-16,14-12,6-23,16-28,29,0,35,0,755.098-0.01,790.5"/>
    <path id="path1295" d="m4032.824,1710.564c2.5,18.277-3.5,489.865,3.5,506.865,5,10,14,18,22,26,7,8,14,17,16,28,1,4-1,7-1,10-3,12-13,19-19,29-1,3-4,6-4,9,1,4,2,9,4,13s5,8,9,11c2,1,3,2,5,3,3,1,5,1,8,1,1,0,2,2,1,3-5,4-5,8-3,13,1,4-2,8-3,12,0,1-2,1-2,2-1,5-5,6-8,10-2,4-2,8,2,11,2,1,4,1,6,2,4,4,11,8,5,14-3,3-6,5-9,8-13,11-31,19-32,37-3,34,1,754.098-0.19,787.941"/>
    <path id="path1297" d="m4026.824,1710.564c2.5,20.277-5.5,494.865,7.5,512.865,14,18,39,33,32,58-5,16-20,28-17,45,0,6,3,12,7,17,1,2,3,3,4,4,2,2,5,1,7,3,1,1,2,3-1,6,5,11,0,24-8,33-7,10,8,13,11,20,1,2-1,4-2,6-12,10-25,17-35,28-2,3-2,7-5,10,0,36,0,758.098-0.118,793.833"/>
    <path id="path1299" d="m4020.824,1710.564c3.087,17.922-3.803,491,4.749,507.949,7.485,14.835,23.475,23.59,31.066,38.562,8.968,17.687-0.779,36.997-8.476,53.305-0.99,2.096-2.468,4.386-2.876,6.649-0.433,2.403,0.055,5.306,0.438,7.689,0.799,4.98,2.524,9.765,4.58,14.354,4.041,9.02,11.272,17.734,12.201,27.804,0.95,10.295-3.996,18.61-9.078,27.044-2.896,4.806,1.125,7.369,4.514,10.479,2.287,2.099,6.884,6.368,4.921,9.492-2.773,4.415-8.392,7.413-12.522,10.346-4.279,3.039-8.474,6.194-12.611,9.423-3.939,3.074-9.142,6.153-12.392,9.941-1.445,1.684-0.667,3.218-1.262,5.333-0.681,2.419-2.142,4.665-2.853,7.119-2.233,7.708-0.747,16.99-0.66,24.945,0.098,8.847,0.183,17.694,0.256,26.541,0.149,17.911,0.251,721.92,0.316,739.832"/>
    <path id="path1301" d="m4014.824,1710.564c1.55,10.744-0.252,475.105-0.271,485.876-0.018,10.303,2.374,19.533,8.258,28.05,10.327,14.948,28.33,26.603,30.017,46.182,0.865,10.039-3.826,20.074-6.863,29.432-3.028,9.33-5.742,19.088-4.642,28.991,1.136,10.219,7.082,18.748,10.438,28.256,3.377,9.568,4.489,20.79,0.778,30.46-1.048,2.73-3.459,4.419-4.621,7.042-1.219,2.753,0.184,5.782,1.904,8.035,3.007,3.937,9.508,8.794,4.134,13.678-11.939,10.85-27.034,17.342-37.633,29.863,4.171-0.76,1.189,5.227,0.344,6.688-3.344,36.312-0.344,757.41-1.35,793.812"/>
    <path id="path1303" d="m4008.824,1710.564c2.5,11.277-1.5,475.865-0.5,486.865,1,12,4,24,13,34,4,4,8,8,11,13l5,5c7,11,10,23,6,35-6,20-9,41-3,62,3,8,7,15,8,23,1,11-5,22-5,33,0,2,3,3,4,5,4,7-2,11-7,15-12,7-22,14-32,23v2c1,0,4,0,4,1-4,7-4,15-4,23-1,30-1,746.098,0.509,775.791"/>
    <path id="path1305" d="m4002.824,1710.564c2.5,19.277-3.5,492.865,5.5,510.865l3,3c3,3,2,6,5,9,10,9,19,20,21,34,0,5,1,10,1,15-1,5-4,10-5,15,0,13-2,25,0,38,2,19,9,37,6,56-1,4-3,7-2,11,1,3,2,5,3,8,3,6-4,10-8,13-8,4-14,8-21,13-4,3-9,7-12,11,2,2,4-1,6,0,1,1,2,2,1,3s-3,2-3,4c0,36,0,757.098-0.116,793.077"/>
    <path id="path1307" d="m3996.824,1710.564c2.5,13.277-0.5,480.865,0.5,493.865,1,7,3,13,6,19,9,17,27,30,26,51,0,2,2,4,2,6,0,9-5,18-3.817,27.38-0.117-0.155-0.311-0.308-0.463-0.43,2.279,2.05,1.279,5.05,2.279,7.05,0,7-2,14-1,21,2,22,8,43,4,65,0,4,3,7,2,11,0,2-1,4-2,6-13,11-28,17-40,29,0,0,1,1,1,2,1-1,3-1,5-1,1,0,3,0,2,3-1,1-3,2-3,3-1,36,0,757.098-0.414,793.5"/>
    <path id="path1309" d="m3990.824,1710.564c2.5,18.277-3.5,489.865,3.5,506.865,5,12,15,21,22,33,4,9,5,18,6,27,0,1,2,4,2,5-3,8-4,17-1.999,25.162-0.001-1.162-0.001-1.162-0.001-2.162,6,9,3,22,0,32v7c3,14,5,27,6,41,0,10-1,20-1,30,0,2-2,3-3,4-13,7-24,17-37,24-2,1-3,4-4,6,4.097-0.03,7.903-1.97,12-2-1,1-2,1-2,2-1,2-2,3-2,5-1,35,0,757.098-0.417,792.452"/>
    <path id="path1311" d="m3984.824,1710.564c1.5,15.277-0.5,482.865,0.5,497.865,0,5,3,10,5,15,6,10,15,18,20,29,3,7,5,13,3,21,5,6,3,12,1.712,18.828-0.083-0.221-0.162-0.456-0.225-0.684,3.513,4.856-1.487,10.856,1.513,16.856,1-1,2-3,3-4,0,11,6,24-2,34,0,15,3,31,2,46,4,10,5,22,0,32-3,5-9,7-13,11-11,7-21,14-31,21,1,1,2,2,3,2,4,1,6-6,10.58-3.466-0.58,1.466-2.58,2.466-2.58,3.466-3,37,0,760.098-1.006,796.618"/>
    <path id="path1313" d="m3978.824,1710.564c2.5,19.277-3.5,491.865,3.5,509.865,4,11,11,20,16,31,1,2,1,5,2,7,1,8,1,15,4,23,1,7-1,14-1,21,0,1,1,3,1,4,0.667-0.667,1.333-1.333,2-2,1,3,2,6,2,9-1,27-3,55,5,82-2,9,1,20-7,27-12,9-27,15-36,27,4.078-0.01,8.07-1.013,12-2,0,4-4,7-4,11-1,34,2,755.098,0.815,788.665"/>
    <path id="path1315" d="m3972.824,1710.564c-1.5,28.277-0.5,509.865,12.5,535.865,4,9,3,19,3,28,0,2,2,4,3,6,0,8-3,16,1,24,1,0,3,0,3,1,1,10,3,21-1,31,3,19,3,39,9,57-2,6,1,12,1,18-1,10-10,14-18,20-6,3-11,6-16,10-2,2-7,5-4,8,2,2,8-5,10,0,0,2-3,4-3,6-1,35,0,757.098-0.415,791.618"/>
    <path id="path1317" d="m3966.824,1710.564c-0.5,13.277-1.5,478.865-0.5,491.865,2,19,7,37,9,56,0,6,1,11,1,17l2,1c1,9-1,18,2,27l2,1c2,4,2,8,1,12-1,20,3,40,5,60,1,10,5,18,7,28s-3,18-11,23c-9,5-18,11-24,20,3,2,7,0,10,1-1,2-3,4-3,6,0,36,0,757.098-0.413,792.608"/>
    <path id="path1319" d="m3961.824,1710.564c2.5,19.277-1.5,492.865-0.5,511.865,1,18,1,35,2,53,1,6,3,12,3,18,0,4,3,8,3,12,3,19,4,36,6,55,2,15,5,29,10,43,8,21-17,28-29,40-1,1-2,3,0,5,1,1,3-1,4-1,5,1,2,8,2,12-3,34,1,754.098-0.19,787.941"/>
    <path id="path1321" d="m3955.824,1710.564c3.5,35.277-6.5,523.865-4.5,558.865,0,8,2,15,3,23,1,7,4,13,5,20,3,23,5,45,11,67,2,8,3,16,7,24,2,3,1,7,2,10,0,2,0,4-1,6-8,10-20,14-28,24-2,4,2,5,6,5,1,0,2,2,2,3s-2,2-2,3c0,35,0,757.098-0.414,792.5"/>
    <path id="path1323" d="m3949.824,1710.564c5.5,32.277-5.5,515.865-10.5,546.865-3,16,1,31,6,46,6,22,6,45,12,68,4,13,9,24,12,38,3,13-9,19-17,26-2,3-6,5-7,9s4,2,4,4c5,38,0,761.098,1.156,798.87"/>
    <path id="path1325" d="m3943.824,1710.564c2.5,21.277,1.5,496.865-5.5,517.865-3,7-6,13-9,20-4,10-4,21-2,32,5,25,14,48,17,73,3,17,9,32,15,48,5,12,2,24-9,31-3,1-4,3-6,5-1,3-5,5-4,8l4,4c0,37,0,761.098,0.124,797.706"/>
    <path id="path1327" d="m3937.824,1710.564c4.5,26.277,0.5,506.865-16.5,529.865-7,11-9,24-6,36,7,27,16,52,20,80,2,18,10,34,17,50,6,14-6,24-15,33-1,1-3,3-2,5,1,3,4,4,4,6-5,37,1,760.098-1.193,796.833"/>
    <path id="path1329" d="m3931.824,1710.564c2.5,18.277,3.5,490.865-3.5,507.865-5,10-13,17-20,26-8,11-8,25-4,37,8,20,15,39,19,60,1,9,3,17,5,26,0,1,2,2,2,3,2,7,4,14,7,20,5,11,11,23,6,35-4,8-14,11-13,21,0,1,1,1,2,2,2,4,0,8,0,11-3,34,1,754.098-0.188,787.765"/>
    <path id="path1331" d="m3926.824,1710.564c1.5,17.277,1.5,488.865-3.5,505.865-12,16-34,28-33,50,0,18,10,33,17,50,4,11,6,23,6,35,4,9,6,19,11,28,1,2,0,3,1,5,10,17,17,39,2,54,0,41,0,767.098-0.01,808.586"/>
    <path id="path1333" d="m3920.824,1710.564c2.5,21.277,5.5,498.865-11.5,514.865-11,9-23,17-31,30-2,3-1,7-1,11,2,7,3,14,6,21,9,20,19,40,21,62,1,6,3,11,5,17,7,18,19,34,20,54,0,3-2,7-3,10-1,2-3,4-4,6s-2,5-2,7c0,39,0,764.098,0.565,803.524"/>
    <path id="path1335" d="m3914.824,1710.564c1.5,17.277,2.5,488.865-5.5,504.865-7,14-24,19-36,30-3,3-4,6-7,9-3,5-2,10,0,15,5,18,14,33,23,50,1,3,2,6,2,9,1,28,17,52,27,77,2,7,3,14,2,21s-4,13-5,19c-1,39,0,763.098-0.05,802.085"/>
    <path id="path1337" d="m3908.824,1710.564c1.5,13.277,2.5,479.865,0.5,493.865-1,2-2,4-3,7-6,13-20,20-31,29-1,2-3,3-5,5-7,7-10,17-8,27,0,1,2,2,2,3,1,5,4,9,6,13,3,9,7,17,11,26,4,12,5,24,9,37,4,17,12,33,18,49,4,11,5,23,1,35,0,42,0,770.098-0.152,811.746"/>
    <path id="path1339" d="m3902.824,1710.564c1.5,18.277,5.5,492.865-6.5,508.865-7,9-16,15-26,22-14,9-15,25-9,39,1,2,3,4,4,7,0,2,0,3,1,5,5,11,11,22,13,34,1,12,2,25,6,36,8,18,14,35,17,54,1,10-2,19-1,28,1,4,1,8,1,12,2,35,1,755.098,0.994,790.452"/>
    <path id="path1341" d="m3896.824,1710.564c1.5,20.277,5.5,495.865-8.5,511.865-9,9-21,15-29,26-7,11-5,24-1,35s11,21,13,32c7,26,8,52,18,76,2,5,3,11,4,17,0,12,1,24,2,36,2,39,2,764.098,1.932,802.665"/>
    <path id="path1343" d="m3890.824,1710.564c2.5,19.277,5.5,494.865-7.5,510.865-10,11-21,19-29,31-1,2-1,5-3,7-1,1-1,3-1,4,2,9,4,18,7,27,4,10,9,20,10,31,3,19,3,37,9,55,4,10,6,20,8,31,1,10-1,19,1,29,1,5,3,10,4,15,2,37,2,759.098,2.199,795.989"/>
    <path id="path1345" d="m3884.824,1710.564c1.5,18.277,4.5,489.865-4.5,506.865-3,4-6,8-9,12-5,5-10,9-15,14-17,18-4,42,1,62,9,33,10,64,18,98,2,10,1,19,1,29,1,7,6,12,6,19,3,37,3,759.098,3.207,795.87"/>
    <path id="path1347" d="m3878.824,1710.564c1.5,17.277,1.5,488.865-3.5,505.865-11,15-28,27-32,46,1,17,8,33,12,50v5c1,3,2,5,2,8,0,9,0,19,1,28,5,26,8,50,9,76,0,2,1,5,2,7s2,4,3,7c1,2,3,4,4,6s2,4,2,6c1,35,1,757.098,1.243,791.87"/>
    <path id="path1349" d="m3872.824,1710.564c2.5,16.277,0.5,485.865-1.5,502.865-1,2-2,5-3,7-10,13-22,24-24,40-3,17,4,32,8,48,2,15,0,29,1,44,2,25,4,51,5,76,0,2,1,5,2,7,5,8,12,15,13,25,1,34,0,753.098,0.396,786.833"/>
    <path id="path1351" d="m3866.824,1710.564c1.5,16.277,2.5,486.865-1.5,502.865-4,12-10,21-17,32-3,5-4,11-5,17-1,13,4,26,5,39,0,9,1,19,2,28,1,32-2,64-1,96,0,8,6,13,10,19,1,1,2,1,3,2,2,2,4,4,4,6,0,36,2,759.098,0.919,794.833"/>
    <path id="path1353" d="m3860.824,1710.564c1.5,17.277,0.5,486.865-0.5,503.865-6,14-14,28-16,43,0,6-1,13-1,19,5,52-2,103-2,154,3,7,9,11,14,16,1,2,3,3,3,5,5,37,3,759.098,3.237,795.452"/>
    <path id="path1355" d="m3855.824,1710.564c3.5,29.277-2.5,511.865-11.5,539.865-2,5-1,9-1,14-1,40-3,80-9,121,0,6-1,13-1,19-1,4-1,8-2,12-4,17,12,25,22,36,1,2,2,4,2,6,1,34,1,754.098,1.23,788.5"/>
    <path id="path1357" d="m3849.824,1710.564c1.5,11.277,0.5,476.865,0.5,487.865-1,9-2,19-3,28-6,45-8,88-15,134-4,20-9,38-11,57,0,8,3,16,10,21,8,5,14,10,18,18,0,35,2,756.098,1.227,790.608"/>
    <path id="path1359" d="m3843.824,1710.564c0.5,39.277,1.5,530.865-3.5,569.865-1,8-4,16-5,24-1,16-5,30-7,46-2,11-5,21-9,31-4,11-3,22-6,33-1,4-1,7,0,11,2,4,4,8,8,11,7,5,15,9,20,16,1,2,2,5,2,7,1,34,1,754.098,1.227,787.608"/>
    <path id="path1361" d="m3837.824,1710.564c-0.5,36.277,1.5,524.865,0.5,560.865-5,16-9,31-10,48-2,18-8,35-13,53-1,6-3,11-5,17-4,15-10,34,4,46,9,7,19,11,23,21,2,7,1,14,1,21-2,28,0,742.098-0.533,770.116"/>
    <path id="path1363" d="m3831.824,1710.564c-0.5,28.277,0.5,509.865,3.5,537.865,0,6,1,11,0,17-2,11-6,20-9,31-8,40-19,75-27,115-2,9,1,18,8,24,10,7,22,12,25,24-1,34-1,754.098-0.508,787.929"/>
    <path id="path1365" d="m3825.824,1710.564c-0.5,29.277,1.5,510.865,5.5,539.865,1,15-1,29-10,42-2,3-2,6-3,9-4,26-11,49-17,74-5,19-19,40-4,57,10,10,27,13,28,29,1,33,0,753.098,0.499,785.657"/>
    <path id="path1367" d="m3819.824,1710.564c-0.5,32.277,1.5,516.865,8.5,549.865,1,4,1,8-1,12-1,2-2,4-3,7-3,6-8,10-10,16-7,32-15,61-24,91-5,14-10,31-1,45,2,1,3,3,5,5,9,6,19,10,24,19,3,35-1,757.098,1.532,791.608"/>
    <path id="path1369" d="m3813.824,1710.564c-2.5,32.277,2.5,515.865,10.5,547.865,3,14-8,23-14,34-1,2-1,5-3,7-1,3-2,5-2,8-1,25-11,47-19,71-2,5-5,10-7,15-2,11-3,23,1,34,5,10,16,13,25,19,3,2,4,5,6,7,2,3,3,7,3,11,1,32,0,751.098-0.294,783.077"/>
    <path id="path1371" d="m3807.824,1710.564c1.5,17.277-1.5,487.865,0.5,504.865,2,19,15,35,11,54,0,4-3,7-5,11-3,5-7,8-9,13-1,2-4,4-5,6-3,24-10,47-18,69-4,10-9,18-11,28-1,7-2,15-1,22,1,5,3,9,6,13,10,9,25,13,31,26,0,35,0,755.098,0.492,789.929"/>
    <path id="path1373" d="m3801.824,1710.564c2.5,18.277-1.5,489.865,1.5,507.865,2,14,8,25,10,39,2,15-8,26-17,36-1,2-2,5-3,7-4,15-4,31-9,46s-11,30-15,45c-4,13-5,29,5,39,9,8,21,14,27,25,0,35,0,756.098,0.127,791.5"/>
    <path id="path1375" d="m3795.824,1710.564c1.5,17.277-1.5,487.865,1.5,504.865,1,13,5,24,8,37,2,10,2,19-4,27-5,6-10,12-14,18-1,3-4,6-4,10,0,18-5,36-10,54-8,22-16,47,0,68,6,8,15,12,21,21,1,2,2,5,2,7,0,7-2,15-1,22,2,28,0,741.098,0.786,767.755"/>
    <path id="path1377" d="m3789.824,1710.564c2.5,13.277-1.5,479.865-0.5,492.865,2,17,5,33,9,50,1,8,2,16-2,23-5,9-13,15-18,24-5,11-3,23-5,35-4,18-6,34-14,50,2,15,1,30,11,43,8,10,19,18,20,32,1,33,0,753.098-0.208,786.574"/>
    <path id="path1379" d="m3784.824,1710.564c-0.5,21.277-1.5,494.865,1.5,515.865,2,11,6,21,5,32,0,9,1,20-9,27-10,9-15,21-15,33-1,23-7,44-12,67,0,2-1,5,0,7,4,8,6,16,8,25,2,13,12,21,19,32,3,37,2,761.098,2.812,797.706"/>
    <path id="path1381" d="m3778.824,1710.564c-0.5,28.277-0.5,509.865,5.5,538.865,2,12,2,25-7,34-13,12-18,27-20,43-1,19-3,38-7,56,2,6,4,11,6,16,5,12,4,24,12,35,2,2,4,3,5,6,0,4,4,6,4,10,1,37,2,761.098,1.823,797.677"/>
    <path id="path1383" d="m3772.824,1710.564c-1.5,34.277,1.5,520.865,5.5,554.865-4,15-15,25-25,38-1,2-2,5-3,8-1,15,1,30-2,46v10c-1,4-1,9-2,13,0,1,0,3,1,4,5,9,10,17,11,28,0,12,8,23,13,34,0,38,2,763.098,1.491,800.618"/>
    <path id="path1385" d="m3766.824,1710.564c-1.5,33.277,1.5,520.865,4.5,553.865,0,3,0,6-1,8-7,14-20,25-27,39-3,22-2,43-3,65,0,7,7,12,11,18,3,6,3,13,3,20,1,4,1,8,3,11s3,7,4,10c0,1,1,2,2,3,2,4,1,8,2,12,2,37,0,760.098,1.515,796.992"/>
    <path id="path1387" d="m3760.824,1710.564c-1.5,25.277-0.5,504.865,1.5,529.865,2,12,4,24-1,35-6,12-17,21-24,33-2,3-3,7-3,11,0,19-2,38,1,58,1,2,2,3,3,5,4,5,11,8,12,15,0,5,0,9,1,14s1,10,3,15c1,1,2,3,2,4,0,6,3,11,3,17,1,38,2,762.098,1.935,799.832"/>
    <path id="path1389" d="m3754.824,1710.564c-0.5,33.277,1.5,520.865,3.5,553.865-3,17-18,27-26,41-11,19-6,41-6,62,0,6,4,10,8,14,2,2,4,2,6,4,8,8,6,20,7,30,1,9,4,17,5,26,4,40,3,766.098,3.282,805.897"/>
    <path id="path1391" d="m3748.824,1710.564c0.5,20.277,0.5,492.865,1.5,512.865,0,17,1,34-1,51-5,8-11,15-18,22-7,8-11,17-12,27-1,16-1,32,0,48,0,1,1,3,2,3s1-1,2-1,3,0,4,1c6,6,14,11,15,20,2,11,2,23,3,34,4,45,4,775.098,3.95,818.832"/>
    <path id="path1393" d="m3742.824,1710.564c0.5,35.277,1.5,524.865,0.5,559.865,0,2-2,5-3,7-10,14-22,25-28,40-3,7,1,14,0,22-2,8-1,15-1,22,1,5,0,10,5,14,0-1,1-1,1-2,1-1,3-2,4-1,5,5,11,9,16,15,2,3,3,6,3,9,2,39,2,77,3,116,0,16,0,718.098-0.092,734.559"/>
    <path id="path1395" d="m3736.824,1710.564c2.5,33.277,0.5,518.865,0.5,551.865-1,5-1,10-3,14-7,12-19,20-27,32-1,2-2,5-2,7-1,20-4,39,0,60,0,1,2,1,3,1,3-1,5-6,9-5l1,2c8,5,17,10,17,19,3,56,1,799.098,1.433,854.63"/>
    <path id="path1397" d="m3730.824,1710.564c2.5,35.277-0.5,524.865,0.5,559.865-6,15-18,24-28,37-2,3-5,6-5,10-1,14-1,27,0,41,1,5,0,10,3,15l2,1c11-7,22,2,27,12,1,2,2,4,2,6-1,56-1,799.098-1.441,854.932"/>
    <path id="path1399" d="m3724.824,1710.564c2.5,28.277-1.5,508.865,2.5,536.865,2,14,0,29-11,40-11,10-21,20-24,35-2,14,0,27,1,41,0,3,2,5,3,7,1,1,3,2,4,2,13-4,25,7,26,19,2,14,0,29,0,43-2,42-1,770.098-1.429,812.518"/>
    <path id="path1401" d="m3718.824,1710.564c1.5,18.277-0.5,488.865,0.5,506.865,2,17,3,35,3,52-5,13-15,22-25,31-16,15-10,38-10,57,0,2,0,5,2,7s4,5,6,5c14-2,25,10,27,22,1,14-1,28-2,42-3,43,0,771.098-1.007,813.992"/>
    <path id="path1403" d="m3713.824,1710.564c-0.5,22.277-1.5,498.865,0.5,520.865,2,18,8,38-5,53-7,7-15,13-22,21-5,8-7,16-7,25,0,10,0,21,3,31,1,4,5,4,7,7,11-2,18,6,25,13,5,6,5,14,4,22-10,54-6,791.098-5.702,843.83"/>
    <path id="path1405" d="m3707.824,1710.564c-1.5,31.277-0.5,514.865,4.5,545.865,2,13-3,23-12,32-10,9-23,17-25,32-1,10,0,20,1,30,0,3,2,7,3,10,1,2,2,4,4,5,4,2,8,1,12,3,10,3,18,13,19,24,1,6,0,11-1,17-11,52-4,787.098-5.588,837.779"/>
    <path id="path1407" d="m3701.824,1710.564c-0.5,11.277-1.5,476.865-0.5,487.865s2,23,3,34c2,17,11,39-5,52-8,6-14,13-21,19-3,3-5,6-6,9-5,10-2,21-2,31,1,5,2,11,5,16,1,2,2,3,4,4,7,4,15,2,21,9,3,5,8,8,9,14,0,6,1,13,0,19-4,22-8,42-9,63,0,31,2,748.098,1.272,778.794"/>
    <path id="path1409" d="m3695.824,1710.564c-1.5,30.277,0.5,511.865,6.5,541.865,2,9,3,18-2,26-8,10-18,15-27,24-13,15-11,36-4,53,3,5,10,7,16,9,8,3,13,8,18,15,1,2,2,4,2,6,1,20-8,39-9,59-1,39,0,763.098-0.01,802.452"/>
    <path id="path1411" d="m3689.824,1710.564c1.5,17.277-1.5,487.865,1.5,504.865,1,13,6,24,8,37,1,10,1,21-7,29-10,11-25,16-31,30-5,13-3,28,3,40,1,2,3,3,4,5,1,1,2,1,3,1,2,1,3,3,5,4,11,4,21,10,25,21,1,22-6,42-11,63,0,38,0,763.098-0.01,801.543"/>
    <path id="path1413" d="m3683.824,1710.564c0,11.643-0.111,476.88,0,488.522,0.108,11.087,2.212,21.98,4.926,32.694,2.7,10.657,6.115,21.52,6.43,32.594,0.26,9.111-5.28,15.785-11.823,21.456-6.905,5.983-14.721,10.968-21.139,17.501-6.937,7.06-9.401,14.628-8.413,24.452,0.818,8.131,2.727,16.619,7.995,23.089,5.551,6.817,13.9,9.076,21.043,13.7,7.382,4.779,14.141,11.5,14.773,20.701,0.618,8.995-2.35,18.311-4.448,26.966-2.658,10.962-6,21.838-7.759,32.996-1.729,10.972-1.935,22.117-1.771,33.202,0.407,27.583,0.384,741.202,0.216,768.789"/>
    <path id="path1415" d="m3678.824,1710.564c2.199,21.393-2.44,496.96,3.243,517.999,2.748,10.174,7.191,19.403,8.697,29.976,1.469,10.32-1.406,18.889-9.192,25.856-12.392,11.089-33.474,18.493-33.237,38.213,0.118,9.801,2.363,20.711,10.031,27.561,6.166,5.508,14.353,8.645,21.182,13.239,6.36,4.279,13.891,10.771,13.83,19.042-0.075,10.165-2.681,20.088-5.462,29.795-2.807,9.799-5.933,19.595-7.143,29.755-1.338,11.237-1.715,22.691-2.226,33.991-1.28,28.31-1.243,742.757-0.938,771.087"/>
    <path id="path1417" d="m3672.824,1710.564c3.5,20.277-3.5,494.865,3.5,514.865,6,16,15,33,8,50-3,6-9,11-15,15-15,9-31,22-26,40,1,2,2,4,3,7,7,12,19,18,31,25,9,6,14,15,12,26-5,24-14,46-16,70-1,34-2,755.098-1.098,788.941"/>
    <path id="path1419" d="m3666.824,1710.564c2.5,18.277-1.5,489.865,1.5,507.865,2,9,6,17,10,26,3,8,4,16,2,25-3,16-20,22-33,32-6,5-11,12-10,20,1,6,2,12,5,17,8,12,22,15,33,24,14,11,11,29,6,43-7,17-11,34-15,52,1,34-2,755.098,0.511,789.559"/>
    <path id="path1421" d="m3660.824,1710.564c2.041,20.672-1.748,495.501,3.877,515.785,2.835,10.225,9.452,18.856,11.849,29.199,2.058,8.88,0.466,17.516-5.496,24.504-10.747,12.598-31.07,16.989-36.968,33.714-6.177,17.516,10.213,30.779,23.014,38.955,12.571,8.03,26.021,18.28,22.987,34.996-3.852,21.228-14.586,40.432-18.169,61.744-3.025,17.99-2.649,36.31-2.124,54.477,0.549,18.984,0.737,724.074,0.943,743.066"/>
    <path id="path1423" d="m3654.824,1710.564c2.5,13.277-1.5,478.865-0.5,491.865s5,25,11,37c1,2,2,5,3,7,4,11,6,24-2,34-4,5-10,8-15,12-3,2-6,3-9,5-6,5-12,11-14,19-2,15,8,25,19,33,14,9,32,20,28,39-1,5-2,9-4,14,0,1-1,1-2,2-1,2-1,5-1,7-5,12-12,24-12,37-2,38-1,761.098-1.415,798.618"/>
    <path id="path1425" d="m3648.824,1710.564c2.5,12.277-0.5,478.865-0.5,490.865,1,11,4,22,8,32,7,15,19,35,4,48-16,13-44,24-34,48,6,14,21,21,33,31,3,4,7,7,9,11,3,6,2,12,1,18-4,20-17,36-19,56-5,39-1,763.098-1.59,801.665"/>
    <path id="path1427" d="m3642.824,1710.564c2.5,20.277-3.5,493.865,3.5,512.865s26,41,9,59c-13,13-41,21-35,44,9,16,25,25,38,38,14,14,5,32-1,47-6,13-14,25-16,40-1,6-1,12,0,18,1,31-1,747.098,1.556,778.001"/>
    <path id="path1429" d="m3636.824,1710.564c2.5,12.277-1.5,478.865-0.5,490.865,1,6,1,12,3,18,6,18,22,34,17,54-2,4-6,8-9,11-11,10-29,14-32,31-1,4,0,8,1,12,1,3,3,5,5,8,14,17,43,26,38,51-3,18-14,33-21,50-3,7-3,14-4,21,0,35,2,755.098,2.489,789.77"/>
    <path id="path1431" d="m3630.824,1710.564c2.5,19.277-3.5,491.865,3.5,510.865s26,38,14,58c-1,1-3,3-5,5-13,10-34,17-33,35,1,6,4,12,8,17,11,12,24,19,34,33,2,3,3,7,3,10,0,4,1,8-1,12-6,15-14,28-21,42-6,13-4,27-4,40,1,29,1,744.098,1.784,773.452"/>
    <path id="path1433" d="m3624.824,1710.564c2.5,19.277-3.5,491.865,3.5,509.865,6,16,19,29,19,47-1,7-5,13-11,18-12,10-34,16-29,35,5,20,25,30,38,46,15,20-6,41-15,58-1,4-4,6-5,10-1,2-2,5-2,7-1,40,2,766.098,2.203,805.856"/>
    <path id="path1435" d="m3618.824,1710.564c2.5,19.277-3.5,492.865,4.5,511.865,5,10,11,19,16,29,5,11,5,24-5,32-12,10-32,15-31,33,1,7,4,14,9,20,11,14,28,22,33,40,1,4,1,9,0,13-2,3-2,7-4,10-9,14-21,25-24,41,1,40,1,767.098,1.445,806.883"/>
    <path id="path1437" d="m3612.824,1710.564c2.652,20.506-4.158,495.789,6.595,514.772,8.24,14.545,24.038,33.448,15.449,51.23-3.713,7.687-11.476,11.216-18.225,15.746-6.237,4.187-12.509,9.144-15.504,16.26-7.25,17.227,11.684,31.864,22.221,42.827,10.875,11.315,21.784,26.708,15.161,43.143-3.559,8.83-11.36,14.973-17.225,22.202-6.148,7.578-9.91,15.888-9.968,25.76-0.056,9.624,0.736,19.293,0.87,28.926,0.138,9.926,0.024,19.854,0.165,29.779,0.283,19.933,0.504,725.964,0.673,745.898"/>
    <path id="path1439" d="m3607.824,1710.564c1.795,10.992,0.759,475.744,0.401,486.803-0.169,5.221-0.599,10.911,0.427,16.062,1.017,5.102,3.723,10.4,6.299,14.872,8.387,14.557,27.029,36.338,11.772,52.718-11.003,11.813-37.605,20.867-29.361,41.864,6.522,16.612,22.032,26.96,32.074,41.101,4.346,6.121,7.652,13.289,6.871,20.966-0.847,8.331-6.316,15.52-11.971,21.326-5.407,5.552-11.843,10.775-15.066,18.012-1.827,4.102-1.941,8.22-1.968,12.639-0.035,5.831-0.066,11.662-0.093,17.493-0.166,35.452-0.196,757.002-0.151,792.454"/>
    <path id="path1441" d="m3601.824,1710.564c2.5,19.277-3.5,491.865,4.5,509.865,8,19,31,42,14,63-13,9-32,19-27,38,2,7,6,12,10,18,1,1,2,1,3,2,2,2,2,4,4,6,13,12,31,32,17,50-2,2-3,3-5,5s-4,2-6,3c-7,6-15,12-15,21,0,45,0,776.098-0.09,820.627"/>
    <path id="path1443" d="m3595.824,1710.564c2.5,19.277-4.5,491.865,4.5,509.865,8,19,33,40,16,61-9,11-29,18-27,35,1,5,3,10,6,15,12,20,39,37,30,62-8,9-20,12-28,22-3,49,0,783.098-1.448,832.07"/>
    <path id="path1445" d="m3589.824,1710.564c3.5,20.277-5.5,494.865,5.5,513.865,10,16,29,34,19,54-5,8-13,12-19,18-1,1-2,0-3,1-2,4-5,7-7,11-3,7,0,13,2,19,2,7,8,12,12,18,11,12,22,26,21,42-1,3-1,7-4,9-10,9-27,12-27,26-2,46,1,779.098,0.235,824.627"/>
    <path id="path1447" d="m3583.824,1710.564c3.191,18.532-4.806,491.855,3.497,509.613,2.134,4.564,5.676,8.038,8.171,12.388,1.184,2.064,2.134,4.39,3.514,6.329,1.525,2.142,3.511,3.775,4.954,6.037,4.793,7.517,10.112,17.772,7.149,26.941-2.964,9.174-9.219,14.857-16.785,20.368-7.188,5.236-14.313,10.699-15.249,20.212-1.612,16.392,12.011,30.173,21.633,41.683,8.986,10.749,21.309,27.303,10.668,40.982-6.061,7.792-17.302,7.761-24.27,14.342-7.342,6.934-4.681,19.352-4.579,28.347,0.466,41.064,0.809,768.227,1.054,809.293"/>
    <path id="path1449" d="m3577.824,1710.564c1.5,12.277-0.5,477.865-0.5,489.865,1,5,1,11,3,16,6,13,15,24,22,36,9,17-1,34-18,44-7,4-12,12-11,22,1,6,3,12,7,18,12,17,30,31,29,52,0,4-3,6-5,9-7,6-17,6-25,11-1,1-2,2-2,3-1,2-2,5-2,7,1,48,1,781.098,1.791,828.75"/>
    <path id="path1451" d="m3571.824,1710.564c3.5,20.277-6.5,494.865,6.5,513.865,5,8,10,16,17,24,4,7,7,15,5,23-1,2-2,5-3,7-5,9-14,14-22,20-18,17-1,40,12,55,3,3,4,6,7,8,9,10,16,31,0,38-8,3-23,2-23,13-2,50,1,785.098,0.274,834.678"/>
    <path id="path1453" d="m3565.824,1710.564c2.5,17.277-2.5,487.865,2.5,504.865,3,10,10,17,15,26,1,1,2,1,3,2,9,12,13,28,2,40-5,6-11,10-17,15-5,7-10,14-8,23,1,5,3,10,6,15,12,17,29,32,28,54,0,2-1,4-3,6-7,5-14,3-22,6-5,1-10,6-10,11,1,49,3,785.098,3.258,833.678"/>
    <path id="path1455" d="m3559.824,1710.564c2.5,18.277-3.5,489.865,2.5,506.865,4,10,11,18,18,27,7,10,11,22,6,34-2,4-5,8-8,11-12,8-25,19-20,34,7,21,25,35,33,55,1,3,3,6,2,10-1,6-5,10-11,11-8,1-18-1-23,6-1,2-2,4-2,6-1,50,1,786.098,1.804,835.862"/>
    <path id="path1457" d="m3553.824,1710.564c2.5,19.277-3.5,492.865,4.5,510.865,9,17,27,31,22,52-3,15-16,23-26,35-2,2-1,6,1,8l-1,2c-1,0-3,0-4,1-4,9,0,17,5,25,7,9,14,17,21,26,6,8,11,21,3,29-5,4-12,5-18,5-7,0-11,7-11,13,1,48,3,782.098,3.674,829.827"/>
    <path id="path1459" d="m3547.824,1710.564c2.296,21.887-4.089,498.399,8.194,518.325,5.185,8.411,11.8,15.517,15.436,24.897,3.541,9.135,3.7,18.282-0.602,27.173-4.158,8.594-11.191,14.752-16.528,22.47-2.348,3.396-4.779,6.63-7.236,9.948-2.622,3.542-1.784,5.964,1.157,8.82,1.922,1.867,4.979,6.128,0.101,4.629-5.094-1.566-3.457,2.201-4.69,5.585-1.186,3.252-5.165,5.043-2.332,9.018,2.052,2.878,3.052,6.278,5.271,9.244,8.602,11.505,22.753,21.416,25.825,36.199,1.481,7.125,0.346,15.685-7.208,18.39-5.541,1.984-12.748,2.382-17.001,6.904-2.527,2.686-2.914,6.129-2.844,9.661,0.115,5.825,0.34,11.65,0.496,17.475,0.311,11.642,0.584,23.284,0.824,34.928,0.479,23.257,0.824,370.126,1.067,393.387,0.061,5.81,0.115,374.109,0.163,379.919"/>
    <path id="path1461" d="m3541.824,1710.564c2.5,18.277-2.5,489.865,3.5,506.865,4,12,12,22,18,33,13,25-9,46-23,66-1,3-4,6-3,8,1,4,7,6,9,11,0,2-1,1-2,1-2-1-6-4-8-1-1,2,3,6-1,7h-2c-1,1-1,2-1,3,3,17,20,23,28,37,4,8,5,17-1,24-4,4-10,3-14,6-10,8-5,21-4,32,0,39,1,763.098,0.941,802.515"/>
    <path id="path1463" d="m3536.824,1710.564c2.5,17.277-1.5,487.865,1.5,504.865,4,15,14,27,20,41,4,25-12,45-26,65-2,3-3,6-3,9-1,6,6,8,11,12,1,1,1,2,2,3-4-2-8-4-12-4,0,0-1,1-1,2,0,2,1,4,1,5-1,1-4,2-6,3-4,4,0,8,3,10,12,13,38,31,21,50-7,3-15,7-15,15,1,45,4,776.098,3.435,820.668"/>
    <path id="path1465" d="m3530.824,1710.564c1.5,11.277,0.5,474.865,0.5,485.865,0,9,0,18,3,26,7,16,20,29,17,47-3,24-18,45-31,65-1,11,14,12,18,21h-3c-4-2-7-6-12-5l-1,1c0,2,4,3,1,6-1,0-3,1-5,1-1,0-3,1-4,2-2,3,1,6,3,8,11,11,31,19,27,38-1,3-2,7-5,9-11,4-10,16-10,25-2,40,1,767.098,1.197,806.788"/>
    <path id="path1467" d="m3524.824,1710.564c2.5,13.277-0.5,480.865-0.5,493.865,1,6,1,13,4,19,8,17,21,35,15,55-8,23-21,44-32,66,5,7,12,11,20,16,1,1,1,2,2,3,0,1,0,2-1,2-6-1-11-11-17-7-1,1,0,3,1,4,1,5-5,5-9,5-1,1-2,3-1,4,4,6,8,10,15,13s13,9,14,18c1,10-7,18-11,26-3,44,1,775.098,0.06,818.665"/>
    <path id="path1469" d="m3518.824,1710.564c1.5,13.277,0.5,479.865-0.5,492.865,0,17,8,31,16,46,8,34-14,65-29,94-7,12,7,16,14,23,1,1,2,2,1,3h-3c-4-1-7-6-11-4-2,1-1,5,0,7,0,1-1,1-1,2-2,2-6,0-8,2-2,4,2,7,4,9,9,5,20,6,24,16,2,4,1,8,1,12-1,5-4,9-6,13-1,2-2,5-2,7-1,42,0,771.098,0.592,813.573"/>
    <path id="path1471" d="m3512.824,1710.564c2.461,20.996-3.797,496.95,5.035,516.967,8.117,18.397,16.042,37.15,8.266,57.156-0.898,2.31-2.057,4.447-3.166,6.654-1.124,2.239-0.987,4.431-1.931,6.714-2.166,5.236-4.842,10.316-7.22,15.461-4.71,10.193-9.363,20.412-14.106,30.59-1.158,2.485-2.321,4.968-3.491,7.447-1.072,2.271-2.829,4.332-1.887,6.876,1.378,3.722,5.547,6.621,8.338,9.223,1.184,1.104,7.503,6.458,4.662,7.777-3.395,1.577-8.046-5.326-12-3-3.677,2.163,1.729,7.449,0,10-0.977,1.442-3.498,0.668-4.857,1.222-2.348,0.957-2.851,3.069-1.768,5.153,2.713,5.219,13.522,5.524,18.524,7.604,7.501,3.118,9.388,8.313,8.994,16.112-0.289,5.727-1.145,11.409-2.172,17.046-1.078,5.914-1.691,11.184-1.618,17.205,0.456,38.048,0.742,762.196,0.906,800.245"/>
    <path id="path1473" d="m3506.824,1710.564c2.5,22.277-3.5,499.865,5.5,520.865,4,7,6,15,9,22,4,14-2,29-7,42-10,24-20,47-29,71,4,3,6,8,10,12l-1,2c-2,1-3,0-5-1-8-2-3,8-6,12-1,1-3,1-4,2-2,4,3,5,6,6,8,2,20,1,21,11,2,50,1,787.098,1.336,836.873"/>
    <path id="path1475" d="m3501.824,1710.564c1.5,13.277-0.5,478.865,0.5,491.865,0,5-1,9,0,14,3,15,9,28,12,43,3,18-6,34-12,50s-13,31-20,46c-4,9-8,19,0,27v3c-2.873-1.25-7.792,1.719-8.723,4.496-1.091,3.254,2.163,6.897-0.261,9.205-1.737,1.654-5.582,3.538-2.176,6.131,2.236,1.701,5.998,1.214,8.575,0.901,4.798-0.583,13.236-3.135,15.929,2.602,1.865,3.972,0.364,9.558,1.158,13.857,0.919,4.972,2.543,9.809,3.209,14.829,1.283,9.677,0.587,19.935,0.753,29.692,0.178,10.431,0.343,20.862,0.495,31.293,0.305,20.88,0.56,727.859,0.769,748.741"/>
    <path id="path1477" d="m3495.824,1710.564c1.5,15.277-0.5,483.865,0.5,498.865,1,7,2,13,3,20,2,8,4,15,6,23,3,12,2,23-2,34-10,31-25,60-35,91-1,3,2,7,1,10-1,4-3,6-6,9v4c-1,2-1,5-2,7,0,1-1,4,0,5,5,4,11-1,16-3,3-1,8-1,9,2,3,11,3,23,9,33,2,39,0,764.098,0.708,802.87"/>
    <path id="path1479" d="m3489.824,1710.564c-1.5,31.277,1.5,514.865,8.5,545.865,5,19-4,36-10,53-8,21-18,41-24,63-5,16-16,31-11,48,0,0,1,1,2,1,7-1,16-14,21-5,2,3,0,7,1,10,4,10,12,18,12,28,2,35,1,757.098,0.994,792.452"/>
    <path id="path1481" d="m3483.824,1710.564c-0.5,30.277,0.5,513.865,6.5,544.865,1,11,0,22-3,32-4,10-7,21-11,31-10,22-17,45-27,67-1,11-11,24-3,33h3c6-2,11-5,17-6,1,0,2-3,3-3s1,2,1,3c-7,11,1,21,7,30h2c2,4,5,8,5,13,1,35,0,757.098-0.193,791.761"/>
    <path id="path1483" d="m3477.824,1710.564c-0.5,23.277-0.5,499.865,2.5,522.865v11c0,2,2,5,2,7,1,12-1,23-4,34-4,14-10,28-15,42-8,22-17,43-25,65-1,4-2,9-3,13v7c1,1,2,3,2,3,9-1,21-4,26.326-12.08,0.674,2.08-0.326,4.08-2.326,7.08-6,12,2,23,10,31,1,2,2,4,4,5,1,1,2,2,2,3,3,38,0,761.098,0.977,797.87"/>
    <path id="path1485" d="m3471.824,1710.564c-0.5,27.277-0.5,507.865,0.5,534.865,0,4,4,8,3,12,0,1-2,2-2,3,3,21-9,38-15,58-2,4-4,9-6,13-1,2,0,3-1,5-2,4-4,9-6,13-1,2,0,3-1,5-7,16-15,32-17,49-1,2-1,6,1,8,5,4,11-2,16-3,1,0,2,1,3,1,5-2,7-8,9.915-11.844-2.915,7.844-8.915,15.844-6.915,24.844,2,6,7,11,12,16,1,1,0,3-1,4h2c2,0,3,2,4,3,1,2,3,5,3,7,2,36,3,759.098,2.243,794.87"/>
    <path id="path1487" d="m3465.824,1710.564c-0.5,28.277-0.5,510.865-0.5,538.865,0,3,3,5,2,8,0,2-2,3-2,5-1,8-2,16-4,24-14,39-32,75-43,115-1,3,1,5,1,7,0,1,3,2,4,2,6-1,10-4,16-3,4-5,8-10,11.5-15.613-0.5,0.613-0.5,1.613-0.5,2.613-4,9-12,18-8,28,3,6,8,10,12,16,1,1,0,3-1,4,1.379,0.029,2.911-0.064,4-1,2,5,6,9,7,14,4,20,3,39,3,59-1,16-2,717.098-1.708,732.677"/>
    <path id="path1489" d="m3459.824,1710.564c1.5,5.277,0.5,9.277,0.5,14.277-1,24-2,500.588-3,524.588,0,2,3,4,2,7-1,2-3,3-3,5,1,15-5,29-10,43-9,24-20,47-28,72-3,10-14,21-5,30,1,1,2,1,4,1,4-1,9-3,13-1,5.294-6.366,8.936-13.907,14.083-20.384-7.083,11.384-18.083,24.384-9.083,37.384,4,4,6,8,10,12,2,2,1,5,1,8,1-1,1-2,2-2,8,2,11,11,11,18,2,34,1,754.098,1.396,787.833"/>
    <path id="path1491" d="m3453.824,1710.564c1.5,13.277,0.5,478.865,0.5,491.865-1,17-5,34-5,51l2,1c-1,6-6,11-4,18-6,19-12,37-20,55-1,2,0,3-1,5-6,11-9,23-14,34-4,11-11,22-10,34,0,2,2,4,4,4,5,1,9-1,14,0,9-6,10-17,17.665-24.156-0.12,0.78-0.448,1.485-1.057,1.838,0.015-0.733,0.439-1.354,1.057-1.838-6.665,11.156-16.665,22.156-13.665,36.156,1,8,8,13,14,19,2,2,1,5,0,8,2.033-0.067,3.328-2.093,5-3,1.344,4.151,4.454,5.65,6.613,9.107,2.371,3.796,3.788,7.938,3.583,12.418-0.486,10.628,0.034,21.347,0.151,31.989,0.244,22.28,0.425,730.66,0.557,752.941"/>
    <path id="path1493" d="m3447.824,1710.564c2.5,26.277-0.5,505.865-6.5,532.865-1,5,2,9,1,13-1,3-3,5-3,7-2,13-5,25-9,37-6,16-14,31-19,48-2,6-5,11-7,17-4,9-13,21-6,31,3,3,8,1,12,3,1,1,2,1,3,2,4.045-7.075,8.796-13.73,13.69-20.237-0.056,0.687-0.346,1.384-0.793,1.848-0.163-0.692,0.166-1.369,0.793-1.848-1.69,1.237-1.69,3.237-1.69,5.237-5,10-15,20-9,31,4,8,11,12,15,20v4c2,1,3-3,5-2,8,5,11,13,12,22,1,33,0,752.098-0.01,785.559"/>
    <path id="path1495" d="m3441.824,1710.564c3.5,29.277-2.5,511.865-9.5,540.865,0,2,1,4,1,6-2,7-5,13-5,20s-4,13-6,20c-2,4-4,9-6,13-7,23-18,43-26,65,0,2-1,5-1,7,0,9,9,11,15,15,0,0,1-1,2-1,3-5,4-11,9.693-14.331-5.693,10.331-13.693,21.331-7.693,33.331,1,2,2,4,4,6,3,3,6,6,10,9,3,2,3,6,4,9,8-3,10,9,14,13,3,36,2,759.098,2.234,794.618"/>
    <path id="path1497" d="m3435.824,1710.564c1.5,8.277,0.5,437.142,0.5,445.142,0,6,1,43.723,0,49.723-3,17-7,32-12,48v6c-1,2-4,3-4,4,1,21-10,39-18,58-1,3-1,6-3,9-1,2-1,3-1,5-5,15-18,30-13,47,4,3,7,8,11.617,10.726,0.128,0.091,0.255,0.182,0.383,0.274,1.108-4.279,5.068-7.118,7.711-10.426-3.711,6.426-7.711,14.426-6.711,22.426,2,11,12,19,20,27,0,1,0,4,2,5,9,4,15,14,16,24,1,33,0,752.098,0.391,785.455"/>
    <path id="path1499" d="m3430.824,1710.564c4.5,30.277-3.5,512.865-14.5,540.865-1,2,1,5,0,7-2,3-6,5-5,8,1,17-8,33-15,48-6,17-13,32-18,50-1,4-1,8,1,11,3,3,4,7,6,11,2,5,7,2,8-2-3,8-6,17-2,25,2,4,5,6,7,9,12,14,28,24,33,42,0,34,0,753.098,0.397,786.941"/>
    <path id="path1501" d="m3424.824,1710.564c5.5,35.277-5.5,523.865-22.5,554.865-3,5,1,11,0,17-1,2-2,4-3,7,0,1-1,2-2,3,0,1,0,3-1,4-1,2-3,4-4,7-6,16-11,32-18,48-6,12,3,23,6,35,0.628-0.804,1.891-3.11,2.802-1.198,0.412,0.865-1.772,5.117-2.01,6.49-0.818,4.706,0.205,9.466,2.17,13.761,4.239,9.265,12.181,14.817,18.487,22.415,5.709,6.879,13.171,12.667,17.965,20.264,5.367,8.504,3.867,19.698,4.142,29.337,0.793,27.827,1.298,741.76,1.601,769.596"/>
    <path id="path1503" d="m3418.824,1710.564c3.5,18.277,1.5,488.865-2.5,506.865-1,3-2,6-3,9-6,14-12,28-20,41-3,4,0,9,0,13,0,2-1,5-2,7-11,20-17,42-25,63-1,2,0,5,0,8,3,13,6,26,7,39,1,8,6,14,11,19,12,11,23,21,32,35,1,2,2,5,2,7,1,34,1,754.098,1.23,788.5"/>
    <path id="path1505" d="m3412.824,1710.564c5.5,35.277-5.5,521.865-24.5,551.865-4,5-4,12-2,18,0,2-1,5-3,7-1,1,0,3-1,4-6,10-9,20-12,30-3,8-7,16-10,24-1,2,0,5,0,8,4,16,3,31,7,46,1,4,3,9,7,12,1,1,2,1,3,2,2,2,2,4,4,6,11,12,28,21,30,39,2,34,2,755.098,2.148,788.765"/>
    <path id="path1507" d="m3406.824,1710.564c1.5,18.277,1.5,489.865-3.5,507.865-4,13-11,24-17,36-2,3-4,7-6,10-1,2-3,5-2,7,0,5-2,9-1,14-7,11-10,24-14,37-2,4-5,9-7,13-1,5-4,10-3,15,1,4,2,7,3,10,1,17-1,36,11,50,10,12,21,21,32,32,2,3,5,6,6,10,1,2,2,5,2,7,0,34,0,754.098,0.396,787.833"/>
    <path id="path1509" d="m3400.824,1710.564c2.5,19.277,2.5,492.865-4.5,510.865-7,16-17,31-25,47-2,4,1,8,0,12,0,2-1,4-2,6-2,3-5,6-6,9-5,17-12,31-17,48-1,5,1,10,2,15,3,17-2,35,10,49,7,8,15,14,22,22,2,3,4,7,7,9,9,3,12,11,13,19,1,35,2,755.098,0.916,790.077"/>
    <path id="path1511" d="m3394.824,1710.564c2.5,20.277,2.5,493.865-5.5,512.865-3,6-6,10-9,16-1,1-2,2-3,3-5,8-7,16-13,24-4,6,1,14-2,20-1,2-2,5-3,7-5,7-5,14-8,21-1,2-2,4-3,7-3,6-7,11-8,18,0,14,2,28,2,42,0,20,16,33,28,47,6,7,15,11,21,18,2,4,2,9,2,13,3,34,2,754.098,2.227,787.608"/>
    <path id="path1513" d="m3388.824,1710.564c2.5,21.277,0.5,495.865-7.5,515.865-3,7-8,13-11,20-1,1-2,2-3,3-4,7-6,15-12,20,2,7,1,14-2,20-4,7-7,13-9,21-1,3-3,5-4,8-1,2,0,3-1,5-2,4-5,8-5,12,0,22-4,45,7,66,8,14,20,24,32,35,5,4,12,6,15,12,0,1-2,2-3,3,1,2,3,3,3,5,1,35,2,756.098,1.227,790.608"/>
    <path id="path1515" d="m3382.824,1710.564c2.5,18.277,1.5,490.865-4.5,507.865-5,12-12,22-19,33-3,5-5,11-8,16-1,1-2,1-3,1-3,2-1,5,0,8,1,4-1,7-2,10-3,7-8,14-10,21-2,11-7,19-10,30-1,4,2,7,2,11,0,17-3,33,4,49,3,7,9,12,14,18,6,6,12,13,18,19,3,2,8,2,11,5,0,1,1,2,1,2,3,1,7,3,6,7-1,1-3,1-3,3,0,5,4,9,4,14,1,32,0,749.098,0.391,781.455"/>
    <path id="path1517" d="m3376.824,1710.564c3.5,19.277,2.5,492.865-5.5,510.865-6,16-16,30-23,46h-2c-2,2-1,5,0,8,1,5-2,10-3,14-6,15-12,30-17,45,2,22-2,46,6,67l3,3c7,12,16,21,25,30,6,5,18,9,15,18-1,3,2,6,2,9,1,33,0,753.098-0.01,785.833"/>
    <path id="path1519" d="m3370.824,1710.564c1.5,18.277,1.5,489.865-2.5,507.865-8,13-11,27-20,40-1,3-1,6-3,9-1,1-3,2-3,4,2,6,1,11-2,16-1,1-1,3-1,4-1,1-2,2-2,3-2,14-6,26-11,38-1,3-2,5-1,8,1,4,1,7,2,11,1,10-2,19-1,29,1,8,3,15,6,22,4,9,10,16,16,23,3,4,7,7,10,11,2,1,4,3,6,4,2,2,4,4,5,7,0,4,1,9,1,13,2,33,1,753.098,1.391,786.455"/>
    <path id="path1521" d="m3364.824,1710.564c5.5,29.277-2.5,511.865-14.5,537.865-2,5-4,9-7,14-1,3-2,6-3,9,0,7-1,13-4,19-3,7-3,15-5,23-1,6-3,12-5,18-2,7,0,13,1,20,1,20-6,40,6,58,7,10,14,18,21,28,2,3,5,3,7,6,1,2,3,3,3,5,0,1-1,2-1,3,0,2,2,4,2,6,0,35,0,755.098-0.01,789.765"/>
    <path id="path1523" d="m3359.824,1710.564c2.5,20.277,1.5,494.865-4.5,513.865-5,15-12,29-17,44v8c-4,21-11,40-14,61,3,15,1,31,1,46,0,9,3,17,6,25,7,15,19,26,27,41,0,1-1,2-1,3s2,3,2,4c1,35,1,755.098,1.23,790.5"/>
    <path id="path1525" d="m3353.824,1710.564c3.5,17.277,0.5,488.865-2.5,505.865-2,17-11,32-15,49,2,14-5,28-6,42-1,8-4,16-6,24,0,4,0,7,1,11,2,16-2,31,0,47,1,7,3,13,5,19,2,5,3,11,7,16,6,8,9,17,15,25,3,37,2,761.098,2.227,797.608"/>
    <path id="path1527" d="m3347.824,1710.564c3.5,19.277,1.5,490.865-3.5,509.865-3,14-7,26-9,40-2,8-2,16-3,24-4,23-10,44-7,67,0,4,0,8-1,12,0,16-1,32,4,47,4,10,10,19,13,29,1,2,3,4,4,7,2,5,2,9,2,14,0,34,2,753.098,1.097,786.706"/>
    <path id="path1529" d="m3341.824,1710.564c3.5,12.277,1.5,478.865,0.5,491.865-3,26-11,51-13,77,0,2-2,4-2,6-2,13-3,26-4,38-2,26-3,52,0,79,3,15,12,28,15,43,9,39,3,763.098,4.391,801.455"/>
    <path id="path1531" d="m3335.824,1710.564c3.5,27.277-2.5,507.865-6.5,534.865,0,5-1,9-1,14,0,3-2,7-2,10-1,11-3,22-4,33,0,9-1,17-2,26-1,26-2,51,1,77,2,15,11,29,13,44,3,37,2,761.098,1.927,797.765"/>
    <path id="path1533" d="m3329.824,1710.564c3.5,16.277,1.5,485.865-0.5,501.865-4,23-5,46-8,69-4,40-3,79-3,118,5,22,11,43,12,65,1,32,0,751.098,0.395,783.077"/>
    <path id="path1535" d="m3323.824,1710.564c1.5,11.277,0.5,474.865,0.5,485.865-5,64-9,128-8,192,0,9,0,18,1,27,1,6,3,12,4,18,3,43,3,771.098,3.234,813.832"/>
    <path id="path1537" d="m3317.824,1710.564c1.5,9.277,0.5,441.142,0.5,450.142-2,66-5,163.723-5,229.723,4,57,5,800.098,5.148,856.883"/>
    <path id="path1539" d="m3311.824,1710.564c-0.5,132.277-0.5,1403.964,0.379,1536.339"/>
   </g>
  </g>
 </g>
</svg>
