<svg xmlns="http://www.w3.org/2000/svg" height="3208.9" width="1671.1">
  <g stroke="#dce0df" stroke-miterlimit="10" fill="none">
    <path d="M182.7 7.7c78.2 49 156 98.6 233.8 148.3 31.8 20.3 64.6 39 92 65C552 262 587.4 309.5 640 340c20.8 41 60 66.2 83 105.4 21.7 37 20.5 83 10.5 123.5-8.4 33.8-21.4 65.7-22.5 101-2 63.6 7 128.7 9.2 192.3-5 44.4-4.6 101.3-27 141.3-18 32.6-57.7 50.3-88.6 68.3-30 17.5-61 36.4-80.7 66-22 32.7-26 73-25.2 111.5-9.2 32.5-34.2 87.2-65.2 43.6-5.3-7.4-10.8-20.6-22-19.7-20.3 1.5-41.3 48.7-49.7 62.8-31 52-59 105.5-90.8 157-23.7 38.2-49.2 81.2-84.8 109.8-52.7 42.3-115.6 47.8-179.7 55.6-22.4 175.3 28.4 348.3 25 523.5 9.6 6.7 17.8 5.7 25-2.8 5.8-11 9.8-22.6 11.8-34.8 5.4-24 5.7-66 26-83.5 15.4-13 30.8 1 46.3 5.8 21.3 6.7 43.5 5.2 64.3-2.3 35-12.6 63-42.6 90.7-1.6 52 76.6 57.2 177 120.4 247.3 18.2 32.8 47.5 43.3 76.7 64 32.6 23.4 57.6 55 78.7 88.8C610 2524.4 638 2587 652 2658.2c49 70.6 63.5 156.6 142 204 30 18.3 60.8 25 94.8 30.8 51 8.7 78 39.7 104.5 82.8 38.8 37.8 71.7 81 109.7 119.4 22.3 22.5 45 42 75.6 51.4 53.3 16.4 101 35 151 60.6" stroke-width="2"/>
    <path d="M197.7 6.3c79 50 157.8 100.7 236.4 151.4 32 20.6 61.7 40.3 88.3 67.5 40.6 41.4 76 89.8 130 114.8 22 40.7 61.4 67.8 83.5 108.5 21 38.8 19.6 85 8 126.4-10 34.7-24.4 67.2-25.4 104-1.5 61 5.2 122.8 5.6 184-4.3 45.2-1 101.7-20 143.8-16.2 36.2-56 52-88.8 69.8-31.5 17-65.2 35.2-86.2 65.3-20.6 29.3-24.3 64-22 99-3.8 20.7-25 101.3-57 64-7-8-11.3-24-22.7-27.5-18-5.5-34 24.6-41.8 36-61.4 90-103.5 192.7-173.4 277-47.4 57.6-112.8 80.3-185.5 82.7-13 62.7-11 123.7-5.8 187.2 8 101.2 22.5 202.3 24.6 304C69.5 2157 70 2132 74.5 2110c4-19 6.7-61.3 31.2-67.5 15-4 37.3 14 52.8 16.6 21.6 4 43 .3 63.2-7.3 12.7-4.8 26-13.5 39.5-15.3 26.7-3.5 38 20.3 48.5 41.4 18 36.3 30.4 75.6 45.2 113.4 17.2 44.3 32.7 96.6 75.7 121.8 23.6 25.3 58.4 35.4 85.2 57 34.3 28 59.5 65.5 81.3 103.6 19 33.2 38.5 67.4 52 103.3 10.8 28.4 14.8 57.5 19 87.5 21.2 39 33.7 82 57 119.8 22 35.5 53.7 63.7 92 80.6 29.8 13 60.2 13.4 91.6 18.3 54.2 8.5 78.8 57 104.4 100.7 50.8 56.2 100.3 140.8 178.2 161 55.8 14.3 103.6 36 155 62.2" stroke-width="2.1"/>
    <path d="M212.7 4.8c79.7 51 159.3 102.5 238.5 154.4C483 180 510.2 202 536 230c37.4 40 74.2 92.2 129.3 107.7 23 41.7 61.8 72 82.8 115 20 40.8 18.5 87 4.8 129.6-11.6 35.7-27.4 68.7-28 107-1.2 57.5 3.3 115.2 2 173-4.7 46 .8 100.7-16 144.3-13.5 35.2-43 53.2-75 69.4-68.4 34.3-129.7 71.5-121.3 157.4-2.6 17.3-15.3 107.4-49.8 81.5-9.7-7.3-12-22.2-22-29-14-9.2-26 2.6-35.4 13-33.2 37-55.7 85-80.4 127.5-29 49.6-58 99.3-91 146-28 39.4-58 76.4-102 97.6-28 13.5-57.2 19-88 20.4-15.6 56.2-15.5 111-11.8 169 6 92.7 17.3 185 21 278 29-19 14.7-121.2 64-106.6 22.8 6.8 39.3 19 64.6 19.5 19 .4 36.8-4.4 54.7-10.2 13-4 28.5-12.2 42.5-7.8 23 7.2 34.6 45.4 42.4 64.5 18.3 44.5 32.3 90.7 51.6 134.8 7.2 17.4 15.8 34 25.7 50 14 20 23 26 46.6 26.6 28 21 61.5 30 88 53.7 38 34 64 79 87.6 123.6 17.5 33.3 37.3 67 48.2 103.2 8 27 9 55.2 11.6 83 33.4 78.7 59.6 159 148.2 189.4 32 11 65.4 6.5 98 13.4 55 11.6 81.3 79 106 122.5 49 57.3 94 130.2 172.3 146 56.7 11.4 105 38 156.4 64.2" stroke-width="2.2"/>
    <path d="M227.8 3.5c80 52 160.2 103.7 239.7 156.6 31.6 21.2 57 46.7 82.2 75 36.8 40.8 72.2 88.5 129 99 23.6 43.5 61.4 77.7 81.3 123.5 18.7 43.2 17 89.5 1 133-13.3 36.5-30.3 70-30.6 109.7-.5 53.4 1.7 106.5-1 160-6 45.7-.2 96-13.6 140.3-10.4 34.3-35.2 59.6-65.8 77.2-60 34.3-142 63.6-128.4 149.2-2.7 17.6-7.4 112.4-44.4 95-22.7-10.5-21.5-47.4-54-24.3-33.2 23.6-54.4 72.7-74.4 106.5-29.5 49.8-58.4 100-90.2 148.2-48 73-99.8 146.5-193 156-17.3 50-20.5 98.4-18.6 151 3 81.7 11.8 163 15.4 244.8 15.4-18.6 15-45 23.6-66.5 11.7-30 26.4-23.2 50.4-11.7 40.3 19 77.7 13.5 119 4 13.2-3 25.4-6 37.5 1.7 24.3 15.2 35 61.8 44 86.4 15 41 28 83 46.4 122.6 8.4 18 18.7 42.8 35.3 55.2 15.8 11.8 30 7 47.4 2.2 39.3 18.3 72.7 34.3 101.7 68 35 40.6 59.2 89.5 82.7 137.4 14.4 29.3 31 58 38.6 90 6.5 28.2 5 58 7 86.8 15.8 45.2 29.7 91.7 64.4 126.6 25 25 58 44.3 92.7 51.2 31.5 6.2 65.6-.7 96 9.6 18.6 6.2 31 19 42.2 34.5 25.5 34.7 45.6 73.6 66.7 111 30.7 37 61.5 80.6 102 108 20 13.4 42.3 15.3 65.4 19.5 55.8 10 105.4 41.3 155.3 66.7" stroke-width="2.3"/>
    <path d="M243.2 2.3C323 55 404.7 105.3 482.8 160.5c31 22 55.5 51.2 80.6 79.5 17 19 33.8 38 52.7 55.2 23.5 21.3 45.4 30 76.6 33.8 23.3 45.3 59 83.3 77.7 131 17.6 44.5 17.4 90.6 0 135-15.7 40.2-35 75-34.3 119.7.8 48 0 95-3 142.8-9 45.4-3 93.3-15 137.8-9.2 35.3-31.7 63.2-61 84-51.3 36.4-141 61.3-128 142-4.5 22 .8 108.8-37 108-23.4-.6-22.3-38.5-52-27.5-30 11.2-50.4 51.8-66 77-30 47.4-57.7 96.2-87.5 143.8-49 78-104.2 182-202 203.2-41.5 109.4-20.8 228.4-16.2 342.5 10.7-17.3 11.3-53.2 28-65.2 18-12.8 41.8 10.3 59 16.4 41.3 15 75.7 5.4 117.3 2.8 51.3-3.3 65.3 82.5 77.7 118.5 14.8 42.7 28.2 89 52.7 127.3 23.3 36.4 47.3 31 83.5 16 102 35 143.2 139.2 186 229.5 11.3 24.2 25.7 48.6 31 75.2 6.8 32.7 2.7 68.4 5 101.6 14.3 46 30 88.5 68.2 120 26 21.7 56 37.3 90 41.6 30.7 3.8 64.4-3 94 8.5 24.8 9.7 39 32.8 53 54.4 24.2 37.5 45.7 77 67.8 116 27 32.3 58.2 79 99.2 95.4 17.6 7 37.3 6.6 55.7 9.8 57.4 9.7 110.2 45 161.3 71" stroke-width="2.4"/>
    <path d="M259 1.5C338 54.2 423 102 497.5 161c30.3 23.8 54 55.4 79.7 84 16.5 18.5 33.4 37 52.6 52.8 23.4 19 47.6 23 77 25.3C750.8 414.7 824 497.5 778 604c-18 41-37.2 75.4-36 121.6 1.3 43.6-1.4 86-4.2 129.5-12 40-8.7 80.6-15.5 121.4-6.2 36.6-23.3 68.6-50.2 94.2-43.7 41.5-144.8 70-135 146-9 28.4 6.7 103-29.7 116.6-21.4 8-29.8-25.8-52.5-22.4-24.4 3.6-45 31.5-57.7 49.5-29.8 41.8-55 87-82 130.7-37.7 61.2-76 123-121.7 178.7-25.6 31.3-52.4 57-90.5 71.6-38.5 94.8-31.5 190.5-29.2 291.2 7.6-13 14-45 30.8-49.8 10-2.8 20 6.7 27.8 11 11 6 22.5 11 34.3 15 21 7 43 10.5 65 10.6 18 0 37-4.6 55-2.5 17.8 2 26.3 13.5 34.3 28.7 18.5 35 28.3 75.3 41 112.6 13 37.6 25.4 80 49.5 112 27 36.2 64 13 96.7-2.6 103.2 32.4 141.2 160.8 181.4 248.7 10 21.7 24.4 42.7 28 66.6 5.8 39 .4 80 3.4 119.3 14 45.4 32.5 80.2 71 109.2 28 21 57.7 32.8 92.8 34.8 32.3 2 70.6-4.8 98.5 16 25 18.4 41 49 56.8 75 22.5 37 43.7 75 65.5 112.6 25.2 29 53.6 69 94 76.8 18 3.5 36.7 2.5 54.8 6.4 56.4 12.2 110 48.6 160.8 74.4" stroke-width="2.5"/>
    <path d="M275.5 1c48.8 33 98 65.3 147 98 31 20.7 64.5 40 91.8 65.7 30 28 54.6 61.6 82.6 91.6 15.7 17 33.2 36.6 54 47.5 21.4 11.3 46.3 11.3 70 12.7 42 94.7 114.7 189.8 64.4 296-19.7 41.6-38.3 75-36.3 122.7 1.7 39.7-2.4 78.3-3.8 117.8-18.3 35.3-14.8 75.6-20.7 113.6-5.5 36-19.3 68.7-43 96.4-24.6 29-56.3 49.8-86.2 72.7-24.2 18.5-50.4 44.4-48.7 77.7-19 34.6 4.4 81-20 115.3-20.4 28.8-33.3-2.6-56.2-5-17.6-2-38.4 14.3-50 25.5-30.6 29.4-51.7 70.8-74 106.4-40 64.3-79.5 129-124 190.5-29 40-59 81.2-101.7 107.2-33.6 81.3-40.5 158.4-41.2 245.8 8.6-13.2 18-35.7 37.4-30.2 10.6 3 22 12.6 32 17.3 15.2 7 31 12.7 47.2 16.6 20 5 40.5 7 61.2 7.3 15.5.3 34.8-2.3 49 5.5 16.5 9 24 32 30.2 48.4 15 39.5 26 80.5 40.6 120.3 10.2 28 23 74.8 50 92 31 20 76-13.8 103-27 49.6 17.8 81.2 66 105 110 28.8 52.8 44 112.3 73.3 164.3 10.5 18.5 20.5 32.3 22 54.2 3 45.6-1.4 91 3.2 136.7 26 75.5 89 123.6 168.8 125.5 39.4 1 71.4.3 101 30.3 25.2 25.8 43 58 61.4 88.8 21.3 36 42 72.6 63.8 108.4 23.2 25 46 52 81.6 55.7 19.7 2 38.7 1 58 6 57 15 111.3 51.8 163.4 78.2" stroke-width="2.6"/>
    <path d="M293.6 1.7c50 33.7 100.4 67 150.4 100.8 29 19.8 59 38.5 83.7 64 29 30 53.7 63.8 83 93.7 15.7 16 32.7 33 54 41 22 8 47.4 6.8 70.5 8.3 40.6 101 112.5 207 55.6 315.5-21.8 41.6-35.8 73.6-33 121.7 1.8 35.6-2.6 70.8-1.7 106.4-23.4 30-22.4 69-28 104.7-5.6 34.7-17 67.4-37.3 96.2-21.6 30.4-50.5 54.3-78 79-22.5 20.2-51.5 46.2-54.6 78.4-12.6 13-9.8 33.4-9.8 49.8 0 20 .2 41.6-7 60.8-5 13.6-15 29-31.3 27.2-9.8-1-17.8-8.8-27.4-10.5-49.4-8.3-88.3 59.7-109.4 92-72.8 110.8-136.5 238.6-235.2 329.3-27.4 68-46.7 136.5-51.4 209.7 15.6-17.2 26-18 46-7.3C158 1976 187 1986 215 1992.7c19.6 4.7 39.4 7 59.4 9 15.5 2 33 2.7 45.2 13.6 15 13.3 21.3 38.2 27.4 56.2 13.4 39.2 24.2 79.2 38.8 118 10.4 27.5 24.7 78 59.5 82.8 36 5 76.3-27.4 107.6-41 54 24.8 84.6 88.7 107.5 140 21.3 48 33.8 103.4 63.5 147.3 13.3 19.6 18.3 32.5 18.7 57 .7 50.8-2 101 5 151.6 16.4 38.3 48 72 85.3 91.4 29 15 60 15 91.8 16.2 16 .5 33.7.6 49 6.6 22.2 8.8 40.7 29.6 55.5 47.6 48.2 59 81 130.4 122.3 194 24 22.6 41.6 35.6 74.5 35.7 18.3 0 35.2.3 53 5.6 25 7.4 47.8 21 71 32.7 33 16.7 66 33.4 98.8 50.2" stroke-width="2.7"/>
    <path d="M314.6 4.2c47.6 32 95.4 63.8 142.7 96.3 29 19.8 56.8 39 80.5 65 28.6 31.5 54 66 84.6 95.5 16.2 15.6 33.4 29.2 55.6 35 23 6 48 4.3 71.5 6.3C773 367 804 428.8 817.8 496.7c10.2 50.3 6 90.6-18.7 135.4-23 42-34.5 73-30.8 121.6 2.6 34 0 68 2.2 101.8-24.8 28.4-30.2 59.2-37.2 95.2-6.3 33-15.7 64.7-33 93.6-36 60-104 99.2-128 166.7-16 8.8-15.7 24.8-15.8 41.2 0 20.8 1.2 41.8-3.2 62.3-3.6 17-11.3 39-30.7 43.6-10.5 2.6-20.3-2.6-30.6-3.6-46-4.5-79.5 37.6-103 70.7-77.2 109.5-141.6 227.3-228.6 329.8-15.5 37-24 76.5-41 112.6-12 25.8-19.2 50.4-23.7 78.7 20.3-12 38 3.8 57.2 10.8 28.4 10.3 57.6 20.3 87 27.5 33.5 8.2 77.3 6.6 96.6 39.8 12.8 22.3 19 49 26.4 73.4 12.3 40.3 23.7 81.7 42 120 12.2 25.2 26 48 57.4 44.2 39.5-4.6 75.6-34.8 113-47.7 52 35.5 78.7 98.7 100.6 155.4 17.8 46 31 99.7 62.6 138.5 14.8 18 15.7 35.8 16 59 .3 57.7-2.7 115 9.2 171.8 19 32.6 51 65 86.5 79.6 29.8 12.2 61.7 9.8 93 12.7 49.7 4.6 83 41.2 111.5 79.5 43.6 58.7 75.5 125.4 118.2 184.8 24 17.6 39.7 18.5 68 17.5 20.2-.8 38.6 3 57.5 10.4 57.4 22.8 112.3 56 167.3 84" stroke-width="2.8"/>
    <path d="M338 8.2c72 48.6 155.2 92.8 212.4 159.4 26.6 31 51.3 63.6 81.4 91.2 39 35.8 83 30 132 36.5 34.2 104 107 232.3 47 338.4-22.8 40.2-36 69.8-30.4 117 4.2 35 2.2 70 5 105-21 29.4-35.5 58.2-45 93-8.5 31.4-17 62.2-32.8 91-33.4 60.7-90.5 104.5-117.7 169-15 13.4-23.8 12.8-24.8 35-1 20.6 1 41-1.4 61.4-4.4 37.4-18 64.6-57.6 65.3-39 .7-65.8 12.5-92.8 42.3-36.4 40-64 89.6-93.4 134.6-42.3 64.5-85.3 128.3-131.8 190-17.6 41.8-29.4 86.5-49.2 127.4-10.6 21.8-25 40.8-31.6 64.5 11.4-1.5 20.4 4.7 30.5 8.6 12 4.7 25 7.8 37.6 11.3 26.2 7.3 51.7 16.5 77.8 24.2 38.4 11.5 76.7 15 94.8 55 28.5 62.8 33.8 135 69.5 195 14.8 25 35.4 31.8 63.2 23.6 41-12 73.6-39.3 116.2-48.2 86 77.7 80.7 209 153.8 293.8 18 20.8 15.3 48.4 15.4 74.5.4 60.3-2.2 122 15.7 180.3 21 28.3 46 55.8 80 68.2 31.2 11.5 64.3 7 96.4 13.7 52.4 10.7 91.3 61 120.4 102 39.2 55.7 68 120.8 114 171.5 19.7 8 34.4 5.2 55 4 21.7-1.4 41.6 3.8 61.4 12.7 59 26.3 116 58.5 173.7 87.8" stroke-width="2.9"/>
    <path d="M363 13.2c72.3 49 147 92.8 203 160.5 26 31 52 68.4 86.6 90.4 38 24.2 83.2 16.6 125.5 24.6 21.5 72 48 142.4 61.7 216.5 9.3 50.5 7.4 88.5-18.4 133-23.2 40-32.6 69-25.4 115.6 5 33.6 1.6 66.2 4.6 99.7-18.3 29.6-36.2 61.8-49.2 94-11.2 28-18.8 56.8-32.3 83.8-31 62-82.4 110.5-110.5 174.3-11 8.7-28.5 13.3-33 27.3-5.4 16.7-.7 39.4-1.6 56.7-2.3 41.3-11.4 86.8-58 95.4-12.7 2.4-25.8 1.2-38.4 4.2-18.7 4.3-34.5 16-48.7 28.4-36.8 32-62.4 77.2-89 117.2-39.5 59-78.8 118-119.8 175.8-19.4 46.3-34.3 94.8-56.7 139.8-12 24.2-27.5 45.7-41.2 69 25 10.2 51.7 13.2 77.8 20 26.8 6.7 52.2 17.4 78 26.8 18 6.4 37.8 12.3 53.4 23.5 18 13 25.2 34 32 54.2 9.8 29.7 17.5 60.2 27 90 9.2 29 19 68 40.2 90.7 19 20.2 47 14 69.8 4.6 40.5-16.7 72-42 117.6-43 48.3 57.3 65.2 132.5 92.8 200.5 8.6 21.2 17.6 42.8 29.8 62.3 7.3 11.6 17 19 25.2 29.3 18.7 22.8 12.8 65.7 13.2 92.6 1 61.7 1.8 124.3 21 183.4 21 27.6 45.4 51 79.4 60.6 32.7 9.4 68 5 99.7 18 55 22.8 95 77.4 127 124.8 20.8 30.8 39.6 62.8 60.5 93.6 12.2 17.8 25 39.8 43.2 52.3 17.2 3.2 33.2-3 50.2-3.6 23.6-.7 45.2 8.8 66 19.3 58 29.2 116 58.8 174 88.2" stroke-width="3"/>
    <path d="M389 18.8C430.6 47 473.3 74.5 513 105.5c25.6 20 45.4 45.7 66 70.7 24 29 49.5 64 83.5 82 40 21.6 87 13 130 24.3 20.4 75.7 45.3 150.3 59.4 227.7 9 50.2 7.3 85.7-18.3 130-23 39.4-28 68.3-20.4 113.6 5.4 32.3-.3 63 2.8 95.2-31.3 56.8-56 117-84 175.3-30 62.2-76.2 114.4-104.4 177.6-11 8.8-32.3 15.4-40.4 26.3-8.5 11.5-3.4 39.2-4 52.3-1.8 43.6-7.6 97-53.6 115.8-27.8 11.3-54.6 7-80.8 25-31.2 21.8-54 53-75.7 83.5-40.6 57-78.7 115.7-118.3 173.3-34.2 82-64.8 161.2-113.8 235.8 28.3 4.3 57 5.5 84.7 13.5 26.6 7.7 51.2 20.7 76 32.5 16.6 7.8 35 16.7 47 31 13.3 15.8 19.2 38 25.2 57.3 9.3 30.7 17.3 61.8 27.8 92.2 8.6 25 18.7 63.2 43 77.8 24 14.4 53.3 1.6 75.8-9.2 39.3-19 71.4-42 116.8-31.6 40.7 62.8 56.2 138 86.4 206 8 18.2 17 37 29 52.8 7.3 9.5 17.7 15.4 25 24.5 19.7 25 13.4 75 14.4 104.2 2.2 64.5 2.5 134 24.6 195.5 21.4 27.7 48.3 46 82.4 53.5 38.6 8.7 74.5 9 109 31 51.2 32.5 88.8 84.4 122 134 26.2 39 51.3 95.7 93.8 120.3 18.7-.6 35.6-8 54.6-5.8 25 3 48 17 70 28.3l168.3 85.4" stroke-width="3.1"/>
    <path d="M415.3 24.5c37.7 26 78.4 51 112.7 81.4 22.8 20 40.8 45 60.2 68.3 24.4 29.4 50.4 62.8 86.4 78.4 41.8 18 88.7 9 131.5 24.6 19.8 79 43 156.8 58.2 236.8 4.8 25.4 10.5 50.7 4.3 76.3-4.5 18-14 33.8-23 50-21.8 39-22 68-14.4 111.5 5.5 31.4-3.3 60.3 0 91.4-29.2 58.7-55.6 118.5-85 177-31 61-71.2 116-99.5 178.4-10 9-19.4 17.4-32 22.4-4 1.5-11.5 2-14.7 5-9 8.5-6.7 27-7.2 38.2-2.4 46-3.5 107-44 137-26.3 19.6-60 15.4-87.8 31.8-22 13-41.4 32.6-57.8 52-42 49.2-76.4 106-112.8 159.3-37.3 90-73.4 177.5-127.3 259.2 29 0 58 .4 85.7 10.2 25.4 9 47.6 24.6 70 39 44 28 55.6 64.8 69.6 113.2 8.8 30.3 17.4 61 29.7 90 9.6 23 21 48.2 47.8 53.7 27.2 5.5 56.8-12 79.8-24 37.6-19.7 69.5-35.5 109.3-12.5 32.7 66 48 139.6 81.3 205.6 8.6 17 18.4 34.7 32.7 47.6 8.4 7.7 17.7 11.7 23.2 22 18.5 35 12.7 89 15 127 3.6 61.4-.4 133.8 26 191 23 27.4 52.5 40.4 86.8 47.5 40.6 8.3 75.2 15.8 109.4 41.2 51 37.8 89 91.3 124.2 143.2 22 32.6 44.7 78 83 94.5 19.3-4.4 35.4-9.3 55.3-4.7 26 6 50 21.6 73.7 33.5l168.3 85.4" stroke-width="3.2"/>
    <path d="M441 30c32.5 22.7 67.7 44.4 96.5 72 23.5 22.4 42.4 49.4 63.5 74 26.4 31 53.8 61 94 72.5 42.2 12 84 5.4 124.6 24.8 19 80.8 42 160.8 57.3 242.5 4.6 25 8.8 49.4 2 74.6-4.4 17-13.4 32.3-21.4 48-19.6 38.8-14.2 68-7.6 109.7 5 30.7-7.7 58-4.4 88.4-27.7 62-49.5 124.3-84 183-33.8 57.5-68.7 115-96 176-16.2 16.6-26 22.3-46.4 29.2-13.7 4.7-14.2 9.5-16.3 24.6-7 51.3-2.7 117-41.5 157.3-25.2 26-59.3 23.8-89.4 39.4-64.8 33.4-107 108.7-146.8 166-39.6 95.5-80.8 188.4-137 275.6 27.8-2 55-1.6 81 10 26.5 12 48 33 69.6 52 36.2 32 46.6 74.6 60 119.5 12.7 42.4 27.7 126 84.6 126.5 68.5.7 125.8-90.4 186.7-20.2 24.7 66.2 42.5 139 79.7 199.7 9 14.3 19 27.4 32.8 37.3 11 7.8 18 12 23 25.3 17.6 44.2 15 101.3 17 148 2.6 59.5-2.4 132 27 186 24.8 26.3 58.2 36.2 92.5 43.6 47.3 10 85.3 29 121.4 62 48 43.8 84 98.3 121.6 150.7 16.6 23 35 47.2 63 56.7 47.3-16.3 88.4 13.6 129.5 34.5l173.5 88" stroke-width="3.3"/>
    <path d="M465.5 34.6c29.4 21 60.4 41 85.3 67.6 24 25.4 44 54.2 67.7 80 25.3 27.6 52.2 49.7 89.4 58.3 44.3 10.3 84.2 5.3 124.8 30.2 18.4 81.6 40.7 162.6 55 245 4.5 25 7.5 48.4 1 73.2-4.3 16-12.4 30.8-19 46-16.3 38.6-5.7 68.6-.6 108 4 30.2-11.3 55.7-9.2 86-26 65.2-42 135-81.4 193.8-36 53.7-67.7 110-93.8 169.2-14.8 17-27 35.3-50.3 36.2-14 .6-16.3-2.3-20.8 14.6-14.2 53-7.6 109.2-36.8 158.6-21.8 36.6-52.6 40.4-88.3 55.2-56 23.3-96.5 81.5-130.7 128-41 98-85.7 192.7-142.4 282.5 64.7-5.2 96 29.2 134.6 75.3 33.8 40.2 45.3 85.7 61.3 135 15.6 47.4 35.5 115 98.6 100 32.2-7.7 59.5-27.8 90.2-38.8 41.8-15 63.8 12 83.7 45 21.3 61.4 38.4 133.6 79 186 18.7 24.2 47 30.7 56.7 61.5 16.8 52.5 14.8 112 16.5 166.4 2 57-2.6 128.8 29.7 179 25.6 23 57.8 30.5 90.4 38 50.7 11.8 93 40 129.8 76.3 45 44.3 77.6 97.7 117.8 145.7 15.6 18.6 32 31.2 54.5 39 46.5-17 101.7 26.4 141.2 46.4l168.3 85.4" stroke-width="3.4"/>
    <path d="M488 38c27 19.8 53.3 39.2 75.4 64.5 22 25.2 41.8 52 64.8 76 26 27.3 55.3 46.2 92.6 53.5 20.2 4 41 4.5 61.2 7.6 24.8 3.8 44.2 15 63.4 30.7C863 353 884.8 435 898 518.6c4 24.3 5.2 47-1.2 71-4 15.2-11 29.4-15.5 44.5-11.4 38.6 7 71 7.6 109 0 12.4-3.6 20.3-8.2 31.2-7 16.4-8.2 29.4-6.7 47.5-25 68.3-35 146.3-77.3 207-36 51.8-67.3 101.7-92.8 160-10.7 13.5-33.3 53.2-55.6 47-10-2.8-9.3-13.3-20-4-13 11.2-12.4 53-15 68.2-5.3 30.7-11.6 61.7-23.6 90.7-11 26.8-25.3 49.8-51.4 63.6-13 6.8-27.3 10.5-40.8 16.3-44.8 19.3-80 59.3-110.8 95.7-41 95.7-87.4 188-142 276.7 65.4-1.7 88.3 47.7 119.2 96.5 28.6 45.4 42 93.2 60.7 143 19.6 51.7 46 96 107.3 75 29.7-10 57.7-30.8 89-35.6 41.8-6.5 60.3 42 76 71.8 19 55.4 36 126 79 168.8 10.3 10.3 23 15.5 34.2 24 14.5 11 19.8 26 24.5 43.2 15.8 57.8 12.7 121 14.3 180.5 1.6 54.5-1.6 124.8 34 170.4 30.6 23 66 25.8 101.2 37.6 54.3 18.3 98.6 56.7 136.6 98.6 34.8 38.4 62 84.7 99.4 120.6 15.6 15 29.7 20 48.6 28.2 21.7-6.2 43 3 62 12.5 27.2 13.5 54 27.4 81 41l173.2 88" stroke-width="3.5"/>
    <path d="M508 39.8C560.7 80 594.7 134 642.7 179c26.6 24.8 58.3 39 94 44.8 20 3.4 40.6 4 60.3 9 24.7 6 42.5 21 60 38.5 15.7 77.7 35 155 47.5 233.2 4 25.6 7 50 2 75.8-2.7 15.3-8.3 30-11.2 45-7.4 38.5 13.6 72 12 109.6-.5 12.4-5.3 19.4-11.5 29.7-10 16.4-10 31-8 50-23.6 72.3-29 157.6-72.2 222-12.3 18.4-29.2 33-42.2 51-21.4 29.6-36 64.3-50.4 97.7-9 12.5-38.7 67.2-60.6 62-8.2-2-9-19.5-17.7-18.8-15 1.2-19 45-21 54.2-6.5 31.3-12.8 62.5-22.6 93-9.3 29-20.7 63.6-46 83.3-13 10.3-29 16.2-44 23-40.2 18.2-69.6 47.7-101 78.2-40 88.2-85 173.6-135.3 256.4 63.2 6.3 78 72 101.7 121 23.3 48.2 40 98.5 62.4 147 10 21.3 22.4 47 44.8 57.8 22.7 11 48.3 3.4 70.5-5.2 25.6-9.8 57.6-31.5 86.2-27 36.6 5.6 55.4 67 69.2 94.8 17.7 51 35.6 117.4 81.4 151.3 9.8 7.3 21.5 12 31 19.5 16.5 13 23 34.4 27.2 54.2 13.3 61.7 10 126.8 12 189.6 1.8 53.5.6 123.3 40 165 36.6 21.8 79.3 24.2 117.5 42.7 51.4 25 93 66 129.7 108.8 29 33.8 53.8 74.2 89.6 101.3 13 9.8 27.7 11.5 41.6 19.2 24.6-3.3 47.6 11.2 68.6 21.8l81 41 173 88" stroke-width="3.6"/>
    <path d="M524.6 39.6c52 41.4 84.8 102.3 138.2 141.7 29.5 21.8 63.2 30.2 99 35.6 46.2 7 74.3 19.8 105.6 55.7C882.2 349 900.4 425 912 502c3.8 25 6 49 2.8 74-1.8 14.7-5.5 29.2-6.3 44-2 36.8 22 72.4 16.8 108.6-1.8 12.5-8.6 18-15.8 27.4-12.5 16.4-11 33-8.6 52.8-21.4 76.7-23 168.3-65.7 237.7-11.7 19-28 32-43.7 47.4-24.5 24-36.4 57-49.7 88-13.5 19.7-26.5 40.3-41.7 58.7-3.8 4.5-16 21.8-24.7 20.8-13.5-1.5-8.2-18.6-15.5-25.3-14-13.2-22 21.5-25 31.4-8.8 30-15.3 60.8-23.8 91-9.3 33.2-18.2 70-39.2 98-12.3 16.4-29 25.6-46.8 35-37.3 19.3-66.5 42.4-96.8 71.7-36 78-79.3 153-123.8 226.2 57 18.6 64.5 97.6 83.4 146.7 18.7 48.8 40 101 66 146.4 11.5 20.2 25 41 49 47.3 24.4 6.6 50.5-4 73-12.6 22.8-9 57-28 81.2-12.8 12.4 7.8 20.5 24 27.2 36.2 13.6 24.6 24.8 50.6 37 76 17.8 48.5 36.7 104 83.2 132.2 11.5 7 23.4 12.4 32.7 22.5 16.8 18.4 22 45.2 25.8 69 10 63.4 7.2 128.2 10 192 2.4 52.5 5.3 118.4 47.3 156.3 37.5 18.3 80 21.5 117.4 42 51.4 28 92.7 71 130.4 115.2 24.3 28.5 47.7 63.2 80.2 83.3 13.4 8.3 29.2 10 42.5 19 29 1.4 57 21.3 82.3 34l77.8 39.5 168.3 85.4" stroke-width="3.7"/>
    <path d="M538.8 37.8c51 42 82.8 104.7 139.7 140 30.4 19 64.4 25 99 31.4 45.4 8.6 71.3 29.3 99.6 65.3 14.3 76 31.8 151.7 42.5 228.4 5.4 38.5-1.5 76.5 3 114.7 4 33.3 27.8 70 20 103.6-3 13-11.4 17-19.8 26.2-15.4 16.6-12.2 35.7-9 56.8-19 82-17.4 178-58.3 253.3-11 20-26 34-44.2 47.2-26.7 19.4-37.8 43.4-50.7 73.7-14 22-27.8 44.2-43 65.5-4 5.8-18.8 31.2-28.2 32.5-14.6 2-13.6-8.2-16.7-21-4.8-20-11-25.3-22.8-3.8-13 23.7-18.7 53-26 78.8-15.3 55-24 129-75.6 163.2-36.5 24.2-71 44-103.2 74.4-33 67.2-72.6 131.6-111.5 195.4 25.7 18.7 33 47 41 76.6 9 32.5 15 66 25.5 98 8.6 25.8 22 50.2 33.6 74.8 11.5 24.2 23.7 49.4 39.7 71 32.7 44.3 75.7 32 121 16.4 26-9 55.3-19.5 76.4 4.7 29.2 33.6 43 84 62.4 123.6 19.6 48.7 40 88 86 114.4 41.4 24 51.3 66 56.7 111 7.6 63.4 5 127.2 9.5 190.7 3.3 47.6 9.7 119.7 56.7 146.4 45.8 13 89.2 25 129.4 52.2 48.5 32.8 86.5 77.4 124.7 121.2 17 19.6 37.6 42.8 61 54.8 16 8 31.5 11.2 46 22.5 30.5 7 59.4 26.7 87 40.7 26 13 52 26.3 77.8 39.4l168.3 85.4" stroke-width="3.8"/>
    <path d="M551 35c50.2 43.7 83 106.3 143.5 138.3 31 16.4 65 20.7 98.6 29.2 43.4 11 67.8 39 93.3 74 13.4 74.3 29.8 148.3 39.8 223 5.2 37.3 1.7 76.6 11 113 8 31 33.4 72.2 21.6 104.3-4.6 12.5-15.2 15.7-24.3 24-18.4 16.5-9.6 40-5.8 61.5-25 86.6-14.2 184-52.8 267.3-9.8 21.2-23.5 37.7-43.7 49.6-26.5 15.5-39 31.4-53.6 59.3-15.7 22.2-29.3 45.4-44 68.3-8.8 14-19 33.8-32.2 44.6-14 11.4-17 3.7-20-11.2-2.5-12 1.8-43.5-16.6-34-17 8.8-26.4 52-31.4 67.7-12.4 39-21 79.5-34 118.5-7.7 22.7-16.8 46-34.5 63-16.6 15.7-38.2 26-57 39-17.2 11.8-32.8 25.3-48 39.4-31 57-66.2 111.6-100.6 166.5 37 54.6 33 131.3 50.3 193.3 7.5 26.6 21 50.2 34.5 74 12.6 22.2 25.5 46.8 42.4 66 38 43.2 83 21 130.5 10 31.4-7.6 50.6 1 67.6 28.8 24.3 39.6 38 86 59.4 127.3 11 24.3 22.7 49.3 42 68.2 14 14 31.5 20.5 47.5 31.3 41 27.8 48.7 85 53 130.2 6.2 61.8 4.2 124 10.7 186 5.6 54 18.3 108.4 69.4 135.8 49.3 13.2 93.6 32 134 63.8 42.6 33.3 74.8 76 113.3 113.3 15.2 15 31.6 31.2 51.5 39.7 19 8.2 34.8 15.3 51 29.2 114 51.2 224.5 113 336 169.7" stroke-width="3.9"/>
    <path d="M562 31.3c49.5 46 85.2 107.4 148.8 136.6 31.2 14.2 65.4 17.7 97.5 29 40.2 14.2 63.4 48.2 86.7 81.8 12.6 71.2 27.6 142.2 37.3 214 5 37.3 5.4 76.3 18.3 112.2 10.7 29.6 40.2 79.3 21.7 110-6.4 11-18.8 12-27 20.6-17.5 18.7-6.8 55-4.3 76.6-18.6 88-12.2 185-45 269.7-8.7 22-21 42.4-42.5 54-8.7 4.7-18 7-26 12.6-13 9-21.7 23.7-30 36.5-34.4 35.8-51.6 81.3-82 119.8-9.3 12-19.2 23.5-25.4 4.7-3.5-10.8 4-52-8.6-57.4-15.2-6.4-32.4 40.5-35.6 48.4-15.6 39.5-24.8 81.4-36.6 122-7 24.8-14 51.7-29.2 73-14 20-36.8 32.4-56.4 46.2-17 12-32.7 25-48 38.8-29.6 48.4-60.7 95.7-92.2 142.8 23 71 19.2 147.4 41.2 218.4 8 26 23.7 46.5 38.7 68.6 14 20.4 25.5 43.8 45 59.6 42.2 34.4 84.8 1.8 131 2.2 31 .3 47.4 27.4 59.6 52.8 20 41.7 34.4 85.3 57.4 125.7 11.4 21.8 24 42.8 43.8 58 16 12.4 35.4 18.4 49.7 32.7 37.3 37 44 95.4 48.3 145 5.3 59.4 4 119.7 13.2 178.8 4 26 10.4 52.5 23.2 75.7 14.3 25.7 36 38 61 51.6 52.3 16.3 97.2 42 138 78.5 32.7 29.4 60.2 64 93 93.6 14.5 13 29 24.5 47 32 23.3 9.8 41 23.2 60 40 112 57 224.3 114 336.5 170.8" stroke-width="4"/>
  </g>
</svg>
