<?xml version="1.0" encoding="UTF-8" standalone="no"?>
<!-- Created with Inkscape (http://www.inkscape.org/) -->
<svg id="svg5896" xmlns:rdf="http://www.w3.org/1999/02/22-rdf-syntax-ns#" xmlns="http://www.w3.org/2000/svg" height="3208.9375" width="1671.078" version="1.1" xmlns:cc="http://creativecommons.org/ns#" xmlns:dc="http://purl.org/dc/elements/1.1/">
 <metadata id="metadata5901">
  <rdf:RDF>
   <cc:Work rdf:about="">
    <dc:format>image/svg+xml</dc:format>
    <dc:type rdf:resource="http://purl.org/dc/dcmitype/StillImage"/>
    <dc:title/>
   </cc:Work>
  </rdf:RDF>
 </metadata>
 <g id="layer1" transform="translate(610.37889,1203.5342)">
  <g id="g5" transform="translate(-574.01965,-1787.8779)">
   <g id="g7" stroke="#dce0df" stroke-miterlimit="10" fill="none">
    <path id="path9" d="m146.323,592.044c78.259,48.935,156.054,98.611,233.84,148.294,31.736,20.27,64.538,39.072,92.033,65.066,43.432,41.061,78.778,88.301,131.314,118.7,20.894,41.041,60.059,66.239,83.066,105.464,21.762,37.103,20.563,82.864,10.545,123.46-8.351,33.84-21.376,65.703-22.44,101.048-1.913,63.581,7.012,128.67,9.134,192.308-4.9,44.387-4.528,101.226-26.868,141.267-18.201,32.623-57.773,50.297-88.686,68.312-29.947,17.452-61.058,36.386-80.683,65.846-21.874,32.836-26.067,73.131-25.102,111.589-9.231,32.441-34.205,87.099-65.232,43.577-5.312-7.451-10.831-20.641-22.053-19.743-20.276,1.623-41.237,48.809-49.636,62.88-30.971,51.89-58.937,105.51-90.736,156.919-23.725,38.355-49.14,81.295-84.823,109.933-52.629,42.238-115.6,47.772-179.615,55.593-22.395,175.259,28.395,348.242,24.979,523.482,9.531,6.656,17.828,5.711,24.891-2.834,5.935-10.861,9.89-22.417,11.864-34.669,5.472-23.87,5.741-65.921,26.143-83.45,15.33-13.171,30.692,0.894,46.202,5.768,21.286,6.688,43.459,5.155,64.278-2.334,34.973-12.58,62.896-42.564,90.607-1.594,51.854,76.662,57.151,176.939,120.438,247.288,18.02,32.932,47.327,43.383,76.55,64.249,32.614,23.288,57.621,54.957,78.741,88.673,38.608,61.633,66.483,124.18,80.504,195.368,48.947,70.667,63.592,156.646,142.076,204.183,29.913,18.118,60.826,24.915,94.805,30.685,51.099,8.677,77.844,39.674,104.525,82.821,38.738,37.785,71.631,80.916,109.689,119.343,22.262,22.478,44.989,42.07,75.551,51.454,53.34,16.377,101.107,34.917,151.046,60.513" stroke-width="2"/>
    <path id="path11" d="m161.342,590.614c79.098,50.025,157.805,100.692,236.415,151.479,31.735,20.503,61.617,40.267,88.213,67.42,40.587,41.438,76.021,89.782,129.871,114.813,22.022,40.766,61.488,67.844,83.55,108.489,21.079,38.834,19.669,84.921,7.933,126.415-9.85,34.828-24.27,67.312-25.235,104.141-1.597,60.984,5.151,122.803,5.581,183.914-4.362,45.239-0.917,101.805-19.924,143.894-16.342,36.188-55.961,52.068-88.86,69.753-31.542,16.955-65.206,35.249-86.225,65.302-20.573,29.415-24.275,64.065-21.888,98.978-3.937,20.86-25.083,101.44-57.176,64.226-7.061-8.188-11.245-24.081-22.686-27.585-18.072-5.534-33.989,24.581-41.733,35.931-61.428,90.032-103.498,192.715-173.407,277.207-47.496,57.404-112.919,80.153-185.668,82.563-12.838,62.64-10.836,123.702-5.74,187.23,8.119,101.205,22.444,202.301,24.594,303.89,24.229-7.286,24.594-32.125,29.143-54.275,3.942-19.195,6.745-61.373,31.191-67.577,15.198-3.857,37.373,13.92,52.811,16.644,21.592,3.81,42.935,0.205,63.249-7.424,12.658-4.753,25.963-13.507,39.539-15.279,26.693-3.484,38.015,20.312,48.481,41.335,18.107,36.375,30.416,75.683,45.148,113.46,17.284,44.32,32.794,96.604,75.806,121.751,23.632,25.372,58.412,35.459,85.251,57.157,34.413,27.822,59.599,65.401,81.399,103.434,19.049,33.233,38.431,67.457,52.017,103.37,10.774,28.482,14.718,57.595,18.97,87.556,21.165,38.914,33.681,81.95,57.031,119.786,21.955,35.577,53.601,63.745,91.957,80.644,29.754,13.109,60.153,13.49,91.639,18.418,54.223,8.485,78.887,57.028,104.403,100.709,50.858,56.183,100.379,140.756,178.258,160.879,55.808,14.42,103.547,36.122,155.044,62.233" stroke-width="2.0999999"/>
    <path id="path13" d="m176.331,589.162c79.725,51.071,159.263,102.481,238.474,154.344,31.756,20.792,58.96,42.758,84.878,70.689,37.331,40.23,74.113,92.388,129.275,107.869,22.914,41.69,61.746,71.96,82.749,114.868,20.034,40.928,18.422,87.195,4.697,129.722-11.518,35.687-27.32,68.674-28.039,106.988-1.08,57.546,3.345,115.231,2.153,172.898-4.761,46.039,0.738,100.834-16.014,144.436-13.524,35.202-42.996,53.186-75.096,69.32-68.389,34.374-129.624,71.506-121.242,157.479-2.634,17.238-15.297,107.378-49.789,81.508-9.698-7.274-11.952-22.131-22.173-28.864-14.011-9.23-25.888,2.503-35.268,12.936-33.154,36.878-55.732,84.951-80.434,127.517-28.783,49.599-57.796,99.293-91.004,146.106-27.848,39.258-57.712,76.284-101.926,97.49-27.864,13.365-57.141,18.964-87.803,20.251-15.709,56.257-15.657,111.031-11.962,169.03,5.905,92.697,17.308,185.004,20.988,277.846,29.107-18.894,14.713-121.004,64.006-106.435,22.859,6.756,39.361,19.014,64.632,19.527,19.092,0.387,36.785-4.44,54.749-10.257,12.889-4.174,28.501-12.299,42.445-7.922,22.993,7.218,34.629,45.445,42.44,64.52,18.243,44.551,32.32,90.726,51.622,134.864,7.175,17.375,15.738,34.033,25.689,49.975,14.006,20.057,22.864,26.124,46.609,26.623,28.026,20.716,61.481,29.721,88.08,53.542,37.825,33.874,64.016,79.145,87.457,123.572,17.594,33.346,37.418,66.938,48.281,103.272,8.084,27.04,8.938,55.204,11.657,83.111,33.348,78.566,59.552,158.79,148.175,189.265,32.149,11.055,65.371,6.607,98.02,13.484,54.9,11.563,81.32,79.03,106.028,122.475,48.826,57.442,94.085,130.289,172.221,146.082,56.77,11.475,105.118,38.197,156.416,64.207" stroke-width="2.20000005"/>
    <path id="path15" d="m191.45,587.804c80.006,52.012,160.202,103.789,239.651,156.649,31.634,21.047,56.915,46.569,82.259,74.768,36.787,40.931,72.22,88.573,129.089,99.105,23.524,43.523,61.317,77.741,81.146,123.493,18.731,43.216,16.933,89.504,1.021,133.116-13.295,36.439-30.267,69.76-30.605,109.559-0.453,53.48,1.694,106.527-0.829,160.057-6.195,45.669-0.347,96.067-13.709,140.266-10.389,34.365-35.247,59.649-65.861,77.178-59.954,34.328-141.833,63.675-128.382,149.207-2.715,17.755-7.403,112.498-44.417,95.206-22.671-10.591-21.511-47.476-54.021-24.356-33.134,23.564-54.376,72.663-74.397,106.497-29.439,49.749-58.338,99.847-90.121,148.158-48.098,73.111-99.871,146.541-193.119,156.014-17.168,50.043-20.427,98.38-18.513,150.995,2.972,81.713,11.761,163.107,15.435,244.79,15.347-18.534,15.07-44.822,23.524-66.431,11.698-29.9,26.42-23.215,50.457-11.78,40.253,19.149,77.665,13.538,119.114,4.079,13.094-2.988,25.263-5.968,37.381,1.625,24.347,15.255,35.034,61.868,43.998,86.431,14.952,40.97,28.149,82.84,46.515,122.473,8.331,17.979,18.654,42.838,35.297,55.222,15.826,11.775,29.992,6.888,47.372,2.253,39.161,18.264,72.624,34.269,101.612,67.854,35.112,40.68,59.169,89.635,82.691,137.527,14.394,29.307,31.093,57.987,38.564,90.091,6.547,28.132,4.932,58.034,7.044,86.684,15.747,45.221,29.704,91.7,64.407,126.567,24.838,24.955,58.069,44.347,92.737,51.213,31.348,6.209,65.443-0.653,95.912,9.613,18.566,6.255,30.793,19.032,42.184,34.512,25.48,34.627,45.601,73.518,66.687,110.869,30.721,37.057,61.539,80.677,102.021,107.965,20.05,13.515,42.315,15.364,65.419,19.533,55.807,10.071,105.421,41.384,155.339,66.694" stroke-width="2.29999995"/>
    <path id="path17" d="m206.859,586.651c79.794,52.614,161.445,103.087,239.581,158.15,31.144,21.948,55.465,51.239,80.584,79.555,16.87,19.017,33.859,38.12,52.716,55.216,23.422,21.235,45.304,30.072,76.507,33.798,23.341,45.26,58.844,83.281,77.733,131.01,17.603,44.479,17.392,90.604,0.049,134.926-15.742,40.232-35.131,75.096-34.381,119.736,0.805,47.899,0.034,95.009-3.125,142.825-9.004,45.349-3.019,93.234-14.788,137.799-9.313,35.261-31.795,63.17-61.217,84.03-51.224,36.318-140.807,61.243-127.974,141.902-4.436,22.187,0.923,108.888-36.878,107.999-23.416-0.551-22.304-38.485-52.034-27.456-30.137,11.181-50.393,51.828-66.111,76.86-29.847,47.532-57.613,96.339-87.427,143.896-48.98,78.132-104.105,182.138-202.001,203.266-41.42,109.387-20.748,228.43-16.192,342.487,10.693-17.261,11.303-53.163,28.109-65.181,18.005-12.876,41.698,10.151,58.861,16.324,41.364,14.879,75.794,5.382,117.36,2.733,51.318-3.27,65.263,82.54,77.699,118.491,14.772,42.706,28.2,88.893,52.71,127.286,23.256,36.429,47.293,31.171,83.471,16.051,102.074,34.872,143.224,139.226,185.908,229.474,11.459,24.227,25.793,48.597,31.217,75.168,6.693,32.788,2.608,68.417,4.862,101.682,14.344,45.943,30.081,88.452,68.204,119.985,26.168,21.645,56.115,37.268,90.027,41.589,30.755,3.919,64.453-2.881,93.938,8.585,24.923,9.692,39.062,32.836,52.944,54.367,24.291,37.677,45.783,77.178,67.945,116.121,26.973,32.359,58.234,78.992,99.158,95.385,17.591,7.047,37.326,6.66,55.769,9.8,57.385,9.767,110.145,45.052,161.295,70.987" stroke-width="2.4000001"/>
    <path id="path19" d="m222.718,585.82c78.835,52.716,163.906,100.545,238.348,159.417,30.269,23.938,54.108,55.495,79.635,84.136,16.465,18.473,33.337,36.998,52.515,52.724,23.386,19.176,47.638,23.036,77.07,25.37,44.121,91.497,117.421,174.257,71.25,280.719-17.784,41.006-37.128,75.311-35.817,121.584,1.233,43.524-1.444,86.052-4.284,129.424-12.069,40.038-8.667,80.791-15.523,121.51-6.171,36.651-23.269,68.678-50.209,94.259-43.724,41.518-144.881,70.066-135.015,146.123-8.971,28.304,6.666,102.797-29.701,116.448-21.469,8.058-29.867-25.767-52.56-22.403-24.369,3.613-44.839,31.526-57.723,49.53-29.898,41.776-55.161,86.982-82.063,130.689-37.685,61.226-75.958,123.085-121.683,178.739-25.659,31.231-52.399,56.914-90.469,71.52-38.565,94.879-31.574,190.519-29.212,291.212,7.575-13.125,13.924-45.113,30.735-49.789,9.991-2.779,20.099,6.662,27.863,11.021,10.9,6.12,22.448,11.124,34.302,15.076,20.938,6.979,42.814,10.413,64.867,10.489,18.123,0.062,37.01-4.591,55.044-2.467,17.804,2.097,26.316,13.538,34.328,28.732,18.5,35.081,28.373,75.251,41.171,112.585,12.835,37.44,25.205,79.878,49.31,111.953,27.122,36.088,64.076,13.062,96.772-2.684,103.185,32.372,141.179,160.845,181.374,248.683,9.9,21.635,24.44,42.602,27.996,66.54,5.781,38.926,0.366,80.019,3.402,119.328,14.142,45.442,32.537,80.207,70.965,109.248,27.963,21.132,57.777,32.802,92.808,34.812,32.37,1.857,70.645-4.817,98.503,15.872,24.928,18.512,41.061,49.203,56.747,75.125,22.474,37.14,43.635,75.07,65.483,112.578,25.171,29.14,53.619,68.877,93.906,76.789,18.125,3.56,36.778,2.535,54.908,6.462,56.317,12.199,109.768,48.533,160.642,74.329" stroke-width="2.5"/>
    <path id="path21" d="m239.187,585.422c48.76,32.97,98.028,65.182,146.947,97.914,30.929,20.695,64.497,40.15,91.788,65.667,30.034,28.083,54.601,61.678,82.619,91.687,15.835,16.96,33.253,36.514,54.056,47.49,21.425,11.304,46.304,11.231,69.904,12.695,42.002,94.708,114.833,189.816,64.522,295.969-19.711,41.589-38.309,75.036-36.328,122.686,1.649,39.67-2.423,78.327-3.85,117.845-18.306,35.255-14.84,75.521-20.671,113.599-5.493,35.871-19.348,68.702-43.004,96.391-24.643,28.844-56.288,49.815-86.196,72.634-24.246,18.499-50.47,44.43-48.732,77.772-18.998,34.616,4.361,80.977-19.951,115.241-20.467,28.844-33.35-2.545-56.25-5.114-17.641-1.979-38.42,14.409-50.099,25.672-30.457,29.37-51.643,70.808-73.761,106.331-40.071,64.355-79.64,129.175-124.226,190.554-28.971,39.884-59.017,81.04-101.647,107.091-33.612,81.291-40.47,158.383-41.191,245.794,8.636-13.185,17.924-35.705,37.428-30.242,10.646,2.982,22.017,12.602,32.144,17.334,15.107,7.059,30.952,12.583,47.152,16.524,20.129,4.896,40.528,6.839,61.19,7.337,15.487,0.373,34.778-2.244,48.981,5.568,16.553,9.104,23.936,32.033,30.201,48.416,15.124,39.551,26.146,80.572,40.625,120.362,10.224,28.097,22.916,74.83,50.029,92.097,31.095,19.803,75.979-13.872,103.101-26.985,49.446,17.665,81.104,65.879,104.997,109.899,28.641,52.768,43.756,112.253,73.171,164.268,10.485,18.541,20.461,32.3,21.954,54.208,3.105,45.571-1.361,91.033,3.233,136.728,26.13,75.494,88.949,123.622,168.78,125.504,39.428,0.929,71.465,0.261,100.971,30.31,25.312,25.777,43.186,57.937,61.482,88.76,21.399,36.049,42.156,72.466,63.904,108.309,23.193,24.921,45.858,52.075,81.562,55.661,19.688,1.977,38.746,0.816,58.125,5.965,56.756,15.08,111.212,51.734,163.288,78.139" stroke-width="2.5999999"/>
    <path id="path23" d="m257.209,586.039c50.041,33.741,100.44,66.949,150.389,100.827,29.136,19.761,59.127,38.511,83.694,63.98,28.984,30.048,53.795,63.844,83.057,93.67,15.684,15.986,32.692,32.981,54.103,40.962,22.03,8.212,47.25,6.866,70.37,8.382,40.661,100.931,112.499,207.065,55.65,315.441-21.833,41.622-35.794,73.632-33.175,121.745,1.939,35.632-2.499,70.835-1.593,106.367-23.432,29.929-22.461,68.978-28.141,104.664-5.517,34.669-16.794,67.374-37.195,96.185-21.619,30.531-50.492,54.359-78.109,79.163-22.423,20.138-51.385,46.1-54.477,78.346-12.704,12.842-9.911,33.385-9.964,49.796-0.064,20.089,0.257,41.625-6.85,60.756-5.063,13.629-14.995,29.012-31.441,27.211-9.731-1.066-17.655-8.813-27.333-10.443-49.381-8.313-88.276,59.697-109.369,91.837-72.768,110.876-136.501,238.763-235.151,329.42-27.405,68.034-46.78,136.469-51.442,209.732,15.635-17.207,25.891-17.909,45.937-7.287,25.467,13.494,54.538,23.592,82.514,30.295,19.579,4.691,39.352,6.882,59.313,9.092,15.506,1.717,32.994,2.564,45.226,13.482,14.87,13.273,21.287,38.214,27.433,56.223,13.36,39.148,24.188,79.123,38.765,117.864,10.375,27.574,24.686,78.025,59.494,82.868,36.042,5.015,76.288-27.382,107.641-41.049,54.179,24.918,84.7,88.736,107.58,140.155,21.354,47.991,33.784,103.37,63.536,147.21,13.298,19.595,18.277,32.494,18.637,56.905,0.75,50.915-2.075,100.994,5.101,151.691,16.326,38.308,47.873,72.085,85.272,91.371,28.933,14.92,59.988,15.175,91.715,16.225,16.09,0.532,33.785,0.585,48.992,6.59,22.279,8.797,40.775,29.651,55.51,47.637,48.228,58.866,81.004,130.345,122.295,194.066,23.919,22.544,41.625,35.527,74.528,35.584,18.239,0.032,35.099,0.356,52.783,5.628,25.008,7.456,47.94,20.999,71.084,32.735,32.957,16.711,65.914,33.421,98.871,50.132" stroke-width="2.70000005"/>
    <path id="path25" d="m278.25,588.539c47.567,32.078,95.364,63.823,142.657,96.306,28.894,19.846,56.844,38.954,80.535,65.015,28.621,31.484,53.939,65.858,84.633,95.471,16.209,15.638,33.355,29.185,55.525,35.059,22.915,6.072,48.097,4.216,71.584,6.296,23.525,64.602,54.43,126.487,68.249,194.308,10.252,50.316,6.08,90.63-18.701,135.402-23.221,41.954-34.636,72.862-30.911,121.597,2.594,33.937,0.02,67.873,2.23,101.777-24.831,28.408-30.241,59.158-37.177,95.164-6.345,32.937-15.696,64.665-33.07,93.608-36.082,60.106-104.022,99.158-127.915,166.656-16.122,8.927-15.797,24.989-15.805,41.363-0.011,20.777,1.117,41.751-3.214,62.246-3.611,17.085-11.377,39.137-30.708,43.683-10.487,2.466-20.351-2.763-30.617-3.766-45.868-4.482-79.427,37.571-102.839,70.728-77.274,109.44-141.695,227.156-228.71,329.691-15.438,36.936-23.964,76.461-40.832,112.626-12.03,25.792-19.365,50.423-23.817,78.686,20.324-12.087,38.023,3.678,57.242,10.673,28.424,10.346,57.619,20.365,87.013,27.546,33.524,8.19,77.356,6.523,96.595,39.793,12.81,22.153,19.035,49.02,26.447,73.269,12.332,40.342,23.725,81.722,42.05,119.87,12.155,25.305,25.959,47.99,57.344,44.336,39.482-4.597,75.619-34.779,112.957-47.654,51.911,35.573,78.73,98.719,100.677,155.502,17.723,45.854,31.022,99.702,62.584,138.487,14.769,18.148,15.666,35.879,15.856,59.065,0.473,57.654-2.597,114.909,9.288,171.776,19.121,32.593,50.967,65.058,86.525,79.602,29.845,12.208,61.729,9.871,93.148,12.739,49.584,4.526,82.922,41.131,111.329,79.338,43.664,58.728,75.489,125.417,118.261,184.829,23.861,17.659,39.726,18.521,67.838,17.496,20.308-0.74,38.741,2.895,57.644,10.401,57.385,22.787,112.301,56.069,167.344,83.978" stroke-width="2.79999995"/>
    <path id="path27" d="m301.664,592.518c71.962,48.665,155.148,92.804,212.426,159.455,26.538,30.881,51.296,63.528,81.4,91.141,39.076,35.843,83.033,30.152,132.029,36.501,34.109,103.89,106.94,232.342,46.849,338.469-22.718,40.123-36.033,69.778-30.327,116.988,4.245,35.118,2.203,69.846,5.014,104.917-20.871,29.48-35.498,58.215-44.947,93.076-8.518,31.427-17.004,62.15-32.821,90.874-33.465,60.774-90.505,104.577-117.787,169.198-14.855,13.343-23.701,12.731-24.68,35.011-0.899,20.461,1.1,40.811-1.339,61.26-4.452,37.318-18.122,64.495-57.609,65.231-38.917,0.726-65.793,12.547-92.874,42.308-36.37,39.97-63.861,89.585-93.35,134.563-42.29,64.502-85.297,128.373-131.784,189.944-17.617,41.923-29.376,86.596-49.221,127.5-10.586,21.821-24.933,40.782-31.559,64.46,11.335-1.531,20.369,4.616,30.477,8.517,12.229,4.719,25.105,7.823,37.704,11.351,26.187,7.331,51.723,16.524,77.766,24.288,38.42,11.454,76.721,15.08,94.797,54.875,28.549,62.853,33.815,135.038,69.481,195.17,14.856,25.046,35.459,31.729,63.221,23.57,40.979-12.043,73.69-39.361,116.319-48.256,86.026,77.76,80.676,209.022,153.789,293.845,17.876,20.738,15.283,48.349,15.427,74.512,0.331,60.326-2.229,122.029,15.652,180.338,20.915,28.349,45.958,55.8,79.835,68.234,31.289,11.484,64.426,7.103,96.49,13.664,52.407,10.723,91.323,61.092,120.361,102.15,39.287,55.55,68.071,120.663,113.969,171.328,19.773,7.92,34.505,5.291,54.942,3.996,21.821-1.383,41.705,3.849,61.573,12.713,59.001,26.323,116.009,58.577,173.628,87.792" stroke-width="2.9000001"/>
    <path id="path29" d="m326.732,597.526c72.212,49.083,146.903,92.847,203.042,160.517,25.784,31.081,51.988,68.434,86.499,90.367,38.03,24.17,83.203,16.484,125.488,24.501,21.391,71.987,47.963,142.459,61.588,216.555,9.255,50.332,7.357,88.358-18.39,132.812-23.203,40.061-32.57,68.932-25.394,115.701,5.15,33.565,1.698,66.206,4.686,99.706-18.295,29.573-36.2,61.727-49.218,94.046-11.214,27.841-18.824,56.692-32.294,83.676-30.957,62.013-82.506,110.471-110.557,174.254-11.039,8.65-28.504,13.293-33.05,27.274-5.439,16.726-0.709,39.359-1.616,56.72-2.159,41.291-11.294,86.789-57.931,95.406-12.685,2.344-25.738,1.222-38.339,4.162-18.742,4.372-34.518,16.102-48.751,28.553-36.62,32.038-62.236,77.133-88.956,117.144-39.399,58.999-78.696,117.99-119.731,175.872-19.407,46.274-34.299,94.733-56.651,139.711-12.025,24.198-27.516,45.783-41.189,68.949,25.01,10.339,51.672,13.248,77.748,19.949,26.722,6.866,52.128,17.542,78.021,26.906,17.82,6.444,37.699,12.38,53.299,23.565,17.943,12.865,25.162,33.912,31.884,54.135,9.897,29.774,17.586,60.244,27.144,90.127,9.209,28.792,18.83,67.995,40.226,90.65,19.046,20.167,47.06,13.914,69.746,4.561,40.538-16.714,72.084-41.927,117.643-42.9,48.286,57.182,65.209,132.373,92.752,200.374,8.602,21.237,17.609,42.844,29.811,62.325,7.277,11.617,16.886,19.035,25.243,29.252,18.633,22.781,12.723,65.627,13.125,92.581,0.918,61.622,1.848,124.228,20.953,183.406,20.961,27.588,45.449,50.814,79.453,60.561,32.678,9.367,68.07,5.084,99.767,18.141,54.941,22.631,94.738,77.218,126.842,124.657,20.824,30.771,39.664,62.832,60.558,93.565,12.109,17.812,24.957,39.875,43.157,52.287,17.165,3.211,33.197-2.991,50.203-3.508,23.718-0.72,45.339,8.789,66.097,19.226,58.067,29.197,115.935,58.797,173.903,88.189" stroke-width="3"/>
    <path id="path31" d="m352.735,603.117c41.399,28.351,84.149,55.724,123.665,86.714,25.672,20.134,45.433,45.732,66.095,70.721,24.085,29.128,49.495,63.932,83.408,82.112,40.149,21.522,87.09,12.736,129.94,24.176,20.522,75.744,45.388,150.312,59.457,227.678,9.134,50.23,7.363,85.751-18.308,129.956-22.946,39.512-27.912,68.398-20.369,113.689,5.383,32.323-0.24,63.048,2.825,95.213-31.274,56.816-55.947,116.958-84.036,175.297-29.933,62.17-76.217,114.356-104.331,177.595-10.991,8.896-32.39,15.487-40.434,26.371-8.496,11.497-3.431,39.165-3.99,52.332-1.852,43.62-7.596,97.053-53.584,115.758-27.809,11.311-54.601,6.926-80.787,25.11-31.276,21.719-54.022,52.774-75.768,83.437-40.456,57.045-78.593,115.76-118.196,173.399-34.214,82.061-64.797,161.193-113.825,235.728,28.394,4.204,57.152,5.465,84.883,13.464,26.535,7.655,51.174,20.681,76.024,32.48,16.488,7.829,34.855,16.701,46.856,30.927,13.379,15.859,19.326,37.97,25.274,57.361,9.417,30.701,17.42,61.821,27.877,92.204,8.595,24.973,18.681,63.199,43.013,77.822,23.92,14.375,53.323,1.608,75.781-9.251,39.378-19.04,71.407-42.15,116.845-31.697,40.721,62.874,56.204,138.063,86.42,206.032,8.092,18.202,16.838,36.879,29.022,52.779,7.269,9.486,17.68,15.385,24.888,24.51,19.755,25.01,13.471,74.979,14.457,104.197,2.181,64.594,2.525,134.126,24.618,195.582,21.369,27.695,48.268,45.895,82.418,53.575,38.54,8.667,74.492,8.975,109.087,30.959,51.116,32.483,88.704,84.426,121.873,133.944,26.228,39.156,51.307,95.768,93.801,120.369,18.667-0.6,35.598-8.074,54.576-5.788,25.137,3.027,47.94,17.079,70.079,28.304,56.093,28.442,112.186,56.883,168.279,85.325" stroke-width="3.0999999"/>
    <path id="path33" d="m378.953,608.841c37.714,26.093,78.34,50.871,112.727,81.415,22.717,20.179,40.802,45.089,60.139,68.359,24.464,29.439,50.374,62.866,86.391,78.454,41.81,18.095,88.729,9.028,131.488,24.594,19.726,78.879,42.936,156.827,58.136,236.789,4.81,25.306,10.541,50.622,4.276,76.189-4.427,18.068-14.015,33.826-22.967,49.888-21.81,39.131-21.865,68.05-14.359,111.623,5.399,31.346-3.447,60.312-0.293,91.416-29.031,58.688-55.421,118.485-84.973,176.981-30.777,60.921-71.123,116.103-99.383,178.384-10.018,9.145-19.365,17.39-32.106,22.379-3.859,1.511-11.398,2.078-14.539,5.03-9.087,8.541-6.712,27.085-7.292,38.225-2.389,45.916-3.449,106.893-44.035,137.105-26.199,19.502-59.998,15.25-87.677,31.706-21.965,13.059-41.411,32.591-57.842,51.881-41.992,49.298-76.372,105.997-112.783,159.381-37.322,90.028-73.46,177.477-127.274,259.169,29.167-0.078,57.935,0.392,85.761,10.281,25.364,9.014,47.544,24.553,70.067,38.91,43.866,27.961,55.486,64.892,69.542,113.255,8.82,30.349,17.385,60.988,29.676,90.163,9.642,22.887,20.972,48.121,47.772,53.582,27.249,5.552,56.818-12.012,79.8-23.994,37.671-19.64,69.487-35.452,109.33-12.458,32.774,66.112,48.074,139.571,81.444,205.566,8.602,17.014,18.406,34.682,32.689,47.669,8.384,7.623,17.628,11.614,23.133,22.021,18.547,35.061,12.728,88.834,15,126.913,3.666,61.459-0.405,133.87,26.032,190.986,23.026,27.423,52.477,40.468,86.84,47.576,40.522,8.382,75.216,15.851,109.413,41.215,50.971,37.806,88.902,91.317,124.106,143.286,22.07,32.581,44.704,77.912,83.022,94.471,19.284-4.315,35.454-9.207,55.361-4.657,25.987,5.938,50.196,21.641,73.744,33.581,56.093,28.442,112.186,56.883,168.279,85.325" stroke-width="3.20000005"/>
    <path id="path35" d="m404.666,614.252c32.481,22.789,67.673,44.51,96.492,72.03,23.507,22.447,42.432,49.469,63.501,74.109,26.357,30.823,53.753,60.994,94.033,72.47,42.135,12.005,83.914,5.334,124.566,24.784,18.98,80.807,41.884,160.837,57.261,242.46,4.735,25.131,8.957,49.416,2.249,74.596-4.576,17.175-13.556,32.318-21.497,48.037-19.629,38.852-14.26,68.077-7.615,109.687,4.894,30.647-7.743,57.887-4.397,88.334-27.693,62.071-49.51,124.319-84.066,183.069-33.777,57.425-68.665,114.966-95.915,175.806-16.215,16.745-26.068,22.411-46.434,29.355-13.744,4.686-14.242,9.438-16.277,24.602-6.884,51.294-2.613,116.939-41.436,157.216-25.157,26.099-59.25,23.801-89.372,39.393-64.881,33.583-107.186,108.835-146.93,166.039-39.602,95.638-80.761,188.5-137.134,275.672,27.99-2.047,55.097-1.611,81.152,10.177,26.53,12.003,47.968,32.946,69.547,51.966,36.291,31.987,46.622,74.454,60.058,119.357,12.666,42.33,27.648,125.828,84.557,126.409,68.53,0.7,125.8-90.383,186.728-20.157,24.575,66.164,42.374,139.014,79.624,199.635,8.838,14.383,18.956,27.482,32.771,37.362,10.899,7.795,17.936,12.057,23.154,25.26,17.473,44.215,14.709,101.309,16.781,147.888,2.651,59.594-2.357,132.04,26.987,186.22,24.891,26.201,58.249,36.165,92.577,43.493,47.261,10.088,85.269,29.114,121.362,61.974,48.135,43.823,83.903,98.337,121.691,150.776,16.568,22.992,35.09,47.245,62.87,56.797,47.396-16.364,88.439,13.606,129.567,34.459,57.834,29.324,115.668,58.649,173.503,87.973" stroke-width="3.29999995"/>
    <path id="path37" d="m429.156,618.901c29.354,20.991,60.394,41.144,85.242,67.594,23.929,25.473,44.182,54.218,67.772,80.029,25.235,27.61,52.176,49.706,89.367,58.344,44.451,10.325,84.3,5.25,124.923,30.181,18.419,81.616,40.666,162.589,55.102,245.057,4.354,24.871,7.413,48.373,0.84,73.144-4.309,16.239-12.337,30.85-18.868,46.207-16.36,38.466-5.796,68.452-0.66,107.995,3.907,30.082-11.376,55.565-9.197,85.981-26.163,65.148-41.938,134.813-81.448,193.745-35.953,53.625-67.668,110.096-93.778,169.167-14.763,17.072-27.087,35.311-50.353,36.213-13.891,0.539-16.237-2.313-20.75,14.553-14.188,53.025-7.565,109.261-36.831,158.61-21.719,36.623-52.504,40.463-88.171,55.262-55.989,23.232-96.491,81.46-130.75,128.051-40.838,97.842-85.622,192.629-142.403,282.393,64.726-5.236,95.929,29.165,134.667,75.221,33.813,40.201,45.248,85.741,61.32,134.882,15.533,47.493,35.481,115.199,98.579,100.062,32.047-7.688,59.355-27.751,90.122-38.756,41.724-14.924,63.778,12.088,83.662,45.141,21.412,61.28,38.529,133.422,78.987,185.754,18.823,24.347,47.033,30.833,56.846,61.615,16.723,52.458,14.788,112.011,16.51,166.368,1.812,57.176-2.663,128.781,29.637,179.065,25.703,23.058,57.88,30.506,90.471,38.043,50.775,11.741,92.965,40.027,129.822,76.262,44.998,44.239,77.589,97.621,117.866,145.662,15.554,18.552,31.886,31.23,54.466,39.062,46.466-17.097,101.713,26.335,141.221,46.367,56.093,28.442,112.186,56.883,168.279,85.325" stroke-width="3.4000001"/>
    <path id="path39" d="m451.703,622.339c26.985,19.822,53.283,39.168,75.339,64.524,21.871,25.142,41.755,51.86,64.787,76.017,25.985,27.254,55.283,46.158,92.591,53.504,20.245,3.986,40.894,4.414,61.246,7.524,24.812,3.792,44.214,15.061,63.422,30.727,17.592,82.665,39.402,164.732,52.627,248.267,3.846,24.294,5.08,46.979-1.242,70.954-4.023,15.253-11.028,29.457-15.5,44.548-11.436,38.589,6.85,70.943,7.526,109.074,0.218,12.287-3.433,20.21-8.085,31.097-7.014,16.412-8.205,29.41-6.721,47.488-24.938,68.312-35.161,146.241-77.389,207.031-35.951,51.754-67.24,101.616-92.719,159.948-10.609,13.512-33.216,53.181-55.565,47-9.986-2.762-9.314-13.257-20.064-3.994-13.002,11.204-12.34,53.116-14.94,68.226-5.3,30.802-11.558,61.784-23.572,90.77-11.097,26.773-25.259,49.774-51.44,63.553-13.042,6.863-27.302,10.595-40.784,16.39-44.753,19.235-80.053,59.24-110.733,95.621-40.958,95.746-87.478,188.019-142.134,276.748,65.479-1.74,88.392,47.641,119.25,96.514,28.623,45.333,41.932,93.181,60.782,142.973,19.561,51.667,45.85,95.858,107.231,75.072,29.768-10.081,57.729-30.829,89.089-35.655,41.781-6.43,60.208,42.23,75.878,71.838,18.984,55.448,36.062,125.969,79.109,168.845,10.293,10.252,22.801,15.487,34.143,24.027,14.529,10.94,19.811,25.889,24.538,43.197,15.786,57.796,12.643,121.092,14.304,180.442,1.527,54.555-1.601,124.825,33.935,170.434,30.64,23.049,66.105,25.775,101.205,37.605,54.363,18.323,98.669,56.729,136.591,98.645,34.792,38.458,61.991,84.765,99.396,120.636,15.611,14.97,29.722,20.084,48.681,28.245,21.701-6.263,42.918,2.937,62.084,12.483,27.076,13.486,53.964,27.362,80.943,41.042,57.722,29.268,115.444,58.535,173.165,87.802" stroke-width="3.5"/>
    <path id="path41" d="m471.588,624.119c52.848,40.214,86.841,94.288,134.872,139.193,26.61,24.878,58.323,38.928,94.041,44.874,19.977,3.326,40.521,4.063,60.232,8.906,24.586,6.041,42.414,20.922,59.842,38.531,15.76,77.718,34.98,154.893,47.552,233.227,4.108,25.597,6.889,50.051,2.158,75.751-2.816,15.299-8.401,29.906-11.353,45.157-7.433,38.405,13.619,71.886,12.074,109.447-0.517,12.584-5.346,19.533-11.598,29.801-10.016,16.451-10.011,31.038-8.107,50.102-23.491,72.193-28.755,157.578-72.021,221.963-12.366,18.402-29.275,32.932-42.194,50.867-21.404,29.715-36.025,64.371-50.467,97.762-9.059,12.512-38.675,67.273-60.604,61.993-8.196-1.973-9.025-19.437-17.633-18.749-14.992,1.199-19.147,44.976-21.053,54.18-6.482,31.3-12.801,62.512-22.608,92.989-9.381,29.152-20.753,63.631-45.939,83.306-13.141,10.266-29.182,16.077-44.189,22.889-40.163,18.23-69.564,47.736-100.811,78.245-40.045,88.227-85.066,173.613-135.431,256.418,63.162,6.273,77.988,72,101.674,120.981,23.294,48.169,39.924,98.497,62.401,146.919,9.941,21.417,22.433,47.001,44.787,57.885,22.71,11.057,48.357,3.36,70.486-5.177,25.539-9.852,57.545-31.541,86.147-27.097,36.623,5.691,55.428,66.932,69.171,94.865,17.715,50.87,35.629,117.361,81.382,151.258,9.869,7.312,21.531,11.918,31.154,19.543,16.437,13.022,22.785,34.404,27.056,54.148,13.35,61.722,10.18,126.855,12.134,189.603,1.665,53.5,0.489,123.302,39.906,165.147,36.634,21.694,79.28,24.108,117.5,42.621,51.369,24.881,92.922,65.948,129.674,108.788,28.929,33.722,53.769,74.043,89.594,101.159,12.998,9.838,27.729,11.579,41.624,19.247,24.625-3.335,47.572,11.157,68.551,21.794,26.981,13.681,53.962,27.361,80.943,41.042,57.722,29.268,115.444,58.535,173.165,87.802" stroke-width="3.5999999"/>
    <path id="path43" d="m488.27,623.903c51.974,41.437,84.736,102.321,138.132,141.732,29.496,21.771,63.274,30.207,98.916,35.629,46.306,7.045,74.408,19.879,105.75,55.792,14.822,76.422,32.981,152.357,44.606,229.367,3.766,24.948,5.901,48.932,2.786,74.057-1.811,14.609-5.522,29.018-6.299,43.752-1.948,36.923,22.036,72.507,16.77,108.761-1.814,12.49-8.58,17.899-15.762,27.304-12.525,16.401-11.143,32.929-8.641,52.802-21.267,76.789-22.879,168.383-65.588,237.712-11.714,19.015-28.049,32.019-43.706,47.449-24.457,24.103-36.438,57.037-49.742,88.036-13.398,19.742-26.307,40.299-41.544,58.719-3.779,4.569-16.069,21.872-24.743,20.87-13.42-1.55-8.209-18.613-15.481-25.377-14.184-13.192-22.232,21.528-25.125,31.422-8.793,30.081-15.248,60.842-23.716,91.029-9.296,33.142-18.216,69.948-39.235,98.012-12.298,16.42-29.005,25.577-46.782,34.849-37.278,19.443-66.506,42.548-96.872,71.806-35.948,77.916-79.3,152.889-123.716,226.203,57.002,18.605,64.442,97.631,83.319,146.745,18.742,48.764,40.14,101.019,66.017,146.385,11.538,20.227,25.151,40.859,48.987,47.331,24.475,6.645,50.521-3.842,73.016-12.561,22.855-8.859,57.125-27.855,81.187-12.763,12.422,7.791,20.5,23.932,27.274,36.181,13.61,24.61,24.79,50.643,36.939,75.986,17.809,48.554,36.683,103.919,83.195,132.198,11.48,6.98,23.46,12.392,32.7,22.502,16.85,18.438,22.048,45.246,25.782,69.08,9.923,63.332,7.16,128.112,10.006,191.958,2.341,52.492,5.205,118.325,47.237,156.292,37.542,18.305,79.975,21.446,117.382,41.854,51.471,28.081,92.771,71.117,130.376,115.34,24.211,28.471,47.632,63.233,80.149,83.272,13.42,8.271,29.171,10.076,42.47,18.944,29.067,1.426,57.057,21.335,82.307,34.137,25.943,13.154,51.886,26.308,77.829,39.463,56.093,28.442,112.186,56.883,168.279,85.325" stroke-width="3.70000005"/>
    <path id="path45" d="m502.418,622.171c51.165,41.845,82.821,104.65,139.688,140.037,30.462,18.956,64.417,24.839,99.063,31.355,45.393,8.536,71.298,29.322,99.608,65.279,14.188,76.069,31.671,151.713,42.378,228.392,5.386,38.576-1.512,76.634,3.004,114.775,3.941,33.287,27.786,69.964,20.092,103.651-2.971,13.006-11.496,17.122-19.863,26.155-15.405,16.632-12.235,35.727-9.032,56.865-18.964,81.816-17.458,177.968-58.306,253.241-10.935,20.15-25.889,33.92-44.19,47.199-26.737,19.4-37.817,43.454-50.722,73.686-14.143,21.912-27.827,44.262-42.913,65.548-4.134,5.833-18.917,31.162-28.334,32.481-14.573,2.041-13.592-8.146-16.683-20.958-4.811-19.945-10.989-25.288-22.746-3.816-12.987,23.719-18.735,53.004-25.96,78.795-15.366,54.853-24.186,129.135-75.696,163.219-36.51,24.159-70.911,43.879-103.166,74.319-33.085,67.144-72.563,131.528-111.522,195.363,25.676,18.709,32.912,47.113,41.027,76.615,8.94,32.501,14.973,65.879,25.543,97.922,8.538,25.883,21.941,50.242,33.568,74.846,11.44,24.208,23.698,49.388,39.667,70.996,32.71,44.259,75.673,32.084,121.026,16.415,26.134-9.029,55.336-19.519,76.352,4.728,29.191,33.678,43.151,84.054,62.442,123.648,19.48,48.738,39.877,87.908,85.899,114.461,41.358,23.862,51.294,66.005,56.7,111.1,7.578,63.22,5.141,127.102,9.493,190.535,3.264,47.581,9.737,119.77,56.666,146.379,45.959,13.018,89.357,24.963,129.512,52.129,48.564,32.856,86.534,77.376,124.694,121.237,17.012,19.553,37.499,42.776,61.072,54.804,15.839,8.082,31.34,11.155,46.005,22.438,30.316,7.097,59.257,26.702,86.865,40.7,25.943,13.154,51.886,26.308,77.829,39.463,56.093,28.442,112.186,56.883,168.279,85.325" stroke-width="3.79999995"/>
    <path id="path47" d="m514.658,619.312c50.19,43.728,83.068,106.327,143.48,138.304,31.051,16.436,65.052,20.693,98.613,29.194,43.246,10.954,67.68,39.125,93.158,74.081,13.401,74.294,29.791,148.209,39.88,223.064,5.014,37.202,1.587,76.495,10.891,112.957,7.869,30.842,33.368,72.136,21.518,104.234-4.603,12.469-15.141,15.665-24.261,23.867-18.438,16.582-9.588,40.205-5.762,61.6-24.967,86.657-14.212,184.155-52.815,267.305-9.858,21.234-23.511,37.706-43.745,49.591-26.445,15.533-39.067,31.414-53.612,59.302-15.693,22.241-29.299,45.435-43.904,68.381-8.883,13.956-19.019,33.771-32.255,44.537-14.072,11.446-17.125,3.688-20.105-11.14-2.412-12.005,1.878-43.534-16.496-34.055-17.12,8.832-26.355,51.892-31.376,67.739-12.425,39.21-20.935,79.599-34.056,118.592-7.622,22.65-16.721,46.052-34.433,62.87-16.673,15.831-38.277,26.137-57.094,39.096-17.189,11.837-32.75,25.316-48.075,39.446-30.848,57.058-66.04,111.631-100.445,166.582,36.828,54.57,32.801,131.318,50.187,193.309,7.453,26.574,20.965,50.151,34.501,74.017,12.555,22.135,25.465,46.791,42.343,65.949,38.057,43.198,83.148,21.141,130.556,9.897,31.417-7.452,50.578,1.24,67.572,28.914,24.301,39.573,38.114,86.047,59.434,127.342,10.959,24.335,22.659,49.32,42.007,68.29,14.121,13.844,31.48,20.471,47.526,31.314,41.09,27.767,48.619,84.815,53.077,130.118,6.083,61.817,4.076,124.16,10.559,185.933,5.689,54.21,18.427,108.517,69.468,135.94,49.324,13.178,93.676,32.014,134.142,63.758,42.511,33.349,74.723,75.921,113.169,113.306,15.274,14.852,31.615,31.23,51.529,39.742,19.155,8.188,34.787,15.224,51.104,29.188,114.026,51.152,224.371,113.103,335.848,169.626" stroke-width="3.9000001"/>
    <path id="path49" d="m525.55,615.656c49.546,46.006,85.268,107.42,148.854,136.541,31.252,14.313,65.391,17.881,97.551,29.204,40.147,14.135,63.433,48.125,86.722,81.71,12.524,71.275,27.547,142.211,37.308,213.946,5.092,37.419,5.361,76.407,18.26,112.251,10.656,29.612,40.156,79.299,21.69,110.164-6.429,10.745-18.812,11.948-26.854,20.455-17.647,18.667-6.983,55.051-4.426,76.627-18.61,88.095-12.179,185.01-45.048,269.67-8.63,22.228-20.948,42.536-42.466,54.142-8.723,4.705-17.857,6.846-26.049,12.548-12.882,8.967-21.699,23.685-30.066,36.51-34.28,35.678-51.48,81.26-81.786,119.742-9.35,11.872-19.258,23.464-25.522,4.696-3.604-10.797,3.901-51.99-8.655-57.381-15.239-6.543-32.46,40.34-35.575,48.218-15.636,39.551-24.865,81.416-36.638,122.187-7.133,24.703-14.147,51.578-29.238,72.878-14.111,19.916-36.796,32.348-56.373,46.169-16.93,11.952-32.73,24.941-48.108,38.821-29.515,48.379-60.588,95.669-92.113,142.761,23.076,71.172,19.257,147.435,41.243,218.478,8.039,25.977,23.639,46.42,38.693,68.588,13.837,20.375,25.52,43.732,44.965,59.575,42.217,34.395,84.862,1.746,131.062,2.168,30.969,0.282,47.366,27.417,59.608,52.837,20.074,41.683,34.451,85.289,57.432,125.671,11.459,21.85,23.924,42.858,43.783,58.145,15.92,12.255,35.392,18.288,49.786,32.599,37.329,37.114,43.974,95.326,48.381,144.945,5.281,59.451,3.973,119.72,13.163,178.79,4.042,25.985,10.369,52.519,23.235,75.684,14.31,25.766,35.863,38.142,61.106,51.663,52.12,16.251,97.112,41.929,137.801,78.451,32.806,29.446,60.292,64.1,93.026,93.592,14.516,13.078,29.081,24.556,47.138,32.115,23.229,9.725,40.949,23.093,59.811,40.036,112.186,56.883,224.372,113.766,336.559,170.649" stroke-width="4"/>
   </g>
  </g>
 </g>
</svg>
