<svg xmlns="http://www.w3.org/2000/svg" height="3264.6" width="1529.8">
  <g stroke="#dce0df" stroke-miterlimit="10" fill="none">
    <path d="M351.4 0c-2 31.4-9.5 44.4-35.2 60.2-26.7 16.4-31 34.8-31 66 53 69 107.2 138 151 213.3 29.6 50.8 54 104.2 87.4 152.7 3.5 13.5 11 31.5 8.8 45.7-5-5-5.7-7.8-8.8-2.5-3.2 5.4 4.5 26.2 5.7 31.5 6.3 27.8 13.8 55.5 21.2 83 17.4 64.7 36.4 129 56 193 19.5 64.4 34.2 134 62.3 195.3-21.8 11.5-45.5 13-61.3 34-20 26.8-15.4 61-30.8 88.5-13.4 23.8-31.8 4.3-47-7.4-9.4-7-21.2-18-34.3-13.4-15.5 5.6-36.3 41.4-45.4 52.6-29.7 43.8-58.8 87.6-80.4 136.2-12.5 28.3-25 53.6-42.2 79.4-26.3 40-50.5 83.5-82 119.6-36 41.6-83.2 68.6-102.8 123.2-8 22.4-13.2 45.7-21.2 68-13 37-12.7 78-18.4 116.5-6.8 36.7-19.3 66.6-47 92.2-21.8 20.2-43 34.5-54.8 63 61.4 62.7 125.8 122 186.2 186 54.6 57.8 112.7 114 164 174.7 15 32.2 28.4 65.3 47.2 95.5 13.3 21.3 30 40 43.4 61.4 3 5 22.3 46 34.7 36.2 8-6.4-14.4-14.7-23.5-1.2-1 4.2 7.8 17 10.6 22.2 21 38 41 76.5 61.7 114.6 44.4 81 88 167.5 145.4 240.5 13 16.6 30 25.5 47 37.3 10.2 7 19.4 14.3 32.3 15 18.3 1.6 22-21.7 41.3-5.3 10 8.6 16.4 22.8 23.5 33.6 14.3 21.7 32.6 39.3 51.6 56.8 59 54.2 127.3 99.8 184 156.3 52.3.6 105.4 14 157 22.8 52.8 9 105.7 17.8 158.5 26.7" stroke-width="2"/>
    <path d="M364.8 4C362 33 354.2 46 333 64c-22.4 19-26 38.7-26 68 50.7 65 101.7 131.6 140.3 205 28 53.3 53 108 86.7 158 2 8.2 12 32 7.8 41-1.5 3-5.5-2.8-5.8-2.3-8 15.2 5.2 48.3 9.4 65.3 17.4 70.2 37.7 139.8 58.5 209 12 40 24.3 79.8 36.5 119.6 11 35.7 18.5 73.7 34.3 107.6-18.6 16.5-44.5 17-61.2 36.5-22.5 26.3-19.4 60-33 89.7-12.5 27.4-30 10.8-47.6-3-9.7-7.8-22.5-20.6-36.6-16-10.8 9-20.3 19.4-28.6 31-33.5 48-69.2 94.7-93 148.6-13 29-21.5 58-38.8 84.6-25.5 39-49 82-79 117.5-34.3 40.4-83 65.7-105.8 115.5-10.5 23-11.5 48-19.2 71.8-11 33.6-19.6 63.2-24.3 98.8-4.3 38.4-12 75-35 106.8-19 26.2-43 45.8-56.7 75.8 62.4 61.2 124.3 122 184 185.7 25.2 27 50.3 53.8 75.6 80.6 30 31.6 63.6 62.2 86.8 99.2 12.3 29 24.2 58.6 41.2 85.4 14.5 22.5 32.7 42.2 47.7 64.5.6 1 28.3 36.4 30.4 15.4.2-3.4-1.3-5.7-4.6-7-10-5.4-18.4 13-21 17.7 3.2 14.5 13.7 28.8 20.3 41.7 22 43 44.2 85.8 67 128.2 25.3 46.4 51.2 92.6 78.6 137.8 17.2 28.4 34.3 61.7 57.8 85.7 15.8 16.2 49.3 44.7 73.6 45.6 18-3 22.5-23.5 41-6.5 10 9 16.3 23 23.4 34 14.4 22.2 33.8 40 53 57.8 58.2 53 125.2 97.8 181 153 53-.2 107 14 159 22.7 53.6 9 107 18 160.6 26.8" stroke-width="2"/>
    <path d="M378.2 8c-2.6 24.7-8.6 40-24 59-18.6 23.3-22.3 43.7-22.2 73.8 49.3 63.7 95 129 129.6 202 25.2 53.2 50.6 105.7 83 155 2 8.4 10.7 29.8 6.6 38.8-1 2-5-1.7-5.8 0-9.2 19.8 7.5 59.2 12.3 78.4 18 71.7 39 142.6 60.4 213.3 12 38.8 24 77.5 35.7 116.3 8.4 28 14 57.6 26.7 84-10 15.6-14 18.6-30.7 25-11.4 4.4-21.3 9-30 17.8-19.5 20-25 48.6-31.2 74.7-6.2 26-14.4 46-41 26.5-11.5-8.3-23.7-24-38-27.5-11.8-3-20.6 1.5-26.4 13-29 43.7-63.8 83-89.4 128.8-19 34-27.3 70.5-42.8 105.6-9.8 22-25.4 42-38.5 62.2-12.7 19.6-24.7 40-38.5 58.8-31.3 42.4-81.7 66-110.2 110.4-15 23.3-19.8 48.5-24.4 75.4-5.2 30.4-20 56.7-26 87.2-3.7 41.6-9.2 83.3-28.2 121-15.5 30.8-39 56.3-52.8 88 62.3 59.8 121.8 121.3 180.6 184.5 55 59 121.8 116.6 160.4 188 12 29 24 58 43 83.5 6.5 8.4 13.3 16.6 20.5 24.4 8.2 9.3 17 26.7 28 33 5 3 22 5.8 20.5-6 0-3.5-2-5.3-5.5-5.4-12-4-18.3 28-19 30.7 7.2 20.6 19.4 40.6 29 60.2 22.3 45 45.2 90 69 134.2 23.7 44.3 48.2 88.3 74.3 131.3 15 24.4 30 54.4 51.3 74.2 16 15 48 46.5 72.3 44.5 17-7 23-25 40.8-7.4 9.7 9.4 15.8 23.4 23 34.5 15 22.5 35.3 40.8 55 58.8 36.6 33.4 75 64.8 113 96.6 21.6 17.8 45 33.4 65 52.8 51.7-.6 105 13.6 155.8 22l167.4 28" stroke-width="2.1"/>
    <path d="M391.7 12c-2 23.4-7.5 40.8-18 61.4-13.2 25.8-15.8 49-15 78 45.5 60 82.4 121.3 113 190 24.8 55 51.3 108 83.2 159.3 2 9.4 8.3 24.6 6 34.7-.8 3-4.6 2.7-5 4.7-6.2 24 5 54.3 10.6 77.7 17.2 70.5 38 140 59.2 209.4 11.6 38 23.4 76 34.7 114 7.6 25.5 12 55.2 25 78.5-7.8 18.5-10 24.6-26.5 34.2-9.3 5.3-19.4 7-28.2 13.8-23.6 17.8-32 49-38.5 76.2-4.7 20-8.6 52.8-36 38.2-22.4-12.2-32.6-37-61-33.2-26.6 41-61.4 76-88 117-23.8 36.4-39.3 74.7-50.6 116.3-12.4 46-44.8 88.6-71.8 127.6-30.6 44-80.7 66.2-113 108-17.6 23-25.2 48.7-29 77-4 27.8-10.2 47.8-21 73.3-6 45.2-10.6 91-27 134.2-12.5 33.4-32.5 63.3-45.6 96.5 61.3 58.7 118.6 120.5 176 182.8l74.7 80.8 37.2 40.2c20.7 22.4 33 50 46.6 77 11.6 27 23.3 53.2 42.8 75.6 9.2 10.7 30.3 41 46.4 40.7 5.4 0 19.6-6.6 15.8-14.7-1.5-3-3.7-3.4-6.7-1-13 .6-13.6 43.6-14 46.7 34.8 74.4 70.3 148.3 109 220.7 22.3 41.8 45.4 83.4 70.5 123.7 12.5 20.2 25 42 42.7 58 14.8 13.2 46.4 49.7 69.5 42.7 16.3-9.7 23.3-25.6 40.6-7.6 9.6 10 15.3 23.8 23 35.2 15.2 22.7 36.6 41.4 56.7 59.8 36 33 74 64 111.5 95.4 20.6 17.3 44.4 31.4 63.3 50.5 52.2-1.3 106.3 13.4 157.7 22l169.4 28" stroke-width="2.1"/>
    <path d="M405.4 16c-1.2 22.8-5.5 42.6-12 64.2-8.2 27.3-9.6 53-8.3 81.4 43.7 59.6 72.5 122 101.6 189.5 23 53 49.5 103 78.7 152.5 2.2 9.8 7 23 5 33.5-.6 3.5-4 5.4-4.7 9-6 24.8 5.8 57 11.6 80.8 15.7 64.8 35 128.7 54.2 192.4L666 932.4c7.3 24.4 11.8 53.4 24.4 75.8-7 21.6-10.2 37-30 48.5-8 4.6-17 7-24.7 12.4-20.4 15-30.3 39.6-37 63-4.3 15.6-5 57.3-27.3 59.5-9.4 1-21.2-11.3-27.2-16.3-12-10.2-22-18.7-36.2-25.5-13.6 3.7-24 24-32.6 33.7-17.4 19.7-35 39.2-51.2 60-28 36.6-51 76.7-62.8 121.6-7.2 27.8-9.7 52.8-25.3 77.4-12.5 20-25 40-37.8 59.7-29.5 45.8-73.3 67.7-111.3 104.4-21 20.4-34.5 45-40 73.7-4.8 26.2-3.2 52.3-12 77.6-8.7 43.4-14.8 87.8-26.2 130.6-10.5 39.3-28.5 75.7-41.6 114 59.7 58 115 119.8 171 181 24.7 27 49.5 53.8 74 80.8 12.4 13.5 26.2 26.4 37 41 19 26 30.4 58.3 45 86.8 12.8 27.4 34.3 72.3 65.6 84.6 11 4.3 38.8-1 31.7-17.3-21.4 10.3-13.6 57.4-12.4 72.7 35.6 81.4 74 161.5 116 240 28.2 52.4 56 116 100.4 157 12.2 11.4 47 55 67.5 41.6 15.4-12 23.3-26 40.3-7.3 9.4 10.3 14.8 24 22.7 35.5 16 23 38 42.2 58.6 61 35.7 32.4 73 63 110 94 20 16.8 43.2 29.8 61.7 48.2 52.5-1.8 107.6 13.6 159.4 22.2 57.2 9.3 114.3 18.8 171.5 28.2" stroke-width="2.1"/>
    <path d="M419.2 20.2c-1 50.7-12.6 98.7-9.6 150 38.8 56 61.2 118.7 87.5 181.2 22.7 53.6 49.3 104.6 78.6 154.8 4 19 3.6 29 .2 46.4-5.4 28 7 63 13.5 89.7 16 64.4 35.2 128 54.5 191.4 9 29.8 18.2 59.6 27.6 89.3 7.3 23.2 12 50.4 23.5 72-4.8 18.2-8 45-23 58.4-7.6 6.7-18.2 9.3-26.7 14.5-19.8 12-31.2 31.5-39 53-6.2 17-7.3 64.3-25.6 73.6-18.7 9.4-46.4-25.8-59-35.5-17.2-5.4-27.8 11.3-38.3 22-16.8 17.5-34 34.5-49.8 53-29.8 34.5-56 73.3-69.5 117.4-8.2 27.3-6 59-17 85.2-8.2 20.2-24 39.3-35.6 57.8-12 19-23.6 37.6-40 53.3-19.2 18.3-42 32-63.2 47.5-23 16.5-42.7 35.5-53.2 62.3-11 28-9 59-12 88.4-6 90-33 174-58 260 57.7 57 110.3 119 165.6 178.4 25 26.8 49.4 54.2 74 81.4 13.6 15 26.4 28.8 36 47 15.7 29.8 27.6 61.4 44 91 10.4 19.2 32.7 61.6 59.6 62 12.8.3 31-13.5 33.5-26.2-24.2 17.2-8.5 82.6-5.4 103 37 87.6 77.8 173.5 123 257 25 46.2 49.3 93.8 86.8 131 11.3 11 44.3 55.6 64 38 15-14 23.7-26 40.2-6.7 9.2 10.6 14.6 24.4 23 36 16.7 23 39 42.7 60.2 62 35 32 71.6 62.2 108 92.7 19.3 16.3 42.2 28 60.3 45.8 54.6-2.4 112.7 14.2 166.5 23l168.3 28" stroke-width="2.2"/>
    <path d="M433 24c.4 50.7-5 100.5-2.4 151 36 57.8 55 125.2 81.5 187.5 21.4 50.3 47 98.7 74 146.2 4.2 18.5 3 31 .4 48.6-4.4 30 6 63.7 13 92.2 14.2 58 31.4 115 48.8 172 9 29.5 18.2 58.8 27.7 88 7.4 23 12.8 48.8 23.3 70.7-7.7 33.8-10.2 67.7-42 85.7-20 11-33 24.7-43 45.8-6.6 14.3-11 29.8-14.4 45-2.7 11.4-4 30.6-13 39.2-16.8 15.8-39-12.2-50.8-22.8-34-16.3-60.6 20.8-82.8 42.5-33.6 33-65 70-83.5 114-13.4 31.4-15.2 62.5-18.6 96-2.5 24.4-14 40.7-26.7 61-11.5 18.5-21.8 38-36.3 54.2-17.4 19.4-39.5 33.8-61.2 48.2-23.6 15.6-48 30.2-63.3 55-16.4 26.4-17.6 56.8-18.2 87 1.4 97-20 185-43.8 278 54.7 56 104.6 116.3 158.5 173 26.3 27.6 51.5 56.4 76.4 85.3 36.6 42.6 48 100.2 78.4 147 12.2 18.8 34.4 52.6 60 35 10.3-7 20.4-19.7 27.5-30-15 45.2-4.3 94 4.4 139.3 38 90.7 79.5 180 127 266.3 20.7 37.5 41.7 72.4 70.6 104 11.5 12.5 43.5 59 64.2 37.3 14.6-15.6 24-25.3 40-5.5 9 11.3 14.5 25 23.2 36.6 17.8 23.4 40.2 43.4 61.8 63 34.5 31.4 70.2 61.4 106 91.4 18.8 15.8 41.2 26.3 59 43.5 55-3 114 14.3 168.3 23.2l170.2 28" stroke-width="2.2"/>
    <path d="M446.5 27.7c.8 49.3-1.2 98.5.2 147.7 31.2 61.8 51 129 78 192.5 21 49 46 96.5 71.6 143.2 3.7 20 2 35 .3 54.6-2.7 29.5 5.7 60.8 12.5 89C634.4 759 665.8 864 703.8 964.3c-6.5 30.5-8.3 81.2-37 100.4-16.3 11-30.4 18.6-41.4 36-16.5 25.8-19 55.4-28.2 84-9.6 30.4-26.6 21.5-46.4 4.4-9-3.7-19.4-11-29.5-11.3-13.8-.5-29.3 11-39.7 18.6-39 29-75.7 66-100.8 107.6-20 33-30 69-30.4 107.7-.2 23.6 2 43-10 64-24.8 44.3-49.8 80-93 108.2-25.5 16.7-55.7 30.4-75.5 54.4-18.3 22.3-23.4 48.5-25 76.5-.4 52 3.7 104.3-.7 156.2-4 48-17 94-27.8 140.7 50 53.8 97.7 110 148.5 163.2 26.8 28 53.8 57.7 77.6 88.4 37 47.8 43.3 112.4 82.3 159.5 14.7 17.4 30.6 32.8 50.4 14 12-11.4 17.6-27.8 31-37.8 2 9.5-1 21.6-1.6 31.6-3.2 50.3 7.2 99 18 148 49.7 120 101 249.7 185.4 350.2 12 14.4 41.4 59.8 63 34.8 14.4-17.2 24.3-24.2 39.7-4 9 12 14.7 25.7 24 37.4 18.7 23.3 41 43.8 63 64 34 30.6 68.8 60.3 104 89.6 18.2 15.3 40.2 24.7 57.5 41.3 55.4-3.4 115.7 14.5 170.4 23.4 57.2 9.4 114.6 19 172 28.3" stroke-width="2.2"/>
    <path d="M459.7 30.7c.8 48.8-.4 97.6 1 146.4 28.3 64 48.6 131.3 76.6 195.5 21 48 45 95 69.3 141.2 3.3 19.5 2.4 35.4.6 54.6-2.5 28 3.4 56.3 9.6 83.3 23 101 60.4 197 91.3 295.7-5.4 26.4-10 53-17 79-3.4 13.2-6.7 27.5-17 37-12.6 12-28.5 17.5-39.7 31.8-17 22-24.8 50.8-30.8 77.4-4.6 20.7-13 53.6-39.2 31.4-10.8-1-18.7-8.6-28.8-11.5-14.4-4-28-1-41.5 5-37.5 16.3-72 50.8-97.7 82-27.4 33-47.3 72-49.7 115.6-1.4 24.6 8 52.7 2 76.8-5 20.2-22.2 43.5-33.7 61-12.3 18.7-28.6 33-47 45.8-50.3 35-108 53-120 120-5.2 55.2 5.2 110.2 5.5 165.4.4 51.4-10 100-21.2 149.7 46.8 52.5 94 104.4 142 156 27.7 30 61.5 63.2 81.6 98.8 27.5 49 33.4 125.6 81.7 160 14.6 15.8 29 10.7 41.2-4 6-7.2 19.2-43.7 29.8-44 10.8-.6 7 14 6.8 23.5-.7 68 10 131.4 26 197.6 47.4 114.7 97 231.2 173.8 329.8 13 16.7 38 57 60 29.6 14.6-18.6 25-22.5 39.6-2 9 12.4 15 26 25 38 19.2 23.5 41.7 44.3 64 64.7 33.2 30 67.2 59.5 101.6 88 17.8 14.8 39.4 23 56.3 39 54-3.8 113.6 14 167 22.8l179.3 29.3" stroke-width="2.3"/>
    <path d="M473.2 34.3c1 49.6.5 99 2.2 148.7 25.6 64 46 129.8 74.3 192.6C571 423 593.7 470 617 516.3c3.2 21 1.7 39 .2 59.7-2 25.7 2.8 51.4 8.3 76.3 11.2 50.5 26 100.4 41.8 149.5 14 43 33 84.8 45.3 128.3-6 28.3-11 56.6-17.3 84.7-3.3 14.6-6 35.2-15.5 47.4-10.4 13-27.6 19-38.6 31.8-18 20.6-26.6 48.7-33 74.7-3 12-7.6 58.5-31.2 47-8.8 6-18.8-2-27-5.3-10.5-4.3-17.7-7.4-29.6-7.2-39.6.7-75 29.3-103 54.5-31.3 28.2-59.5 63-71 104.3-8.6 31.4-4.2 61.3.8 92.7 6.4 40.6-19.7 85.2-50 112-46.7 41.4-120.5 55.4-145.2 117.2-13 58.8 3 118.4 7.7 177.4 4 53-1.8 102.5-13.8 154 45.6 51.7 94 101.2 139 153 31.2 35.5 65.8 71.4 83.6 115.6 12.2 30.5 21.6 62.3 35.3 92.2 9 20 22 48 45.5 54 39.7 17 42.6-76.5 66.6-70.7 13.3 3.2 8.3 45 8.4 53 1.3 72.8 17.3 144 35.3 214.3C604 2733 651.4 2838 719.5 2931.7c14 19.4 36.4 56 59 26.2 14.8-20 25.5-20.2 39.4.2 26.8 39.4 55.5 71.7 91.2 104.2 32.2 29.3 64.8 59 99 86.2 17.5 14 38.6 21.4 55 37 28.6-2.3 56.5 4.5 84.5 9l84.7 13.8c60.4 10 120.8 19.7 181 29.5" stroke-width="2.3"/>
    <path d="M486.7 38.6c1.3 51 1.7 102 3.7 153 22.7 60.4 42.7 122 69.5 181 22 49 44.2 98 67.2 146.4 3 20.3 2 38 .2 58.3-2.3 25.5 1.4 50.4 6.7 75.4 11 51 26 101.4 42.7 150.7C689.2 840 707 875.6 717.2 913c-6.3 28.5-11.8 57.2-17.5 86-3.5 18-5.8 39.2-13.7 56-8 17-22.7 22.8-35.5 35.3-17.8 17.3-27.5 41.4-34.7 64.8-5 16.6-6.3 61.7-27.2 67.2-7 22.8-39.3-1.8-52-4.4-38.3-8-76 10.6-106.3 32.4-62 44.5-108.2 108.6-91.7 187.5 5.6 27 16.3 49.4 5 76-7.3 17.5-16.7 35.6-30 49.6-43.4 45.7-115.4 57.3-153.2 108.3-22.2 57.2-5 116.6 3.6 175 8.5 58 8.4 112.5-4.5 169.8 26 29.7 51.5 60.3 78.4 89.3 17 18.6 36 35 52.5 54.4 17.4 20.8 35.3 41.5 51.5 63 18.2 24.5 28.6 52.3 38.4 80.8 7.4 21.2 39.8 143 81 119 23.2-6.8 45-89.3 62.6-80.6 14.2 7 9.6 58 10.3 69.2 5.2 81.7 22.6 161.3 43.8 240.3 41 98 85.7 192.7 145.5 280.5 7 10.4 14.5 23 24.6 31 15 11.4 23.2 5 33.7-8.7 15-21 26-17 39.2 3 26.4 40.3 57.4 73 93.2 105.6 31.4 28.6 63 58.4 96.4 84.4 17.3 13.3 38 19.8 54 34.8 28.8-2.4 57.2 4.6 85.5 9.2l85.7 14 183 29.7" stroke-width="2.3"/>
    <path d="M500.4 43.5c1.7 52.5 3 105 5 157.5 39.3 109 84.8 214.8 132 320.6 2.8 21.3 1.4 40-.7 61-2.4 24.2 1.4 47.8 6.2 71.4 9.3 45.5 22.3 90.4 37.5 134.3 12.6 36.3 31 71 41.4 108-11.8 49-17 99.7-30.6 148-6 22-15.5 29.3-31.6 43.4-17 14.8-27.6 34.2-35.5 55-9.3 24.8-9.5 59.3-25.6 80.4-6.6 29.8-18 24.4-41.7 14.8-32.7-13.3-68-9.6-100 3.8C386.3 1271 315.2 1343 328.6 1425c4.5 27.2 23.2 55.2 22 83-1 16.6-11 37-20.6 50.6-15.5 22-41 36.2-63.8 49.5-30.7 18-62 34.5-91 55.4-34.7 53.4-17 116-6.2 174.3 11.2 60.8 17.3 119 4 180 24.3 27.8 47.2 60.6 75.2 84.6 19.6 17 36 35.5 52.4 55.7 18.3 22.5 38 44.6 52.3 70 15.6 27.3 25.2 57 35 86.8 7.6 22.5 44.3 145 85.3 94 17.4-15.5 24.5-40 33.6-60.5 4.5-10.5 11.2-32.8 24-19.5 6.8 7 7.7 22.7 9 31.5 2.5 20.2 3.4 40.6 5.5 60.8 8.7 87 27.3 171.8 50.8 256 37.2 88.6 79 174.7 131 255.6 7 10.8 14.7 24.6 25.7 32 15.2 10 22.6-1 32-13.6 15.2-22.3 26.6-13.3 38.8 6 26.3 41 59.5 74 95.6 106.8 30.3 27.6 60.7 57.6 93.6 82.2 17 12.7 37 18.2 53 33 31.7-3 63.8 5.5 95 10.6l83.2 13.5 180 29.2" stroke-width="2.4"/>
    <path d="M514 48.8c2.2 53.8 4 107.6 6.6 161.4 37.4 106.2 83.2 210 127 314 2.5 21.3.4 40-2 61-2.7 26.5 2.4 53 8 79 9 43.6 22 86.7 37.7 128.5 11 29.5 27 57.8 35.5 88-13 49.6-20.2 100-30.5 150-5 23.7-9.7 39-27.6 54.8-39.4 34.6-47.8 83.2-61.2 131.7-1.7 23-2.2 51.3-31.5 42.4-32-9.6-55.7-20.7-90.7-15.2-72.3 11.2-161.7 74.4-166.8 153.3-3.4 52 48 100.4 27.8 150.7-7.7 19.5-21.7 32.5-38.6 44.4-33 23-69.7 41-104.2 62-23 27.7-39 54.8-39.4 91.7 0 29.8 7 60 12.8 89 12 61.3 23 121.5 10 183.6 43.2 50.2 89.5 93.8 130.7 145.8 41.4 52.3 60.4 110.7 82 172.8 7.8 22.2 16.4 50.8 34 67.6 21.4 20.4 37.6 3.8 51.6-16 14.6-20 19.7-44.4 31.4-66 10-18.4 18.4-14 25.5 5 14.4 39 12.7 87 18.3 127.8 11.5 83 30.5 164.3 53.6 244.8 33.7 79.6 71.8 158.6 117.3 232.3 6.6 10.6 13.6 23.3 24 30.7 15.8 11.3 23.7-4 32.7-16.4 15.8-23.3 27.4-9 38.8 9 26.2 41.7 61.5 75 97.7 108.2 29.2 26.7 58.5 56.6 90.6 80 17 12 36.7 16.7 52.4 31 32-3 64.6 5.8 96 11l84 13.5 182 29.4" stroke-width="2.4"/>
    <path d="M528 54.4c2.3 54.4 4.7 108.7 7.4 163C552 265 572 310 591.7 356c24 56 43.4 113.7 66 170.2 2 20 0 37.6-2.3 57.3-3.2 28 1.4 56.2 7 83.6 8 38 19 75.5 32.8 111.7 11.3 29.5 28.2 57.6 36.6 88-14.4 48.5-22.4 98-31 147.7-4.2 24.2-6.4 50.3-23.7 68.8-12.2 13.2-24.6 23.3-33.8 39.4-14.2 25-21.4 53-28.2 80.6-.2 20.7 6.7 80.2-28.7 74-14.2-2.6-28.3-12.8-42.6-16.4-14.7-3.8-29.8-5.5-45-5-72.2 1.8-168 53-186.8 128.2-8 31.6 2 62.2 16 90.4 10.3 20.4 28.4 45.7 27.6 69.7-1.7 51-80 79.8-115.3 100-24.3 28.4-46.8 55.8-54.6 93-6 29-5.5 58-.3 87 11.7 65.2 29 130 15 196.4 12 14 25.2 36.6 40.4 47 3.2 2 7.6 3 9.7 4.5 8.2 5.4 14.3 13.3 20.7 20.8 21 24.7 42.5 50.2 60.4 77.3 37.7 57 53.4 122.5 78.3 185 6.4 16.5 16.8 46.3 35.5 53.2 25 9.2 41.6-24.5 51.2-41.4 10.3-18.5 14.5-42.4 27-59.5 14.2-19.8 22.4 7.5 26.7 21.5 14.3 46.3 15.7 97.8 23.2 145.4 13.3 84 33 166.6 57 248.3 30.3 70.3 64 141.7 103 208 6.2 11 14.4 28 26.3 34 15.6 8 22.8-9.6 31-21 16.4-24 28.4-4 38.7 12.6 26.3 42 63.6 76 100 109.2 28 25.7 56.2 55.6 87.5 77.4 16.7 11.6 36 15.5 51.6 29.5 32-3 65.3 6 97 11.2 28.3 4.6 56.7 9 85 13.7l183.8 29.5" stroke-width="2.4"/>
    <path d="M541.6 59.8c2.7 54 5.4 108 8.3 162 15 42 34.8 82 51.2 123.7 23.7 60.3 43.5 122 66.6 182.5 1.6 20.6-1 39-3.2 59.4-2.5 25 .8 50.3 5.4 75 7 36.5 17.2 72.4 30.7 107 11.3 28.7 27 55.5 36.3 85-16 46-24.2 93.7-32 141.6-4 26-4.6 62-20.2 84.3-9 12.8-22.7 21.7-31.7 34.8-14.6 21.7-22.5 47-29.8 72-.5 21.6 9.2 91.3-16.2 104.6-11 5.8-23.6-3.2-33.6-7.2-13.3-5.4-26.8-9.8-40.8-12.4-77-14.7-180.4 23.3-220.4 93.4-38 66.4 19.6 116 44 173.3 20.5 48-42.7 74.7-75.7 94.2-22.4 28.6-46.7 56.4-60.2 90.6-12.6 32-19.3 65-18 99.6 2.2 67.6 26 130.4 11.7 198.5 9 10.7 19.4 28.7 32 35.2 1.4-13 20.3 14.5 22.7 17.4 41 49 74.5 99 99.4 158 12.4 29.2 23.4 59 34 88.8 7.4 21.5 14 44.6 27 63.5 32.4 46.8 64-11.6 79.2-41 5-10.4 13.8-47.5 26-51.7 15.5-5.2 24.7 40 27 49 12.2 48.8 16.8 99.5 25.3 149 14.6 84.8 35 168.2 59.5 250.8 27.7 63.3 57 129.6 91.3 190 5.7 10 13.7 27 24.8 32.5 16.4 8 23.7-12 32.3-23.7 16.5-24.3 29.3 1 38.4 16.3 25.5 42.3 66 77 102 110 27 24.5 54.2 54.5 84.6 74.7 16.6 11 35.4 14.2 50.8 28 31.6-3.2 64.4 5.8 95.5 10.8l83.6 13.5 191 30.7" stroke-width="2.5"/>
    <path d="M555.3 64.4l8.3 156.4c15 38.3 33 75 47 113.8 23.2 64.8 44.3 130.4 67.3 195.3 1.2 21.3-2.2 41-4 62.2-2.5 27.4 1.4 55 6.8 82 6.8 33.7 16.8 67 30.6 98.6 10.4 24 23.5 46.3 31 71.4-18.2 43.4-26.3 90-33.7 136.3-4.6 29-6 61.5-16 89.5-5.7 16-18 25-28.6 38-15 18.5-23.8 40.6-31.6 63-1.3 29.2-2 58.5-4 87.6-1 11.6-1 31-9 41-16.2 19.8-49.8-4.7-69.3-10.2-77.6-21.7-171.7 4-229.2 60.8-57 56.5-20.7 117.7 19.7 171 11.3 14.7 33.8 35.5 27.6 56.4-6 20.3-32.3 34-48.3 44.5-34.3 60-82 112.2-95.4 182.2-14 73.8 18.6 145.4 3.3 219 4.4 5 11.4 16.2 17.8 18.2-1.5-3-1.4-7.4-1.8-10 5.8 3.4 10 9.4 14.5 14.5 16.7 19.2 32.7 39.5 47.6 60.2 36 50.3 59 109.3 81.3 166.6 9 23.7 18 47.6 27.4 71.2 6.2 15.5 14.2 40.2 30.3 48.7 36 19.3 63.2-48.3 75-70.7 3-6.7 12.4-37.6 23.4-35.5 17.3 3.3 27 61 29.7 73 12.5 55 19.5 111 30 166 15 77.5 34.4 153.7 57 229.2 16.4 36.5 34.4 72.2 50.5 109 10.4 23.7 20 48.2 33 70.8 4.5 7.7 14 27.2 24 29.4 15 3.2 22.6-18.4 30.2-28.4 17.4-25.3 31.4 9.3 40 22.4 25 38.6 61.7 71 95.2 102 27.6 25.4 55.8 57 87.3 77.8 16.7 11 35.8 13.5 51.5 27.5 31.7-3.3 65 6 96.4 11l84.3 13.6 193 30.8" stroke-width="2.5"/>
    <path d="M569 68.8c2.3 47 4 94.3 6 141.4 43.2 105.4 77.6 213.5 113 321.8.8 19.6-1.8 37.8-3.8 57.2-3 27-.5 54 4.3 80.7 5.8 32.5 15 64.6 28.5 95 10.8 24 23.8 46 31.3 71.5-37 67-34.6 147.7-50.2 221-4.2 20-11 30.7-24.2 45.8-14 16-23.3 33.7-31.5 53.2-1.8 30-3 60.3-5.4 90.5-1.4 17.8-1.4 38.5-7.4 55.6-10 28.2-30.7 16-52.2 8.3-78-27.7-157.3-19-228.7 23-32.6 19.2-69 47-69 88.8.3 33 22.8 61.6 42.7 85.6 15.3 18.6 44.2 39.2 53.3 62 7.5 19-8 30.7-21.4 42-18.3 68-78.6 115.8-105.5 179.5-14.5 34.2-18 71.2-15.7 108 2.7 41.4 13.3 82 7.6 123.5l3.7 3.5c-.6-6-4.6-11.8-5.6-18 7 4.6 12.4 12.5 17.7 19 15.6 19 31.2 38.2 45 58.6 39.2 58.4 63.6 126.3 90 191 10.3 25.3 20 51 32 75.4 7 14.3 16.8 34.7 35.4 35.2 34.7 1 58-60.5 72.2-84 7-14 14-26.5 25.5-9 17 26 23.2 63.6 29.6 93.4 27 125.8 48.7 251 85.3 374.8 25.6 54.8 44.5 114.3 73.7 167.3 5 8.8 15.5 31.7 27.7 32.8 11.7 1 22-24.6 27.8-32 17.4-24 32.7 15 40.4 26.5 26 38.6 63 71 96.8 102.6 26.3 24.4 53.5 56 84 75.2 17 10.5 35.4 12.2 51 26 32-3.3 65.8 6.3 97.5 11.3 28.4 4.7 57 9.2 85.3 13.8 65 10.4 130 20.8 195 31" stroke-width="2.5"/>
    <path d="M582 71c1.5 40.5 1.8 80.8 3 121.2 17.7 40.5 31.8 81.6 45 123.8 22.6 72.7 46.4 145.3 68 218.3.6 20.5-2.4 40-4.4 60.2-2.8 29 0 58 5.5 86.8 10.5 54.2 40.7 98 55.5 150-25.5 28-31 76.2-37.4 111.7-6 34.5-9.8 69.4-15.2 104-3 19.2-6 36-18 51.3-11.7 14.8-23 28.3-31 45.5-3.5 44.4-5 89-10.8 133.2-3.3 25-4.4 60.2-37.2 54-33.4-6-63.3-21.5-98-24.7-44-4.2-88.2 4-129 21-34.2 14-78.2 36-97.7 69.4-17.3 30-5.8 60.4 12.8 86.5 21 29.5 48 53.6 74.2 78.2 13 12 30 26 14.3 43.3 9 67.7-63.7 117.3-100.2 163-25.6 32.2-40.8 69.5-43.7 110.8-3 45 8.2 88.7 7.7 133.4-3-9-8.7-16.7-12-25.6 6.8 2.8 13.7 13.5 18.3 19.2 17.8 22 35.4 44.6 50 69 40.5 67.3 66.3 142.8 97.8 214.3 10.8 24.2 30.4 95 67.8 89.6 35.3-5 55-62.4 75.6-86 10-17 21.3 6.5 25 15 14.8 33.5 23.3 71 31 106.6 25.6 118 49 235.3 82 351.5 24.5 55.3 40.7 117.2 71 169.5 5.2 8.7 14.5 28 27 25.5 10.4-2 19-25.5 25.2-33 17.3-22.7 34 20.4 41.2 30.5 27.5 38.3 63.8 71 98.2 103 25 23.4 51.3 55 81 72.4 16.7 10 34.6 11 50 24.7 31.6-3.2 65 6.2 96 11.2l94 15 191.7 30.6" stroke-width="2.5"/>
    <path d="M594.4 70.6c.3 33-1 66.2-1 99.3 21.4 44.4 33.4 93.5 47.3 140.6 22.2 75.3 47 150.3 67.5 226 .5 50.8-9.6 96.8 0 147.8 9.8 52.5 39.4 95.2 53 146-24.6 9-31.7 58.2-36.5 79.4-8.3 37-13 74.4-17.8 112-3 22.3-3 50.8-14.4 71-8.2 14.4-21 26-29 40.5-4 42.8-6.2 85.8-11.5 128.5-2.8 23.2-3.2 73.6-31.8 80.8-11 2.7-28-5.2-38-8.3-17.3-5.3-34.6-10.5-52.5-13.8-43.4-8-87.8-5-130 7.8-61 18.5-171.5 70-121 148 21.5 33.4 52.2 60.7 83 85.4 10.4 8.4 36.2 22 36.8 37.7 38.8 64.5-45 117.6-85.7 150.4-33 26.5-61.2 58-72.5 99.5-12.5 46-2.6 93 1 139.5-4.3-7.5-12.8-18.2-13.3-26.6 38 31.5 65.5 85.2 86.6 128.4 33.8 69.3 59.8 142.2 94.5 211 14 28 35.6 83.7 75.3 61 13.4-7.8 23.4-22.2 32.3-34.2 9.4-12.7 20-35.4 37.2-39 22-10 52.6 131.4 55.7 145 25.3 110.2 50 220 78.2 329.4 22.7 56 37.4 119.5 68.2 171.7 5.6 9.6 13.6 27 26.7 21.4 10.6-4.6 16.4-25 24-33.3 17-20.4 35.3 25.7 42 34.8 28.6 38 64.7 71 99.4 103.5 23.8 22 49.2 53.4 77.8 69.4 16.8 9.4 34.2 10 49.6 23.4 31.8-3 65.5 6.5 97 11.5l95 15 193.6 31" stroke-width="2.6"/>
    <path d="M606.3 67.8c-1 26-3.5 52-4.5 78.2 25.4 52.7 37 114.8 52.7 170.8 21 74 45.8 147.7 64 222.4-.4 50.7-10.6 97-1.4 148 9.4 51.5 38 94.8 51 145.2-24-2.4-33.3 42.5-37.6 58.5-9.6 35.5-14.8 72.4-19.4 109-3.4 27.3-3.7 57.2-11.7 83.7-5 16-16 27.3-25.2 41-4.3 43.6-6.7 87.3-12.5 130.7-3 23.7-5 75.3-28 90.8-20 13.5-52.5-3.4-72.7-8.8-37.7-10-76.2-14.3-115-9.7-50.3 6-99.2 26-140.5 55.2-23.3 16.5-53.6 39-45 71.7 9 34.7 44 65.8 69.8 88.3 23.2 20 49.8 35 73 54.8 20.3 19.6 29 42 20.7 70-10.4 35.2-50.3 51.4-79.7 67.7-38.3 21-78.4 44.6-100.4 84-24 43.4-17.4 92-11.2 139-3.8-6.2-8.8-13.2-10.5-20.3 38.7 35.6 65.2 88 87 135 33.8 72.5 61.5 148 100 218 15.6 28.7 41 82.4 81 59.5 28.5-16.2 39-54 72.6-62 13.5 7.5 18.7 34 23.4 47.3 14.3 40.7 26 82.4 36 124.3 24 100.7 48.2 201.2 72.6 301.8 20.7 55.2 34.4 116.8 63 168.6 6 10.7 14 30 28.3 22.7 10.8-5.6 14.8-25 24-33.5 16.4-17.7 38.5 33.4 45.3 42 31 39 68.3 73.3 104.7 107.2 21 19.5 44.6 50 71.4 61.8 16.4 7 31 8 45.3 20.5 31.2-3 64.5 6.5 95.4 11.4 31.3 5 62.5 10 93.7 14.8l200.6 32" stroke-width="2.6"/>
    <path d="M617.8 63.7c-2 20-5.8 39.5-7.5 59.5 27 61.5 39.2 132.2 57 196.7 20 73.6 45 147.2 61.2 221.8-1 50.4-11.3 96.6-2.5 147.3 9 52 36.8 97 49.5 147.8-45-20-58.3 124.8-61.2 147.7-5.8 45-2.4 95.3-30 133.3-3.4 36-6 72-10.2 108-4 35.2-6 81-26.3 111.5-17.7 26.8-40.8 20.4-68 13.3-32.7-8.5-65-16-99-16-46.6-.5-92.8 11-134.4 32-28.2 14.3-78.6 41-88.2 74.5-9.6 34 33.3 74.4 54.7 94.6 25.2 24 53.6 43.5 83 61.7 21.6 18.5 46 36.3 43.5 67.5-3 36.8-36.8 49.8-67 62-43 17.2-91 31.8-124 66-36.3 37.6-34.4 84.8-26.5 133-2.2-3.5-4.6-7.6-5.3-11.3 44.4 40 70.2 103.6 93.6 157 33.8 76.7 63.8 158.5 111.5 228 22.5 33 49.2 59 86 31 14.4-11 39.7-47.2 61-42.6 13.7 19.2 20.2 45.7 27.7 67.7 14.4 42.2 27 85 38 128.2 23 91.8 46 184 67 276.5 19.5 55.5 32 118.6 61 170.2 25 44.2 28 2 50.8-14.7 17.2-13.4 39 37 47 46.4 31.3 38.7 68.4 73 104.8 107 20 18.5 42.4 48.4 68.4 58.7 16.5 6.6 30.5 7.2 44.8 19.7 31.6-2.7 65.2 6.8 96.5 11.8l94.5 15 202.6 32" stroke-width="2.6"/>
    <path d="M629.2 59.3c-3.2 15-7.2 29.5-9.4 44.7 26 72 41.3 148.7 61 222.5 19.2 72 43.8 144.5 57.8 218-1.7 49.7-12 95.6-4 145.8 8.8 53 36.2 100.6 48.7 153-48-31.6-61 93-64.4 117-5 33.2-7.6 66.6-11.3 99.8-2 17.8-3.3 36.7-14 51.8-4 67.2-4.6 144.8-30.4 208-11 26.6-32 45.7-61.8 41.7-32.2-4.3-62.8-15.4-95.4-18.3-82.7-7.5-181.6 23-234.8 90.2-46.4 58.5 68.4 136.2 109 162.3 22 19 63.3 43.5 66.6 75.8 3.3 32.3-27.6 45.4-53 54-46.2 15.5-96.7 21.3-138.7 47.5-46.3 29-51.6 71-43 121.4l-1.2-3C252 1924 275 1988 295.4 2035c36 83.2 69 173.3 124 246.3 26 34.6 56.2 62.8 97 35.8 12.4-8.3 23.7-16 36.8-23 6.3-3.3 13.7-13.6 19.6-6.2 32 68 53.7 143.2 73 215.6 22.5 84.6 43.8 169.8 62 255.5 10.7 33 20.8 66.3 31.3 99.4 8.2 25.6 15.6 55 31.3 77.3 23.3 33 27-13.8 46-23.3 9.5-5.4 14.6 2.8 20 9.7 10 13.2 17.4 28.2 28.3 41.2 32 38.2 68.6 72.5 105 106.5 18.8 17.6 40.2 46.6 65.3 55.6 16.5 6 30 6.4 44.3 19 32-2.6 66 7 97.5 12l95.5 15 204.5 32.4" stroke-width="2.7"/>
    <path d="M641 55.7c-4 12.2-8.2 22.6-10.3 35.3 23.5 78.4 42 158.5 62.5 237.8 18.7 72 43.3 144.7 55.5 218-2.2 46.7-12.8 90-6.3 137 8 57.7 36 110.6 49 167.3-47.3-36.8-60.2 47.4-66 78.3-6.8 35-10.4 70.8-13.6 106.4-2 22.8-2 47.7-9.8 69.5 0 65.4-5.8 136-26 198.3-8.5 27-26 52-54.6 59.8-25 6.8-52.5-4.4-77-9-86.5-16-178 2.4-244.3 63-27.7 25.2-43 51-23.8 86.8 19.3 36 52 63.6 84.2 87.7 20.4 19 41.7 37.2 61.7 56.8 10.7 10.5 23.8 22.8 27.4 38 7.7 31.6-25.3 40.7-49.4 46.3-43.6 10.2-88.8 14.6-131.4 29.4-22 7.7-44.7 19.3-57 40-13 21.5-8.6 43.2-5 66.6C252 1915 273.2 1981 298 2039.3c34.2 80.4 70 169.5 130 234.7 29 31.5 57.4 50.3 97.5 30.3 6-3 11.7-6.8 18-8.8 4-1.3 12.7-.8 16-3.2 8-6 8.7-23 17-3.5 62.2 151.4 106 308.3 137.6 468.6 10.3 33.5 19.8 67.2 30 100.6 7.5 24 14.4 58 31.6 77.6 21.6 24.4 27-19.6 43.7-26.7 17.3-5.8 34 35.3 42.4 45.8 31.6 39.3 69 74.2 105.6 108.7 19.4 18.3 42 49.4 68 58.6 17 6 30.6 5.8 45.3 18.6 35-2.4 72.5 8.3 107 13.8l93 14.7 201.5 31.8" stroke-width="2.7"/>
    <path d="M653 54.5c-4.7 11.5-7.5 20.2-9 32.8 22 84 42.6 168 63.8 252 17.4 69.2 41 139.3 51 210-3 46.6-12.6 89.6-6.6 136.8 7.7 59.5 35 115.6 47.3 174.2-13-11-29.7-24-45-10.2-15.8 14-20.5 45-24.8 64.2-13 59-13.8 119-21.5 178.7 4 64.3-1.2 130.3-19.2 192.5-18 63-61 88-124.3 76.4-80-15-158.8-10.7-227.6 38-27.3 19.3-58.4 47.3-60.2 83.3-2 40.3 37 76.3 63.6 101.2 23.8 24.8 48.5 48.5 72.5 73 11.4 11.8 24.7 24.3 32.4 39 16 30.5-3.6 42.2-32.4 46.5-43 6.4-87 5.6-129.3 17.2-22.8 6.2-47.6 15.6-64 33.5-16 17.7-13.6 37-11.6 59.4 40.4 49.6 59 112 83.6 170 34.4 80.5 73.6 166.2 135.4 229.7 25.7 26.6 57.2 53 96 43.6 6-1.4 11.7-3.6 17.7-4.7 3.2-.6 14.4 1 16.6-.2 8.2-4 8-10.8 10.4-19.3 6 2.5 10 13.7 12.5 19.2 31.2 77.5 63.4 155.4 87.6 235.5 22.6 75 38.3 152.2 52.5 229.3 10.2 35.4 19.6 71.2 30.4 106.5 6.3 20.3 12.4 50.4 26.8 67 23.6 27.5 26-21.4 45-24 15.3-4.4 36.2 40.8 44 50 32 39 69 73.7 105.5 108.3 18.5 17.5 39.8 47 65 55.4 17 5.5 30.2 5 45 17.8 35.2-2 73 8.7 108 14.2l94 14.8 203.4 32" stroke-width="2.7"/>
    <path d="M666 56.3c-4 12.8-5.3 25-6 38.4 20.7 85.3 41.7 170.5 62.5 255.8 16 66 38.2 133.2 46.2 200.7-2 22.5-7.8 44.4-9 67-1.2 26 .6 53.2 4.5 78.8 9.2 58.7 32.2 114.6 43.7 173-10-9-26.2-25.5-41.3-23.3-17.4 2.6-24.2 27.3-28.6 41-19 60-21 124.8-25.4 187 7.5 96 18 291.5-121 291.4-35.6 0-70.2-10.6-106-9.7-40.2 1-79.8 11.8-114.5 32-31.8 18.6-64.8 46.5-76 83-12.2 39.6 6.8 72.4 30.4 103 37.7 45.4 88.6 87.6 118 139 19.2 33.8 1.4 44.8-32 45-44.7.2-90-6-133.8 5.3-17.8 4.6-36.5 12.2-48.4 27-14 17.4-12.2 38.5-11 59.5 34.2 56 50.8 122.2 78.2 181.5 34.2 74 75.7 148.4 135.5 204.7 28.6 27 59 47.8 99.3 47.6 6 0 27.8 5.7 31.3 3.2 6-4 2.8-18.3 3.8-24.4 8.4 4.7 14.5 24.2 18.6 32.3 31.6 76.4 68.5 153 92.4 232.2 22.4 74 36 151 49 227.4 10 35.8 19 71.8 29.6 107.4 5.4 17.8 11.7 52.5 27 65.4 24 20 25-30.6 42.5-24.8 8-.7 11.3 6 15.5 11.3 10.8 13.5 19 29 30.3 42.6 32.3 38.2 69 73 105.2 107.4 17.7 16.8 37.7 45 62.2 52.2 17 5 29.8 4.4 44.4 17.2 36-1.4 74 9 109.5 14.6l95 15 205 32" stroke-width="2.8"/>
    <path d="M680 62c-2.2 15.6-2.6 30.8-2.5 46.5 19.4 84 39.7 168 59.5 252 8 34.5 16.2 68.8 24 103.2 6.5 27.5 17.7 57.6 14 86.2-20.4 114 21.4 219 41.5 330-23.6-20.6-51.8-47.6-70.7-7.8C720.4 926 719.5 994 716 1052c2.5 37 10.7 74 10.6 111 0 27.6-4.4 55.4-10.7 82-14.2 59-42 112.6-108.2 119.3-29 3-58-3.3-87-5.3-37-2.6-74 1.8-108.4 16.4C336 1408 287 1480.7 320.7 1562c38 55 87.7 104.4 120.8 162.7 6.3 11 19.8 34 8.2 45.8-7.7 8-26 5-35.3 4-45-4-90.2-16.8-135.7-10-17.2 2.7-36.2 8.4-47.2 23-13.7 18-8.7 41.7-6 62C250.4 1912 270 1975 301 2034.8c36.6 70.6 82.8 139.2 144.2 190.5 30.6 25.5 59.6 36.4 96.4 47.7 9.3 2.8 18.4 13 24.4 4.8 3.7-4.8-1.7-21-1.7-27.2 12.5 10.7 20.2 35 27.7 49.2 31.7 73.7 71.6 147.3 94.4 224.5 22 74.6 34.4 152.2 46.7 228.8 9.4 36.2 18 72.6 29 108.4 4 13.6 11.4 54.2 26.8 61.4 18.8 8.8 30.8-33 40.2-23 8.4 1 11.7 8.6 16 15 10.6 16 21.3 31.2 34 45.8 33.8 38.6 71.3 74 108.4 109.3 15.2 14.4 31 36.7 52 42.8 17.6 5 30.4 3.8 45.4 17 35.5-1 72.7 9 107.7 14.5l93.7 14.7 212.2 33.2" stroke-width="2.8"/>
    <path d="M695 71.7c-.6 18.2 0 36.2 1 54.3 18 81 37 162 55 243 12.6 55.4 37 118 24 174.7-8 53.4 5.4 107.4 12.4 160.2 8.3 62.6 27.4 123.6 37.7 186-17.2-14.4-48-52-70.6-28-14.2 15-18.6 44-22.6 63.2-7 33-10 66.5-12.4 100 2.5 66 22.8 132 10 197.7-11.4 57.8-35.8 121-98.7 137-62.7 16-126-12.2-189.3 9.5-77 26.5-123.7 98.3-111 178.8 34 63 81 118.3 113.2 182 6.4 12.4 22.7 42 10.7 55.7-8 9.3-25.4 6-35.7 4.5-47-6.8-92.7-25.8-141-24.3-16.6.6-36.7 3.4-47.8 17.6-14 18-5.8 44.6-2 64.4 37.6 138.7 116 277 231.5 365.2 16.4 12.5 33.7 23.6 52.3 32.5 13.2 6.2 28 10.4 40 19 9.7 7 15 15.7 14.5-1 0-9.3-4.7-18.4-5-27.6 16.6 19 27.2 47.2 40 69 32.4 71.7 73.4 143.3 94.8 219.5 20.8 74 31.7 150.8 43.2 226.6 9.5 38.3 18.2 77 30 114.5 3 10 12 50 28.3 51.3 11.8.8 28-34.7 34.5-20 8.6 2.6 11.4 10.7 16 17.6 11 16.6 23 32 36.2 46.7 33.6 38 70.6 72.8 107 108 14.6 14 29.2 34.7 49.6 40 17.7 4.5 30 3.2 45 16.5 36-.3 73.4 9.4 109 15 31.4 5 63 9.8 94.3 14.7 71.4 11 142.8 22.2 214.2 33.4" stroke-width="2.8"/>
    <path d="M710.5 84c1 20.3 2.4 40.5 4.3 60.7 16.6 78.5 34.2 156.8 50.8 235.3 5.7 26.7 12.2 53.3 14.5 80.5 1 12 2.6 25 .8 37-2 12.6-7.7 24.3-9.7 37-2.2 61.7 21.6 122.4 30 183 8.6 61 23.7 121 32.6 182-16-12.3-46.5-50.2-70-40.6-17 6.8-23 37.2-26.8 52.2-7.3 28-10.5 56.5-13.6 85 .2 47 4 93.3 12.4 139.6 4.6 26 8.8 49.7 4.6 76-8.5 52.5-31 113.5-81 138.7-58 29.3-122-1-182.6 12.2-80 17.3-126.6 90-128.6 168.7 29 72 78.2 133 107.7 204 6.2 15 18.5 45.7 6.3 61-8.5 10.5-24 9-35.8 7.4-48-6.4-92.8-28.6-141-34.7-18.8-2.3-47.3-5-60.2 12.7-13 18-2.4 46 2 64.7 26.3 113.4 99.4 216.8 181 297.7 32.4 32.4 67.8 60.8 107.3 84 10 5.7 20.4 10.7 29.6 17.5 7.6 5.6 13.7 15.4 21.7 19.5 3-15-10-30.5-9.7-44.8 21.2 28.2 36.8 61.5 56.3 91 33.5 70 73.4 141.8 93 217.6 18.7 72.4 28.6 147.3 39 221.3 9.3 38.5 17 77.8 29.7 115.2 3.3 9.7 12 43 27.7 43 9.2 0 29-34.4 32.2-13.2 8.3 4.3 11.3 13 16.2 20.3 11.2 17 24.4 32.5 38 47.7 33.5 37 70 71.5 105.8 106.3 14 13.6 27.2 32.5 47.2 37 17.8 4 29.8 3 44.8 16.3 36.5.5 74 9.7 110 15.3l95.2 14.8 216.3 33.7" stroke-width="2.9"/>
    <path d="M726.5 98c2 21.4 4.2 42.8 6.7 64.2 15 73 32.6 146 44.7 219.4 4 25 4.5 49.3 1.2 74.4-3 22.8-14.8 44.3-14.6 67.4 8.6 69.2 39.4 133.2 49.4 202.2 8.8 61 20.2 121.5 28 182.7-17.8-12-47.7-50-71.6-47-34 4.4-38.7 82.2-42.2 105.4-2 51.5 0 102.5 8.7 153.4 4.5 27.4 14.4 56.4 12.8 84.4-3 49.4-31.4 110.2-72.6 138.2-26.3 17.8-57.8 23-89 22.5-27.6-.5-56-8.6-83.5-6.5-79.3 6-121.8 83.2-133.2 153.5 20.6 74.3 60 138.2 91 208 15 33.5 34.2 94.4-23.6 91.6-54.8-2.6-106-32.3-159.7-41.6-17.7-3-45.7-7.5-58.5 9.3-13 17-.2 48 4.3 65.3 29.8 111.8 113.6 211.3 196.4 288.8 29.3 27.4 60.7 51.8 93.7 74.3 20.4 14 35.3 29 52.8 45.6.4-17.6-13.4-34.3-15.8-51.5 8 9 13.6 20.8 20 31 18 29 37.3 57.2 56.4 85.6 31.6 66.8 68.8 135.2 86.6 207.5 18 72.8 27 148.2 37 222.5 8.7 38 15.7 77.5 29.4 114 3.6 9.6 11.8 36.4 26.7 35.6 11-.4 27.6-32.3 30-5 8.2 6 12 15.8 17.6 24 12.2 18 27 34.5 42 50.5 30.5 33 63 64.3 95.3 95.7 14.4 14 28.7 35 49.5 39.7 18.2 4 30.3 2 45.7 16 36 1.2 72.8 9.8 108.5 15.3l104 16.2c71 11 142 22 213 33.2" stroke-width="2.9"/>
    <path d="M742.4 111.8l8.4 64.2c7.3 37.6 14.7 75.2 21.8 112.8 5.2 27.8 12.4 55.8 12.8 84.2.6 49.2-33.4 90-28.3 138.7 18.7 75.2 59.2 144.8 69.8 221.8 8.4 60.7 17 121.5 23.6 182.3-22.8-12-44.6-43.5-70-49-34-7.5-41 50-46 71.6-4.5 55.2-4.4 110.2 3.4 165 4.2 30 12.5 59.3 16.7 89.2 6.8 48-21.3 105-55.6 137.4-50 47-114.7 36.6-177 31.7-73.7-5.8-107.5 68-123.2 129.4 13.4 79.7 48.7 149.7 77.7 224.2 11.8 30.4 35.6 90-15 96.5-56.2 7.3-118-27-171.5-39.6-17.5-4-48-12.5-64.5-.6-22 16-6.7 51.5-1.4 71.8 38.5 109 128 204.2 212.5 280.3 28.2 25.3 58.4 47.6 87.8 71.3 10 8 19.6 16 28 25.6 4.8 5.2 9.3 13.3 15.4 16-5-18.5-17.5-35.7-21-54.6 10.7 11 18 26.6 26.4 39.2 24 36.7 49 73 73.5 109.5 29.8 64.2 63.4 129.8 79 199.4 15.8 71.2 24 144.4 33 217 8.4 36.5 14.7 75.2 29.2 110 4 9.8 11.7 31 25.8 30 15-1.2 24.7-26.8 27.7 4.6 7.8 7.3 12.2 17.4 18.3 26 13 18.2 28.2 35 43.5 51.2 30.2 32.4 62.2 63 93.8 94 14 13.8 27 32.8 47.2 36.7 18.3 3.5 30 2 45.5 16 71.3 3.7 144 21 214.5 32 71.7 11 143.3 22.2 215 33.3" stroke-width="2.9"/>
    <path d="M758 124l9 60c6.5 36.2 13.7 72.3 20 108.5 4.3 25.3 7.7 52.3.7 77.5-5.6 20-18.4 34.6-29 52-16.3 26.4-16 48.8-8.7 78.6 27.4 79.2 78.6 156.3 89.4 240.3 7.7 60 13.6 120.6 19 181-25.7-6.5-41.5-29.7-63-43.2-31.5-19.6-42.8 7-52.8 35-13 93.3-5 182 14 273.4 4.4 21.2 7.3 40.4 0 61.2-8.2 24-21.8 48-37.8 67.5-41.3 50.4-101 59-162.5 53.6-25.7-2.3-58-10.7-80.3 5.7-27.4 20-39.6 64.6-48.8 95 7.4 83.7 38.6 159.8 64.5 239 10.8 32.8 34.7 95.6-17.3 103.2-26.6 3.8-56.7-6.5-81.8-13.7-28.3-8-56.2-17.6-84.7-25-21-5.7-60.2-18.5-80.2-3.3-21.3 16-6.8 51.5-1.8 72 48.6 101 134.7 189 217.2 263.5 28 25.2 58 48 85.6 73.8 11.2 10.5 23 32 36.6 38-4-20-19.5-37.2-24-57.3 13.2 14 23 32.7 34 48.6 30.8 45.4 60.8 91.2 91 136.7 27 59.7 55.3 120.3 68.6 184.8 14.5 70.7 22 143 30.5 214.6 7.8 34.7 13.7 72 28.6 104.5 4.8 10.3 11.4 25.7 25 25.5 5.4 0 11.7-8.7 16.7-7.6 8 1.7 7.8 17.5 8.6 23 22 26.2 40.4 54.6 64 79.8 30 31.6 61.4 61.5 92 92 13.7 13.6 25.4 30.6 45.2 33.8 18.4 3 30 1.8 45.3 15.8 72.2 5.3 145 21.4 216.5 32.5l217 33.6" stroke-width="3"/>
    <path d="M772.6 132.4c3 17.3 5.7 34.6 8.6 52 6 35.3 14.4 71 17.8 106.6 2.3 23.5.7 47.6-12.7 67.7-11.4 17-30 26.6-42.8 42-22.7 27.2-9.8 60.5 1 90.2 19.3 45.4 41.7 89.3 63 134 17.5 37 38 77 43.7 118 8.3 60.2 10.7 122.5 15 183-42.6.8-77.7-83.6-113.6-30.7-19.4 89.6-17.3 183 1.5 272.5 5 23 13.7 48 11.6 71.7-2 22.6-16.5 44.3-29 62.6-37 54.5-92.2 77-157 75.3-25.7-.7-66.3-12.3-90.4.5-23 12-29 50.8-35.5 73.2 4 82.5 28.5 160.3 50.6 239.3 9 32.3 39.3 110.4-11 123-23.4 6-52-2.8-74.4-8.8-33-8.6-65.2-20-98-28.5-21.7-5.6-61.6-19.3-82.6-5-22.7 15.4-10.2 50.3-5.7 71.5 58.3 91 135.6 171.3 214.8 244.4 24.7 22.7 50.7 44.4 74.6 68 13.4 13.2 24.2 32.7 39.7 43 3.4-18.5-23-40.8-25.3-59.8 18.4 18.7 32.2 45 46.6 66.5 35 52.5 69.5 105.2 104.4 157.7 23.3 54.8 46 110 57 168.7 13.4 70 20 141.4 28.3 212.2 7.3 32 13 67 27.8 97 5 10.3 11 21.6 23.8 22.3 5 .2 11-5.4 15.8-3 7.5 4 6.8 24.4 7.5 30.2 43.6 64.8 101.6 117 156.4 172 13 13 23.6 28.2 43 30.8 18.5 2.5 29.8 1.7 45 15.8 71.4 6.4 142.8 21.2 213.6 32l224 34.8" stroke-width="3"/>
  </g>
</svg>
