<?xml version="1.0" encoding="UTF-8" standalone="no"?>
<!-- Created with Inkscape (http://www.inkscape.org/) -->
<svg id="svg5619" xmlns:rdf="http://www.w3.org/1999/02/22-rdf-syntax-ns#" xmlns="http://www.w3.org/2000/svg" height="3264.625" width="1529.7812" version="1.1" xmlns:cc="http://creativecommons.org/ns#" xmlns:dc="http://purl.org/dc/elements/1.1/">
 <metadata id="metadata5624">
  <rdf:RDF>
   <cc:Work rdf:about="">
    <dc:format>image/svg+xml</dc:format>
    <dc:type rdf:resource="http://purl.org/dc/dcmitype/StillImage"/>
    <dc:title/>
   </cc:Work>
  </rdf:RDF>
 </metadata>
 <g id="layer1" transform="translate(602.75411,1119.5023)">
  <g id="g95" transform="translate(-660.97286,-1690.7523)">
   <g id="g97" stroke="#dce0df" stroke-miterlimit="10" fill="none">
    <path id="path99" d="m409.628,571.325c-1.897,31.342-9.479,44.298-35.205,60.129-26.656,16.404-31.084,34.79-31.084,65.941,53.002,69.016,107.251,138.06,151.147,213.402,29.565,50.744,53.92,104.158,87.329,152.667,3.475,13.531,11.044,31.468,8.845,45.693-5.183-4.935-5.721-7.714-8.859-2.417-3.199,5.4,4.496,26.219,5.698,31.489,6.352,27.865,13.811,55.521,21.245,83.112,17.418,64.652,36.403,128.872,55.898,192.924,19.598,64.39,34.25,134.018,62.376,195.245-21.802,11.508-45.477,12.925-61.287,34.153-19.867,26.676-15.403,60.826-30.844,88.353-13.342,23.784-31.791,4.372-47.016-7.33-9.349-7.186-21.186-18.124-34.299-13.404-15.503,5.579-36.294,41.368-45.323,52.572-29.767,43.823-58.867,87.614-80.402,136.198-12.54,28.292-25.11,53.632-42.19,79.427-26.369,39.823-50.558,83.422-81.931,119.521-36.181,41.631-83.258,68.616-102.926,123.2-8.074,22.408-13.219,45.703-21.188,68.169-13.088,36.899-12.728,77.965-18.409,116.347-6.81,36.755-19.332,66.625-46.979,92.278-21.766,20.196-42.861,34.478-54.831,62.819,61.379,62.856,125.829,122.168,186.202,186.118,54.606,57.842,112.729,113.888,163.907,174.755,14.999,32.132,28.531,65.288,47.302,95.485,13.27,21.347,30.067,40.157,43.378,61.45,3.141,5.024,22.306,45.935,34.717,36.213,8.114-6.356-14.423-14.693-23.516-1.219-0.993,4.234,7.826,17.163,10.669,22.261,21.113,37.867,40.875,76.498,61.667,114.543,44.359,81.17,88.056,167.508,145.439,240.511,13.088,16.651,29.99,25.546,47.063,37.354,10.208,7.06,19.414,14.221,32.314,15.008,18.265,1.598,22.133-21.783,41.255-5.304,9.966,8.588,16.469,22.72,23.527,33.551,14.163,21.734,32.481,39.311,51.521,56.785,59.008,54.155,127.287,99.679,183.86,156.195,52.375,0.582,105.511,14.165,157.121,22.817,52.831,8.856,105.661,17.712,158.492,26.568" stroke-width="2"/>
    <path id="path101" d="m423.046,575.385c-2.724,28.768-10.582,41.946-31.8,59.888-22.445,18.98-25.995,38.726-26.067,67.85,50.704,65.19,101.741,131.762,140.337,205.065,28.114,53.394,52.921,107.977,86.733,158.193,2.026,8.084,12.071,31.9,7.807,40.733-1.515,3.138-5.568-2.639-5.828-2.136-7.865,15.199,5.211,48.223,9.419,65.23,17.385,70.267,37.642,139.819,58.511,209.118,12.015,39.898,24.374,79.69,36.54,119.541,10.904,35.72,18.547,73.688,34.348,107.593-18.587,16.478-44.499,16.922-61.222,36.463-22.508,26.3-19.401,60.126-32.955,89.715-12.549,27.395-30.17,10.857-47.669-3.054-9.719-7.726-22.523-20.578-36.622-15.999-10.769,9.143-20.294,19.464-28.574,30.962-33.515,48.151-69.141,94.767-93.064,148.727-12.794,28.859-21.394,57.986-38.757,84.555-25.488,39.001-48.924,81.984-79.113,117.531-34.189,40.257-82.944,65.611-105.654,115.428-10.535,23.109-11.476,47.987-19.226,71.767-10.937,33.555-19.58,63.207-24.256,98.76-4.311,38.371-12.161,74.92-35.096,106.748-18.887,26.21-43.068,45.794-56.652,75.793,62.441,61.189,124.307,121.895,184.105,185.696,25.165,26.849,50.244,53.776,75.485,80.553,29.92,31.741,63.608,62.365,86.882,99.374,12.296,29.079,24.15,58.614,41.202,85.336,14.411,22.583,32.684,42.284,47.632,64.503,0.607,0.902,28.282,36.328,30.417,15.348,0.224-3.419-1.317-5.716-4.621-6.89-10.159-5.482-18.483,12.944-21.185,17.597,3.284,14.386,13.804,28.65,20.454,41.583,22.054,42.894,44.144,85.761,67.095,128.185,25.164,46.514,51.034,92.689,78.483,137.899,17.258,28.424,34.379,61.68,57.847,85.709,15.849,16.228,49.301,44.717,73.65,45.596,18.103-3.015,22.466-23.642,41.076-6.594,9.82,8.996,16.165,23.027,23.308,34.042,14.356,22.137,33.79,40.027,53.144,57.747,58.019,53.12,125.048,97.86,180.991,152.871,52.874-0.02,106.892,14.13,158.99,22.833,53.48,8.934,106.96,17.869,160.441,26.803" stroke-width="2.0323"/>
    <path id="path103" d="m436.416,579.303c-2.568,24.697-8.633,39.928-23.874,58.904-18.721,23.31-22.398,43.727-22.301,73.835,49.27,63.707,95.061,128.999,129.588,201.924,25.219,53.265,50.604,105.763,82.84,155.228,2.011,8.291,10.898,29.682,6.752,38.615-0.961,2.07-5.052-1.677-5.83,0.01-9.125,19.799,7.537,59.258,12.327,78.471,17.875,71.698,38.941,142.595,60.427,213.278,11.788,38.781,23.897,77.465,35.537,116.29,8.401,28.022,13.962,57.606,26.752,83.999-10.101,15.607-14.047,18.613-30.705,24.998-11.362,4.355-21.316,8.915-29.974,17.806-19.503,20.029-24.936,48.637-31.199,74.684-6.211,25.828-14.412,46.053-41.18,26.411-11.349-8.328-23.511-24.087-37.814-27.465-11.796-2.911-20.604,1.448-26.425,13.078-28.99,43.591-63.913,82.762-89.543,128.669-18.981,33.998-27.229,70.553-42.787,105.637-9.762,22.012-25.353,41.991-38.443,62.161-12.718,19.597-24.701,40.021-38.565,58.83-31.257,42.404-81.636,65.896-110.131,110.338-14.99,23.378-19.851,48.53-24.465,75.404-5.231,30.47-19.942,56.768-25.895,87.215-3.785,41.622-9.285,83.292-28.319,121.062-15.499,30.754-38.947,56.217-52.767,87.934,62.257,59.85,121.757,121.351,180.568,184.555,55.078,59.192,121.857,116.676,160.457,188.031,12.039,29.094,23.972,58.092,42.945,83.508,6.49,8.454,13.344,16.601,20.562,24.441,8.208,9.428,17.07,26.823,28.007,33.192,5.098,2.968,22.032,5.727,20.427-6.011-0.059-3.571-1.899-5.412-5.519-5.525-11.934-3.826-18.215,28.013-19.009,30.73,7.282,20.653,19.504,40.602,29.164,60.2,22.234,45.106,45.09,89.906,68.843,134.232,23.748,44.315,48.214,88.304,74.394,131.237,14.918,24.465,29.975,54.425,51.238,74.263,16.047,14.972,48.111,46.51,72.289,44.437,17.176-6.81,22.907-24.848,40.844-7.372,9.696,9.447,15.747,23.364,23.095,34.545,14.757,22.458,35.176,40.749,54.882,58.756,36.617,33.459,75.052,64.85,113.139,96.6,21.421,17.857,44.816,33.451,64.854,52.848,51.715-0.649,104.871,13.544,155.824,22.028,55.81,9.292,111.62,18.585,167.429,27.877" stroke-width="2.06450009"/>
    <path id="path105" d="m449.917,583.256c-1.976,23.37-7.491,40.834-18.012,61.413-13.16,25.743-15.749,48.882-15.012,77.879,45.496,60.071,82.463,121.395,113.165,190.026,24.647,55.094,51.127,108.125,83.029,159.4,2.203,9.364,8.468,24.625,6.078,34.689-0.718,3.022-4.533,2.657-5.043,4.663-6.131,24.069,5.016,54.184,10.733,77.611,17.195,70.466,38.059,140.041,59.158,209.416,11.556,37.996,23.43,75.899,34.731,113.972,7.558,25.465,11.873,55.087,25.028,78.424-7.819,18.52-10.067,24.592-26.557,34.175-9.25,5.376-19.429,7.161-28.231,13.805-23.546,17.772-32.064,48.927-38.426,76.207-4.691,20.117-8.622,52.786-35.942,38.179-22.512-12.036-32.683-36.723-60.967-33.103-26.772,40.998-61.493,76.023-88.247,117.136-23.639,36.326-39.223,74.553-50.453,116.203-12.391,45.957-44.858,88.536-71.846,127.512-30.504,44.053-80.584,66.166-112.762,107.888-17.768,23.038-25.322,48.834-29.263,77.245-3.83,27.612-10.09,47.667-20.988,73.182-5.973,45.299-10.521,91.219-26.751,134.288-12.597,33.426-32.596,63.263-45.683,96.465,61.241,58.696,118.54,120.547,176.032,182.865,24.846,26.931,49.767,53.791,74.589,80.746,12.371,13.434,24.784,26.829,37.175,40.244,20.694,22.403,32.83,50.022,46.553,76.959,11.631,27.07,23.305,53.164,42.819,75.605,9.202,10.583,30.292,40.891,46.43,40.642,5.39-0.083,19.578-6.631,15.756-14.726-1.474-3.064-3.702-3.419-6.683-1.063-13.117,0.639-13.682,43.65-13.962,46.776,34.613,74.401,70.12,148.286,108.828,220.667,22.373,41.837,45.42,83.418,70.51,123.699,12.521,20.102,24.903,41.878,42.69,57.825,14.812,13.279,46.464,49.769,69.548,42.805,16.235-9.707,23.228-25.638,40.617-7.622,9.565,9.91,15.274,23.74,22.885,35.061,15.282,22.729,36.643,41.475,56.726,59.798,36.164,32.993,74.024,64.048,111.567,95.44,20.629,17.25,44.383,31.358,63.308,50.49,52.161-1.225,106.243,13.543,157.646,22.074,56.479,9.373,112.959,18.747,169.438,28.12" stroke-width="2.09680009"/>
    <path id="path107" d="m463.607,587.308c-1.197,22.702-5.511,42.562-11.989,64.168-8.186,27.302-9.625,52.863-8.308,81.377,43.631,59.645,72.428,122.117,101.549,189.502,22.883,52.949,49.467,102.748,78.643,152.428,2.213,9.793,7.141,23.07,5.109,33.439-0.696,3.548-3.951,5.461-4.765,8.885-5.923,24.918,5.796,57.182,11.556,80.963,15.683,64.751,34.897,128.659,54.231,192.393,11.449,37.739,23.005,75.446,34.463,113.182,7.413,24.412,11.92,53.366,24.474,75.782-6.854,21.607-10.135,36.972-29.988,48.476-8.06,4.67-16.93,6.905-24.619,12.471-20.396,14.763-30.297,39.458-36.936,62.864-4.419,15.578-5.221,57.308-27.455,59.549-9.34,0.942-21.124-11.304-27.116-16.374-12.013-10.162-21.987-18.663-36.265-25.446-13.555,3.697-23.993,23.852-32.598,33.641-17.38,19.771-35.106,39.193-51.151,60.094-28.078,36.574-51.145,76.666-62.783,121.544-7.212,27.809-9.758,52.777-25.341,77.391-12.608,19.916-25.174,39.867-37.944,59.68-29.498,45.769-73.221,67.596-111.224,104.368-21.076,20.393-34.397,44.884-39.835,73.698-4.919,26.065-3.265,52.124-12.192,77.438-8.583,43.434-14.68,87.805-26.124,130.603-10.518,39.336-28.503,75.722-41.597,114.141,59.72,57.75,114.949,119.689,171.036,180.928,24.684,26.952,49.491,53.782,74.108,80.797,12.265,13.46,26.037,26.356,36.874,41.016,19.116,25.861,30.361,58.281,45.046,86.72,12.8,27.452,34.221,72.369,65.601,84.659,10.945,4.287,38.731-1.149,31.671-17.327-21.384,10.214-13.63,57.308-12.463,72.587,35.504,81.432,74.036,161.55,115.985,239.866,28.163,52.578,55.817,116.133,100.357,157.261,12.16,11.229,46.871,54.812,67.47,41.51,15.485-12.01,23.472-26.01,40.394-7.375,9.394,10.344,14.835,24.135,22.733,35.541,15.916,22.987,38.104,42.212,58.617,60.904,35.657,32.492,72.89,63.18,109.844,94.169,19.998,16.77,43.307,29.695,61.802,48.152,52.587-1.785,107.634,13.565,159.475,22.141,57.149,9.454,114.298,18.909,171.447,28.363" stroke-width="2.12899995"/>
    <path id="path109" d="m477.432,591.405c-0.969,50.784-12.572,98.734-9.604,149.917,38.811,56.154,61.16,118.852,87.487,181.331,22.581,53.587,49.193,104.596,78.549,154.757,4.075,19.038,3.525,28.941,0.139,46.431-5.42,27.996,6.954,63.117,13.517,89.72,15.892,64.41,35.247,127.955,54.532,191.411,9.056,29.798,18.204,59.565,27.546,89.275,7.297,23.207,12.04,50.402,23.539,71.956-4.714,18.224-7.917,44.993-22.984,58.452-7.517,6.715-18.11,9.31-26.596,14.489-19.887,12.135-31.2,31.575-39.022,53.053-6.226,17.096-7.286,64.35-25.572,73.607-18.707,9.469-46.424-25.721-58.913-35.478-17.311-5.431-27.979,11.245-38.391,22.003-16.843,17.401-34.013,34.431-49.823,52.804-29.812,34.644-56.081,73.379-69.477,117.485-8.316,27.381-6.156,58.906-17.022,85.205-8.364,20.241-24.044,39.291-35.673,57.824-12.004,19.131-23.619,37.599-40.101,53.293-19.176,18.261-41.796,32.021-63.148,47.465-22.863,16.537-42.684,35.53-53.184,62.348-11.005,28.108-9.144,58.892-12.084,88.404-5.803,90.208-33.011,174.033-58.022,260.065,57.788,57.031,110.345,119.016,165.66,178.397,25.018,26.857,49.427,54.186,74.034,81.418,13.596,15.047,26.385,28.789,35.922,46.925,15.735,29.92,27.676,61.516,44.225,91.065,10.251,19.221,32.517,61.581,59.473,62.053,12.774,0.224,31.053-13.495,33.469-26.244-24.194,17.222-8.47,82.643-5.409,103.142,37.038,87.445,77.787,173.393,123.031,256.906,25,46.146,49.284,93.762,86.801,130.948,11.159,11.061,44.228,55.594,63.905,37.937,14.961-13.937,23.71-25.916,40.177-6.661,9.204,10.762,14.625,24.552,22.894,36.007,16.765,23.225,39.234,42.871,60.285,62.038,35.095,31.954,71.621,62.287,107.97,92.79,19.401,16.28,42.268,28.03,60.343,45.84,54.604-2.464,112.666,14.208,166.534,23.092,56.078,9.248,112.156,18.496,168.235,27.744" stroke-width="2.16129994"/>
    <path id="path111" d="m491.216,595.382c0.356,50.57-5.093,100.36-2.362,151.013,35.884,57.677,55.051,125.055,81.421,187.352,21.31,50.343,46.912,98.675,73.91,146.177,4.192,18.528,3.099,30.919,0.472,48.671-4.418,29.856,5.977,63.611,12.972,92.168,14.185,57.914,31.427,115.109,48.782,172.136,8.942,29.382,18.192,58.668,27.711,87.868,7.509,23.033,12.944,48.785,23.443,70.647-7.721,33.808-10.247,67.715-42.095,85.687-20,11.286-33.002,24.896-42.844,45.957-6.68,14.294-11.022,29.77-14.54,45.101-2.583,11.256-3.732,30.486-12.901,39.125-16.784,15.814-39.047-12.252-50.724-22.82-34.014-16.328-60.604,20.738-82.841,42.517-33.622,32.931-64.988,70.094-83.499,113.83-13.335,31.507-15.145,62.596-18.528,95.997-2.482,24.502-13.957,40.796-26.713,61.285-11.437,18.371-21.72,37.851-36.243,54.043-17.459,19.464-39.525,33.961-61.181,48.264-23.656,15.624-48.034,30.204-63.311,54.983-16.336,26.495-17.515,56.825-18.156,87.042,1.438,96.962-19.979,185.036-43.76,278.107,54.694,55.879,104.627,116.25,158.532,172.879,26.3,27.629,51.442,56.481,76.332,85.379,36.679,42.584,48.021,100.181,78.532,146.994,12.156,18.802,34.429,52.557,59.886,35.108,10.368-7.106,20.516-19.829,27.604-30.205-15.045,45.226-4.182,94.116,4.483,139.328,37.892,90.755,79.497,180.171,127.014,266.323,20.659,37.457,41.734,72.361,70.598,103.801,11.552,12.583,43.467,58.97,64.171,37.441,14.646-15.624,23.995-25.31,39.964-5.508,9.078,11.256,14.538,25.072,23.32,36.608,17.76,23.328,40.18,43.383,61.771,63.032,34.479,31.378,70.229,61.354,105.949,91.301,18.831,15.788,41.271,26.364,58.939,43.559,55.003-3,114.145,14.285,168.44,23.212,56.728,9.327,113.455,18.653,170.183,27.98" stroke-width="2.19350004"/>
    <path id="path113" d="m504.67,598.954c0.848,49.267-1.193,98.466,0.226,147.743,31.24,61.715,50.882,128.949,78.056,192.497,20.948,48.986,45.927,96.532,71.537,143.228,3.747,20.116,2.118,34.961,0.327,54.583-2.693,29.507,5.669,60.844,12.527,89.193,25.179,104.078,56.601,209.047,94.595,309.215-6.515,30.542-8.292,81.235-37.005,100.472-16.358,10.959-30.453,18.516-41.425,35.821-16.448,25.943-19.079,55.529-28.159,84.046-9.718,30.522-26.751,21.643-46.564,4.49-9.108-3.726-19.383-10.948-29.477-11.304-13.907-0.491-29.438,10.879-39.803,18.608-38.904,29.007-75.677,65.942-100.786,107.641-19.981,33.183-29.962,69.098-30.417,107.719-0.278,23.652,1.894,42.929-9.996,64.043-24.936,44.283-49.863,79.961-92.967,108.247-25.576,16.783-55.792,30.474-75.607,54.492-18.352,22.246-23.396,48.419-24.96,76.467-0.458,52.058,3.667,104.362-0.787,156.323-4.101,47.85-16.872,94.114-27.799,140.713,50.087,53.897,97.714,110.006,148.509,163.242,26.785,28.073,53.838,57.756,77.575,88.422,37.004,47.806,43.271,112.408,82.288,159.506,14.613,17.263,30.591,32.687,50.393,13.841,11.936-11.36,17.604-27.768,31.101-37.762,1.797,9.539-1.041,21.648-1.703,31.658-3.322,50.301,7.09,99.016,17.792,147.881,49.784,120.001,101.108,249.807,185.502,350.28,12.115,14.423,41.332,59.812,62.881,34.785,14.512-17.154,24.364-24.153,39.756-3.943,9.004,11.823,14.665,25.618,23.995,37.323,18.634,23.375,41.035,43.831,63.081,63.89,33.81,30.763,68.706,60.396,103.78,89.705,18.293,15.285,40.322,24.701,57.598,41.315,55.39-3.502,115.639,14.388,170.356,23.357,57.377,9.405,114.754,18.81,172.132,28.215" stroke-width="2.22580004"/>
    <path id="path115" d="m517.881,601.99c0.826,48.803-0.367,97.576,1.121,146.375,28.205,64.028,48.557,131.228,76.513,195.393,20.876,47.915,44.928,94.974,69.272,141.21,3.361,19.492,2.456,35.347,0.674,54.597-2.58,27.865,3.392,56.289,9.564,83.302,23.098,101.089,60.388,197.101,91.303,295.724-5.491,26.352-10.162,53.056-17.07,79.089-3.474,13.093-6.72,27.399-16.917,36.95-12.765,11.957-28.577,17.388-39.778,31.75-17.087,21.909-24.838,50.698-30.798,77.309-4.617,20.613-13.004,53.589-39.251,31.336-10.844-0.953-18.725-8.598-28.834-11.463-14.351-4.068-27.915-0.939-41.444,4.939-37.537,16.311-72.107,50.858-97.76,81.931-27.368,33.15-47.284,72.241-49.7,115.72-1.371,24.672,7.999,52.762,2.039,76.849-5.017,20.275-22.203,43.57-33.685,61.12-12.219,18.677-28.561,33.01-46.787,45.682-50.455,35.08-108.079,52.976-120.219,120.042-5.096,55.237,5.252,110.191,5.623,165.447,0.345,51.359-9.879,99.838-21.243,149.638,46.796,52.56,94.095,104.463,141.884,156.053,27.811,30.023,61.679,63.143,81.778,98.812,27.529,48.852,33.424,125.522,81.708,160.101,14.619,15.641,29.128,10.516,41.281-4.084,6.033-7.247,19.306-43.786,29.889-44.2,10.771-0.421,6.86,14.138,6.767,23.628-0.665,67.94,10.08,131.45,25.898,197.585,47.511,114.749,97.218,231.214,173.864,329.776,12.995,16.711,38.073,57.06,60.09,29.604,14.529-18.564,24.84-22.416,39.553-1.995,8.967,12.447,15.058,26.142,24.901,38.128,19.26,23.453,41.827,44.239,64.222,64.618,33.082,30.106,67.03,59.449,101.466,88.002,17.801,14.759,39.429,23.049,56.328,39.113,54.177-3.939,113.673,13.948,167.226,22.7,59.712,9.759,119.423,19.518,179.135,29.276" stroke-width="2.25810003"/>
    <path id="path117" d="m531.377,605.542c0.982,49.569,0.584,99.127,2.271,148.686,25.584,63.905,46.096,129.778,74.246,192.669,21.181,47.321,43.986,94.32,67.19,140.677,3.324,21.014,1.804,38.87,0.314,59.687-1.836,25.647,2.829,51.37,8.336,76.314,11.143,50.474,25.838,100.331,41.786,149.473,13.954,43,33.121,84.797,45.281,128.298-5.947,28.165-11.094,56.518-17.33,84.62-3.23,14.556-5.811,35.148-15.499,47.345-10.305,12.973-27.511,19.018-38.565,31.713-17.951,20.616-26.56,48.69-33.021,74.686-3.022,12.159-7.542,58.515-31.119,46.947-8.874,6.11-18.818-1.977-26.914-5.235-10.609-4.27-17.849-7.415-29.755-7.186-39.626,0.764-74.967,29.323-102.919,54.472-31.37,28.224-59.585,63.038-71.003,104.389-8.666,31.385-4.234,61.219,0.738,92.649,6.416,40.56-19.684,85.162-50.017,112.029-46.714,41.377-120.505,55.344-145.212,117.169-13.02,58.793,3.179,118.393,7.724,177.388,4.074,52.885-1.816,102.457-13.784,153.945,45.66,51.668,93.945,101.169,139.219,152.988,31.037,35.523,65.67,71.362,83.438,115.583,12.273,30.545,21.627,62.259,35.378,92.215,9.135,19.9,22.087,47.975,45.546,54.09,39.747,16.932,42.564-76.56,66.651-70.832,13.137,3.124,8.155,44.806,8.292,52.897,1.236,72.818,17.304,144.061,35.245,214.284,44.324,106.853,91.757,211.628,159.792,305.489,14.039,19.367,36.385,56.102,59.117,26.112,14.667-19.865,25.435-20.077,39.354,0.311,26.899,39.398,55.578,71.768,91.221,104.221,32.216,29.331,64.869,59.085,99.009,86.192,17.543,13.929,38.631,21.442,55.138,36.961,28.474-2.273,56.41,4.523,84.432,9.09,28.224,4.599,56.447,9.198,84.671,13.798,60.38,9.84,120.76,19.679,181.14,29.519" stroke-width="2.29029989"/>
    <path id="path119" d="m544.964,609.807c1.295,50.969,1.691,101.94,3.666,152.893,22.699,60.574,42.681,122.248,69.474,181.208,22.189,48.829,44.332,97.832,67.269,146.308,2.925,20.335,1.99,38.172,0.203,58.367-2.255,25.492,1.465,50.41,6.762,75.336,10.844,51.03,25.746,101.402,42.591,150.75,12.499,36.615,30.168,72.168,40.474,109.439-6.331,28.627-11.829,57.371-17.456,86.141-3.539,18.095-5.827,39.156-13.742,56.063-7.882,16.837-22.637,22.781-35.45,35.226-17.866,17.352-27.549,41.433-34.721,64.804-5.065,16.505-6.347,61.643-27.25,67.132-6.855,22.77-39.23-1.791-51.93-4.42-38.295-7.928-76.069,10.644-106.29,32.376-61.924,44.529-108.22,108.6-91.78,187.521,5.624,27.001,16.371,49.377,5.133,75.921-7.445,17.584-16.803,35.721-30.02,49.64-43.45,45.756-115.432,57.367-153.308,108.331-22.131,57.184-4.899,116.577,3.626,174.991,8.458,57.955,8.44,112.527-4.474,169.786,26.085,29.74,51.484,60.301,78.358,89.33,17.24,18.623,36.099,34.85,52.596,54.392,17.443,20.662,35.294,41.405,51.499,63.051,18.23,24.351,28.593,52.158,38.454,80.631,7.363,21.259,39.752,143.051,81.032,119.162,23.163-6.935,44.915-89.427,62.496-80.75,14.231,7.023,9.622,58.053,10.337,69.181,5.252,81.782,22.577,161.363,43.774,240.341,40.83,97.965,85.605,192.717,145.413,280.461,7.131,10.461,14.477,23.045,24.644,30.932,14.812,11.492,23.081,5.209,33.595-8.588,14.967-21.138,26.053-17.003,39.16,2.95,26.516,40.362,57.474,72.919,93.361,105.618,31.313,28.531,62.864,58.346,96.408,84.277,17.219,13.311,37.853,19.81,54.037,34.865,28.729-2.469,57.095,4.594,85.382,9.191,28.536,4.637,57.072,9.274,85.608,13.911,61.048,9.92,122.097,19.84,183.145,29.76" stroke-width="2.32259989"/>
    <path id="path121" d="m558.634,614.717c1.68,52.515,2.839,105.037,5.116,157.532,39.152,108.995,84.66,214.851,131.893,320.58,2.748,21.3,1.36,40.064-0.748,61.161-2.403,24.051,1.374,47.68,6.216,71.225,9.365,45.535,22.442,90.47,37.644,134.381,12.539,36.22,30.975,71.066,41.385,107.913-11.678,48.937-17.055,99.746-30.504,148.184-6.096,21.954-15.48,29.181-31.63,43.223-17.008,14.787-27.582,34.198-35.474,55.081-9.339,24.71-9.492,59.215-25.591,80.314-6.632,29.72-18.086,24.295-41.696,14.739-32.753-13.256-67.948-9.591-100.099,3.837-70.564,29.472-141.606,101.37-128.198,183.428,4.433,27.13,23.195,55.167,21.854,82.804-0.812,16.724-10.846,37.203-20.484,50.741-15.63,21.955-41.205,36.183-63.915,49.513-30.697,18.019-62.102,34.423-91.017,55.295-34.642,53.423-16.856,116.059-6.135,174.317,11.182,60.764,17.313,119.028,4.107,179.98,24.178,27.773,47.069,60.552,75.026,84.592,19.666,16.91,35.93,35.477,52.437,55.729,18.322,22.478,37.931,44.588,52.333,69.875,15.619,27.425,25.313,57.1,35.187,86.904,7.45,22.485,44.179,144.95,85.199,93.837,17.351-15.386,24.478-39.832,33.54-60.379,4.628-10.493,11.347-32.773,24.196-19.472,6.781,7.02,7.657,22.65,8.796,31.485,2.602,20.173,3.57,40.597,5.604,60.833,8.74,86.949,27.349,171.715,50.817,255.797,37.244,88.705,78.943,174.83,131.154,255.712,6.969,10.795,14.575,24.588,25.578,31.893,15.226,10.108,22.59-0.999,31.846-13.54,15.366-22.314,26.723-13.243,38.972,5.896,26.293,41.083,59.455,74.013,95.53,106.919,30.301,27.64,60.736,57.566,93.609,82.178,16.981,12.714,37.172,18.248,53.094,32.911,31.593-2.936,63.752,5.657,94.894,10.704,27.739,4.495,55.477,8.99,83.216,13.485,59.975,9.719,119.95,19.438,179.926,29.156" stroke-width="2.35479999"/>
    <path id="path123" d="m572.365,620.097c2.082,53.774,3.897,107.553,6.455,161.307,37.385,106.275,83.194,210.12,127.05,313.901,2.443,21.48,0.312,40.031-1.926,61.182-2.795,26.414,2.273,53.113,7.74,78.856,9.279,43.696,22.105,86.825,37.806,128.638,11.05,29.427,26.984,57.741,35.501,88.025-13.027,49.536-20.196,99.914-30.503,149.996-4.86,23.611-9.625,39.044-27.539,54.739-39.45,34.564-47.803,83.196-61.211,131.744-1.769,23.099-2.2,51.223-31.541,42.404-31.989-9.615-55.63-20.71-90.681-15.281-72.27,11.193-161.657,74.462-166.797,153.306-3.403,52.185,47.853,100.401,27.816,150.747-7.742,19.454-21.729,32.457-38.664,44.353-32.979,23.165-69.658,41.079-104.117,61.89-22.947,27.815-39.175,54.901-39.389,91.828-0.173,29.835,6.887,59.94,12.65,89.045,12.141,61.317,23.095,121.431,9.961,183.533,43.286,50.1,89.514,93.755,130.722,145.747,41.432,52.275,60.444,110.726,82.081,172.794,7.751,22.234,16.323,50.761,33.943,67.573,21.438,20.454,37.603,3.835,51.551-15.976,14.505-20.142,19.693-44.37,31.334-65.867,10.059-18.576,18.379-14.25,25.511,4.828,14.55,38.922,12.78,87.139,18.424,127.875,11.503,83.029,30.443,164.302,53.591,244.808,33.753,79.577,71.862,158.561,117.434,232.26,6.519,10.542,13.55,23.197,23.867,30.581,15.838,11.334,23.743-3.952,32.773-16.395,15.81-23.309,27.46-8.859,38.787,9.126,26.196,41.593,61.5,75.02,97.717,108.103,29.199,26.672,58.527,56.611,90.626,79.833,16.813,12.163,36.583,16.828,52.302,31.171,31.853-3.088,64.538,5.79,95.955,10.867,28.039,4.531,56.078,9.062,84.117,13.594,60.625,9.797,121.25,19.594,181.874,29.392" stroke-width="2.38709998"/>
    <path id="path125" d="m586.119,625.662c2.437,54.367,4.769,108.737,7.537,163.089,16.65,47.294,36.68,92.383,56.292,138.412,23.873,56.03,43.387,113.819,66.073,170.329,1.901,20.008-0.14,37.569-2.41,57.279-3.232,28.058,1.401,56.151,7.121,83.597,7.908,37.943,18.917,75.393,32.726,111.607,11.236,29.465,28.121,57.531,36.551,87.956-14.366,48.515-22.397,98.007-31.03,147.766-4.196,24.185-6.338,50.289-23.622,68.786-12.336,13.202-24.778,23.249-33.968,39.393-14.132,24.827-21.337,53.123-28.134,80.623-0.187,20.659,6.668,80.151-28.763,73.843-14.175-2.524-28.305-12.653-42.593-16.333-14.639-3.77-29.737-5.414-44.847-5.021-72.371,1.881-168.223,53.088-186.899,128.237-7.855,31.608,1.948,62.202,16.102,90.382,10.247,20.401,28.346,45.76,27.566,69.752-1.656,50.906-79.863,79.657-115.297,100-24.288,28.245-46.825,55.679-54.585,92.937-6.001,28.813-5.535,57.927-0.363,86.807,11.703,65.361,29.039,130.114,15.018,196.551,11.998,13.993,25.181,36.634,40.435,46.931,3.162,2.135,7.55,3.206,9.673,4.613,8.22,5.445,14.366,13.372,20.755,20.861,21.042,24.669,42.501,50.225,60.383,77.274,37.68,56.998,53.415,122.383,78.236,185.015,6.504,16.412,16.936,46.209,35.667,53.093,24.964,9.174,41.544-24.479,51.135-41.42,10.318-18.501,14.583-42.344,26.912-59.443,14.321-19.861,22.571,7.495,26.872,21.464,14.262,46.321,15.664,97.782,23.193,145.455,13.278,84.076,32.977,166.58,56.962,248.214,30.273,70.364,64.102,141.717,102.875,208.07,6.339,10.847,14.548,27.841,26.391,33.919,15.717,8.067,22.956-9.507,31.254-20.984,16.267-24.054,28.242-3.913,38.608,12.617,26.308,41.951,63.572,75.898,99.911,109.151,28.04,25.658,56.307,55.616,87.591,77.373,16.691,11.607,35.999,15.461,51.543,29.522,32.115-3.202,65.334,5.949,97.026,11.057,28.339,4.568,56.679,9.135,85.018,13.702,61.274,9.876,122.548,19.751,183.823,29.627" stroke-width="2.41939998"/>
    <path id="path127" d="m599.847,631.019c2.692,53.974,5.374,107.948,8.239,161.914,15.249,42.16,34.937,82.194,51.319,123.866,23.69,60.261,43.537,121.967,66.663,182.449,1.569,20.596-1.191,39.065-3.239,59.378-2.537,25.164,0.744,50.317,5.422,75.047,6.892,36.428,17.183,72.401,30.712,106.922,11.265,28.744,27.082,55.54,36.282,85.048-15.93,46.025-24.239,93.678-31.937,141.649-4.169,25.984-4.641,61.819-20.318,84.208-8.974,12.815-22.661,21.711-31.65,34.865-14.738,21.567-22.625,46.958-29.898,71.765-0.56,21.703,9.137,91.429-16.207,104.753-11.063,5.816-23.62-3.206-33.638-7.246-13.243-5.341-26.76-9.761-40.815-12.431-76.892-14.607-180.405,23.389-220.409,93.481-37.854,66.325,19.648,116.049,44.082,173.275,20.479,47.963-42.774,74.717-75.77,94.222-22.399,28.709-46.678,56.429-60.183,90.647-12.624,31.984-19.281,65.122-18.104,99.577,2.31,67.64,26.122,130.426,11.815,198.59,9.103,10.698,19.42,28.677,32.032,35.16,1.401-13.02,20.299,14.573,22.72,17.485,40.808,49.065,74.461,99.005,99.363,158.04,12.308,29.18,23.244,58.935,33.741,88.806,7.532,21.432,14.194,44.546,27.248,63.469,32.256,46.758,63.891-11.647,79.058-41.097,4.984-10.271,13.802-47.442,26.06-51.583,15.468-5.226,24.724,39.839,27.022,49.049,12.148,48.694,16.713,99.457,25.235,148.856,14.64,84.864,34.932,168.308,59.492,250.827,27.766,63.386,57.097,129.629,91.375,190,5.688,10.018,13.661,27.101,24.719,32.518,16.378,8.024,23.628-12.036,32.194-23.723,16.547-24.248,29.299,1.188,38.434,16.346,25.532,42.372,66.022,76.959,102.1,110.04,26.829,24.601,54.09,54.586,84.514,74.805,16.617,11.043,35.421,14.148,50.819,27.967,31.506-3.259,64.25,5.829,95.354,10.829,27.868,4.479,55.735,8.959,83.603,13.439,63.613,10.226,127.225,20.451,190.838,30.677" stroke-width="2.45160007"/>
    <path id="path129" d="m613.483,635.667c2.795,52.137,5.619,104.273,8.317,156.415,14.948,38.286,32.968,75.069,46.922,113.794,23.346,64.79,44.389,130.4,67.423,195.306,1.235,21.412-2.154,41.063-3.992,62.219-2.387,27.468,1.433,55.064,6.844,81.965,6.792,33.773,16.805,67.075,30.573,98.675,10.457,23.999,23.508,46.277,31.174,71.427-18.349,43.4-26.466,89.943-33.791,136.271-4.602,29.107-5.904,61.538-15.947,89.47-5.806,16.148-18.172,25.021-28.693,37.964-15.11,18.589-23.862,40.71-31.724,63.084-1.246,29.179-1.862,58.468-4.118,87.592-0.897,11.573-0.865,30.95-8.961,40.943-16.091,19.862-49.731-4.679-69.208-10.115-77.722-21.691-171.78,3.894-229.25,60.798-56.999,56.437-20.693,117.679,19.69,170.831,11.304,14.878,33.745,35.636,27.586,56.514-6.002,20.345-32.371,33.923-48.433,44.55-34.325,59.779-82.025,112.122-95.327,182.034-14.047,73.826,18.579,145.439,3.261,218.939,4.39,5.199,11.387,16.3,17.743,18.267-1.415-3.094-1.355-7.333-1.721-10.097,5.811,3.546,10.088,9.55,14.473,14.647,16.584,19.28,32.621,39.618,47.446,60.265,36.112,50.295,58.969,109.347,81.34,166.636,9.25,23.688,18.018,47.576,27.485,71.179,6.207,15.475,14.257,40.179,30.311,48.751,36.01,19.229,63.215-48.362,74.884-70.744,3.146-6.693,12.526-37.623,23.501-35.504,17.213,3.323,26.894,60.885,29.667,73.088,12.452,54.804,19.428,110.854,30.092,166.024,14.955,77.373,34.266,153.629,56.812,229.124,16.412,36.495,34.456,72.19,50.543,108.838,10.451,23.809,19.961,48.354,33.032,70.9,4.473,7.714,13.947,27.238,23.974,29.458,14.877,3.294,22.647-18.326,30.188-28.34,17.451-25.236,31.465,9.352,39.93,22.412,25.016,38.597,61.836,70.866,95.289,101.883,27.572,25.564,55.779,57.069,87.257,77.898,16.81,11.123,35.949,13.538,51.595,27.493,31.768-3.291,65.036,6.034,96.414,11.064,28.16,4.515,56.32,9.03,84.48,13.545,64.28,10.306,128.56,20.612,192.84,30.918" stroke-width="2.48390007"/>
    <path id="path131" d="m627.124,640.068c2.444,47.105,4.178,94.236,6.213,141.359,43.13,105.427,77.494,213.502,112.899,321.853,0.781,19.572-1.795,37.774-3.846,57.121-2.872,27.089-0.502,53.95,4.28,80.711,5.826,32.6,15.072,64.777,28.59,95.044,10.755,24.083,23.767,46.094,31.288,71.55-36.931,67.014-34.608,147.78-50.208,220.901-4.32,20.249-11.162,30.867-24.345,45.973-13.918,15.948-23.277,33.717-31.485,53.15-1.805,30.153-3.072,60.356-5.36,90.478-1.356,17.853-1.372,38.514-7.349,55.663-9.834,28.21-30.714,15.88-52.213,8.258-77.932-27.629-157.229-18.976-228.647,23.116-32.611,19.22-69.084,46.958-68.9,88.829,0.145,32.885,22.629,61.54,42.536,85.606,15.386,18.602,44.272,39.18,53.317,61.993,7.515,18.954-7.968,30.691-21.387,42.072-18.326,67.891-78.573,115.72-105.479,179.38-14.527,34.371-17.988,71.29-15.667,108.253,2.595,41.316,13.188,81.968,7.437,123.391,1.251,1.16,2.503,2.321,3.754,3.481-0.655-5.883-4.621-11.828-5.665-17.976,7.083,4.573,12.464,12.45,17.743,18.898,15.554,18.998,31.195,38.323,44.916,58.696,39.311,58.369,63.709,126.285,90.095,191.065,10.264,25.2,20.092,50.818,32.041,75.288,6.977,14.287,16.696,34.752,35.358,35.272,34.677,0.967,58.016-60.531,72.14-83.988,7.113-13.924,14.108-26.563,25.501-9.163,17.075,26.078,23.258,63.675,29.613,93.478,26.83,125.812,48.656,251.117,85.213,374.797,25.586,54.81,44.552,114.358,73.716,167.32,4.873,8.849,15.461,31.695,27.679,32.83,11.705,1.087,22.07-24.601,27.829-31.924,17.4-24.242,32.659,14.96,40.415,26.397,26.161,38.58,62.963,71.13,96.89,102.638,26.287,24.413,53.526,55.963,84.061,75.146,16.794,10.551,35.362,12.259,50.902,26.035,32.038-3.275,65.826,6.261,97.482,11.323,28.452,4.55,56.904,9.1,85.357,13.651,64.947,10.387,129.894,20.773,194.841,31.16" stroke-width="2.51609993"/>
    <path id="path133" d="m640.217,642.333c1.488,40.373,1.811,80.763,2.859,121.147,17.831,40.451,31.947,81.547,45.114,123.794,22.663,72.72,46.401,145.291,68.152,218.27,0.474,20.542-2.57,39.911-4.535,60.244-2.809,29.068-0.035,58.104,5.478,86.719,10.446,54.222,40.597,98.049,55.409,150.12-25.447,27.964-31.037,76.075-37.378,111.631-6.158,34.534-9.874,69.401-15.283,104.043-2.992,19.162-5.966,35.847-18.061,51.217-11.647,14.801-22.847,28.297-31.007,45.571-3.403,44.326-4.82,89.025-10.736,133.116-3.35,24.968-4.401,60.272-37.222,54.144-33.39-6.234-63.303-21.599-97.841-24.835-44.052-4.127-88.345,3.992-129.064,20.925-34.282,14.256-78.248,36-97.746,69.484-17.464,29.991-5.981,60.394,12.661,86.494,21.059,29.485,47.923,53.645,74.229,78.245,12.833,12.001,30.081,25.962,14.29,43.321,8.878,67.666-63.748,117.244-100.182,162.912-25.77,32.301-40.953,69.56-43.833,110.889-3.126,44.846,8.164,88.708,7.705,133.4-3.151-8.882-8.733-16.644-11.902-25.523,6.704,2.761,13.594,13.53,18.157,19.177,17.881,22.129,35.463,44.614,50.125,69.044,40.383,67.288,66.185,142.733,97.706,214.301,10.69,24.272,30.272,94.958,67.688,89.654,35.302-5.004,55.046-62.345,75.6-85.839,9.94-17.175,21.333,6.327,25.031,14.721,14.822,33.643,23.279,70.991,31.042,106.757,25.591,117.909,48.862,235.289,82.091,351.448,24.343,55.286,40.586,117.208,71.004,169.526,5.044,8.676,14.397,28.005,26.764,25.503,10.508-2.126,19.024-25.55,25.328-33.095,17.219-22.651,33.921,20.495,41.132,30.544,27.526,38.362,63.801,71.164,98.203,103.172,25.012,23.271,51.316,54.734,80.879,72.326,16.804,10,34.778,11.035,50.244,24.672,31.466-3.21,64.776,6.216,95.875,11.177,31.381,5.006,62.762,10.012,94.143,15.019,63.872,10.189,127.744,20.379,191.617,30.568" stroke-width="2.54839993"/>
    <path id="path135" d="m652.62,641.804c0.312,33.127-0.858,66.225-0.886,99.35,21.238,44.478,33.258,93.639,47.154,140.724,22.229,75.32,47.138,150.281,67.569,226.082,0.426,50.698-9.656,96.679-0.097,147.734,9.813,52.412,39.41,95.19,52.93,145.963-24.46,9.047-31.605,58.215-36.366,79.412-8.284,36.88-13.057,74.43-17.797,111.891-2.837,22.426-2.895,50.86-14.332,71.085-8.152,14.416-20.857,25.929-29.112,40.507-3.924,42.805-6.024,85.839-11.343,128.506-2.89,23.181-3.354,73.613-31.965,80.767-10.921,2.731-27.996-5.193-37.942-8.252-17.341-5.333-34.608-10.569-52.493-13.832-43.418-7.921-87.846-5.041-130.047,7.812-60.885,18.544-171.504,70.132-121.094,148.06,21.585,33.369,52.347,60.667,83.058,85.385,10.419,8.386,36.286,21.846,36.825,37.622,38.824,64.518-44.886,117.601-85.69,150.434-32.88,26.456-61.135,57.93-72.458,99.532-12.526,46.021-2.665,93.005,0.915,139.472-4.239-7.53-12.758-18.177-13.238-26.563,37.926,31.434,65.519,85.121,86.594,128.383,33.771,69.322,59.851,142.159,94.464,211.095,13.934,27.751,35.571,83.603,75.298,60.729,13.31-7.663,23.327-22.002,32.237-34.048,9.397-12.705,20.056-35.375,37.19-38.875,21.876-10.179,52.64,131.281,55.743,144.832,25.242,110.2,49.839,220.001,78.22,329.476,22.681,55.875,37.394,119.495,68.189,171.633,5.714,9.674,13.652,26.908,26.807,21.393,10.544-4.421,16.357-24.979,24.033-33.198,16.873-20.395,35.264,25.708,42.065,34.81,28.5,38.139,64.548,71.149,99.244,103.497,23.732,22.125,49.132,53.447,77.71,69.439,16.859,9.435,34.205,9.873,49.621,23.407,31.76-3.099,65.533,6.479,96.932,11.476,31.7,5.045,63.4,10.089,95.1,15.134,64.522,10.268,129.043,20.536,193.565,30.803" stroke-width="2.58060002"/>
    <path id="path137" d="m664.483,639.081c-0.927,26.096-3.466,52.073-4.48,78.162,25.446,52.702,36.894,114.801,52.698,170.795,20.897,74.037,45.797,147.698,63.88,222.452-0.286,50.668-10.444,96.895-1.232,147.889,9.318,51.583,37.93,94.885,50.969,145.235-23.979-2.347-33.382,42.549-37.704,58.528-9.642,35.656-14.828,72.501-19.372,109.097-3.392,27.319-3.714,57.235-11.766,83.722-4.889,16.081-16.012,27.284-25.131,41.059-4.39,43.514-6.871,87.255-12.612,130.626-3.142,23.733-5.069,75.258-27.94,90.767-19.973,13.544-52.577-3.391-72.817-8.737-37.634-9.942-76.109-14.355-114.928-9.676-50.359,6.07-99.191,25.864-140.491,55.161-23.383,16.587-53.658,38.944-45.104,71.799,9.033,34.695,44.025,65.839,69.901,88.276,23.061,19.996,49.662,35.15,72.84,54.793,20.292,19.572,29.044,42.137,20.712,70.162-10.411,35.017-50.266,51.251-79.714,67.511-38.287,21.141-78.411,44.63-100.378,84.083-24.139,43.356-17.438,92.105-11.169,139.075-3.793-6.279-8.874-13.305-10.574-20.428,38.885,35.599,65.368,88.151,87.254,135.144,33.724,72.412,61.402,147.823,99.842,217.994,15.677,28.618,40.902,82.327,81.053,59.42,28.457-16.235,39.116-54.117,72.551-62.054,13.521,7.512,18.793,33.891,23.493,47.271,14.298,40.696,25.879,82.398,35.894,124.336,24.04,100.663,48.297,201.224,72.674,301.806,20.705,55.109,34.425,116.729,62.981,168.483,5.892,10.679,14.035,29.931,28.276,22.675,10.979-5.593,14.904-25.041,24.022-33.466,16.491-17.733,38.602,33.362,45.406,41.951,30.955,39.079,68.289,73.373,104.708,107.227,20.971,19.494,44.553,50.161,71.388,61.793,16.413,7.115,30.961,7.955,45.312,20.528,31.241-2.948,64.514,6.479,95.403,11.383,31.207,4.954,62.415,9.909,93.622,14.863,66.847,10.612,133.694,21.225,200.542,31.837" stroke-width="2.61290002"/>
    <path id="path139" d="m676.005,634.98c-2.071,19.895-5.758,39.513-7.465,59.451,26.864,61.528,39.219,132.2,56.87,196.717,20.16,73.689,45.195,147.258,61.292,221.94-0.98,50.384-11.246,96.584-2.485,147.294,8.953,51.823,36.81,96.771,49.51,147.634-45.158-20.041-58.269,124.872-61.203,147.695-5.793,45.068-2.44,95.322-29.931,133.376-3.448,35.996-6.057,72.083-10.247,108.005-4.106,35.197-6.259,80.938-26.41,111.438-17.733,26.84-40.865,20.446-68.112,13.349-32.577-8.485-64.978-15.884-98.85-16.151-46.648-0.368-92.832,11.267-134.415,32.232-28.23,14.233-78.618,40.906-88.195,74.406-9.728,34.027,33.204,74.313,54.538,94.533,25.22,23.903,53.577,43.492,83.105,61.61,21.464,18.506,45.891,36.31,43.442,67.527-2.888,36.812-36.872,49.826-66.982,61.945-42.979,17.3-90.915,31.896-124.028,66.129-36.275,37.501-34.442,84.733-26.512,132.857-2.188-3.445-4.602-7.544-5.297-11.252,44.43,40.042,70.187,103.609,93.624,156.973,33.717,76.771,63.748,158.545,111.429,228.101,22.547,32.892,49.237,58.984,85.946,31.022,14.454-11.01,39.742-47.218,61.134-42.645,13.647,19.329,20.128,45.77,27.667,67.833,14.411,42.172,27.037,84.91,37.89,128.133,23.088,91.947,46.222,184.135,67.158,276.59,19.412,55.549,31.92,118.656,61.045,170.219,24.966,44.2,27.978,1.899,50.718-14.667,17.21-13.399,39.078,36.857,46.834,46.383,31.492,38.68,68.548,73.001,104.946,106.955,19.88,18.544,42.415,48.443,68.361,58.735,16.501,6.546,30.535,7.144,44.844,19.651,31.57-2.734,65.229,6.772,96.448,11.717,31.518,4.992,63.037,9.984,94.555,14.976,67.513,10.693,135.027,21.386,202.54,32.079" stroke-width="2.64520001"/>
    <path id="path141" d="m687.442,630.53c-3.229,15.039-7.254,29.495-9.46,44.748,26.008,71.84,41.36,148.711,60.997,222.46,19.214,72.159,43.862,144.553,57.831,217.941-1.668,49.817-12.09,95.655-3.878,145.825,8.678,53.022,36.062,100.652,48.537,152.899-47.972-31.46-60.833,93.228-64.382,117.276-4.886,33.104-7.494,66.427-11.198,99.664-1.978,17.749-3.284,36.622-13.862,51.673-4.212,67.279-4.738,144.837-30.476,207.929-10.899,26.717-32.176,45.846-61.85,41.846-32.178-4.337-62.828-15.445-95.397-18.379-82.831-7.462-181.652,23.08-234.893,90.25-46.363,58.493,68.441,136.207,109.095,162.269,21.955,19.031,63.189,43.527,66.498,75.841,3.303,32.253-27.597,45.342-53.117,53.928-46.113,15.515-96.546,21.305-138.53,47.515-46.478,29.015-51.736,70.968-43.031,121.428-0.447-1.025-0.894-2.051-1.342-3.076,41.361,32.879,64.3,96.86,84.601,143.665,36.088,83.201,69.015,173.283,123.987,246.367,25.969,34.524,56.256,62.781,96.948,35.711,12.544-8.344,23.751-16.107,36.879-23.012,6.347-3.338,13.672-13.647,19.641-6.22,31.992,67.983,53.709,143.157,72.956,215.574,22.498,84.647,43.819,169.833,61.945,255.52,10.779,33.071,20.828,66.351,31.332,99.507,8.105,25.583,15.514,55.015,31.24,77.294,23.26,32.954,27.073-13.832,45.856-23.339,9.6-5.387,14.76,2.835,20.039,9.683,10.136,13.148,17.548,28.126,28.381,41.114,31.889,38.232,68.642,72.508,104.923,106.481,18.857,17.657,40.303,46.617,65.397,55.659,16.59,5.978,30.142,6.408,44.407,18.861,31.926-2.459,65.927,7.077,97.499,12.066,31.829,5.03,63.659,10.059,95.488,15.088,68.18,10.773,136.359,21.546,204.539,32.32" stroke-width="2.67740011"/>
    <path id="path143" d="m699.1,626.978c-3.737,12.18-8.051,22.535-10.17,35.257,23.531,78.394,41.923,158.552,62.465,237.767,18.676,72.021,43.292,144.71,55.495,218.175-2.209,46.584-12.771,89.976-6.244,136.958,8.002,57.604,36.056,110.562,48.846,167.205-47.129-36.918-60.101,47.337-65.963,78.162-6.687,35.165-10.309,70.81-13.483,106.434-2.031,22.794-1.988,47.716-9.822,69.486,0.134,65.411-5.835,135.902-25.908,198.331-8.642,26.877-26.062,51.975-54.696,59.778-24.863,6.775-52.506-4.373-77.034-8.925-86.459-16.044-178.006,2.352-244.282,62.855-27.742,25.325-43.091,51.174-23.911,86.874,19.298,35.921,52.133,63.514,84.195,87.573,20.402,19.103,41.772,37.281,61.696,56.884,10.608,10.436,23.698,22.788,27.362,37.882,7.689,31.677-25.286,40.768-49.386,46.398-43.662,10.201-88.849,14.614-131.397,29.412-22.074,7.677-44.765,19.249-57.176,40.038-12.818,21.471-8.434,43.147-4.876,66.548,45.28,46.317,66.59,112.179,91.393,170.465,34.229,80.436,70.143,169.512,130.145,234.688,29,31.5,57.222,50.28,97.374,30.362,5.875-2.915,11.661-6.819,17.95-8.829,4.035-1.29,12.78-0.79,16.087-3.243,7.945-5.896,8.672-22.823,16.85-3.414,62.306,151.347,105.968,308.208,137.665,468.588,10.231,33.469,19.762,67.148,30.049,100.598,7.371,23.968,14.292,58.084,31.489,77.543,21.617,24.461,27.064-19.575,43.686-26.664,17.278-5.752,33.996,35.415,42.413,45.869,31.627,39.281,68.985,74.174,105.594,108.709,19.376,18.279,42.083,49.415,68.072,58.594,16.95,5.987,30.583,5.724,45.226,18.523,34.883-2.404,72.511,8.324,107.025,13.765,31.043,4.894,62.086,9.788,93.129,14.682,67.12,10.582,134.239,21.163,201.359,31.745" stroke-width="2.70970011"/>
    <path id="path145" d="m711.34,625.788c-4.773,11.49-7.653,20.143-9.152,32.773,21.968,83.851,42.618,168.055,63.827,252.1,17.43,69.068,40.854,139.194,50.91,209.817-2.977,46.625-12.501,89.649-6.463,136.829,7.607,59.437,34.847,115.526,47.28,174.095-12.897-11.029-29.763-23.843-45.093-10.175-15.683,13.983-20.465,45.053-24.729,64.225-13.109,58.936-13.769,119.082-21.525,178.686,4.148,64.366-1.163,130.454-19.128,192.619-18.176,62.895-61.147,88.115-124.318,76.424-80.084-14.82-158.859-10.661-227.641,37.951-27.408,19.371-58.507,47.404-60.253,83.462-1.948,40.219,37.014,76.217,63.605,101.184,23.715,24.816,48.508,48.502,72.484,73.052,11.433,11.707,24.776,24.24,32.478,38.942,15.964,30.476-3.605,42.151-32.372,46.436-43.17,6.431-86.906,5.653-129.348,17.257-22.793,6.232-47.55,15.565-63.852,33.533-16.057,17.699-13.763,37.043-11.772,59.319,40.324,49.51,58.816,111.955,83.559,169.899,34.389,80.534,73.536,166.212,135.34,229.774,25.789,26.523,57.242,52.828,96.082,43.574,5.896-1.405,11.658-3.629,17.632-4.699,3.266-0.585,14.437,0.86,16.589-0.188,8.201-3.992,8.17-10.83,10.471-19.368,5.975,2.472,9.888,13.663,12.442,19.134,31.187,77.523,63.473,155.4,87.579,235.485,22.624,75.163,38.308,152.183,52.55,229.308,10.204,35.463,19.627,71.194,30.435,106.479,6.243,20.383,12.348,50.428,26.749,67.127,23.6,27.367,25.874-21.448,44.919-23.959,15.365-4.509,36.296,40.678,43.993,49.995,32.046,38.795,69.086,73.595,105.555,108.145,18.551,17.575,39.859,47.133,65.081,55.396,17.017,5.575,30.169,5.026,44.828,17.852,35.346-1.97,73.203,8.651,108.167,14.15,31.343,4.93,62.687,9.861,94.03,14.791,67.769,10.66,135.538,21.32,203.307,31.98" stroke-width="2.74189997"/>
    <path id="path147" d="m724.305,627.534c-4.053,12.842-5.419,24.961-6.132,38.41,20.711,85.302,41.703,170.536,62.567,255.8,16.125,65.896,38.158,133.219,46.154,200.715-1.844,22.512-7.753,44.376-8.877,66.984-1.287,25.892,0.462,53.245,4.448,78.838,9.137,58.654,32.202,114.598,43.697,172.893-10.089-8.904-26.112-25.41-41.287-23.185-17.366,2.546-24.132,27.231-28.514,40.98-19.127,60.007-21.171,124.808-25.592,187.128,7.593,95.817,17.932,291.345-121.073,291.207-35.522-0.035-70.057-10.681-105.915-9.757-40.16,1.035-79.742,11.802-114.507,32.052-31.81,18.528-64.903,46.437-76.066,82.899-12.146,39.674,6.763,72.498,30.433,103.112,37.696,45.36,88.59,87.54,118.001,139.058,19.207,33.645,1.348,44.688-32.143,44.867-44.544,0.238-89.865-5.97-133.672,5.316-17.786,4.583-36.499,12.184-48.386,26.911-14.122,17.495-12.197,38.614-10.962,59.609,34.186,55.782,50.769,122.071,78.181,181.338,34.187,73.914,75.609,148.41,135.495,204.775,28.677,26.991,59.212,47.787,99.318,47.597,5.977-0.028,27.835,5.654,31.362,3.217,6.001-4.147,2.804-18.311,3.77-24.478,8.452,4.703,14.551,24.186,18.642,32.319,31.523,76.47,68.442,152.987,92.384,232.281,22.397,74.179,35.942,151.15,49.105,227.382,9.757,35.806,18.77,71.889,29.53,107.414,5.392,17.801,11.654,52.573,26.962,65.387,23.94,20.041,24.946-30.52,42.528-24.773,8.001-0.728,11.237,6.004,15.472,11.328,10.784,13.558,18.863,29.208,30.244,42.677,32.329,38.26,69.02,72.888,105.253,107.379,17.724,16.871,37.676,44.957,62.173,52.196,17.113,5.057,29.826,4.437,44.463,17.27,35.839-1.457,73.87,8.982,109.312,14.545,31.644,4.967,63.287,9.933,94.931,14.9,68.419,10.739,136.837,21.477,205.256,32.215" stroke-width="2.77419996"/>
    <path id="path149" d="m738.275,633.357c-2.271,15.501-2.651,30.726-2.536,46.377,19.345,84.161,39.677,168.097,59.497,252.147,8.095,34.33,16.141,68.671,24.108,103.03,6.376,27.496,17.621,57.676,13.8,86.193-20.344,114.229,21.457,219.272,41.549,330.15-23.619-20.584-51.757-47.649-70.642-7.774-25.407,53.646-26.337,121.657-29.807,179.689,2.425,36.972,10.627,74.16,10.623,111.186-0.003,27.462-4.444,55.267-10.794,81.916-14.087,59.121-41.707,112.625-108.026,119.254-29.168,2.916-58.004-3.312-86.985-5.3-37.022-2.539-74.12,1.796-108.467,16.41-76.497,32.549-125.389,105.351-91.628,186.564,38.018,55.133,87.622,104.5,120.747,162.749,6.296,11.072,19.783,33.867,8.208,45.792-7.732,7.967-25.871,4.993-35.265,4.127-45.024-4.15-90.27-16.91-135.745-10.026-17.238,2.609-36.187,8.273-47.231,22.861-13.634,18.009-8.616,41.704-5.876,62.151,24.762,62.233,44.246,125.313,75.227,185.112,36.55,70.549,82.773,139.191,144.228,190.524,30.537,25.507,59.607,36.357,96.395,47.672,9.295,2.859,18.363,12.955,24.403,4.906,3.642-4.853-1.692-21.155-1.764-27.234,12.41,10.723,20.112,35.035,27.652,49.173,31.703,73.764,71.54,147.391,94.371,224.58,22.045,74.533,34.261,152.198,46.643,228.775,9.371,36.117,18.036,72.522,28.817,108.255,4.099,13.585,11.587,54.271,26.972,61.44,18.78,8.75,30.744-32.926,40.138-23.03,8.474,0.988,11.766,8.649,15.919,14.931,10.67,16.137,21.437,31.247,34.224,45.886,33.731,38.615,71.229,73.901,108.243,109.31,15.129,14.472,30.976,36.82,51.993,42.882,17.541,5.059,30.308,3.774,45.372,17.045,35.431-0.967,72.695,9.031,107.724,14.517,31.176,4.883,62.352,9.765,93.527,14.647,70.748,11.08,141.497,22.16,212.245,33.24" stroke-width="2.80649996"/>
    <path id="path151" d="m753.18,642.975c-0.584,18.143,0.003,36.167,1.044,54.283,17.913,81.116,36.845,162.005,55.089,243.047,12.469,55.391,36.964,118.073,23.989,174.654-8.101,53.439,5.326,107.352,12.335,160.196,8.315,62.689,27.383,123.678,37.634,186.098-17.235-14.407-47.911-51.885-70.659-27.92-14.196,14.955-18.568,44.051-22.573,63.159-6.908,32.963-9.965,66.479-12.451,100.01,2.542,66.096,22.876,131.893,10,197.651-11.333,57.876-35.739,121.242-98.678,137.174-62.66,15.861-126.068-12.276-189.263,9.47-76.928,26.473-123.748,98.259-111.043,178.783,33.945,62.884,80.917,118.234,113.256,181.828,6.359,12.505,22.644,41.995,10.696,55.793-8.089,9.342-25.407,6.094-35.717,4.598-47.105-6.831-92.709-25.832-140.965-24.313-16.698,0.526-36.726,3.377-47.833,17.546-14.132,18.029-5.852,44.602-2.026,64.409,37.562,138.704,115.968,276.889,231.531,365.242,16.364,12.511,33.718,23.61,52.311,32.508,13.181,6.308,27.82,10.425,39.815,18.962,9.834,6.999,15.05,15.839,14.692-0.875-0.199-9.328-4.816-18.415-5.279-27.675,16.705,19.105,27.355,47.264,40.104,69.062,32.474,71.68,73.416,143.332,94.805,219.47,20.779,73.97,31.748,150.938,43.243,226.753,9.494,38.213,18.168,76.835,29.94,114.436,3.151,10.066,12.04,50.012,28.311,51.197,11.791,0.859,28.159-34.648,34.529-20.024,8.633,2.7,11.426,10.772,15.95,17.673,10.907,16.642,23.002,31.942,36.225,46.828,33.666,37.902,70.65,72.776,107.121,107.929,14.54,14.014,29.057,34.682,49.549,39.952,17.65,4.538,30.007,3.283,45.05,16.592,35.954-0.305,73.307,9.364,108.847,14.918,31.469,4.918,62.938,9.836,94.407,14.754,71.414,11.16,142.827,22.321,214.241,33.481" stroke-width="2.83870006"/>
    <path id="path153" d="m768.763,655.338c0.82,20.257,2.364,40.439,4.238,60.623,16.654,78.502,34.224,156.806,50.84,235.316,5.639,26.646,12.206,53.251,14.453,80.455,0.985,11.931,2.505,25.074,0.691,36.98-1.92,12.597-7.712,24.323-9.647,36.989-2.357,61.716,21.431,122.45,29.936,183.087,8.562,61.05,23.6,120.992,32.561,182.009-15.946-12.305-46.483-50.294-69.943-40.694-17.008,6.96-22.974,37.32-26.879,52.351-7.245,27.889-10.527,56.486-13.559,85.067,0.169,47.04,4.005,93.185,12.316,139.486,4.682,26.086,8.879,49.761,4.615,76.192-8.438,52.302-31.017,113.314-81.098,138.593-57.957,29.254-121.879-0.931-182.448,12.146-80.12,17.298-126.622,90.069-128.602,168.741,28.974,71.905,78.141,132.948,107.697,204.086,6.158,14.822,18.469,45.565,6.307,60.74-8.501,10.608-23.897,9.098-35.793,7.512-48.089-6.408-92.844-28.607-141.152-34.717-18.674-2.362-47.18-4.964-60.104,12.683-13.1,17.888-2.404,46.007,1.978,64.646,26.355,113.412,99.44,216.812,180.948,297.77,32.474,32.255,67.886,60.667,107.405,83.782,9.848,5.76,20.373,10.793,29.625,17.519,7.719,5.611,13.766,15.487,21.817,19.527,2.832-15.041-10.034-30.514-9.702-44.758,21.124,28.224,36.793,61.433,56.254,90.913,33.499,70.18,73.447,141.831,92.99,217.636,18.683,72.469,28.562,147.381,39.106,221.35,9.18,38.337,17.014,77.7,29.615,115.117,3.244,9.633,12.004,43.104,27.677,43.093,9.257-0.01,29.123-34.53,32.244-13.302,8.386,4.264,11.35,12.852,16.247,20.246,11.269,17.017,24.397,32.561,38.048,47.7,33.49,37.141,69.915,71.522,105.75,106.357,14.013,13.621,27.235,32.521,47.229,37.053,17.751,4.023,29.755,2.885,44.761,16.232,36.494,0.474,73.895,9.694,109.971,15.32,31.762,4.953,63.524,9.907,95.286,14.86,72.079,11.241,144.158,22.481,216.237,33.722" stroke-width="2.87100005"/>
    <path id="path155" d="m784.711,669.18c1.898,21.446,4.232,42.841,6.756,64.221,14.847,73.008,32.528,145.911,44.605,219.444,4.105,24.996,4.671,49.263,1.38,74.37-2.995,22.842-14.848,44.377-14.596,67.427,8.549,69.25,39.369,133.178,49.323,202.181,8.798,60.993,20.263,121.568,28.137,182.698-17.877-11.934-47.828-50.113-71.711-47.027-34.12,4.409-38.658,82.228-42.235,105.429-1.893,51.499,0.104,102.53,8.724,153.404,4.636,27.364,14.553,56.296,12.88,84.313-2.952,49.448-31.311,110.201-72.603,138.25-26.22,17.81-57.733,23.11-88.896,22.429-27.624-0.604-55.974-8.679-83.529-6.602-79.308,5.977-121.807,83.221-133.205,153.496,20.528,74.334,60.059,138.227,91.035,208.103,14.83,33.454,34.17,94.291-23.622,91.527-54.7-2.616-105.957-32.338-159.647-41.576-17.716-3.048-45.669-7.562-58.532,9.303-13.008,17.055-0.134,47.989,4.311,65.268,29.719,111.823,113.518,211.329,196.361,288.841,29.259,27.376,60.654,51.734,93.713,74.304,20.259,13.832,35.122,29.043,52.661,45.561,0.399-17.606-13.441-34.279-15.774-51.496,7.94,9.053,13.568,20.775,19.863,30.968,17.983,29.114,37.366,57.278,56.508,85.634,31.644,66.785,68.767,135.224,86.62,207.468,18.023,72.928,26.9,148.34,36.89,222.666,8.793,37.848,15.742,77.469,29.446,113.962,3.613,9.622,11.837,36.383,26.746,35.637,10.819-0.541,27.473-32.399,29.961-4.99,8.152,5.821,12.064,15.685,17.512,23.741,12.259,18.127,27.162,34.573,41.965,50.619,30.558,33.122,63.174,64.265,95.402,95.736,14.449,14.11,28.737,35.024,49.526,39.639,18.244,4.051,30.285,2.248,45.772,16.138,36.099,1.144,72.719,9.747,108.417,15.302,34.675,5.396,69.35,10.793,104.025,16.189,71.017,11.052,142.033,22.104,213.05,33.157" stroke-width="2.90319991"/>
    <path id="path157" d="m800.657,683.017c2.646,21.433,5.456,42.84,8.39,64.235,7.271,37.598,14.641,75.176,21.761,112.803,5.256,27.778,12.38,55.747,12.775,84.17,0.684,49.181-33.357,90.161-28.232,138.76,18.52,75.134,59.058,144.76,69.684,221.771,8.369,60.655,16.886,121.457,23.609,182.318-22.842-12.093-44.634-43.518-69.899-49.031-34.118-7.444-41.068,50.087-46.005,71.638-4.581,55.155-4.508,110.184,3.246,165.073,4.232,29.959,12.543,59.187,16.775,89.087,6.783,47.922-21.349,104.962-55.676,137.395-49.889,47.135-114.595,36.621-176.831,31.705-73.774-5.827-107.571,68.053-123.273,129.408,13.42,79.607,48.785,149.631,77.752,224.114,11.835,30.431,35.539,89.883-14.921,96.447-56.309,7.325-117.96-27.033-171.574-39.526-17.504-4.079-48.019-12.675-64.569-0.704-21.965,15.888-6.64,51.448-1.334,71.733,38.415,108.98,127.971,204.284,212.421,280.288,28.119,25.307,58.366,47.606,87.773,71.302,9.937,8.007,19.57,16.141,28.128,25.645,4.689,5.208,9.21,13.303,15.292,16.023-5.17-18.563-17.506-35.697-20.901-54.619,10.614,10.879,17.956,26.579,26.229,39.201,24.086,36.745,49,72.971,73.434,109.487,29.811,64.244,63.416,129.81,78.926,199.416,15.895,71.332,23.977,144.543,33.189,216.948,8.305,36.601,14.616,75.382,29.117,110.229,4.023,9.667,11.649,30.899,25.792,29.84,15.063-1.128,24.668-26.719,27.681,4.692,7.776,7.243,12.216,17.415,18.318,25.986,12.975,18.223,28.216,34.902,43.451,51.229,30.214,32.38,62.262,62.962,93.806,94.025,13.967,13.754,26.911,32.736,47.214,36.645,18.353,3.534,30.089,1.969,45.53,15.918,71.286,3.791,143.888,21.031,214.488,31.996,71.666,11.131,143.332,22.261,214.999,33.392" stroke-width="2.93549991"/>
    <path id="path159" d="m816.184,695.152c2.939,20.06,5.968,40.107,9.013,60.151,6.525,36.156,13.743,72.232,19.95,108.437,4.341,25.32,7.759,52.287,0.754,77.482-5.579,20.066-18.373,34.646-29.007,51.975-16.237,26.46-16.098,48.84-8.684,78.621,27.445,79.196,78.589,156.36,89.416,240.351,7.739,60.034,13.575,120.676,19.125,180.952-25.83-6.396-41.605-29.602-63.225-43.089-31.404-19.591-42.711,6.92-52.675,35.015-13.008,93.256-5.117,181.87,13.951,273.383,4.421,21.218,7.306,40.377,0.082,61.236-8.27,23.879-21.905,48-37.854,67.513-41.278,50.501-100.934,58.97-162.532,53.634-25.643-2.221-57.903-10.629-80.318,5.749-27.403,20.021-39.573,64.54-48.79,94.927,7.465,83.778,38.612,159.819,64.551,238.952,10.794,32.929,34.673,95.753-17.344,103.274-26.55,3.839-56.653-6.468-81.754-13.635-28.316-8.085-56.215-17.62-84.691-25.149-20.951-5.539-60.103-18.423-80.15-3.193-21.268,16.158-6.788,51.548-1.741,71.901,48.537,101.233,134.7,189.028,217.164,263.583,27.928,25.25,58.117,48.072,85.557,73.832,11.205,10.519,23.014,31.906,36.625,38.052-3.923-20.147-19.481-37.245-23.93-57.382,13.172,14.131,23.084,32.707,33.952,48.66,30.807,45.217,60.764,91.02,91.104,136.551,26.758,59.76,55.207,120.295,68.469,184.796,14.537,70.705,21.887,143.004,30.549,214.589,7.741,34.678,13.715,71.805,28.569,104.417,4.69,10.298,11.308,25.664,24.839,25.465,5.414-0.08,11.807-8.624,16.778-7.575,8.027,1.695,7.766,17.494,8.625,23.095,22.057,26.171,40.322,54.493,64.097,79.712,29.785,31.593,61.217,61.546,91.998,92.15,13.529,13.451,25.216,30.448,45.044,33.7,18.453,3.027,29.952,1.793,45.323,15.796,72.21,5.285,144.945,21.394,216.531,32.49,72.316,11.209,144.631,22.418,216.947,33.627" stroke-width="2.9677"/>
    <path id="path161" d="m830.819,703.672c2.881,17.3,5.747,34.602,8.61,51.904,5.848,35.336,14.348,71.045,17.809,106.68,2.281,23.481,0.709,47.602-12.761,67.723-11.389,17.012-29.811,26.604-42.748,42.022-22.759,27.125-9.855,60.401,0.98,90.116,19.286,45.505,41.733,89.476,62.901,134.111,17.587,37.084,38.156,76.873,43.806,118.048,8.264,60.221,10.74,122.432,15.141,183.059-42.756,0.751-77.85-83.713-113.696-30.79-19.436,89.583-17.314,182.964,1.474,272.489,4.82,22.969,13.624,47.977,11.473,71.762-2.043,22.587-16.516,44.23-28.97,62.508-37.083,54.429-92.215,76.977-156.959,75.261-25.807-0.684-66.403-12.295-90.481,0.47-22.842,12.11-28.858,50.778-35.453,73.221,3.866,82.538,28.441,160.336,50.615,239.315,9.067,32.295,39.286,110.348-11.045,123.033-23.421,5.903-51.872-2.899-74.349-8.811-32.94-8.664-65.144-19.904-98.096-28.527-21.545-5.638-61.453-19.269-82.488-5.018-22.684,15.368-10.192,50.29-5.637,71.483,58.225,91.119,135.543,171.336,214.756,244.41,24.737,22.819,50.668,44.473,74.589,68.161,13.321,13.191,24.109,32.696,39.672,43.051,3.356-18.599-23.001-40.941-25.324-59.857,18.375,18.631,32.218,44.914,46.596,66.501,34.937,52.455,69.5,105.157,104.428,157.618,23.263,54.865,45.983,109.925,57.102,168.689,13.249,70.022,19.974,141.375,28.157,212.106,7.263,32.13,13.036,67.018,27.761,96.899,5.122,10.395,11.128,21.751,23.885,22.409,4.827,0.249,11.009-5.359,15.776-2.857,7.403,3.886,6.721,24.3,7.351,30.13,43.664,64.744,101.623,116.836,156.432,171.933,13.096,13.165,23.72,28.177,43.024,30.813,18.541,2.532,29.873,1.722,45.152,15.771,71.33,6.409,142.719,21.237,213.518,32.189,74.649,11.548,149.298,23.096,223.947,34.644" stroke-width="3"/>
   </g>
  </g>
 </g>
</svg>
