<svg xmlns="http://www.w3.org/2000/svg" height="3264.7" width="1529.8">
  <g stroke="#dce0df" stroke-miterlimit="10" fill="none">
    <path d="M351.4 0c-2 31.4-9.5 44.4-35.2 60.2-26.7 16.4-31 34.8-31 66 53 69 107.2 138 151 213.3 29.6 50.8 54 104.2 87.4 152.7 3.5 13.5 11 31.5 8.8 45.7-5.2-5-5.7-7.8-8.8-2.5-3.2 5.4 4.5 26.2 5.7 31.5 6.3 27.8 13.8 55.5 21.2 83 17.4 64.7 36.4 129 56 193 19.5 64.4 34.2 134 62.3 195.3-21.8 11.5-45.5 13-61.3 34-20 26.8-15.4 61-30.8 88.5-13.4 23.8-31.8 4.3-47-7.4-9.4-7-21.2-18-34.4-13.4-15.5 5.6-36.3 41.4-45.3 52.6-29.7 43.8-58.8 87.6-80.4 136.2-12.5 28.3-25 53.6-42.2 79.4-26.3 40-50.5 83.5-82 119.6-36 41.6-83.2 68.6-102.8 123.2-8 22.4-13.2 45.7-21.2 68-13 37-12.7 78-18.4 116.5-6.8 36.7-19.4 66.6-47 92.2-21.8 20.2-43 34.5-54.8 63 61.3 62.7 125.8 122 186.2 186 54.6 57.8 112.7 114 164 174.7 15 32.2 28.4 65.3 47.2 95.5 13.2 21.3 30 40 43.4 61.4 3 5 22.3 46 34.7 36.2 8-6.4-14.5-14.7-23.5-1.2-1 4.2 7.8 17 10.6 22.2 21 38 41 76.5 61.7 114.6 44.3 81 88 167.5 145.4 240.5 13 16.6 30 25.5 47 37.3 10.2 7 19.4 14.3 32.3 15 18.3 1.6 22-21.7 41.3-5.3 10 8.6 16.4 22.8 23.5 33.6 14.3 21.7 32.6 39.3 51.6 56.8 59 54.2 127.3 99.8 184 156.3 52.2.6 105.4 14 157 22.8 52.8 9 105.7 17.8 158.5 26.7" stroke-width="2"/>
    <path d="M365 .8C363 31 356 45 334 64.2c-23.2 20.2-26 41.5-25 72 50.2 64.6 100.7 130.5 139 203 28 52.8 52.7 106.5 86.2 156 1.2 4.5 12 33.8 8 38.6-1 1-6.6 3.2-5 .5.6-1-3 2-3.6 3-4.2 6.8 4.8 31.5 6.2 38 31.3 138 77.6 272 117 407.5 5 18.4 9.7 36 17.6 53.5-13.3 16-38 15-53.8 28.8-21 18.4-27.6 48.2-33.4 74-2.6 11-5 36.4-20 39.6-10.8 2.3-22.8-10.3-30-16-10-8-23-22-37.3-19.8-12.3 2-28.7 28.4-35 36-31 43.5-63.4 86.4-86.2 135-14 30-22 61.8-40 89.7-25.3 39.6-49.7 83-80 119-34 40.7-83.4 66-106.7 115.8-11 23.3-12 48.4-19.6 72.5-4.2 13-11 25-14.5 38.4-5.3 20-7.3 40.5-10 61-4.2 37.6-11.8 73.8-34.2 105.3-18.2 25.7-42.2 45-56.4 73.6 19.7 20.8 39.7 41 59.6 61.2 67 64.4 128.5 134.6 192.3 202.3 32.7 36.5 69.7 72 95.2 114 10.7 25 21.3 50 35.4 73.2 12 19.7 27.4 36.6 41 55.3 6.2 8.6 16.7 36 30 36.6 8.2.3 16.4-8 5-12-14-3.4-18.7 13.3-22 22.8 6.3 18.4 19.2 36.3 28.3 53.4 23.6 44.8 47.4 89.6 72 134 25.2 44.8 50.8 89.4 78.3 133 15 23.5 30.4 53.8 52 72.2 14.6 12.3 52.4 44.2 73.6 37 17-9.7 24-22 41-4 9.5 10 15.5 23.6 23.4 35 15.4 22 36.5 40.2 56.4 58 38.7 35 79.2 67.7 119.4 100.8 20.4 16.8 42.5 30.4 61.3 49.2 51.8 1.6 104.4 15 155.5 23.6l156.4 26.2" stroke-width="2"/>
    <path d="M379 1.5c-1.6 29.4-8.4 46-25.4 68.8-18.3 24.6-19.3 49-17.7 79.2 47 61 91 123.7 124.5 193.3 25.7 53.3 51.3 105.8 84 155 2 8.4 10.2 28.4 7 37.3-.8 2.4-4.5 1.8-4.3 1.4.2-1-3.5 4.6-3.7 5-4 8.4 4 30.2 5.6 38.2 29.4 136.7 77 269 115.4 403.3 4 16.5 7.2 33 15 48.3-13.3 20-29.5 19-48 31.3-23.8 15.6-32 43.7-39.3 69.5-5 25.2-8 65.3-40.8 45.5-13.4-8-23.5-24-39-28.8-16.7-5.3-23.6 7.4-34 18.7-31.8 43-66.5 84-91.2 132-16.8 32.4-23 68.8-39 101.2-10.8 21.4-26.5 41.3-39.6 61.4-12.7 19.6-24.7 40.3-39.4 58.5-33 41.2-84.4 64.7-110.4 112-13.3 24-15.5 49.7-21 76.2-5.3 27-19 50.4-24.3 77.7-4 42-9.5 84.2-29 122.3-14.5 28-35.5 51.6-49.7 79.8 19 21 38.2 42 57 63 66.7 66 128.4 137 192 206 34.7 41 67.7 79 93.2 126.5 9.6 21.4 19 42.6 32.3 62 12 17.6 27.2 32.6 40 49.7 4.8 6.6 18.3 31.6 31.2 21.3 6.6-5.4 3-16.6-6.6-12-17.3 7.5-14 33-13 47.3 43.4 79.8 84.4 160.8 130 239.4 22.7 39 45.7 78.5 72 115.3 10.5 14.7 20.2 26 35 36 16.2 10.8 47.2 42.8 67.8 24.6 17.5-16.4 27.5-15.8 42.3 3.5 9.3 12.2 16 25.8 25.8 37.5 19.7 23 43 43.2 66 63 35.5 31.2 71.5 63.5 109.6 91.6 20.7 15.2 41.3 26.3 59.6 44.8 49.6 3.3 99.6 15.3 148.6 23.5 53.2 9 106.3 17.8 159.4 26.6" stroke-width="2.1"/>
    <path d="M392.7 2.3c-.5 27-5.4 47.7-16.6 72-13.6 29.7-14 57.4-11.6 90 44.8 60 80.3 121 111.3 189 23.4 51 49 100 79.2 147.4 2 9.2 8.4 24.8 6 34.6-.7 2.4-4 2.8-4.3 4-4.5 16.3-.5 33 3.2 50.4C587.7 722 634 850.2 671 980.2c3.5 15.3 6.7 29.6 12.8 44.2-11.7 26-23 25.7-45 38.8-23.5 13.8-32.8 37.8-41.2 62.4-4.6 20.7-6.7 80.3-41 60.2-11.3-6.7-20-17.4-30.7-25-15.2-10.7-20.7-11.5-35.8-1-31.2 41.6-67.5 79-94 124.2-21 35.5-31 72-42.5 111-12.2 41-44.5 81.7-69 116.5-30.7 43.4-81 65.2-113 106.7-17.5 23-25 48.7-28.8 77-4 27.4-10.2 47.3-21 72.7-5.7 41.7-9.8 84-23.4 124-11.5 34-30.8 63.8-45.7 96 18 21.4 35.8 43 53.3 64.7 66 67.8 128.5 139.7 192.2 210 14.6 18.2 30 36 44 54.7 19.2 25.8 31.6 56.2 46.8 84.4 11 21.6 22 41.4 38 59.8 9.5 11 21.6 29 33.5 37.5 6.7 5 17 11 23.6 1 7.3-11-6.2-17-12-4-15.5 24-2 59 4.8 83.2 47.2 91.4 95.2 182.7 149 270.4 22.8 37 43.2 72.6 78.8 97.4 22 15.3 43.2 38.7 68 14.2 21.6-23 35.7 3.8 48 21.6 28.6 41.4 69 73.8 107.2 106.2 29 24.6 58.5 54.3 91.4 73.8 21.8 13 40 23.4 58.2 42 101.7 12 203 33.4 304 50.3" stroke-width="2.1"/>
    <path d="M406.5 3c.4 29-4 54-10.8 82-7.6 31-6 61.5-3.5 93.3 40.7 57.5 68 118 96.7 182 22 49.8 48 96.6 76.3 143.2 2 9.5 7.2 23 5 33.2-.6 2.7-3.4 4.5-4 6.8-4.3 20.5 1 41.6 5.5 62 27 124.7 69.6 246 105.7 368.4 3 14 5 28.3 11 41.7-6 17.4-9.3 30.8-25.4 40.4-6.3 4-13.6 6-20 9.8-20.7 12.4-30.3 32-39 53.8-4.7 18-6 78.7-33.5 78.2-10-.2-23.3-15.3-30-21-13.8-11.6-21.8-18.3-40-19.5-61.4 70.2-125.6 134.4-144 229.3-5.3 28-13 46.8-28.2 70.6-11.2 17.4-22 35.2-33.5 52.3-28.4 42.2-71.4 62.7-107.2 96.7-21.3 20.3-34.8 44.7-40.4 73.6-5 26.2-3.3 52.4-12.3 77.8-8.6 42.5-14.7 86-25.7 128-9.4 35.2-24.5 68-37.8 102 16.5 21.6 33 43.3 48.5 65.7 65.4 70.6 129 143 193.4 214.6 15 19.5 31.3 38.4 43 60.2 16 29.8 28.2 61 45.6 90.2 11.7 18.8 23 34.3 38.7 50 6.8 6.8 19.7 24 31.4 23.5 24-1 18.7-42 1.6 3.2-7.4 40.5 14 88.6 27 125.6 47.2 90.7 94.8 182 151.2 267.3 18.8 28.4 36.7 45.6 63 65.2 7.7 6 15.4 13.3 24.6 17 18.3 7 28-4 41-16 22-21.2 40.3 21.7 50.3 35 32 42.2 77.7 76.3 118 110 24.7 20.6 50 47.3 79.3 60.7 23.8 10.6 41 23 59 42 100 17.8 200.2 33.6 300.2 50.2" stroke-width="2.1"/>
    <path d="M420.3 4c1.2 29.7-1.3 58-4.3 87.6-3.4 33-1 65.2 1.4 98.2 35 54 56.6 114 82.4 172.8 21.8 49.8 47.7 97 75.8 143.6 4 17.2 3.8 27 .7 43-4 19.8 1 41 5 60.4 24.6 120.4 66 238 102 355.3 2.7 13.4 4.4 27.4 9.3 40.4-5 17.6-8 39-23.2 51-5.6 4.3-12.8 6.5-19 10-19.8 11.5-30 27.3-39.8 47.8-6.3 21.3-9.5 42.8-15 64.2-2.2 8.6-5.2 24.2-16 27-9.8 2.5-21-8.6-27.3-13.8-13.6-11.2-24.7-21-40.5-29-15 4.3-27 20-37.8 30.5-18.7 18.3-37 37-53.5 57-28.5 35-51.8 74.5-61.5 119-6 26.8-3.7 55.6-17 80-9.7 17.6-21.8 34.2-32.5 51-28.6 45.4-66 68.8-108 100.4-23 17.3-41 38.4-49.5 66.2-8 25.6-6.4 53-9 79.3-5.3 82.6-27.6 162.6-53.3 241 15 21.7 29.4 43.7 43 66.3L328.2 2273c36 49.7 50.7 110 86.8 159.4 11.7 14.8 33.8 47.7 56 46.2 11.4-.8 23-10.4 22.3-22.2-15 7.4-13 35.4-14 49 6.3 57.4 29.3 114 50.5 167.3 27.7 52.4 56 104.6 86.2 155.5 19 32 37.6 68 62.8 95.6 12 13.3 28.5 23 42.8 34 7.6 6 15.2 12.4 25 14.2 18.4 3.5 28-14.2 41.4-23.8 21.2-14 45.5 37.6 55.8 49 37.6 41 81.7 76.3 124.6 111.6 21.7 17.8 41.4 36.7 67.7 47 25.2 9.7 42.2 24.5 60.7 44.3 98.4 17.3 197.2 33 295.8 49.4" stroke-width="2.2"/>
    <path d="M434 4.7c3.7 64 .2 128 4 192 31.5 56.6 51 119.5 77.2 178.5 20.6 46 45 90 70.8 133.5 4 18 3 30 .3 47-3.6 22.5 2 46.6 6.7 68.6C616.5 736 654.3 845 689 953.6c2.3 13.4 3.5 27.2 7.5 40.2-7.5 31.2-10.7 56.5-38.8 73.3-18.6 11.2-29.5 23.4-40 42.4-8.8 25.2-12.5 50.3-18.7 76-1.8 7.6-4.7 23.5-14 27-18.6 7.2-48-29.2-60.7-38.7-28-9.8-72 44-87.7 60-32 33-60.8 71-75 115.2-9.5 30.2-6.4 60-11.4 90.5-3.6 22-19 40-30.6 58.5-27.5 44.2-59.2 70.2-102.7 98.6-23.7 15.4-45.8 31.4-58.4 57.5-11.7 24.2-12.3 51-12.8 77.2 1.2 88.2-15.4 170-38.7 254.6 13.3 22 25.5 44.5 37.7 67.2l198.6 225.4c32.4 51.6 39.8 121.3 85.2 164.7 14.7 14.3 29.6 32.2 50.6 20 8.5-5 17.7-13.7 18.2-23.7-19 22.3-8 67.8-4.7 92.2 15.7 68.4 42 134.5 69.8 198.8 24 43.7 48 87.4 74.4 129.8 15.5 25.2 31 54.5 54 73.4 11.5 9.4 23.8 18.5 35.6 27.4 7.2 5.4 15.2 11.5 24.7 11.8 19 .5 28.2-22 44.5-29 10.3-2 17 7 23 13.7 14.2 16.8 25.6 34.3 41.5 50 39.6 39.2 83 74.6 126.2 109.6 19.6 15.8 34 26.6 57.6 33.8 26.2 8 44 28 62.4 47.3l291.5 48.5" stroke-width="2.2"/>
    <path d="M447.8 5.3c3.5 65 2 129.8 5.7 194.6 26.8 59.8 47.7 122 75 182 20 44 43.6 87 67.8 129.2 3.7 17.7 3 31.4.6 48.8-3.3 24 1.4 48.4 6.2 71.8 21.7 105 57.3 207.4 91 309 2 13.3 3 27 6.2 40.2-6.5 29.8-8.5 68-35.8 86.6-16.7 11.2-28.4 20.4-39.6 37.8-8.8 22.2-15 44.4-19 68-2 11-2.5 29.7-10 39.5-17.5 23-44.5-11.7-58.5-24-28.7-17-65.5 17-85.2 33.6-35.5 30-68.4 65.8-87.4 108.7-14 31.7-16.3 63.4-15.4 97.4.6 26.8-3.6 41-17.7 63.6-11 17.4-20.2 36-33.8 51.5-16.8 19.2-38.6 33.4-60 46.8-24.3 15.2-52 28.4-69.6 51.8-16.3 21.4-20.6 46.3-22 72.5-.5 47 3 94.3 0 141.4-2.7 43.7-12.7 85.7-23 128 11.2 22.6 22 45.5 33 68.2 31.7 36.3 62.7 73.3 95.4 108.7 36.5 39.5 78.3 80.5 105.6 127 21 51.6 34.6 128.7 84.8 161.8 23 21.6 49.7-5 59.6-27.3-18 46-.2 104 10 149 22.4 74.5 51.6 146.5 84.3 216.8 37.4 65.4 71.6 133.4 135.7 176 8.7 5.7 18.5 10.3 29 6.7 16.6-6 22.6-28 42-29.7 11.8 2.8 18 14.3 24.6 23.3 12 16.4 26 30.6 40.6 44.6 40.8 39 84.6 74.7 128.5 110 19 15.3 31 19.7 53.4 25.8 27.5 7.5 46.5 31.4 65.7 50.8l287.3 47.7" stroke-width="2.2"/>
    <path d="M461.5 6c3.3 67 3.3 134.4 7.4 201.6 42 104.8 82.8 207 137.6 306 3.7 19 2.4 34.6.4 53-2.4 22 .8 43.7 5 65 19 100.5 54 198.6 87.4 295 1.8 13.5 2.6 27.2 4.8 40.7-5.8 28.7-7.4 76.6-30.4 98.2-14 13.2-29.2 20.3-41.3 36.6-8.6 19.2-14.7 38.6-19 59-4 17.5-3.5 40-11.7 56-14 27-35.2 3.6-50.8-10.3-29-16.8-59.7-6-86 11.3-39.2 25.8-76 61.7-98.7 103-17.5 32-23.8 66.2-20.7 102.3 2 21.5 8 43-1.3 63.4-17.7 38-43.4 71-78.2 94.4-50 33.7-106.4 51.7-118 117.6-4.8 51 4 101.8 5 153 1 44.5-4.4 87.5-14.4 131l30 69.7c30.4 35 60 70.6 91.8 104.3 42 44.5 86.8 92.8 110.5 149.6 12.8 38.8 32.8 137 85.4 145.6 22.7 3 36.7-32.6 50.2-46 0 13.3-2.4 26.7-2.6 40-1 60 16.4 119.5 32.5 176.6 26 75.3 57.3 148.6 92.7 220 27.3 44.7 59.3 98.8 108.2 125 34.2 18.2 43.7-37.3 73.4-25.4 11.6 7.6 18 20.5 26.6 30.8 15.2 18 33 33.8 50.5 49.5 39.2 35.4 80 70.5 122.3 102.2 16 12 29.2 10 47.3 15.3 27.5 8 48 35 67.7 54.2l283 46.8" stroke-width="2.3"/>
    <path d="M475.3 6.6c3.7 70.8 5 141.7 9.5 212.5 38.6 102.3 81 200.6 132 297.3 6.2 39.8-3 78.3 4.4 118.6 17.2 94.5 50.5 186.5 83.2 276.6 1.6 13.8 2.3 27.6 3.6 41.4-5 25.7-9.4 51.6-15.6 77-3 12.4-6 26.7-14.8 36.5-11.2 12.5-27 19-37.4 33-17.3 34.3-22.8 70.8-30 108.2-6.2 33.2-19.5 38.2-45.7 17.5-31-15-57-18.6-90-4.4-38.2 16.5-73.7 48-98.8 80.7-21.4 27.8-36 60.4-37 95.7-.6 26.8 9.6 51.5 10.7 77.7 1.6 36.7-34.5 80.3-62.5 101.2-46 34.2-112.5 50.4-135 107.5-11.3 50.3-.4 100.4 5 150.8 5.2 49 5 96.8-4 145.4 9.2 24 18.4 48 27.8 72 29 34 58.7 67 88.8 100.2 18 19.8 34.7 41 51.6 62 29.5 36.4 46.4 70.3 62.5 114.6 5.3 17 45 148.5 85.8 112.4 8.7-6.7 35-57 43-49 1.6 1.7 0 13.8 0 15.5 0 16-.5 31.8.6 47.8 5.6 76.5 28.3 151 51.8 223.7 27.2 70.7 57.6 140.5 93.4 207.3 18.4 26.4 36.4 44 60 64.5 7.6 6.6 15.2 14.6 24.7 18.6 30.7 12.7 47.5-49 75.6-24 11.6 11.5 20.6 25.5 32.3 37.3 18.4 18.6 38.2 36 58 53.2 20.5 17.7 41.4 35 62.4 52 15.3 12.4 31.4 29 49 38.3 14.4 7.5 30 3.2 44.8 8.2 27.4 9.3 49.3 38 69.6 57.2l278.7 46" stroke-width="2.3"/>
    <path d="M489 7.4c4.3 75 7 150.2 12 225.2C537 331 580.2 425.3 627 519c6 41.2-3.8 80.8 4 122.4 16.4 87.6 47 172 78.4 255 1.3 14 2 28 2.4 42-5.3 26.8-10 53.8-15.5 80.6-3 14-5 32.6-13 45-8.7 13.8-24.8 21-35.3 33.3-17.4 31.7-25 67-31 102.2-3.4 19.4-8.5 68-39.2 43.3-28.6-8-47.6-22-79.5-17.7-43 6-81.8 33.3-112 63-51.8 50.7-62.5 107.3-43 175 34.5 119.7-130.3 137.6-183 208.6-20 51.4-7.6 103.5.6 156.2 7.7 49.8 12.3 99 5.6 149 9 25 17.6 50 26.2 74.8 27.2 32 56.4 62 83.7 93.8 22.6 26.2 45 53.4 65.6 81.2 27.6 37 38.6 83.4 54.2 126 11.3 33 44.2 124.2 85.3 67.6 7.8-11.8 34.2-74 38-30.6 3.5 37.8 3.5 75 10 112.6 13.5 80.6 38 158.6 65.6 235.4 25.4 60.3 51.8 121.3 85.3 177.6 17 16 43.6 50.3 68.2 55.8 36 8.2 39-54.5 78-19.2 28.7 38 68.3 68.5 104.5 98.7 19.4 16 39 32 58.6 47.6 11.6 9.3 24.5 23 39.2 27.3 14.8 4.3 29.4-1.4 44.3 5 27.2 11.6 50 40 71.3 59.5l274.5 45.3" stroke-width="2.3"/>
    <path d="M502.8 8.2c5 79.4 8.8 158.7 14.3 238 34.6 94 77.6 185 120.4 275.4 5.2 41.2-5 80.4 2.6 122 15 82.2 44.4 160 74.4 237.7 1 14.2 1.3 28.2 1.4 42.4-8.8 42.5-12 88.5-26 129.8-6.6 20.3-20 27.5-34 42.2-19.4 30-26.5 67.5-32.8 102-2.5 13.4-4.7 74-32.5 60.7-13 1.3-25-8.5-36.6-13-14-5.3-29-8-44-8.2-38-.4-74.4 15.7-105 37.3-62 43.4-96.6 105.6-71.2 180 8.4 24.3 21.8 47 13.5 73.2-4.3 13.6-11.8 27.6-21.3 38.3-38.7 44-103.8 64-150.8 97.4-30 45.6-20.7 96.3-11.5 147 9.8 54.2 20 107.8 16 163.2 9.2 25.6 17.2 51.6 25 77.7 24.7 29.2 52.2 55.4 76.5 84.7 24 29 50.5 58.7 69.7 91.2 27 45.8 37.6 99.2 58 148 7 17.2 20 55.6 43.4 58.8 21.4 3 33-26.4 40.4-41.2 3.3-7 14-40.2 26-36.8 11.4 3.3 9 37.4 9.3 45.2 6.7 134.7 49 267 97.4 391.8 20.3 45 40.3 91.8 68.3 132.8 14 12.7 39.7 47 62 46.3 16.4-.4 24-20 36-28.3 19.7-13.3 30.5 1.8 43.3 16.8 37.3 39 79.7 73.3 121.6 107 21.8 17.7 52 53.3 82.2 54.6 15.2.7 26-3.4 41 4 27.3 13.6 51.2 41.7 74 61.8l270.3 44.4" stroke-width="2.4"/>
    <path d="M516.6 9.2c5.6 83 10.6 166 16.5 249 34 90 75.5 178 114.6 266 4.3 39.3-6 76.5.4 116 13 79.3 42.2 152.6 71.5 226.6.7 14 .6 28.2.3 42.4-10 46.4-14.6 94.6-26.7 140.5-5.5 21.3-14.5 30-29.7 44.7-18.5 28-26 62.3-32.6 94.8-3.6 17.7-3.5 78.2-28 81.5-15 12-48.6-12.5-64-16.3-37.5-9-76.5-2.3-111.2 13.3-63 28.2-126.3 88.6-109.2 163.7 9.4 41.6 48.3 81.4 26.3 125-9 18-25.7 30-42.2 41-32 20.7-66.2 37.8-99 57.3-19 23-36 46.8-39 77.6-2.4 24.2 2 49.2 6.2 73 9.7 55 23 108.6 22 164.7 9.6 26.7 17 53.6 24.3 81 23.7 28.5 50.3 52.5 73.6 81.7 30 38 58.8 74.6 77.8 119.4 19.8 46.6 29.5 96.7 54 141.3 9 16 22.3 42.2 44.5 30.5 19.2-10 28.4-42.7 36.5-61 4.6-10.3 12.5-31 24.2-17 5.7 6.8 6 20.8 6.7 29 2 18.3 3 36.6 5 54.8 16.4 141.6 60 279.5 114 411 15.4 31.8 31.5 63 51 92.7 12.8 12.2 38 46.5 60 36.8 14.2-6.2 19.8-28 35.3-32 21.2-5.5 35 19.6 47 33 42.5 39.6 87.8 76.2 133.6 112 19 14.8 37.5 36 63 34.4 17-1 27.3-4.2 43 5 28 16 52.6 42.7 77 63.3 88.7 14.6 177.4 29 266 43.7" stroke-width="2.4"/>
    <path d="M530.4 10c6 85.6 12 171 18.2 256.7 14.8 38 33.3 74 49.3 111.3 21 49 39 99.2 59.8 148.2 3.6 40-7 77.2-.6 117.5 11.7 74 40 140.6 67.5 209.5.3 14 0 28-.7 42-11 46-17.2 92.3-25.8 138.6-4.5 24.8-9.3 42-27.5 59.5-17 26.4-25.2 57-31.8 87.4-4 18-7.3 36.2-10.6 54.3-2.7 14.6-3.4 32.5-14.7 43.6-10 24.5-43.7-.7-58.4-5.7-36.4-12.6-75.2-12.5-112.2-1.8-64.2 18.6-146.3 73.2-136.3 150 4 30 20.8 55 34 81.3 8.7 16.8 19.2 35 14 54.2-12.3 43.6-80 68-114.4 87.4-21 24.3-42.8 49-52 80-7 23.7-9 49-7 73.6 4.4 57 22.6 111.4 24 169 10.2 27.6 17 55.4 23.6 84 8 10 15.2 15 23.7 21.8 21.5 17.4 38 45.4 54.8 67 33 42.8 56.6 88.6 75 139.3 14.8 40.8 22.5 94 54 126.2 40.5 44 63.8-42.7 77.4-69.8 10-22.2 21.7 2.4 24.6 14 9.7 39.5 10 82 16.6 122 22.7 139 65.8 274.5 121 403.7 12 22 24.3 44.2 38 65.5 19 19.3 38.8 44.2 63 18.2 8.8-9.3 18-24.5 32.8-23.5 8 2 14.3 6.7 19 13.6 9.7 12.7 20.5 24.3 32.6 35 45 38.7 91.4 76 139 111.8 20 15 28.4 19.5 52 15.7 20.2-3.2 32.2 2.2 48.7 14.4 24.5 18.3 47.8 38.7 71.6 58l261.6 42.8" stroke-width="2.4"/>
    <path d="M544.2 11c6.4 86 13 172.4 19 258.6 15.8 36 33 70.7 47.3 107.2C630 427 647.5 478 667.8 528c3 43.2-7.6 83 0 126.7C679 721.2 705.4 779 730 841c0 13.7-.8 27.4-1.7 41-12.5 47.8-19.4 96.4-27.3 145-3.7 23-5.8 48.2-23.3 65.2-34.5 58.6-32.2 126.6-54 189-11.7 32.6-27.7 20.2-54 10-37-14.4-75.6-19.2-114.7-12-61.5 11-151.8 54-158.5 125.5-3 32 13.3 60.2 29.6 86.3 11 17.3 27.8 36 34 56 13.3 43-51 69.4-79.5 86-36.6 46-69 89.6-77.3 149.7-8.3 60.6 12.4 120.2 15.4 180.5 10.3 28 17.3 56.5 21.6 86 1.5 2.2 3.3 3.8 5.4 5 .4-1 .8-2.3 1-3.6 10.2 5 18.6 19.5 25.5 28.2 27 33.7 53.5 67.4 73.3 105.8 23 44.6 40.4 92.2 56.4 139.8 8 23.8 20 76.4 50.2 82.3 38.2 20 54.2-77 72.7-92.2 20-5.4 24 48 25.6 59 7.5 49.7 14.2 99.4 24.2 148.7 26 127.8 69.6 248.4 116.7 369.6 10 18.7 20.2 37.2 31.3 55.3 22 22.3 36.2 32.7 59.5 6.6 8-9 16.5-21.3 30-19.7 7 2.2 12.8 6.5 17 12.6 16.5 18 32.4 35 50.4 51.7 41.5 33.8 83.4 67.2 126.7 98.8 20.7 15 28 13.4 50.8 9.2 21.8-4 35.2 5.6 52 18.5 24.8 18.7 49 38 73.6 57l257.5 42" stroke-width="2.5"/>
    <path d="M558 11.5c6.4 83.3 12.7 166.6 17.6 250C617 348.2 644.2 440.4 678 530c2 41.5-8.3 80.2-2 122.2 5 35.2 14.3 70 26.7 103.3 9.6 25.7 23.2 49.5 33 75-.7 13.3-1.7 26.5-3 39.8-13.4 45-20.6 91-27.3 137.4-3.6 25-3 63.2-21 83-29 59-37.7 122.4-51.8 186-1.6 10-2.8 32.4-14.4 38.4-10.3 5.4-21.2-1-30.8-4.7-35.3-13.5-70-23.7-108.2-22.4-64 2.3-161 36-187 101.4-22.5 56 28.5 107.3 60 147.7 10.2 13.5 23 27.6 15 45-8.4 18-32 30-47.5 40-29.6 50.7-68.6 94.8-88 151-21.4 62.4-7 124 .5 187.2 8.4 26.8 11.7 50.7 12.7 78.5-1-2.6-1.7-7.3-2-9.8 16 13 28.4 33 41 49.4 29 38 52.7 77.3 72.2 121 20.3 45.6 37.2 92.5 54.7 139 7.2 19.6 25.5 76.2 57 58.2 19.6-4.6 29-28.6 36.3-45 3.3-7.5 18-59.4 32-45.6 21.8 24 22.4 70 27.2 100.3 9.6 60 20.5 119.5 34.8 178.5 26.5 109 64.7 213.7 104 318.6 9 16.8 18 33.4 28 49.6 6.2 7 17 17.6 27.4 18 17.6.4 24.5-21.3 36.3-30.7 10-8 17.3-11 28.5-3 6.4 6.4 12.2 13.2 17.4 20.5 17.7 20.6 39.2 38.4 59.4 56.6 21.2 16.5 42.4 33 64 49.2 17.7 13.3 36.5 31 56.6 41 18 8.8 28.8-2.6 46.3-4.3 20-2 35.2 12.4 50 23.4l75.6 55.8 253.2 41.3" stroke-width="2.5"/>
    <path d="M571.8 12.5c6.4 77.4 9.5 154.8 14 232.2 18.5 37.3 31.3 77.5 44.4 117 19 57 38.2 113.6 57.8 170.3 1.5 45.2-9 86.6-1.5 132.2 9.3 57.4 34 104.7 55 157.7-1 12.7-2.5 25.4-4 38-16 44.7-23 91.8-29.4 138.6-3.8 28-3 65.2-17.7 90.3-8 21.6-17.5 42.2-23.7 64.5-10.6 37.4-17 76-25.2 113.8-3.8 27.5-3.5 69.5-41 58.6-29.2-8.5-56-20.7-86.6-24.7-72.7-9.4-170.5 17-218.6 76-44.6 54.6 8 113 45.7 153.6 10.5 11 35 29 37.6 45.4 2.6 16.2-13.6 27.2-24.3 36-15 53.8-58.2 97.3-87.2 143.4-37.5 59.6-38 122.3-29.4 190.3 5.8 25.6 6 47.6 6 73.4-2.2-4.3-4.5-8.6-5.8-13.3 19.5 15 34.6 41.4 49.2 61 32 43 54.5 91.3 75.3 140.4 20.4 48.4 38 98.2 59.6 146 12.4 27.3 35 54.2 62.3 24.5 18.8-14.7 26-40 35-61 11-25 17.8-29.3 31-1.2 18 42 21.4 91.2 29.5 135.8 11.5 63.5 25.3 126.6 42.3 189 25.5 92.5 57.8 183.5 90.4 273.8 8 14.8 15.7 29.8 25 43.8 30.5 30.2 38.6-8.4 61.8-23 15.2-9.5 23.6-1.2 33.8 11.2 26 31.5 57.2 58 87.8 84.8 22 16.5 44 33 66.3 49 12.2 8.7 29 25.3 45 26.4 15 1 26.8-11 41.6-10.7 21 .2 40.6 20 57 31.4l70.8 50 249 40.5" stroke-width="2.5"/>
    <path d="M585.6 13.3c5.6 69.8 4.4 139.6 9 209.3 20 44 33 91.5 47.4 137.4 18.2 58.3 38 116 56 174.3.8 43-9.3 83.4-3.3 127 8 57 33 102 53 154.5l-5.3 35.6c-34 73.8-22.6 157.4-46.6 233-3.8 21.7-14.3 42.4-20.4 63.5-10.2 35.6-16.8 72.3-24.6 108.5-3.4 24.5-2.6 84-38.5 82-28.2-1.4-57.2-18.7-85.2-24-76.4-14-156.8 8.3-219 54.4-21.5 16-41 36.7-38.7 65.6 2.2 29.4 25 54.8 44 75.5 19.2 21.4 41.8 39 62 59.3 10.8 11 19 21.8 6 35.4 6.5 53-42.3 99.8-75 134-50.7 52.7-72.2 107.7-68.8 181.2 1.4 25-.5 49.5.5 74.3-2.3-3.8-4.4-7.6-5.7-11.8 23.2 18.5 42.8 51.3 59 75.8 32 49.3 54.4 104.8 77 159 20 47.3 36 103.2 65.5 145.7 21.5 31 47.4 17.8 66.5-8.8 14-16.6 18.4-37.7 29.6-55.7 19.2-31 31.2 30 35 43C580 2397 588 2454 600 2510c12.8 61 28 121.3 45.8 181 23.4 78 48.3 157 76 233.7 7 13 13.8 26.2 22.8 38 34.2 26.8 38-32 66.4-34.2 15.7-1.2 26.3 21 35 30.5 29.5 32.5 64 60.8 97 89.3 21.2 15.3 42.2 30.8 64 45 9.2 6.2 17.6 12.7 29.3 11.8 16.6-1.3 27.7-15 45.4-12 19.3 3 38 21.2 54 31.7 25 17 50.3 33.8 75.5 50.7l244.7 39.7" stroke-width="2.5"/>
    <path d="M599.3 13.8c4.5 61.8-1 123.4 3.8 185.2 20.6 53 35.3 108.3 51.5 162.7 17.3 58.4 37.2 116.3 53.7 175 0 43.8-10 84.8-4 129 3.5 26.6 9.6 53 19.5 78 9.2 23.6 22.3 45 30.7 69-2.6 10.6-4.7 21.3-7 32-39.5 68-32 157.5-47 232.3-2.8 24.6-11 47-17.5 70.7-9 32-15.4 64.7-22.4 97-3.3 24-4.5 92.3-34.5 102-21.6 7-54.7-11.4-75.3-16.7-75-19.2-152-7.8-219 30.6-24 13.8-57.4 32.6-66.8 60.8-9 27.3 8.7 52.3 25 72.5 20.7 25.7 45.7 47.7 71.6 68.2 10.2 8 36.7 21.6 37 37.2 26.6 45-13.7 94-47.2 120.3-59.6 46.6-108.6 87-116.7 167-5.3 27-7.5 51.8-4.7 79.2-1.5-2.6-2.8-5-3.5-7.8 26 21.6 47.7 58.8 64.4 87.5 33.7 58 57.6 121.5 84 183 12 27.4 24 55 37.4 81.7 9 18 19.3 45 37 56.7 27.7 18.3 53.2-17.4 66.6-37.3 5.7-8 17.3-43.4 28.5-44.6 20-2.2 34.2 85.8 36.2 94.6 26.5 118 49.3 235.8 86 351.2 21.5 67.5 40 136.6 63.7 203.3 6.2 11.2 12 23.3 21.6 32 29.8 19 36.3-43.2 64.4-39.3 14 2 26.2 26 34.7 35.2 35 37 74.8 69.8 113.5 102.8 21.5 14.8 51.5 46.6 80.3 36.7 14.8-5.2 24-14.8 41-11 19.6 4.4 39.7 22.6 56.5 33.2l78.2 49.6 240.5 39" stroke-width="2.6"/>
    <path d="M613 14c3.3 54.8-6 108.3-1 163 20.7 62.3 37.6 125.8 55.6 189 16.5 57.6 36.2 115 50.8 173.2-.7 47-11 90.5-4 138 7.5 49.8 32 89.8 47 136.8-3.3 7.7-5 12.3-8.5 26-23.6 29.3-28.6 75.3-34.3 111-6.2 38.6-9 77.6-14.3 116.4-3.2 56-21.7 110.8-33.6 165.5-4.8 34.3-6.5 82.7-30.4 110.4-16 18.6-38.8 9.5-59 3.8-75.2-21-147.7-25-220.8 7-32.2 14-74.4 35.6-94.7 66-15 22.4-4.6 44.5 9 64.7 33.6 49 83.7 75.6 128 112.8 39.7 38.2 23.7 87-19.6 114.8C322 1752 256 1776 231.7 1851c-16.2 29-15.3 54-10 86-1.4-1.2-1.7-2.2-.8-3 83 83.5 116.4 210.3 165.5 314 12.3 26 25 52 40.4 76.3 8.5 13.5 20.4 33.2 38 36 29 4.8 51.5-32.8 66.4-51.7 7.8-11 14-29.4 27.2-16.2 9 9 13 29 16.6 40.4 9.6 30.4 16 61.5 22.2 92.7 24.4 111.2 51.8 220.6 85.5 329.3 19.3 62.3 34 126 55.5 187.7 6.3 10 11.7 20 22.3 26 28.2 7.4 34.5-64 67-38 15.8 12.6 28.4 34 43.2 48.5 36.2 35.4 75 68.2 113.6 101 21 13.4 38 30 63 19.4 17-7.4 27-17 46.6-9 21.8 9 42.5 25 62.7 37 24.2 14.7 48.6 29.3 73 43.8l236.3 38.2" stroke-width="2.6"/>
    <path d="M626.5 14c1 21.8 1.3 42.6-3 64-5.6 28.2-4.3 53.8-1.3 82.5C643.7 232.8 663 306 683 378.7c15 54.2 33.5 108.2 45.5 163-1.2 44.6-11.4 86.4-6 131 6.6 52.7 32 95.7 46.7 145.6-4.3 5.5-6.3 9-10.6 20-24.8 16.4-30 64.6-35 91-7.8 41.8-11.6 84-15.8 126.4-1.5 57.6-14.3 109.4-26.7 165.5-6.4 46-12 149.8-81 137.3-31.3-5.7-61.2-16.5-93.2-19.7-38.3-4-77 0-114 11.3-36.6 11.5-72 30-101.6 54.4-21 17.4-41 35.4-30.2 64.4 21.6 57 85 98.4 134.8 128.5 15.6 13.4 36.8 28 42.2 49.2 5.5 21.3-2.8 43.8-19.8 57-27 20.8-64 29.4-95 42.8-38 16.5-69.7 36.5-92.6 71.4-27.6 28.3-23.4 56-15.7 92.3 34 27.4 57.2 79.2 75.4 117.7 34.3 73 62.7 148.4 100 220 14.7 28.2 44.3 100 85 100 31 .2 48-37 71-52.2 12.7-11.6 17.5-4 24 9.8 24.2 52.4 33.7 113.4 44.7 169.5 23 98.8 51.6 195.3 79.6 292.8 17.3 60.6 30.3 122.8 52 182 6.2 8.3 12 19 24 17.8 25-16.7 35-66.7 65.8-30 48.7 57.8 107.5 106 165 155 24.2 13.6 31.3 13.8 54.4 1.6 20.7-11 32.5-10 53.2 1.7l130.5 73.5c77.4 12.4 154.7 25 232 37.3" stroke-width="2.6"/>
    <path d="M640 14c.8 19.7 0 36-5 54.7-7.2 28.3-3.8 54.6-.5 83.8 20.8 76 40.6 152.4 61 228.6 14.5 54.2 32.7 108.4 43 163.4-1.7 44.3-12 86-6.8 130.7 6 53.3 31.5 99 45.6 150-5 3.4-7.6 5.6-12.6 14-26.8 5.3-34 60.6-38 81.2-8.3 40.2-12.2 81.2-15.8 122-.5 31 1.7 62.4-3.6 93-4.4 25.2-10.4 50-16 75-6.5 47-11.8 142.3-73.2 153.7-26.6 4.8-60-10.8-86-15.3-32.2-5.4-65-6.4-97-1.2-40.4 6.4-79.3 21.7-113.5 44-19.7 13-51.2 34-59.3 58-10.2 29.8 19.3 62.5 38 82.4 23.5 25 51 45.4 80 63.7 26.7 23 95.8 68.2 53.7 109.3-21.3 20.8-60.2 26.3-87.7 33.7-41.4 11-80.2 23.7-113 52-36 28.6-31.8 55.2-22 97.2 36.7 42.4 60.3 92 82.4 143 32.5 75 63.3 151.7 105.8 222 16.8 27.6 52.2 90.7 93.8 78.7 24-7 44-29.6 66.2-40.6 11.7-10 24 37 26 43.7 21.2 61.4 34.8 124.6 47.8 188 22 88.2 50 174.5 73.3 262.3 15 57 25.7 116 48 170.7 11.3 10.6 13.3 13.6 25.7 3.4 8.6-10.5 18.2-33.3 32.2-38 16.7-5.8 25.8 15.8 34.4 26 48.4 58 110.8 105.8 168 154.8 22.6 7 28.3-2.7 47.4-12 21.8-10.8 36.4-1.8 56.5 8.8l130 68.5 227.8 36.7" stroke-width="2.7"/>
    <path d="M653.8 14.6c.6 18.6-1.2 32.2-6 49.6-8.2 30.5-1.6 63 2.3 93.6l60 232.7C723 442.2 740 494.2 748.6 547c-2.5 43.8-13 85-8 129.4 6 54.8 31.5 104.3 45 157.4-6 1.4-9 2.4-14.6 8.2-25.2-4-34.3 41.6-38.5 58-10.6 41.7-15 84.7-18.7 127.3-.4 34.5 3.6 70 .5 104.4-2 23-7.7 46-12.5 68.4-7.5 54-13.2 136.3-71.7 160.4-24.2 10-47.4 3-72-2-32.6-6.6-65.3-10.7-98.5-8-65.5 5.5-147.5 38-183.6 96.5-34.2 55.2 46.4 116.5 84.4 144.7 25.5 23.8 57 46 78 74.3 10.7 14.4 18.4 33.4 4.6 48.7-17 18.8-56.4 20.8-79.2 25-42 8.2-84.2 15.7-122.8 35-41.8 25.8-38 54-27.7 98.6 41.6 54.2 64 118 90.7 180 31.5 73.2 65 151 116 213 21.7 26.6 53.8 62.2 91.3 47 11.6-4.6 21.4-12.8 33-17.3 10-3.8 16.2-2 21.8-12.8 5.5 4.5 8 12 10.8 18.4 9.2 21.4 16.5 43.7 23.8 66 21 64.4 36 130.2 50.5 196.5 22.5 81.7 48.3 162 68.3 244.3 12.2 50 20 106 44.2 152.2 11 12.6 21.3-6.3 26.3-13.6 6.2-9.5 16.7-30.6 30.5-30 14.7.4 28.3 28.3 36.8 37.7 25.7 28.2 54.3 53.8 82.6 79.2 27.5 24.5 54.7 52.2 85 73.4 20-1.8 28.7-16.2 46.7-22 19.2-6 35.2 5 52 13.3l135.3 66.3c74.5 12 149 24 223.5 35.8" stroke-width="2.7"/>
    <path d="M667.6 15.7c.7 19.6-2.6 35.6-5.6 54.5-5.4 34 1.8 70 6.3 103.5L725.6 405c11.7 47.6 26.7 95.6 33 144.2-3.2 46.6-13.2 89.5-7.4 136.7 6.7 54 31 105 43.4 158-7-.4-10.3-.5-17 2.7-49.4-21.3-58.8 142.2-61 164.7-1 61 7 119.5-4.8 179.8-7.2 55-14.8 136.2-70.6 164.8-47 24-101.6-1.7-151-2.2-67.6-.8-138 25.2-185 75.2-17.5 19-32 43.7-26.4 70.5 7.3 34 37.3 62.4 61.6 85 31.7 33 69 63.4 97 100 9.7 12.8 22.6 33.6 8 47.8-16.2 15.4-54.6 12.7-74.7 14.5-40 3.5-78.7 9-116.4 23.6-43.8 23.2-42.2 53.2-32.4 98 35.8 56.6 55 123 82.4 183.8 33.7 75 72.5 154.8 132.7 212.4 25 24 52.4 43.3 87.6 33.4 5.7-1.6 11.2-4 17-5 2.8-.6 14.6.3 16.2-.6 7.3-4 6.6-11.6 11-17.6 48.3 99.5 74 211.5 98.2 318.7 23.2 77 45 154 63 232.4 6.5 28 12.5 56.4 20.8 84 4.8 16.3 10 40.5 22.7 52.8 12.7-3.5 19.3-19.4 25.8-29.5 8.5-13 18.7-25 33.3-13.7 5.7 4.4 9.7 13 14 18.7 10 12.6 21.3 24.2 32.5 35.5 27.8 28 57 54.3 86.6 80.4 19 17 42.4 46.8 67 55.2 16.6-5 27.2-21.5 44-25.2 21-4.6 44 11.8 62 20l129.5 58.8 219.4 35" stroke-width="2.7"/>
    <path d="M681.3 15.8c.8 22-1.8 42.7-3 64.5-2 38.6 4.5 77.5 9.8 115.6 17.3 72.4 34.6 144.8 51.6 217.3 10.6 45.4 24.4 91.4 29 138-1.6 19.4-6.6 38.3-8.5 57.7-2.4 25-.7 50.5 1.7 75.4 5.7 58.2 29.7 114 42 170.8-8-2-11.7-3-19-2.2-52.7-32.6-62.5 118.6-65 141.7-2 62.3 12.5 127.3 1.6 189-6 54.2-15.5 129.7-64 163.8-42.4 29.6-92.5 14-139.5 10.3-65-5.3-131 12.5-180.5 56.2-22 19.3-41 43.8-44.8 73.6-4.4 34 13 61 33 86.8 34 41 73 78.6 105.5 121 9.3 12 31.5 39.5 17.3 55-13.6 14.8-54 7-71 6.6-39.2-1.2-77-.4-114.6 11.2-46.5 20.6-44.2 52.7-34 97.8 61 133.2 100.4 283.5 216 383.2 28 24 53.6 36.8 90 36.5 4.6 0 23.6 4.6 26.3 3 7-4 4.5-16 6-22.7 1.7-.3 2.8.6 3.4 3 45 112 83.6 224 110.8 341.7 23.8 76.5 41.5 154.4 59.2 232.5 2.8 12 23.5 120.5 43 113.4 9.2-11.5 16-24.5 25.2-36 12.7-16.6 23.2-6.8 33 5.7 17.7 23 37 43.7 58 64 28 27.2 57.4 53.5 86.7 79.6 14.4 12.7 33 37.3 53.8 39 13.8-9.3 27.2-24.2 44.7-25 20.3-1.2 45.6 15.4 64 23l129 54 215 34" stroke-width="2.8"/>
    <path d="M695 16.5c1.5 26 .2 52 .8 78 1 42.4 7 84.6 12.8 126.6C723.2 285.7 738 350.3 752 415c9.3 41.6 29 92.3 23 135C755 660 792 760.3 812.7 867.2c-8.7-3-13-5-21-6.6C736 819 726.4 950 723 977.6c-2 42-1.2 83.6 3 125.3 2.7 24.7 7.6 49.4 4 74.3-3 51.3-15.4 118-53 155.8-37 37.7-88 32.6-136.2 28-62.6-6.3-124 2.5-174.6 42.7-50.7 40.2-70.4 97.6-45.5 158.2 33.3 48.3 72 92.2 106 140 9 12.8 38 49.2 24.4 66.7-12.2 15.6-53.8 3.4-69.2 1.2-39-5.7-76.8-10.2-115.8-3-50.4 16-45.7 50.8-35 96 46 135.2 107 277.8 221.6 369.7 16 12.7 33.2 24.5 52.3 32 12.8 5.2 26.5 6.5 39.6 11 8 2.6 14.7 10.6 20.8 4.4 4-4-.8-20.6-.4-26 3.6 4 6 8.6 8.4 13.5 47.8 119 95.7 234.7 122 360.5 21.7 76.5 37.3 154.3 55.4 231.7 5.6 24 11 48.7 21.3 71.3 3 6.5 13 29 21 13.6 7-11.5 13.5-26 25-34 14-9.7 23.3 10.7 30 19.4 19.6 26.2 44 49.2 67.6 71.8 28 27 57.2 52.8 86 79 13 11.8 26 28 45.3 26.4 13.4-11 25.7-22.8 44.3-21.7 20 1.2 43.6 15.4 62.2 22.5 44.5 17 89 34 133.6 50.8l211 33.4" stroke-width="2.8"/>
    <path d="M709 17.8c5.6 76.5 9.8 152 20 228 12.7 59.5 25.3 119 37.3 178.4 8.3 41 17.7 78 8.8 119.5-8 53.6 4.8 108.2 11.7 161.3 7.7 58.6 25.3 115.7 35.3 174-9.4-3.8-14-6.7-23-10.2-56.2-46.6-66.8 56-72.5 92-3 45-2.7 89.7 2.2 134.5 2.8 25.7 9 51.6 9.2 77.5 1.4 49.6-16.3 114-49 151.8-33.2 38.7-81.7 42-129.2 37.6-53.4-5-105-5-152.6 24-57.6 35-87 95.8-76.8 162 28.8 54 65.3 102.5 97.3 154.4 9.8 16 41.4 60 28.2 80.7-12.2 19-53.3 4-69.4.4-40-9-78.7-18.8-120-16.8-54.8 9.6-47.6 47-35.8 92.6 38 135.2 118.7 271.3 231.7 357.2 16 12 33 23 51 31.5 13 6.2 27 10.4 38.8 18.8 7.6 5.5 11.4 14 14.2 2.4 2-8.6-4.4-20.6-5-29.5 8 6.6 13.5 22.3 18.5 31.4 29.6 70.6 61.5 140.5 89 212 20 52 29.8 108 40 162.8 19 73.7 32.6 148.7 51 222.5 2.2 8.7 25.8 101.3 42.4 61 5.2-8.5 12.3-25.5 24.7-25.2 14.6 1.2 26.2 27.4 34.4 37 23.7 28 50.5 53.2 77 78.2 25.6 24 50.8 48.7 77.4 71.3 12 10.3 21.5 15.5 37.7 13.8 15.2-12.3 27.4-20.3 47.4-15.3 21 5.4 42 14.4 62.4 21.5l133.2 45.8 206.6 32.6" stroke-width="2.8"/>
    <path d="M723 19.4c7.5 82.7 15 165 25.5 247.5 10.3 52.5 23 105.4 29.7 158.6 2.3 19 4 39 2.8 58.2-1 17.4-7.7 33.3-10 50.7-2 60.5 21 119.5 28.8 179 7.8 59.5 22.5 118 31.4 177.2-8.6-3.7-16.7-8.3-25-12.8-12-10-28-25.6-44.6-16.3-22.8 13-26.8 61-31 82.8-6.8 76.6 2 148 12.3 223.7 7.6 45.2-10.8 100.2-35 138-29 44.7-76 60.2-127.3 57.7-51.8-2.6-98.2-11.8-146.4 14.7-56 30.7-84.3 90.8-86.3 152.7 22 55 52.8 104.3 82.3 155.5 13.8 23.8 47.6 73 34.5 103.3-12 27.7-58 9.8-78.3 4-39.5-11-78-23.6-119.2-26.7-16.5.5-37 1.2-46 17.7-11 20 2.3 51.4 7.7 70.6 30.6 111.2 101.6 212 183 292.2 29.7 29.3 62 56 97.6 77.4 21 12.7 38.3 24.2 56.2 40.7 5-12.7-7.7-30-8-43.2 13 17.6 22.6 38.5 33.7 57.2 31.4 70.6 67 140 93.3 212.8 19.8 55 27.8 114.7 37.2 172 17.7 74.4 29 151.3 51.3 224.4 6.5 21.2 20 56.7 38.3 25.2 6-7.4 13.8-21.6 24.8-11 16.8 15 29 38 44.5 54.6 27.4 29.6 57 57.3 86.6 84.8 18.2 17 36.3 39 57 52.8 11.7 8 22 6.8 35.6 7 34.3-24.6 76.8 0 113.2 11.2 44.2 13.6 88.5 27 132.8 40.7l202.3 31.8" stroke-width="2.9"/>
    <path d="M737 21c9 86.7 18.7 173.3 29.3 260 7.7 44 19 89.2 16.2 134.2-2.2 36.8-17 71.8-18 108.2 8.6 68.2 38.7 131.2 48.5 199 8.6 60 19.5 119.4 27.4 179.3-9.5-3.7-18.2-9-26.6-14.4-11.2-9.5-28.6-28.3-45.2-24.4-23.5 5.4-29 48.3-33.5 66.2-9 78.4-4 154.8 10.7 232 18.2 93.3-40.2 199.5-142 204-45.8 2-90.8-15.3-135 2.6-58.7 23.6-87.3 85.3-97.2 144.2 16.6 61 45 115.8 73.5 172 13.8 27.3 41.5 70.4 33.6 103-8 33.6-47.4 25-72.3 19-46-11.4-89.5-29.4-136.3-37.4-16.2-1.4-39.8-4.4-50.7 11.4-13 19 2.3 53.6 7.6 72.2 34.4 110 115 207.3 198.2 284.7 45.2 42 101 71.4 142 117 1-16.5-13-33.3-14.4-49.8 21.2 27 37 59.7 56.3 88.3 32.7 69.5 70 139.7 92.5 213.4 17.5 57.5 24.6 119 33.2 178.4 9 40.5 17.2 81.2 26 121.8 6.3 28.5 11.5 58.8 23 85.8 3.7 8.8 9.6 26 22.2 23 6.4-1.8 9.3-10.3 14.7-13.5 10-14 18.7-1 25 7 35 58 94.2 104.6 143 150.5 13 12.3 27.6 32.4 44.7 39.3 11 4.4 22.5.7 33.8 3.2 17.6-12.6 35-6.2 54-1 20.7 5.4 41.4 11 62 16.6 44.2 12 88.3 23.8 132.5 35.6l198 31" stroke-width="2.9"/>
    <path d="M750.8 22.4c10 87.8 19.7 175.6 31.4 263 6.6 42 10.6 82.2-3.7 123C766 443.8 752 473 757 511.6c18.5 74.4 58.5 143.5 69.2 219.8 8.3 59.8 16.4 120 23 180-10.3-3.2-19-9-28-14.8-12-10-31-32-48.8-30-21 2.3-27 33.3-32 49-11.7 78.7-9.3 158.4 6.5 236.5 4.5 21.7 12 45.4 9.8 67.8-2 20.3-12.2 41.4-21.2 59.4-22 44.4-58.4 77.3-108 85.7-24.8 4.2-50 2.6-74.8 0-21.4-2-45.5-7.8-66.6-1-51.6 16.3-75.3 80.4-87.4 127 9.6 58.8 30.5 113.3 54 167.8 15 35.2 40.7 78.4 40 118-.7 37-35.5 37.7-64.8 33-51.4-8.2-100-29-150.7-40.4-17.3-2.8-46.6-9.4-59 8.5-12.4 18.2 2.6 52.6 7.7 70.6 41.3 106 126.4 198.4 209.6 274 28.6 26 59.6 48.8 89.5 73.2 15.4 12.4 27 30.5 42.4 41.8-3-18.3-15.5-35.7-20.3-54 6.7 7 11.7 16.4 17 24.6 22 34.8 45.5 68.7 68.4 103 30.4 65.4 65.6 132.5 83.7 202.7 16 62 23 126.7 31.2 190 8 37.7 15.4 75.6 24.2 113 5 21 9.7 61.2 27.4 77 12.2 10.6 27-8.6 31-1.8 13.3-4.8 22 18 26.8 25.8 42.7 55 95.4 101.6 145.3 150 11 10.6 22 26 38 29.5 11.8 2.7 23-1.3 34.8 4.3 17.8-9 38.5-.2 56.5 4l62 14.3 132 30.6c64.5 10 129 20 193.7 30.2" stroke-width="2.9"/>
    <path d="M764.6 23.3c10.6 87.7 22.7 175.4 32 263.2 3 41-3.5 72-27.3 105.2-26.3 36.8-31.3 64-19.3 109 27.3 78.7 78.2 155.6 89 239.2 8 59.5 13.5 120 19 179.8-11.3-2-19.8-7.7-29.2-13.8-12.7-10.2-29-29.3-45.3-33.5-22.3-5.7-30 14.4-37.4 31.6-14.2 78.2-13.4 159.4 1 237.4 5 25 14 51.4 14.8 77 .7 20.6-7.2 37.7-16.2 55.8-20 40.2-50.5 74.7-94.3 89-46.2 15-92 3.5-139 3-54.2-.7-72 60.6-85 104 5 61.7 22.8 120 43.2 178.3 13.7 39 36.8 84.6 36 127-.5 39.5-36.4 40-67.5 34.6-50-8.6-98-28-147.3-40.4-18.5-3.7-49.2-12-65.7 2.4-19 16.6-3.6 54 1.4 73.3 50.6 101.3 136.5 189.3 220 264.4 27.5 24.7 57.3 47 84 72.6 8.4 8.2 23.3 33.5 34 35.5-3.8-19.5-21.5-37-23.5-56.5 10.8 12.2 19 27.5 28.2 41 30 44.3 59.5 89 89 133.5 26.6 59 56 119.4 70.4 183 15 67 22 136.5 30 205 8 37 14.6 75 26.2 111.4 3.7 11.5 10 38.3 23 44.5 14 6.7 28-16.8 29.8 8.3 13.6 6.6 24 30.8 32.7 42.3 45.4 53 96 105.8 148.7 151.8 20 17.7 42.4 7.2 63 22 37.8-4.3 82.8 12 120 19l131.7 25.5 189.6 29.4" stroke-width="3"/>
    <path d="M778.2 23.5L796 166.8c5 41.8 18.2 90 12.6 132-4.2 31.6-23 50.2-46.5 69.6-11.5 9.5-24.6 19-30.8 33.3-12.2 28 3.4 63 13.3 89.2 19.3 45.4 41.7 89.3 63 134 17.5 37 38 77 43.7 118 8.3 60.2 10.7 122.5 15 183-42.6.8-77.7-83.6-113.6-30.7-19.4 89.6-17.3 183 1.5 272.5 5 23 13.7 48 11.6 71.7-2 22.6-16.5 44.3-29 62.6-37 54.5-92.2 77-157 75.3-25.8-.7-66.3-12.3-90.4.5-23 12-29 50.8-35.5 73.2 4 82.5 28.5 160.3 50.6 239.3 9 32.3 39.3 110.4-11 123-23.4 6-52-2.8-74.4-8.8-33-8.6-65.2-20-98.2-28.5-21.5-5.6-61.4-19.3-82.4-5-22.7 15.4-10.2 50.3-5.7 71.5 58.2 91 135.6 171.3 214.8 244.4 24.7 22.7 50.6 44.4 74.6 68 13.4 13.2 24.2 32.7 39.7 43 3.4-18.5-23-40.8-25.3-59.8 18.4 18.7 32.2 45 46.6 66.5 35 52.5 69.5 105.2 104.4 157.7 23.3 54.8 46 110 57 168.7 13.4 70 20 141.4 28.3 212.2 7.3 32 13 67 27.8 97 5 10.3 11 21.6 23.8 22.3 5 .2 11-5.4 15.8-3 7.5 4 6.8 24.4 7.5 30.2 43.6 64.8 101.6 117 156.4 172 13 13 23.6 28.2 43 30.8 18.5 2.5 29.8 1.7 45 15.8 71.4 6.4 142.8 21.2 213.6 32 74.6 11.7 149.3 23.2 224 34.8" stroke-width="3"/>
  </g>
</svg>
