<?xml version="1.0" encoding="UTF-8" standalone="no"?>
<!-- Created with Inkscape (http://www.inkscape.org/) -->
<svg id="svg5744" xmlns:rdf="http://www.w3.org/1999/02/22-rdf-syntax-ns#" xmlns="http://www.w3.org/2000/svg" height="3264.6562" width="1529.7812" version="1.1" xmlns:cc="http://creativecommons.org/ns#" xmlns:dc="http://purl.org/dc/elements/1.1/">
 <metadata id="metadata5749">
  <rdf:RDF>
   <cc:Work rdf:about="">
    <dc:format>image/svg+xml</dc:format>
    <dc:type rdf:resource="http://purl.org/dc/dcmitype/StillImage"/>
    <dc:title/>
   </cc:Work>
  </rdf:RDF>
 </metadata>
 <g id="layer1" transform="translate(354.17443,1176.6457)">
  <g id="g163" transform="translate(-428.98693,-1747.8957)">
   <g id="g165" stroke="#dce0df" stroke-miterlimit="10" fill="none">
    <path id="path167" d="m426.212,571.325c-1.897,31.342-9.479,44.298-35.205,60.129-26.656,16.404-31.084,34.79-31.084,65.941,53.002,69.016,107.251,138.06,151.147,213.402,29.565,50.744,53.92,104.158,87.329,152.667,3.475,13.531,11.044,31.468,8.845,45.693-5.183-4.935-5.721-7.714-8.859-2.417-3.199,5.4,4.496,26.219,5.698,31.489,6.352,27.865,13.811,55.521,21.245,83.112,17.418,64.652,36.403,128.872,55.898,192.924,19.598,64.39,34.25,134.018,62.376,195.245-21.802,11.508-45.477,12.925-61.287,34.153-19.867,26.676-15.403,60.826-30.844,88.353-13.342,23.784-31.791,4.372-47.016-7.33-9.349-7.186-21.186-18.124-34.299-13.404-15.503,5.579-36.294,41.368-45.323,52.572-29.767,43.823-58.867,87.614-80.402,136.198-12.54,28.292-25.11,53.632-42.19,79.427-26.369,39.823-50.558,83.422-81.931,119.521-36.181,41.631-83.258,68.616-102.926,123.2-8.074,22.408-13.219,45.703-21.188,68.169-13.088,36.899-12.728,77.965-18.409,116.347-6.81,36.755-19.332,66.625-46.979,92.278-21.766,20.196-42.861,34.478-54.831,62.819,61.379,62.856,125.829,122.168,186.202,186.118,54.606,57.842,112.729,113.888,163.907,174.755,14.999,32.132,28.531,65.288,47.302,95.485,13.27,21.347,30.067,40.157,43.378,61.45,3.141,5.024,22.306,45.935,34.717,36.213,8.114-6.356-14.423-14.693-23.516-1.219-0.992,4.234,7.826,17.163,10.669,22.261,21.113,37.867,40.875,76.498,61.667,114.544,44.359,81.17,88.055,167.508,145.438,240.511,13.088,16.651,29.99,25.546,47.063,37.354,10.208,7.06,19.414,14.221,32.314,15.008,18.265,1.598,22.133-21.783,41.255-5.304,9.966,8.588,16.469,22.72,23.527,33.551,14.163,21.734,32.481,39.311,51.521,56.785,59.008,54.155,127.287,99.679,183.86,156.195,52.375,0.582,105.511,14.165,157.121,22.817,52.831,8.856,105.661,17.712,158.492,26.568" stroke-width="2"/>
    <path id="path169" d="m439.959,572.057c-2.029,30.213-9.348,44.242-31.322,63.384-23.238,20.243-25.877,41.556-25.039,71.937,50.226,64.632,100.738,130.581,139.087,203.175,27.818,52.659,52.599,106.391,86.148,155.827,1.138,4.55,11.928,33.847,7.959,38.686-0.845,1.031-6.538,3.177-4.984,0.527,0.594-1.013-2.983,2.08-3.616,3.098-4.17,6.701,4.775,31.357,6.259,37.902,31.253,137.846,77.542,271.896,117.099,407.438,4.928,18.439,9.523,36.094,17.483,53.499-13.277,16.135-38.13,15.159-53.839,28.834-20.99,18.273-27.56,48.081-33.413,73.857-2.593,11.006-4.963,36.382-19.897,39.602-10.823,2.333-22.853-10.24-30.171-16.074-9.908-7.899-23.003-21.951-37.237-19.741-12.302,1.91-28.648,28.398-35.008,35.926-31.094,43.593-63.363,86.476-86.111,135.237-13.933,29.865-22.164,61.687-40.006,89.559-25.36,39.615-49.749,82.903-79.94,119.006-34.082,40.755-83.51,66.084-106.773,115.861-10.888,23.296-11.88,48.329-19.629,72.405-4.237,13.166-10.875,25.006-14.465,38.494-5.297,19.898-7.344,40.461-10.024,60.82-4.231,37.758-11.847,73.943-34.186,105.428-18.212,25.669-42.182,45.048-56.417,73.637,19.551,20.622,39.575,40.774,59.486,61.046,67.107,64.454,128.55,134.622,192.288,202.358,32.81,36.432,69.815,71.915,95.297,113.938,10.765,24.879,21.313,49.971,35.46,73.179,12.036,19.747,27.405,36.656,40.896,55.314,6.253,8.648,16.784,36.021,30.059,36.597,8.247,0.358,16.415-7.87,4.97-12.071-14.094-3.313-18.692,13.382-21.986,22.938,6.305,18.376,19.246,36.271,28.29,53.372,23.707,44.827,47.535,89.585,72.251,133.866,25.058,44.893,50.73,89.509,78.191,132.984,14.945,23.66,30.393,53.91,52.123,72.371,14.433,12.261,52.255,44.161,73.439,37.021,17.048-9.716,24.143-22.076,41.111-4.042,9.504,10.101,15.534,23.573,23.408,34.875,15.401,22.104,36.495,40.306,56.391,58.2,38.726,34.832,79.236,67.622,119.426,100.731,20.422,16.824,42.517,30.378,61.344,49.186,51.72,1.61,104.4,15.086,155.439,23.629,52.123,8.724,104.245,17.449,156.368,26.173" stroke-width="2.0323"/>
    <path id="path171" d="m453.71,572.791c-1.497,29.32-8.344,45.941-25.312,68.728-18.327,24.612-19.322,48.996-17.7,79.208,47.013,61.151,91.14,123.716,124.652,193.355,25.618,53.234,51.239,105.748,83.905,155.112,1.995,8.263,10.274,28.215,7.102,37.2-0.809,2.292-4.495,1.608-4.387,1.254,0.291-0.948-3.466,4.638-3.66,5.042-4,8.31,3.878,30.124,5.603,38.168,29.326,136.714,76.992,269.068,115.326,403.333,4.035,16.57,7.125,33.049,14.888,48.401-13.216,19.859-29.441,19.035-47.974,31.233-23.696,15.598-31.941,43.716-39.245,69.499-5.03,25.084-8.198,65.227-40.87,45.438-13.402-8.118-23.561-23.967-38.958-28.847-16.752-5.31-23.698,7.408-33.976,18.775-31.859,43.036-66.591,84.04-91.304,131.874-16.788,32.494-22.989,68.908-39.106,101.254-10.683,21.441-26.377,41.338-39.452,61.398-12.779,19.606-24.699,40.299-39.387,58.553-33.127,41.171-84.418,64.658-110.405,111.853-13.34,24.229-15.563,49.813-20.919,76.332-5.438,26.929-19.079,50.355-24.441,77.67-3.855,42.108-9.465,84.226-29.044,122.296-14.393,27.986-35.451,51.659-49.641,79.786,19.041,21.027,38.183,41.964,57.089,63.112,66.666,65.851,128.31,137.079,191.898,205.887,34.698,40.948,67.69,78.968,93.186,126.5,9.639,21.414,19.079,42.603,32.368,62.078,12.004,17.592,27.091,32.595,39.733,49.673,4.911,6.634,18.429,31.58,31.292,21.255,6.668-5.353,2.956-16.608-6.543-12.095-17.336,7.648-14.073,33.032-12.927,47.406,43.325,79.861,84.317,160.858,129.952,239.474,22.69,39.088,45.671,78.426,71.941,115.257,10.478,14.69,20.213,25.936,34.976,35.88,16.223,10.927,47.197,42.892,67.865,24.668,17.451-16.391,27.47-15.713,42.298,3.543,9.299,12.076,15.845,25.715,25.791,37.388,19.676,23.094,43.071,43.187,65.858,63.095,35.595,31.101,71.621,63.429,109.715,91.491,20.58,15.16,41.22,26.238,59.557,44.697,49.58,3.355,99.558,15.342,148.597,23.538,53.129,8.879,106.258,17.759,159.387,26.638" stroke-width="2.06450009"/>
    <path id="path173" d="m467.489,573.55c-0.514,27.082-5.417,47.715-16.591,71.957-13.688,29.697-14.121,57.436-11.727,89.922,44.802,60.012,80.297,121.231,111.363,189.101,23.389,51.097,48.975,100.012,79.136,147.444,2.137,9.136,8.563,24.778,6.01,34.617-0.612,2.358-3.809,2.75-4.124,3.878-4.574,16.347-0.553,33.087,3.121,50.481,27.956,132.366,74.364,260.529,111.38,390.46,3.49,15.381,6.677,29.687,12.773,44.256-11.691,25.961-23.04,25.708-45.134,38.76-23.387,13.817-32.698,37.789-41.093,62.384-4.621,20.757-6.673,80.378-41.018,60.191-11.282-6.631-20.044-17.303-30.692-24.834-15.24-10.777-20.822-11.631-35.859-1.138-31.26,41.659-67.54,79.063-94.134,124.197-20.953,35.561-30.764,72.104-42.395,111.094-12.182,40.839-44.486,81.634-69.021,116.397-30.688,43.481-80.974,65.189-112.89,106.779-17.604,22.939-25,48.635-28.905,76.864-3.806,27.518-10.109,47.417-21.016,72.813-5.55,41.747-9.688,84.122-23.304,124.223-11.473,33.788-30.765,63.677-45.637,95.915,17.979,21.372,35.894,42.796,53.344,64.604,66.135,67.861,128.575,139.772,192.214,209.977,14.642,18.223,30.065,36.056,44.032,54.802,19.225,25.803,31.56,56.159,46.802,84.36,11.116,21.64,21.878,41.38,37.85,59.838,9.606,11.101,21.695,28.934,33.617,37.435,6.725,4.796,17.163,10.879,23.572,1.052,7.327-11.234-6.112-17.13-11.944-4.195-15.525,24.132-1.978,58.946,4.788,83.251,47.214,91.459,95.159,182.742,149.108,270.458,22.691,36.892,43.113,72.509,78.717,97.381,21.875,15.281,43.132,38.672,67.921,14.146,21.709-23.087,35.802,3.833,48.074,21.597,28.612,41.419,68.998,73.831,107.158,106.19,29.044,24.629,58.538,54.321,91.432,73.857,21.812,12.955,40.045,23.345,58.209,41.923,101.641,12.004,203.111,33.493,304.086,50.343" stroke-width="2.09680009"/>
    <path id="path175" d="m481.301,574.338c0.417,28.933-4.115,54.035-10.827,81.845-7.526,31.181-6.008,61.519-3.469,93.326,40.753,57.536,68.118,118.01,96.668,182.022,22.24,49.865,48.23,96.575,76.414,143.253,2.128,9.486,7.225,23.067,5.049,33.137-0.596,2.757-3.423,4.483-3.934,6.878-4.374,20.5,1.028,41.507,5.456,61.932,27.035,124.719,69.567,246.134,105.65,368.396,3.024,14.187,5.14,28.413,10.913,41.829-5.914,17.384-9.238,30.815-25.323,40.429-6.364,3.803-13.696,5.826-20.086,9.649-20.698,12.382-30.29,32.067-39.005,53.781-4.703,18.181-5.907,78.782-33.507,78.253-10.036-0.192-23.27-15.279-29.903-20.877-13.861-11.699-21.895-18.43-40.138-19.631-61.351,70.198-125.532,134.35-143.866,229.301-5.399,27.96-13.003,46.745-28.31,70.62-11.164,17.412-21.969,35.125-33.512,52.287-28.35,42.152-71.345,62.641-107.153,96.693-21.305,20.26-34.852,44.722-40.392,73.599-5.02,26.165-3.301,52.352-12.316,77.763-8.493,42.54-14.569,85.972-25.645,127.935-9.326,35.331-24.408,68.242-37.796,102.113,16.57,21.608,33.046,43.304,48.565,65.686,65.428,70.599,129.095,142.943,193.386,214.577,14.952,19.586,31.305,38.54,42.961,60.342,15.923,29.784,28.226,61.118,45.651,90.151,11.71,18.853,23.072,34.279,38.664,49.983,6.826,6.875,19.695,23.955,31.442,23.562,23.842-0.798,18.577-41.871,1.445,3.249-7.42,40.513,14.178,88.613,27.178,125.644,47.01,90.673,94.633,182.02,151.09,267.277,18.734,28.291,36.674,45.525,62.853,65.149,7.792,5.841,15.48,13.229,24.666,16.852,18.294,7.215,28.11-3.996,41.085-15.761,21.934-21.327,40.234,21.537,50.242,34.74,32.057,42.29,77.695,76.473,118.143,110.224,24.523,20.463,49.79,47.191,79.216,60.562,23.724,10.781,40.807,23.177,59.083,42.249,99.838,17.654,200.038,33.46,300.046,50.121" stroke-width="2.12899995"/>
    <path id="path177" d="m495.126,575.136c1.209,29.785-1.306,58.168-4.322,87.685-3.365,32.932-1.028,65.26,1.409,98.196,35.095,54.069,56.599,114.057,82.371,172.808,21.848,49.805,47.716,97.09,75.864,143.585,4.047,17.25,3.799,27.13,0.643,43.002-3.952,19.878,1.074,40.897,5.058,60.431,24.558,120.416,66.065,237.941,102.029,355.266,2.672,13.588,4.322,27.509,9.192,40.554-4.885,17.544-8.055,38.846-23.13,50.845-5.586,4.447-12.875,6.682-19.005,10.215-19.823,11.425-30.109,27.263-39.78,47.698-6.389,21.332-9.579,42.79-15.039,64.25-2.195,8.627-5.244,24.158-16.094,26.956-9.691,2.499-21.005-8.608-27.25-13.752-13.579-11.183-24.665-21.052-40.446-29.121-15.092,4.381-27.107,20.167-37.863,30.61-18.696,18.151-36.968,36.756-53.447,56.975-28.5,34.966-51.783,74.456-61.508,118.884-5.867,26.803-3.672,55.604-17.05,80.058-9.619,17.583-21.779,34.162-32.49,51.109-28.593,45.242-66.055,68.675-107.959,100.303-22.854,17.25-41.004,38.369-49.522,66.138-7.845,25.574-6.408,52.979-9.052,79.326-5.271,82.67-27.538,162.709-53.248,240.998,14.914,21.772,29.387,43.747,42.954,66.387,65.24,73.278,130.476,146.552,195.712,219.826,36.028,49.619,50.7,109.943,86.71,159.302,11.626,14.735,33.706,47.638,56.003,46.173,11.349-0.746,22.808-10.366,22.232-22.211-15.125,7.46-12.928,35.413-13.871,48.898,6.224,57.531,29.165,114.177,50.348,167.447,27.766,52.379,55.966,104.526,86.227,155.518,18.944,31.923,37.629,67.833,62.769,95.537,12.065,13.296,28.549,23.052,42.818,34.01,7.672,5.893,15.235,12.369,25.03,14.233,18.348,3.49,28.078-14.245,41.35-23.835,21.197-14.004,45.504,37.645,55.807,48.879,37.603,41.004,81.745,76.442,124.617,111.711,21.718,17.866,41.413,36.723,67.685,46.96,25.131,9.792,42.098,24.547,60.594,44.319,98.455,17.209,197.197,32.912,295.791,49.31" stroke-width="2.16129994"/>
    <path id="path179" d="m508.927,575.906c3.598,64.043,0.06,127.98,3.921,192.135,31.445,56.517,50.905,119.388,77.214,178.37,20.52,46.004,45.087,90.172,70.708,133.512,4.004,17.953,3.143,29.907,0.381,47.05-3.629,22.526,2.097,46.621,6.703,68.559,23.44,111.659,61.251,220.813,95.885,329.35,2.37,13.33,3.61,27.149,7.606,40.131-7.497,31.245-10.687,56.503-38.88,73.367-18.523,11.079-29.432,23.282-39.988,42.319-8.74,25.198-12.511,50.245-18.639,76.01-1.797,7.555-4.768,23.483-13.885,26.993-18.697,7.198-48.281-29.236-60.861-38.727-27.833-9.846-71.927,43.999-87.679,60.098-32.094,32.801-60.849,70.868-74.871,115.099-9.584,30.234-6.508,60.016-11.55,90.591-3.611,21.895-19.101,39.981-30.616,58.485-27.487,44.174-59.199,70.229-102.697,98.611-23.54,15.36-45.65,31.44-58.279,57.448-11.714,24.125-12.26,50.865-12.827,77.115,1.278,88.209-15.36,170.141-38.63,254.666,13.176,22.035,25.401,44.496,37.528,67.119,66.21,75.141,132.405,150.265,198.608,225.397,32.408,51.678,39.864,121.323,85.23,164.767,14.68,14.216,29.587,32.044,50.603,19.874,8.386-4.856,17.584-13.713,18.117-23.663-19.057,22.266-7.972,67.79-4.688,92.133,15.667,68.478,41.934,134.523,69.806,198.804,23.972,43.745,48.09,87.424,74.349,129.855,15.492,25.033,30.931,54.364,54.089,73.315,11.473,9.389,23.682,18.42,35.545,27.348,7.16,5.389,15.2,11.506,24.633,11.775,18.971,0.541,28.201-21.911,44.544-28.888,10.256-2.179,17.149,6.821,22.936,13.622,14.256,16.756,25.687,34.295,41.595,50.026,39.577,39.136,82.958,74.574,126.143,109.617,19.605,15.909,33.931,26.669,57.628,33.909,26.249,8.02,43.988,27.893,62.424,47.262,97.166,16.133,194.333,32.266,291.499,48.4" stroke-width="2.19350004"/>
    <path id="path181" d="m522.643,576.59c3.427,64.825,2.002,129.732,5.655,194.573,26.816,59.881,47.68,122.236,74.867,181.971,20.113,44.193,43.759,87.184,67.908,129.288,3.734,17.734,2.989,31.471,0.648,48.818-3.23,23.943,1.492,48.361,6.319,71.779,21.629,104.928,57.241,207.452,91.021,308.926,2.101,13.36,3.033,27.117,6.146,40.291-6.456,29.859-8.448,68.144-35.788,86.568-16.712,11.262-28.4,20.495-39.617,37.867-8.796,22.16-14.908,44.375-19.097,67.863-2.001,11.222-2.422,29.835-9.866,39.632-17.546,23.093-44.556-11.631-58.576-23.856-28.659-16.911-65.47,16.815-85.2,33.529-35.426,30.01-68.399,65.806-87.313,108.741-13.935,31.634-16.215,63.364-15.371,97.374,0.665,26.793-3.526,41.004-17.623,63.578-10.852,17.377-20.156,36.067-33.732,51.557-16.808,19.179-38.602,33.332-60.034,46.76-24.31,15.23-51.852,28.423-69.596,51.78-16.273,21.421-20.619,46.312-22.038,72.525-0.429,47.13,2.913,94.41,0.028,141.495-2.677,43.704-12.65,85.689-23.08,128.062,11.356,22.576,22.196,45.412,33.201,68.162,31.646,36.273,62.608,73.321,95.286,108.669,36.532,39.517,78.326,80.54,105.638,126.885,20.983,51.746,34.57,128.827,84.805,161.898,22.938,21.506,49.692-5.193,59.565-27.375-17.886,46.084-0.205,103.961,9.948,149.126,22.426,74.368,51.65,146.325,84.364,216.722,37.44,65.359,71.621,133.381,135.678,175.829,8.732,5.786,18.486,10.457,28.98,6.779,16.641-5.832,22.655-28.069,42.142-29.685,11.692,2.832,17.94,14.361,24.478,23.291,12,16.391,25.977,30.621,40.66,44.646,40.734,38.909,84.535,74.733,128.439,109.98,19.046,15.291,30.948,19.711,53.4,25.84,27.45,7.493,46.464,31.39,65.666,50.817,95.75,15.87,191.501,31.74,287.251,47.61" stroke-width="2.22580004"/>
    <path id="path183" d="m536.34,577.177c3.305,67.212,3.244,134.48,7.361,201.668,42.092,104.842,82.908,207.08,137.669,306.122,3.702,18.807,2.491,34.457,0.422,53.019-2.422,21.727,0.856,43.583,4.903,64.924,19.056,100.487,54.02,198.513,87.514,294.878,1.834,13.555,2.578,27.301,4.801,40.791-5.798,28.625-7.399,76.559-30.362,98.127-14.153,13.292-29.238,20.326-41.296,36.633-8.607,19.156-14.749,38.463-19.179,59.011-3.747,17.382-3.368,39.909-11.586,55.937-13.842,26.994-35.143,3.549-50.807-10.288-28.846-16.888-59.708-6.052-85.973,11.259-39.163,25.812-76.051,61.652-98.737,102.986-17.496,31.878-23.804,66.24-20.664,102.266,1.877,21.528,8.13,42.991-1.341,63.422-17.616,37.998-43.389,71.109-78.145,94.434-50.053,33.591-106.544,51.608-118.211,117.479-4.716,51.086,3.98,101.83,5.193,152.893,1.059,44.592-4.535,87.619-14.486,131.025,10.071,23.246,20.019,46.543,30.121,69.776,30.258,35.015,59.905,70.635,91.69,104.275,42.096,44.553,86.816,92.812,110.518,149.588,12.908,38.88,32.893,137.042,85.494,145.632,22.646,3.054,36.659-32.598,50.212-45.909-0.041,13.208-2.457,26.648-2.682,39.988-1.015,60,16.462,119.458,32.55,176.583,26.14,75.274,57.314,148.576,92.671,219.974,27.323,44.65,59.362,98.753,108.209,124.892,34.201,18.302,43.71-37.204,73.406-25.306,11.593,7.544,17.915,20.479,26.641,30.791,15.153,17.908,33.068,33.808,50.445,49.481,39.298,35.443,80.002,70.543,122.412,102.263,16.136,12.069,29.195,10.075,47.32,15.308,27.502,7.94,48.05,34.953,67.65,54.128,94.335,15.607,188.669,31.214,283.004,46.821" stroke-width="2.25810003"/>
    <path id="path185" d="m550.099,577.851c3.724,70.823,4.898,141.711,9.499,212.499,38.655,102.225,81.063,200.531,132.069,297.224,6.136,39.81-3.016,78.303,4.323,118.538,17.263,94.651,50.532,186.604,83.26,276.765,1.551,13.798,2.215,27.609,3.559,41.419-5.057,25.641-9.389,51.561-15.645,76.948-3.053,12.389-5.909,26.712-14.702,36.509-11.258,12.543-26.964,18.965-37.417,32.907-17.298,34.436-22.826,70.865-29.941,108.304-6.308,33.197-19.61,38.165-45.785,17.449-31.007-14.989-57.059-18.595-90.102-4.342-38.101,16.435-73.585,48.08-98.703,80.696-21.364,27.743-35.924,60.346-36.865,95.715-0.712,26.756,9.414,51.438,10.555,77.716,1.595,36.73-34.499,80.398-62.443,101.229-45.917,34.229-112.482,50.416-134.995,107.516-11.205,50.338-0.313,100.387,5.018,150.828,5.182,49.031,5.169,96.824-4.051,145.386,9.304,24.007,18.504,48.053,27.837,72.049,29.102,33.99,58.771,67.131,88.828,100.205,18.074,19.888,34.74,41.089,51.625,61.977,29.49,36.482,46.356,70.411,62.455,114.614,5.351,16.908,44.946,148.549,85.796,112.424,8.763-6.724,35.13-56.864,42.974-48.926,1.619,1.638,0.123,13.789,0.106,15.483-0.156,15.953-0.542,31.815,0.589,47.753,5.432,76.518,28.13,151.158,51.689,223.677,27.205,70.742,57.605,140.49,93.393,207.35,18.408,26.415,36.363,43.996,60.039,64.532,7.579,6.574,15.188,14.597,24.633,18.51,30.767,12.746,47.618-48.852,75.724-24.083,11.615,11.665,20.586,25.615,32.262,37.415,18.494,18.69,38.318,36.11,58.206,53.287,20.469,17.68,41.3,34.943,62.3,51.988,15.306,12.424,31.422,29.18,49.031,38.381,14.351,7.499,29.916,3.119,44.838,8.201,27.313,9.303,49.237,37.988,69.534,57.165,92.919,15.344,185.837,30.688,278.756,46.032" stroke-width="2.29029989"/>
    <path id="path187" d="m563.871,578.63c4.289,75.056,6.815,150.173,11.876,225.191,36.193,98.3,79.359,192.742,126.21,286.395,5.776,41.255-3.933,80.879,3.862,122.457,16.422,87.59,46.994,171.908,78.426,254.989,1.241,14.003,1.874,27.946,2.404,41.99-5.314,26.827-9.962,53.797-15.489,80.58-2.923,14.165-5.088,32.609-13.082,45.144-8.698,13.639-24.787,20.949-35.282,33.188-17.408,31.701-24.937,66.852-31.039,102.233-3.331,19.309-8.43,68.084-39.161,43.276-28.597-7.962-47.625-22.008-79.521-17.704-42.862,5.785-81.743,33.198-111.926,62.773-51.811,50.767-62.566,107.359-43.072,175.026,34.514,119.803-130.218,137.66-182.905,208.674-20.074,51.443-7.652,103.505,0.562,156.246,7.75,49.763,12.366,98.887,5.65,149.054,9.047,24.803,17.59,49.778,26.219,74.729,27.193,32.043,56.377,62.029,83.72,93.767,22.6,26.232,44.94,53.387,65.559,81.193,27.491,37.072,38.488,83.448,54.153,126.155,11.261,32.811,44.21,124.102,85.321,67.511,7.707-11.845,34.127-74.009,38.032-30.667,3.405,37.797,3.379,74.898,9.778,112.62,13.666,80.561,38.204,158.615,65.785,235.357,25.217,60.36,51.639,121.347,85.21,177.647,16.806,16.018,43.595,50.278,68.13,55.838,35.953,8.148,39.149-54.526,78.101-19.231,28.572,37.971,68.188,68.446,104.45,98.69,19.332,16.123,38.878,31.995,58.599,47.64,11.607,9.208,24.469,22.953,39.171,27.183,14.84,4.27,29.444-1.41,44.318,4.955,27.054,11.578,49.807,40.087,71.185,59.563,91.503,15.081,183.006,30.162,274.509,45.242" stroke-width="2.32259989"/>
    <path id="path189" d="m577.654,579.495c4.925,79.308,8.784,158.661,14.26,237.938,34.538,93.889,77.512,184.992,120.313,275.397,5.148,41.269-5.069,80.374,2.539,121.906,15.079,82.318,44.407,160.156,74.487,237.845,0.904,14.139,1.271,28.184,1.316,42.35-8.713,42.513-12.088,88.531-25.808,129.825-6.751,20.318-20.117,27.446-34.248,42.194-19.341,30.104-26.366,67.453-32.734,102.083-2.449,13.32-4.648,73.891-32.42,60.611-13.126,1.297-25.012-8.448-36.656-12.923-14.001-5.381-28.81-8.133-43.808-8.287-38.171-0.391-74.493,15.672-105.191,37.27-61.76,43.452-96.445,105.637-71.048,179.917,8.366,24.468,21.796,47.045,13.485,73.285-4.328,13.663-11.829,27.615-21.284,38.349-38.761,44.005-103.807,63.88-150.887,97.413-29.818,45.572-20.616,96.327-11.45,146.986,9.813,54.232,20.047,107.777,15.985,163.152,9.217,25.671,17.17,51.652,25.131,77.732,24.614,29.253,52.031,55.455,76.334,84.759,24.096,29.053,50.5,58.654,69.719,91.191,27.042,45.782,37.712,99.173,58.102,147.917,7.167,17.211,20.07,55.629,43.438,58.827,21.392,2.928,32.93-26.403,40.377-41.193,3.292-6.906,13.982-40.188,25.888-36.765,11.504,3.308,9.023,37.338,9.409,45.221,6.597,134.692,48.957,266.941,97.332,391.718,20.283,45.062,40.315,91.863,68.284,132.865,14.09,12.663,39.74,47.101,62.045,46.318,16.38-0.574,23.868-20.279,35.902-28.414,19.78-13.372,30.573,1.731,43.331,16.794,37.32,39.042,79.671,73.25,121.641,107.12,21.743,17.546,52.002,53.165,82.153,54.408,15.249,0.628,26.122-3.496,40.906,3.853,27.456,13.647,51.273,41.816,74.136,61.869,90.087,14.818,180.174,29.635,270.261,44.453" stroke-width="2.35479999"/>
    <path id="path191" d="m591.443,580.405c5.553,82.991,10.577,166.009,16.425,248.982,33.795,89.915,75.473,178.157,114.585,265.918,4.298,39.431-6.172,76.596,0.355,116.286,13.012,79.122,42.196,152.434,71.524,226.459,0.693,14.138,0.608,28.226,0.275,42.371-10.098,46.429-14.569,94.626-26.705,140.541-5.622,21.271-14.623,30.009-29.798,44.717-18.487,28.028-26.054,62.306-32.604,94.742-3.584,17.747-3.466,78.193-28.099,81.505-15.036,11.985-48.492-12.504-63.877-16.235-37.462-9.084-76.488-2.39-111.26,13.211-63.056,28.291-126.237,88.631-109.182,163.706,9.459,41.639,48.319,81.469,26.366,125.03-9.085,18.027-25.763,30.084-42.262,40.879-31.852,20.838-66.144,37.943-98.848,57.385-19.238,23.076-36.155,46.873-39.174,77.61-2.385,24.285,2.114,49.274,6.298,73.11,9.63,54.869,22.875,108.558,21.863,164.658,9.647,26.633,17.046,53.576,24.346,80.922,23.843,28.572,50.479,52.546,73.734,81.793,30.063,37.81,58.781,74.543,77.834,119.364,19.782,46.536,29.492,96.603,53.846,141.22,9.081,16.076,22.458,42.134,44.641,30.485,19.306-10.137,28.531-42.678,36.549-60.869,4.647-10.467,12.558-31.228,24.229-17.223,5.74,6.887,5.882,20.914,6.731,29.192,1.868,18.222,3.026,36.499,5.12,54.705,16.284,141.599,59.81,279.44,113.784,410.839,15.501,31.928,31.589,63.281,51.203,92.89,12.693,12.156,37.931,46.48,59.896,36.734,14.135-6.272,19.757-27.942,35.238-32,21.272-5.576,34.927,19.479,46.939,32.871,42.595,39.601,87.874,76.241,133.674,112.052,18.946,14.814,37.563,36.076,63.149,34.377,16.774-1.114,27.196-4.138,43.009,4.953,27.834,16.002,52.425,42.731,76.909,63.371,88.671,14.554,177.342,29.109,266.013,43.664" stroke-width="2.38709998"/>
    <path id="path193" d="m605.231,581.304c6.09,85.536,11.986,171.085,18.151,256.616,14.852,37.889,33.314,73.953,49.372,111.301,21.056,48.974,38.923,99.24,59.851,148.271,3.577,39.843-6.983,77.208-0.601,117.419,11.749,74.028,39.933,140.659,67.533,209.558,0.274,14.009-0.108,27.963-0.744,41.955-10.842,45.887-17.196,92.354-25.74,138.661-4.571,24.776-9.305,42.108-27.585,59.496-16.971,26.341-25.115,57.107-31.778,87.398-3.96,18.003-7.208,36.15-10.518,54.28-2.668,14.615-3.33,32.508-14.63,43.609-10.161,24.509-43.699-0.683-58.409-5.729-36.461-12.509-75.27-12.394-112.189-1.722-64.294,18.584-146.444,73.201-136.465,150.122,3.889,29.978,20.835,54.892,34.182,81.201,8.537,16.827,19.087,34.919,13.711,54.24-12.112,43.525-79.732,67.854-114.265,87.379-21.008,24.164-42.798,48.753-52.042,79.979-6.993,23.621-9.036,49.029-7.09,73.527,4.52,56.916,22.717,111.365,24.175,168.898,10.15,27.65,16.941,55.457,23.553,84.105,8.181,9.882,15.338,14.914,23.79,21.767,21.533,17.459,38.115,45.437,54.854,67.103,32.993,42.703,56.529,88.515,74.934,139.226,14.793,40.759,22.521,93.945,53.934,126.163,40.553,43.995,63.909-42.585,77.525-69.649,10.104-22.184,21.818,2.352,24.695,14.102,9.637,39.354,10.023,81.984,16.576,121.995,22.738,138.838,65.823,274.34,120.996,403.551,12.012,22.218,24.295,44.29,37.891,65.587,19.257,19.308,38.917,44.269,63.19,18.246,8.676-9.302,18.021-24.531,32.767-23.506,7.923,2.128,14.213,6.671,18.87,13.629,9.748,12.658,20.631,24.273,32.649,34.844,45.059,38.827,91.476,76.141,139.024,111.882,19.913,14.968,28.426,19.508,52.005,15.735,20.227-3.237,32.216,2.171,48.677,14.451,24.533,18.301,47.794,38.648,71.594,57.895,87.255,14.292,174.511,28.583,261.766,42.875" stroke-width="2.41939998"/>
    <path id="path195" d="m619.006,582.112c6.44,86.251,13.042,172.498,19.122,258.775,15.636,35.837,32.999,70.661,47.175,107.157,19.522,50.261,37.018,101.252,57.349,151.204,3.041,43.203-7.604,82.993-0.182,126.709,11.298,66.539,37.831,124.349,62.45,186.265-0.18,13.718-0.877,27.388-1.773,41.075-12.571,47.789-19.423,96.373-27.311,145.067-3.727,23.005-5.779,48.104-23.333,65.091-34.441,58.548-32.218,126.58-53.856,189.106-11.84,32.45-27.871,20.088-54.135,9.862-36.85-14.347-75.598-19.124-114.696-12.096-61.503,11.054-151.853,54.16-158.502,125.609-2.976,31.976,13.264,60.211,29.554,86.266,10.866,17.379,27.723,36.139,33.875,55.967,13.412,43.225-51.039,69.46-79.474,86.014-36.53,46.209-69.009,89.618-77.24,149.729-8.299,60.611,12.395,120.281,15.36,180.583,10.305,28.093,17.364,56.42,21.646,86.049,1.447,2.094,3.254,3.751,5.423,4.972,0.34-1.056,0.774-2.376,0.88-3.696,10.28,4.963,18.673,19.559,25.588,28.246,26.814,33.686,53.359,67.367,73.196,105.763,23.074,44.661,40.371,92.245,56.425,139.792,8.044,23.824,19.825,76.424,50.162,82.363,38.296,20.063,54.353-76.917,72.809-92.234,19.896-5.405,23.92,48.139,25.57,59.034,7.527,49.688,14.2,99.357,24.26,148.634,26.091,127.8,69.613,248.444,116.652,369.652,10.029,18.673,20.208,37.199,31.361,55.23,21.903,22.221,36.182,32.616,59.435,6.553,7.919-8.876,16.497-21.347,30.11-19.677,7.018,2.298,12.661,6.53,16.929,12.696,16.462,18.033,32.345,34.899,50.344,51.682,41.49,33.844,83.453,67.236,126.755,98.749,20.594,14.988,27.928,13.395,50.713,9.125,21.73-4.072,35.126,5.663,52.085,18.518,24.676,18.706,48.984,37.92,73.469,56.874,85.839,14.028,171.679,28.057,257.518,42.085" stroke-width="2.45160007"/>
    <path id="path197" d="m632.758,582.732c6.429,83.319,12.744,166.651,17.675,250.075,41.358,86.529,68.531,178.765,102.296,268.375,2.135,41.544-8.245,80.295-2.009,122.235,5.234,35.199,14.369,70.032,26.816,103.363,9.574,25.638,23.14,49.431,32.993,74.897-0.676,13.327-1.713,26.614-2.892,39.905-13.554,44.855-20.708,91.04-27.387,137.327-3.603,24.968-3.143,63.266-21.15,83.156-28.979,58.904-37.579,122.287-51.643,185.865-1.688,9.979-2.8,32.417-14.473,38.439-10.289,5.307-21.187-1.134-30.819-4.828-35.262-13.523-69.898-23.735-108.167-22.349-64.049,2.32-161.016,36.136-187.122,101.416-22.38,55.964,28.64,107.367,59.996,147.74,10.371,13.354,23.25,27.526,15.115,45.009-8.365,17.979-31.929,29.891-47.507,40.014-29.566,50.567-68.572,94.653-87.955,150.973-21.428,62.262-7.052,123.906,0.531,187.135,8.339,26.763,11.617,50.627,12.684,78.427-1.052-2.585-1.652-7.212-1.965-9.734,16.174,12.988,28.448,33.22,40.964,49.517,29.154,37.963,52.795,77.271,72.32,121.04,20.298,45.5,37.199,92.388,54.639,139.026,7.305,19.536,25.6,76.104,57.153,58.133,19.607-4.639,29.066-28.663,36.265-45.06,3.284-7.481,18.103-59.424,32.123-45.59,21.694,24.141,22.275,70.08,27.096,100.288,9.565,59.93,20.475,119.545,34.815,178.539,26.496,109.002,64.697,213.708,104.009,318.557,8.812,16.813,17.858,33.462,27.818,49.627,6.376,6.896,17.173,17.565,27.496,17.88,17.608,0.537,24.512-21.182,36.384-30.612,10.042-7.977,17.254-11.063,28.503-2.875,6.321,6.325,12.105,13.113,17.353,20.362,17.763,20.644,39.297,38.472,59.47,56.603,21.202,16.553,42.45,33.034,63.952,49.197,17.77,13.358,36.612,30.966,56.679,40.952,17.954,8.935,28.836-2.532,46.3-4.244,19.914-1.953,35.229,12.426,50.141,23.452,25.153,18.598,50.307,37.196,75.461,55.794,84.424,13.765,168.847,27.531,253.271,41.296" stroke-width="2.48390007"/>
    <path id="path199" d="m646.61,583.796c6.39,77.305,9.459,154.727,13.963,232.147,18.513,37.352,31.318,77.49,44.473,116.944,18.978,56.921,38.181,113.688,57.774,170.392,1.502,45.159-8.918,86.574-1.531,132.196,9.297,57.413,33.876,104.709,55.124,157.704-1.224,12.723-2.619,25.423-4.105,38.118-15.888,44.612-22.957,91.797-29.414,138.547-3.87,28.021-3.215,65.169-17.748,90.294-7.993,21.675-17.493,42.297-23.779,64.635-10.52,37.386-16.961,75.878-25.107,113.815-3.885,27.426-3.523,69.453-41.084,58.595-29.212-8.445-56.031-20.646-86.597-24.605-72.686-9.413-170.449,16.99-218.528,75.908-44.631,54.692,7.854,113.173,45.707,153.659,10.521,11.252,34.941,28.968,37.64,45.482,2.643,16.175-13.58,27.234-24.308,36.115-15.07,53.75-58.138,97.182-87.227,143.323-37.583,59.613-37.937,122.281-29.427,190.263,5.786,25.498,5.958,47.559,5.928,73.372-2.192-4.38-4.432-8.698-5.717-13.317,19.489,14.971,34.601,41.312,49.123,60.786,32.017,42.935,54.557,91.372,75.307,140.512,20.433,48.39,37.886,98.195,59.681,145.994,12.434,27.269,35.063,54.185,62.318,24.428,18.799-14.574,25.952-39.975,35.113-60.852,11.03-25.137,17.725-29.26,30.784-1.226,18.06,41.996,21.516,91.26,29.609,135.847,11.529,63.516,25.36,126.564,42.376,188.845,25.307,92.626,57.614,183.654,90.301,273.923,7.827,14.842,15.648,29.76,24.859,43.808,30.555,30.248,38.742-8.439,61.893-22.953,15.153-9.5,23.607-1.197,33.782,11.149,25.992,31.539,57.201,57.974,87.861,84.849,21.953,16.481,43.894,32.98,66.212,48.966,12.125,8.685,28.975,25.34,45.093,26.371,14.775,0.946,26.624-10.901,41.442-10.675,21.112,0.322,40.661,20.114,56.869,31.532,23.657,16.665,47.314,33.33,70.971,49.995,83.008,13.502,166.016,27.004,249.023,40.506" stroke-width="2.51609993"/>
    <path id="path201" d="m660.389,584.592c5.661,69.739,4.459,139.55,9.045,209.305,19.914,43.961,32.962,91.44,47.336,137.392,18.22,58.25,37.921,116.033,56.156,174.256,0.696,43.138-9.399,83.401-3.384,126.895,7.885,57.019,32.974,102.139,53.076,154.626-1.834,11.869-3.596,23.749-5.424,35.619-33.903,73.717-22.589,157.369-46.582,232.945-3.765,21.715-14.258,42.407-20.355,63.566-10.27,35.647-16.878,72.312-24.627,108.554-3.416,24.483-2.575,84.096-38.528,82.126-28.156-1.543-57.196-18.858-85.17-24.021-76.568-14.13-156.894,8.241-219.023,54.318-21.619,16.033-40.97,36.809-38.797,65.712,2.211,29.403,25.067,54.772,43.885,75.487,19.319,21.266,41.917,38.782,61.982,59.176,10.884,11.062,19.217,21.779,6.14,35.437,6.457,52.955-42.297,99.776-74.996,133.84-50.715,52.832-72.207,107.783-68.808,181.373,1.366,24.93-0.473,49.535,0.462,74.382-2.253-3.807-4.337-7.674-5.684-11.835,23.2,18.502,42.854,51.347,58.885,75.825,32.271,49.274,54.566,104.773,77.187,158.9,19.811,47.402,36.024,103.27,65.473,145.828,21.474,31.033,47.414,17.781,66.491-8.853,14.022-16.639,18.368-37.649,29.599-55.682,19.248-30.906,31.268,30.04,35.137,42.971,14.794,55.417,22.944,112.519,34.767,168.612,12.83,60.868,28.018,121.219,45.825,180.824,23.33,78.089,48.208,157.157,76.088,233.782,6.985,12.901,13.67,26.221,22.672,37.884,34.202,26.9,37.953-31.771,66.388-34.044,15.733-1.258,26.357,20.943,35.043,30.501,29.505,32.466,63.897,60.719,97.055,89.281,21.109,15.232,42.085,30.78,63.848,45.083,9.282,6.1,17.678,12.585,29.317,11.65,16.514-1.327,27.603-14.986,45.324-12.096,19.281,3.144,38.126,21.208,53.895,31.763,25.224,16.883,50.448,33.765,75.671,50.647,81.592,13.239,163.184,26.478,244.776,39.717" stroke-width="2.54839993"/>
    <path id="path203" d="m674.073,585.004c4.578,61.828-0.991,123.478,3.815,185.198,20.505,52.931,35.255,108.354,51.387,162.717,17.352,58.471,37.283,116.345,53.766,175.041,0.057,43.818-9.996,84.788-4.102,128.951,3.556,26.642,9.672,53.076,19.543,78.118,9.256,23.481,22.293,44.995,30.71,68.846-2.594,10.633-4.707,21.361-6.871,32.087-39.611,67.92-32.139,157.444-47.083,232.318-2.85,24.609-10.964,46.906-17.534,70.648-8.86,32.022-15.262,64.692-22.254,97.153-3.335,23.902-4.511,92.194-34.494,101.894-21.753,7.037-54.811-11.438-75.398-16.715-74.966-19.215-151.95-7.764-219.089,30.626-24.005,13.726-57.354,32.607-66.711,60.775-9.074,27.315,8.8,52.246,25.036,72.5,20.682,25.799,45.768,47.819,71.612,68.269,10.235,8.099,36.672,21.589,36.857,37.191,26.778,44.912-13.518,94.127-47.03,120.316-59.661,46.623-108.627,86.902-116.718,167.038-5.295,26.951-7.492,51.782-4.653,79.21-1.504-2.514-2.881-4.908-3.52-7.687,25.998,21.599,47.667,58.786,64.38,87.472,33.767,57.958,57.661,121.466,84.205,182.886,11.883,27.495,23.905,54.981,37.289,81.787,8.986,17.998,19.292,45.107,37.012,56.743,27.727,18.209,53.193-17.579,66.621-37.453,5.625-8.054,17.236-43.361,28.467-44.629,20.087-2.267,34.237,85.744,36.225,94.567,26.517,117.939,49.313,235.752,86.009,351.175,21.471,67.533,39.892,136.561,63.64,203.308,6.255,11.097,12.156,23.151,21.631,31.964,29.83,18.846,36.28-43.282,64.345-39.38,14.045,1.953,26.249,26.064,34.793,35.186,34.845,37.204,74.638,69.966,113.377,102.95,21.447,14.768,51.521,46.626,80.229,36.667,14.843-5.149,24.026-14.76,40.97-10.981,19.71,4.395,39.763,22.58,56.575,33.238,26.055,16.518,52.111,33.036,78.166,49.553,80.176,12.976,160.352,25.952,240.528,38.928" stroke-width="2.58060002"/>
    <path id="path205" d="m687.693,585.154c3.452,54.847-5.918,108.435-0.898,163.183,20.767,62.186,37.584,125.752,55.607,188.767,16.523,57.773,36.243,115.093,50.764,173.387-0.659,47.033-10.91,90.497-3.871,137.908,7.395,49.811,32.001,89.85,47.036,136.862-3.384,7.649-5.025,12.304-8.607,26.076-23.481,29.187-28.514,75.232-34.225,110.933-6.179,38.628-9.051,77.621-14.326,116.356-3.157,56.056-21.636,110.812-33.569,165.54-4.828,34.342-6.495,82.814-30.401,110.529-16.039,18.595-38.777,9.426-59.073,3.741-75.124-21.043-147.568-24.946-220.738,6.915-32.215,14.028-74.4,35.742-94.635,65.977-15.053,22.492-4.592,44.633,9.129,64.794,33.533,49.272,83.66,75.736,127.893,112.907,39.772,38.233,23.751,86.986-19.536,114.796-61.328,39.401-127.322,63.276-151.722,138.558-16.182,28.83-15.34,53.871-9.995,85.805-1.454-1.144-1.725-2.113-0.811-2.906,82.95,83.507,116.517,210.23,165.601,313.97,12.274,25.94,24.931,52.035,40.374,76.274,8.637,13.556,20.538,33.247,38.117,36.106,29.04,4.723,51.47-32.927,66.363-51.779,7.823-10.898,14.044-29.453,27.29-16.233,8.969,8.951,12.99,29.042,16.566,40.397,9.578,30.413,16.048,61.484,22.188,92.733,24.419,111.22,51.765,220.556,85.544,329.3,19.343,62.271,33.983,126.117,55.567,187.66,6.331,9.968,11.67,20.051,22.243,26.13,28.224,7.264,34.524-63.976,67.005-38.104,15.887,12.654,28.469,34.099,43.225,48.545,36.171,35.412,74.951,68.139,113.566,100.82,21.193,13.598,37.953,30.292,63.048,19.504,17.045-7.328,27.121-16.9,46.61-8.893,21.776,8.947,42.481,24.944,62.666,37.023,24.371,14.583,48.741,29.167,73.112,43.75,78.76,12.713,157.52,25.426,236.281,38.138" stroke-width="2.61290002"/>
    <path id="path207" d="m701.288,585.203c1.046,21.876,1.281,42.644-2.997,64.132-5.593,28.096-4.252,53.716-1.297,82.383,21.568,72.37,40.707,145.471,60.842,218.247,14.997,54.202,33.449,108.17,45.45,163.123-1.18,44.441-11.325,86.213-5.845,131.006,6.432,52.572,31.726,95.587,46.549,145.474-4.244,5.492-6.284,8.91-10.541,19.913-24.833,16.46-30.052,64.691-35.01,91.06-7.857,41.782-11.593,84.133-15.839,126.388-1.51,57.623-14.301,109.407-26.65,165.568-6.496,45.835-12.117,149.779-81.045,137.232-31.419-5.719-61.292-16.45-93.288-19.724-38.331-3.923-77.057-0.066-113.869,11.331-36.763,11.381-72.017,29.791-101.736,54.326-21.073,17.397-41.077,35.388-30.152,64.346,21.524,57.058,85.001,98.398,134.733,128.5,15.63,13.451,36.802,28.097,42.264,49.292,5.468,21.221-2.831,43.778-19.866,56.881-27.105,20.849-64.1,29.466-95.039,42.917-37.82,16.443-69.647,36.405-92.503,71.368-27.59,28.299-23.468,56.081-15.779,92.313,34.081,27.368,57.38,79.194,75.527,117.72,34.312,72.844,62.71,148.335,99.969,219.818,14.762,28.322,44.387,100.056,84.969,100.211,31.197,0.119,48.169-37.082,70.966-52.302,12.849-11.584,17.652-3.975,24.021,9.79,24.25,52.413,33.834,113.405,44.778,169.513,22.853,98.865,51.52,195.365,79.463,292.798,17.382,60.609,30.395,122.774,51.902,182.113,6.346,8.179,12.052,18.824,24.151,17.735,25.039-16.763,34.955-66.698,65.81-30.069,48.706,57.822,107.527,106.057,165.042,154.918,24.175,13.695,31.245,13.901,54.348,1.71,20.741-10.945,32.489-9.859,53.214,1.765,43.53,24.414,86.995,48.945,130.492,73.418,77.344,12.45,154.689,24.899,232.033,37.349" stroke-width="2.64520001"/>
    <path id="path209" d="m714.906,585.35c0.701,19.614-0.23,35.869-5.018,54.588-7.242,28.314-3.888,54.639-0.574,83.763,20.817,76.087,40.628,152.448,60.999,228.654,14.464,54.108,32.693,108.249,43.08,163.323-1.792,44.282-12.099,86.012-6.929,130.671,6.162,53.22,31.542,98.926,45.636,149.962-5.137,3.389-7.597,5.585-12.586,13.966-26.767,5.254-33.864,60.549-38.076,81.148-8.229,40.244-12.145,81.185-15.748,122.051-0.414,30.904,1.872,62.418-3.482,92.992-4.403,25.143-10.417,50.075-15.872,75.001-6.664,47.021-11.952,142.299-73.317,153.64-26.656,4.927-60.082-10.694-86.145-15.129-32.096-5.461-64.77-6.409-96.983-1.269-40.309,6.432-79.226,21.776-113.338,44.155-19.744,12.954-51.264,33.855-59.363,57.745-10.156,29.957,19.37,62.67,38.001,82.526,23.525,25.073,50.95,45.478,79.899,63.793,26.817,23.166,95.891,68.25,53.83,109.281-21.382,20.858-60.308,26.323-87.758,33.714-41.404,11.148-80.229,23.688-113.091,52.156-35.959,28.45-31.767,55.04-21.857,97.074,36.594,42.504,60.18,92.048,82.297,143.118,32.514,75.078,63.324,151.65,105.81,221.834,16.793,27.741,52.231,90.813,93.805,78.813,24.033-6.937,43.98-29.567,66.164-40.559,11.68-10.215,23.895,37.018,26.167,43.633,21.066,61.339,34.639,124.535,47.666,187.963,22.126,88.151,50.124,174.49,73.315,262.316,15.016,56.868,25.637,116.084,47.987,170.703,11.313,10.579,13.294,13.622,25.679,3.423,8.644-10.686,18.211-33.478,32.243-38.248,16.636-5.655,25.801,15.854,34.414,26.159,48.455,57.975,110.837,105.78,167.927,154.784,22.712,7.036,28.439-2.703,47.529-12.117,21.823-10.761,36.443-1.719,56.516,8.853,43.369,22.84,86.737,45.679,130.106,68.519,75.928,12.187,151.857,24.374,227.786,36.56" stroke-width="2.67740011"/>
    <path id="path211" d="m728.608,585.834c0.565,18.651-1.148,32.253-5.903,49.649-8.321,30.444-1.691,62.847,2.236,93.604,20.012,77.536,39.762,155.14,59.763,232.679,13.331,51.682,30.355,103.64,38.77,156.412-2.418,43.834-13.063,85.178-8.041,129.425,6.227,54.862,31.6,104.333,45.158,157.418-6.044,1.411-8.94,2.414-14.703,8.182-25.291-4.035-34.359,41.635-38.576,58.124-10.64,41.597-14.99,84.593-18.698,127.259-0.398,34.493,3.562,69.956,0.538,104.338-2.024,23.009-7.764,45.933-12.54,68.466-7.471,53.788-13.222,136.131-71.661,160.263-24.354,10.057-47.576,3.031-72.237-1.981-32.49-6.603-65.244-10.716-98.438-7.955-65.418,5.442-147.493,37.972-183.607,96.471-34.087,55.216,46.557,116.558,84.504,144.721,25.529,23.835,57.095,46.142,78.072,74.37,10.697,14.396,18.339,33.332,4.593,48.626-16.905,18.81-56.43,20.832-79.242,25.186-42.123,8.041-84.139,15.526-122.776,34.823-41.816,25.798-38.132,54.158-27.719,98.629,41.577,54.194,63.957,117.903,90.746,180.102,31.506,73.151,64.948,150.972,115.93,213.012,21.758,26.477,53.805,62.108,91.334,46.988,11.566-4.66,21.404-12.925,33.024-17.364,10.048-3.838,16.213-2.144,21.73-12.794,5.491,4.424,7.944,11.838,10.743,18.367,9.185,21.422,16.534,43.738,23.785,65.867,21.151,64.555,36.05,130.356,50.523,196.66,22.417,81.554,48.19,161.95,68.232,244.168,12.214,50.109,19.907,106.053,44.179,152.218,10.939,12.577,21.241-6.271,26.327-13.629,6.154-9.376,16.658-30.455,30.445-29.979,14.736,0.509,28.281,28.366,36.847,37.792,25.612,28.184,54.132,53.832,82.463,79.218,27.46,24.606,54.702,52.32,84.962,73.488,20.08-1.807,28.709-16.196,46.717-21.963,19.219-6.155,35.258,5.029,51.996,13.238,45.093,22.116,90.187,44.231,135.28,66.347,74.513,11.923,149.025,23.847,223.538,35.771" stroke-width="2.70970011"/>
    <path id="path213" d="m742.462,586.932c0.654,19.666-2.676,35.57-5.695,54.516-5.401,33.889,1.832,70.03,6.378,103.474,19.074,77.129,38.137,154.261,57.219,231.389,11.763,47.546,26.796,95.513,33.145,144.168-3.278,46.583-13.288,89.493-7.467,136.693,6.675,54.128,30.953,105.151,43.341,158.056-6.943-0.372-10.284-0.501-16.853,2.718-49.491-21.33-58.909,142.179-61.021,164.659-1.096,61.102,6.877,119.587-4.915,179.869-7.154,55.02-14.763,136.154-70.577,164.754-46.878,24.021-101.612-1.631-150.874-2.188-67.759-0.767-138.232,25.222-185.042,75.255-17.627,18.841-32.191,43.621-26.454,70.449,7.283,34.059,37.291,62.381,61.595,85.035,31.648,33.092,69.047,63.324,96.85,99.847,9.824,12.905,22.768,33.761,8.018,47.922-16.072,15.43-54.466,12.67-74.572,14.458-40.107,3.568-78.706,9.06-116.453,23.61-43.786,23.24-42.156,53.198-32.415,98.039,35.905,56.581,55.197,122.911,82.574,183.778,33.71,74.947,72.441,154.825,132.667,212.394,24.995,23.892,52.341,43.324,87.508,33.459,5.652-1.586,11.23-4.079,17.012-5.164,2.775-0.521,14.584,0.438,16.178-0.438,7.333-4.032,6.652-11.611,10.922-17.61,48.352,99.43,74.085,211.494,98.268,318.665,23.172,77.117,44.88,153.974,63.041,232.459,6.501,28.098,12.476,56.474,20.749,84.121,4.859,16.235,10.149,40.382,22.704,52.734,12.748-3.492,19.331-19.401,25.785-29.527,8.492-13.059,18.741-24.949,33.29-13.691,5.696,4.408,9.718,13.077,14.072,18.682,9.832,12.655,21.229,24.215,32.498,35.57,27.717,27.926,57.018,54.286,86.43,80.399,19.013,16.881,42.41,46.726,67.184,55.142,16.49-5.094,27.038-21.504,43.949-25.214,20.78-4.559,43.869,11.828,62.044,20.08,43.111,19.574,86.222,39.147,129.333,58.721,73.097,11.661,146.194,23.321,219.29,34.981" stroke-width="2.74189997"/>
    <path id="path215" d="m756.067,587.025c0.888,21.882-1.79,42.753-2.879,64.486-1.936,38.628,4.44,77.558,9.74,115.655,17.182,72.439,34.456,144.856,51.465,217.335,10.66,45.425,24.39,91.431,29.084,137.958-1.714,19.465-6.704,38.345-8.597,57.779-2.428,24.929-0.769,50.541,1.649,75.411,5.655,58.152,29.73,113.875,41.872,170.825-7.812-1.889-11.601-3.059-18.991-2.272-52.572-32.587-62.404,118.641-64.892,141.706-1.86,62.358,12.532,127.352,1.586,188.936-6.055,54.346-15.509,129.775-64.068,163.861-42.298,29.691-92.463,14.109-139.392,10.308-65.089-5.272-130.971,12.541-180.555,56.224-21.938,19.327-40.953,43.769-44.772,73.59-4.365,34.085,12.896,60.955,32.908,86.782,34.13,41.121,73.088,78.632,105.634,121,9.22,12.002,31.485,39.588,17.221,55.135-13.536,14.753-54.102,7.044-71.015,6.531-39.149-1.188-76.894-0.444-114.584,11.194-46.486,20.569-44.177,52.662-34.083,97.748,61.074,133.208,100.468,283.519,216.062,383.221,27.955,24.111,53.665,36.829,90.111,36.51,4.528-0.04,23.554,4.636,26.281,3.05,6.913-4.021,4.481-16.124,5.813-22.75,1.819-0.336,2.99,0.646,3.514,2.947,44.962,112.023,83.591,224.114,110.86,341.733,23.801,76.516,41.435,154.396,59.183,232.472,2.762,12.149,23.524,120.558,42.92,113.487,9.317-11.507,16.042-24.57,25.277-36.104,12.674-16.54,23.146-6.695,32.893,5.799,17.833,22.856,37.191,43.626,58.033,63.841,28.202,27.353,57.471,53.589,86.802,79.717,14.345,12.778,32.828,37.4,53.727,39.087,13.698-9.285,27.11-24.188,44.685-25.092,20.265-1.042,45.567,15.541,63.893,23.19,42.982,17.941,85.964,35.881,128.946,53.822,71.681,11.397,143.362,22.795,215.043,34.192" stroke-width="2.77419996"/>
    <path id="path217" d="m769.834,587.77c1.466,26.02,0.215,51.917,0.796,77.938,0.949,42.46,6.999,84.658,12.812,126.659,14.591,64.533,29.275,129.046,43.477,193.666,9.149,41.629,28.822,92.272,22.808,135.07-19.734,110.177,17.279,210.347,37.843,317.205-8.632-3.071-12.862-5.161-21.077-6.634-55.472-41.359-65.168,89.502-68.73,117.225-1.926,41.924-1.16,83.543,3.158,125.296,2.558,24.73,7.473,49.466,4.023,74.335-3.155,51.314-15.542,117.872-52.997,155.82-37.126,37.614-88.237,32.458-136.286,27.761-62.62-6.121-123.913,2.646-174.628,42.87-50.702,40.215-70.426,97.588-45.483,158.217,33.23,48.356,72.09,92.264,105.976,140.064,9.096,12.831,38.085,49.236,24.407,66.641-12.33,15.689-53.96,3.486-69.341,1.27-38.925-5.608-76.782-10.148-115.77-2.83-50.375,16.035-45.753,50.735-34.867,95.876,45.986,135.183,107.006,277.842,221.49,369.69,15.901,12.758,33.18,24.574,52.231,32.125,12.964,5.138,26.653,6.461,39.746,10.882,7.881,2.661,14.73,10.68,20.799,4.414,3.893-4.019-0.828-20.634-0.447-26.122,3.63,4.004,6.057,8.632,8.478,13.582,47.796,118.991,95.676,234.688,121.889,360.507,21.792,76.489,37.334,154.243,55.482,231.607,5.623,23.969,11.076,48.768,21.24,71.316,2.931,6.502,12.934,29.063,20.896,13.622,7.134-11.478,13.552-26.097,24.941-34.112,14.108-9.544,23.367,10.796,29.982,19.565,19.755,26.19,44.068,49.157,67.714,71.752,28.163,26.911,57.227,52.838,86.072,79.01,12.999,11.794,25.83,27.953,45.218,26.371,13.521-10.945,25.874-22.812,44.452-21.683,19.913,1.21,43.618,15.428,62.191,22.496,44.53,16.946,89.061,33.892,133.591,50.838,70.265,11.134,140.53,22.269,210.795,33.403" stroke-width="2.80649996"/>
    <path id="path219" d="m783.728,589.033c5.714,76.502,9.845,151.884,20.121,228.104,12.636,59.403,25.282,118.805,37.273,178.342,8.241,40.92,17.68,78.057,8.765,119.479-8.039,53.635,4.703,108.143,11.65,161.247,7.674,58.654,25.267,115.792,35.27,174.08-9.382-3.848-14.036-6.705-23.066-10.215-56.139-46.615-66.719,56.012-72.387,91.941-2.952,44.953-2.738,89.754,2.142,134.566,2.795,25.668,9.03,51.598,9.177,77.468,1.529,49.608-16.124,113.898-48.755,151.793-33.34,38.717-81.765,41.964-129.318,37.62-53.404-4.879-105.089-4.895-152.609,23.987-57.601,35.009-86.848,95.811-76.801,162.135,28.867,53.822,65.31,102.376,97.331,154.229,9.828,15.915,41.436,60.013,28.216,80.743-12.137,19.031-53.179,4.13-69.346,0.424-39.848-9.133-78.659-18.793-119.833-16.778-54.989,9.653-47.774,47.139-35.904,92.615,37.977,135.265,118.683,271.293,231.631,357.19,15.997,12.166,32.946,22.937,51.1,31.587,12.945,6.168,26.952,10.332,38.694,18.757,7.584,5.442,11.477,13.851,14.247,2.338,2.078-8.635-4.422-20.652-5.079-29.516,8.132,6.699,13.611,22.415,18.525,31.494,29.596,70.591,61.587,140.453,89.094,211.892,20.086,52.165,29.73,108.149,39.855,162.904,19.151,73.719,32.696,148.657,51.095,222.526,2.157,8.658,25.846,101.253,42.358,60.983,5.247-8.545,12.304-25.521,24.782-25.19,14.45,1.145,26.015,27.369,34.278,37.053,23.728,27.812,50.527,53.1,77.126,78.114,25.434,23.919,50.661,48.734,77.27,71.344,12.104,10.286,21.521,15.503,37.677,13.81,15.158-12.379,27.404-20.378,47.45-15.301,21.09,5.341,41.91,14.395,62.499,21.467,44.396,15.249,88.793,30.498,133.19,45.747,68.849,10.871,137.698,21.742,206.547,32.614" stroke-width="2.83870006"/>
    <path id="path221" d="m797.699,590.609c7.598,82.768,14.98,165.052,25.629,247.538,10.291,52.568,22.926,105.506,29.635,158.688,2.396,18.996,3.953,39.032,2.81,58.184-1.043,17.47-7.687,33.34-9.85,50.682-2.186,60.547,20.755,119.571,28.644,179.098,7.882,59.472,22.502,117.855,31.465,177.174-8.594-3.714-16.752-8.311-24.918-12.866-12.155-9.812-28.24-25.49-44.731-16.16-22.736,12.862-26.757,61.092-30.997,82.759-6.813,76.684,2.036,148.13,12.346,223.703,7.72,45.218-10.675,100.262-35.052,138.035-28.83,44.674-75.896,60.221-127.133,57.705-51.818-2.545-98.215-11.713-146.463,14.773-56.004,30.744-84.301,90.823-86.262,152.757,21.935,55.011,52.796,104.32,82.284,155.423,13.843,23.99,47.565,73.141,34.472,103.476-11.945,27.674-57.91,9.747-78.244,4.078-39.561-11.028-78.05-23.695-119.237-26.836-16.481,0.501-37.132,1.202-46.117,17.767-10.763,19.843,2.463,51.358,7.823,70.574,30.578,111.289,101.585,212.026,182.992,292.324,29.68,29.276,61.901,55.853,97.659,77.384,21.037,12.667,38.241,24.163,56.127,40.636,5.022-12.607-7.641-29.915-8.091-43.144,13.04,17.537,22.713,38.345,33.823,57.122,31.384,70.546,67.073,140.062,93.282,212.785,19.794,54.921,27.842,114.681,37.203,172.018,17.692,74.368,28.908,151.218,51.324,224.363,6.509,21.239,19.925,56.74,38.285,25.238,5.866-7.398,13.795-21.656,24.805-10.959,16.803,14.959,28.928,37.797,44.486,54.503,27.557,29.589,57.132,57.301,86.693,84.858,18.179,16.947,36.28,38.848,56.924,52.789,11.832,7.99,22.138,6.772,35.689,6.921,34.298-24.556,76.772,0.144,113.171,11.289,44.263,13.552,88.525,27.104,132.788,40.656,67.433,10.608,134.867,21.216,202.3,31.824" stroke-width="2.87100005"/>
    <path id="path223" d="m811.688,592.254c9.159,86.742,18.803,173.287,29.386,259.873,7.694,44.106,18.925,89.29,16.228,134.366-2.202,36.794-16.994,71.751-17.861,108.149,8.468,68.186,38.586,131.211,48.356,199.143,8.599,59.795,19.522,119.25,27.367,179.153-9.42-3.692-18.153-8.899-26.587-14.434-11.19-9.422-28.54-28.262-45.211-24.358-23.5,5.504-29.024,48.359-33.419,66.327-9.071,78.344-4.193,154.773,10.572,232,18.232,93.255-40.174,199.519-142.034,203.898-45.811,1.969-90.78-15.207-134.993,2.629-58.703,23.681-87.282,85.358-97.165,144.212,16.564,60.983,45.074,115.875,73.447,171.981,13.844,27.375,41.494,70.421,33.66,103.13-8.032,33.539-47.382,24.97-72.284,18.85-45.91-11.285-89.537-29.333-136.31-37.347-16.224-1.39-39.837-4.379-50.694,11.455-12.957,18.898,2.262,53.545,7.586,72.153,34.518,110.046,115.034,207.268,198.307,284.757,45.157,42.021,101.051,71.412,142.103,117.154,0.963-16.618-12.998-33.363-14.577-49.872,21.268,27.079,37.13,59.676,56.357,88.296,32.592,69.475,69.936,139.727,92.372,213.427,17.52,57.549,24.632,119.099,33.198,178.419,8.965,40.556,17.217,81.26,26.079,121.838,6.231,28.529,11.409,58.817,22.943,85.822,3.737,8.749,9.6,26.059,22.175,22.856,6.489-1.653,9.455-10.132,14.81-13.335,10.102-14.178,18.73-1.061,25.014,6.982,35.102,58.007,94.173,104.525,142.998,150.52,13.006,12.252,27.582,32.319,44.669,39.203,10.947,4.41,22.562,0.786,33.849,3.286,17.609-12.644,35.039-6.245,53.946-1.165,20.707,5.563,41.415,11.126,62.122,16.689,44.129,11.855,88.258,23.71,132.386,35.566,66.017,10.345,132.035,20.69,198.052,31.035" stroke-width="2.90319991"/>
    <path id="path225" d="m825.623,593.685c10.118,87.726,19.665,175.532,31.368,263.065,6.646,41.888,10.586,82.115-3.727,122.793-12.517,35.575-26.443,64.686-21.328,103.442,18.361,74.392,58.408,143.513,69.052,219.736,8.358,59.853,16.445,119.973,23.127,180.039-10.428-3.203-18.989-8.875-28.032-14.772-11.962-10.062-31.102-32.055-48.829-30.101-21.187,2.335-27.186,33.332-32.149,48.944-11.565,78.842-9.158,158.554,6.599,236.635,4.582,21.701,12.211,45.359,9.878,67.81-2.107,20.279-12.214,41.34-21.128,59.388-21.911,44.365-58.423,77.241-108.123,85.65-24.726,4.184-49.882,2.568-74.678,0.023-21.478-2.204-45.54-7.858-66.658-1.148-51.615,16.4-75.304,80.467-87.429,127.16,9.629,58.719,30.586,113.246,53.931,167.718,15.057,35.133,40.779,78.343,40.074,117.865-0.664,37.239-35.459,37.812-64.789,33.115-51.362-8.225-99.942-29.088-150.633-40.383-17.354-2.829-46.646-9.4-58.894,8.483-12.528,18.292,2.423,52.659,7.516,70.673,41.323,106.004,126.414,198.461,209.604,273.928,28.674,26.012,59.594,48.868,89.564,73.267,15.236,12.404,26.787,30.501,42.229,41.795-3.019-18.242-15.476-35.646-20.284-53.99,6.616,6.995,11.606,16.427,16.851,24.649,22.17,34.754,45.572,68.723,68.462,103.005,30.375,65.418,65.6,132.437,83.685,202.706,15.95,61.972,22.905,126.753,31.104,190.064,7.966,37.706,15.423,75.558,24.205,113.086,4.894,20.914,9.758,61.167,27.432,76.785,12.145,10.732,27.132-8.485,30.862-1.655,13.452-4.79,22.088,17.987,26.906,25.816,42.679,55.065,95.429,101.57,145.36,149.848,11.07,10.703,22.124,26.002,37.984,29.64,11.902,2.731,23.163-1.311,34.848,4.253,17.875-8.897,38.51-0.139,56.504,4.015,20.645,4.767,41.289,9.534,61.934,14.3,43.995,10.158,87.99,20.317,131.985,30.475,64.602,10.082,129.203,20.164,193.805,30.246" stroke-width="2.93549991"/>
    <path id="path227" d="m839.426,594.579c10.574,87.692,22.647,175.38,32.119,263.174,2.973,40.968-3.606,71.85-27.42,105.182-26.303,36.816-31.348,64.043-19.33,108.883,27.326,78.84,78.191,155.754,89.111,239.341,7.791,59.636,13.38,119.979,18.898,179.869-11.255-1.956-19.799-7.674-29.208-13.732-12.659-10.262-28.879-29.321-45.287-33.525-22.261-5.703-29.942,14.422-37.386,31.558-14.357,78.148-13.556,159.29,1.006,237.367,4.993,25.071,13.769,51.332,14.66,77.016,0.712,20.533-7.196,37.64-16.212,55.69-20.095,40.231-50.432,74.791-94.242,89.086-46.252,15.092-91.906,3.426-138.938,2.892-54.242-0.615-71.963,60.63-85.223,104.107,5.225,61.65,22.919,120.097,43.302,178.242,13.725,39.152,36.83,84.655,36.161,127.12-0.621,39.417-36.525,39.89-67.646,34.509-50.102-8.663-98.052-28.108-147.287-40.468-18.453-3.786-49.166-12.009-65.652,2.362-19.011,16.572-3.639,54.128,1.404,73.262,50.56,101.349,136.454,189.365,219.971,264.437,27.465,24.688,57.26,47.024,83.883,72.618,8.472,8.145,23.411,33.487,34.219,35.525-3.931-19.569-21.603-36.906-23.614-56.511,10.934,12.142,19.117,27.493,28.265,40.961,30.069,44.271,59.514,88.961,89.143,133.529,26.53,59.02,55.983,119.333,70.271,182.846,15.133,67.268,21.977,136.664,30.15,205.014,7.839,37.217,14.435,75.234,26.057,111.525,3.688,11.516,10.071,38.28,23.027,44.495,13.938,6.687,28.101-16.761,29.772,8.266,13.619,6.581,23.907,30.838,32.699,42.316,45.447,53.037,96.142,105.788,148.756,151.847,20.053,17.555,42.372,7.117,62.974,21.759,37.784-4.233,82.74,12.004,120.115,19.214,43.861,8.461,87.722,16.923,131.583,25.384,63.186,9.819,126.372,19.637,189.557,29.456" stroke-width="2.9677"/>
    <path id="path229" d="m853.058,594.778c5.875,47.75,11.75,95.499,17.625,143.249,5.149,41.846,18.297,89.919,12.748,131.992-4.171,31.63-23.08,50.247-46.564,69.586-11.576,9.532-24.668,19.121-30.845,33.356-12.183,28.073,3.417,62.982,13.272,89.156,19.286,45.505,41.733,89.476,62.902,134.111,17.587,37.084,38.156,76.873,43.806,118.048,8.264,60.221,10.74,122.432,15.141,183.059-42.756,0.751-77.85-83.713-113.696-30.79-19.436,89.583-17.314,182.964,1.474,272.489,4.821,22.969,13.624,47.977,11.473,71.762-2.043,22.587-16.516,44.23-28.969,62.508-37.083,54.429-92.215,76.977-156.959,75.261-25.807-0.684-66.403-12.295-90.481,0.47-22.842,12.11-28.858,50.778-35.453,73.221,3.866,82.538,28.441,160.336,50.615,239.315,9.067,32.295,39.286,110.348-11.045,123.033-23.421,5.903-51.872-2.899-74.349-8.811-32.94-8.664-65.144-19.904-98.096-28.527-21.545-5.638-61.453-19.269-82.488-5.018-22.684,15.368-10.192,50.29-5.637,71.483,58.225,91.119,135.543,171.336,214.756,244.41,24.737,22.819,50.668,44.473,74.589,68.161,13.321,13.191,24.109,32.696,39.672,43.051,3.356-18.599-23.001-40.941-25.324-59.857,18.375,18.631,32.218,44.914,46.596,66.501,34.937,52.455,69.5,105.157,104.428,157.618,23.263,54.865,45.983,109.925,57.102,168.689,13.249,70.022,19.974,141.375,28.157,212.106,7.263,32.13,13.036,67.018,27.761,96.899,5.122,10.395,11.128,21.751,23.885,22.409,4.827,0.249,11.009-5.359,15.776-2.857,7.403,3.886,6.721,24.3,7.351,30.13,43.664,64.744,101.623,116.836,156.432,171.933,13.097,13.165,23.72,28.177,43.024,30.813,18.541,2.532,29.873,1.722,45.152,15.771,71.33,6.409,142.719,21.237,213.518,32.189,74.649,11.548,149.298,23.096,223.947,34.644" stroke-width="3"/>
   </g>
  </g>
 </g>
</svg>
